%TF.GenerationSoftware,KiCad,Pcbnew,(6.0.4)*%
%TF.CreationDate,2022-04-18T16:03:53+05:30*%
%TF.ProjectId,esp32 switch,65737033-3220-4737-9769-7463682e6b69,rev?*%
%TF.SameCoordinates,Original*%
%TF.FileFunction,Copper,L2,Bot*%
%TF.FilePolarity,Positive*%
%FSLAX46Y46*%
G04 Gerber Fmt 4.6, Leading zero omitted, Abs format (unit mm)*
G04 Created by KiCad (PCBNEW (6.0.4)) date 2022-04-18 16:03:53*
%MOMM*%
%LPD*%
G01*
G04 APERTURE LIST*
G04 Aperture macros list*
%AMRoundRect*
0 Rectangle with rounded corners*
0 $1 Rounding radius*
0 $2 $3 $4 $5 $6 $7 $8 $9 X,Y pos of 4 corners*
0 Add a 4 corners polygon primitive as box body*
4,1,4,$2,$3,$4,$5,$6,$7,$8,$9,$2,$3,0*
0 Add four circle primitives for the rounded corners*
1,1,$1+$1,$2,$3*
1,1,$1+$1,$4,$5*
1,1,$1+$1,$6,$7*
1,1,$1+$1,$8,$9*
0 Add four rect primitives between the rounded corners*
20,1,$1+$1,$2,$3,$4,$5,0*
20,1,$1+$1,$4,$5,$6,$7,0*
20,1,$1+$1,$6,$7,$8,$9,0*
20,1,$1+$1,$8,$9,$2,$3,0*%
G04 Aperture macros list end*
%TA.AperFunction,ComponentPad*%
%ADD10R,2.300000X2.000000*%
%TD*%
%TA.AperFunction,ComponentPad*%
%ADD11C,2.300000*%
%TD*%
%TA.AperFunction,ComponentPad*%
%ADD12R,1.700000X1.700000*%
%TD*%
%TA.AperFunction,ComponentPad*%
%ADD13O,1.700000X1.700000*%
%TD*%
%TA.AperFunction,ComponentPad*%
%ADD14R,1.980000X3.960000*%
%TD*%
%TA.AperFunction,ComponentPad*%
%ADD15O,1.980000X3.960000*%
%TD*%
%TA.AperFunction,ComponentPad*%
%ADD16R,1.980000X1.980000*%
%TD*%
%TA.AperFunction,ComponentPad*%
%ADD17C,1.980000*%
%TD*%
%TA.AperFunction,ComponentPad*%
%ADD18C,1.935000*%
%TD*%
%TA.AperFunction,ComponentPad*%
%ADD19RoundRect,0.250000X-0.725000X0.600000X-0.725000X-0.600000X0.725000X-0.600000X0.725000X0.600000X0*%
%TD*%
%TA.AperFunction,ComponentPad*%
%ADD20O,1.950000X1.700000*%
%TD*%
%TA.AperFunction,ComponentPad*%
%ADD21RoundRect,0.250000X-0.600000X-0.600000X0.600000X-0.600000X0.600000X0.600000X-0.600000X0.600000X0*%
%TD*%
%TA.AperFunction,ComponentPad*%
%ADD22C,1.700000*%
%TD*%
%TA.AperFunction,SMDPad,CuDef*%
%ADD23RoundRect,0.150000X0.587500X0.150000X-0.587500X0.150000X-0.587500X-0.150000X0.587500X-0.150000X0*%
%TD*%
%TA.AperFunction,SMDPad,CuDef*%
%ADD24R,0.900000X1.200000*%
%TD*%
%TA.AperFunction,SMDPad,CuDef*%
%ADD25R,2.000000X1.500000*%
%TD*%
%TA.AperFunction,SMDPad,CuDef*%
%ADD26R,2.000000X3.800000*%
%TD*%
%TA.AperFunction,SMDPad,CuDef*%
%ADD27RoundRect,0.250000X-0.450000X0.350000X-0.450000X-0.350000X0.450000X-0.350000X0.450000X0.350000X0*%
%TD*%
%TA.AperFunction,SMDPad,CuDef*%
%ADD28RoundRect,0.250000X0.337500X0.475000X-0.337500X0.475000X-0.337500X-0.475000X0.337500X-0.475000X0*%
%TD*%
%TA.AperFunction,SMDPad,CuDef*%
%ADD29RoundRect,0.250000X-0.337500X-0.475000X0.337500X-0.475000X0.337500X0.475000X-0.337500X0.475000X0*%
%TD*%
%TA.AperFunction,ViaPad*%
%ADD30C,0.800000*%
%TD*%
%TA.AperFunction,Conductor*%
%ADD31C,1.000000*%
%TD*%
%TA.AperFunction,Conductor*%
%ADD32C,0.500000*%
%TD*%
%TA.AperFunction,Conductor*%
%ADD33C,0.250000*%
%TD*%
%TA.AperFunction,Conductor*%
%ADD34C,2.000000*%
%TD*%
G04 APERTURE END LIST*
D10*
%TO.P,PS1,1,AC/L*%
%TO.N,Net-(J1-Pad1)*%
X120650000Y-87670000D03*
D11*
%TO.P,PS1,2,AC/N*%
%TO.N,Net-(J1-Pad2)*%
X120650000Y-92670000D03*
%TO.P,PS1,3,-Vout*%
%TO.N,GND*%
X147320000Y-91480000D03*
%TO.P,PS1,4,+Vout*%
%TO.N,VCC*%
X147320000Y-101680000D03*
%TD*%
D12*
%TO.P,J6,1,Pin_1*%
%TO.N,VCC*%
X124460000Y-81280000D03*
D13*
%TO.P,J6,2,Pin_2*%
%TO.N,Net-(J6-Pad2)*%
X127000000Y-81280000D03*
%TO.P,J6,3,Pin_3*%
%TO.N,Net-(J6-Pad3)*%
X129540000Y-81280000D03*
%TO.P,J6,4,Pin_4*%
%TO.N,Net-(J6-Pad4)*%
X132080000Y-81280000D03*
%TO.P,J6,5,Pin_5*%
%TO.N,Net-(J6-Pad5)*%
X134620000Y-81280000D03*
%TO.P,J6,6,Pin_6*%
%TO.N,Net-(J6-Pad6)*%
X137160000Y-81280000D03*
%TO.P,J6,7,Pin_7*%
%TO.N,GND*%
X139700000Y-81280000D03*
%TD*%
D14*
%TO.P,J1,1,Pin_1*%
%TO.N,Net-(J1-Pad1)*%
X109360000Y-99060000D03*
D15*
%TO.P,J1,2,Pin_2*%
%TO.N,Net-(J1-Pad2)*%
X104360000Y-99060000D03*
%TO.P,J1,3,Pin_3*%
%TO.N,Net-(J1-Pad3)*%
X99360000Y-99060000D03*
%TO.P,J1,4,Pin_4*%
%TO.N,Net-(J1-Pad4)*%
X94360000Y-99060000D03*
%TD*%
D16*
%TO.P,K3,A1*%
%TO.N,Net-(D3-Pad2)*%
X156460000Y-57500000D03*
D17*
%TO.P,K3,A2*%
%TO.N,VCC*%
X156460000Y-69500000D03*
D18*
%TO.P,K3,COM*%
%TO.N,Net-(J1-Pad2)*%
X154460000Y-63500000D03*
D17*
%TO.P,K3,NC*%
%TO.N,unconnected-(K3-PadNC)*%
X168660000Y-57500000D03*
%TO.P,K3,NO*%
%TO.N,Net-(J2-Pad1)*%
X168660000Y-69500000D03*
%TD*%
D14*
%TO.P,J2,1,Pin_1*%
%TO.N,Net-(J2-Pad1)*%
X170180000Y-99060000D03*
D15*
%TO.P,J2,2,Pin_2*%
%TO.N,Net-(J2-Pad2)*%
X165180000Y-99060000D03*
%TO.P,J2,3,Pin_3*%
%TO.N,Net-(J1-Pad2)*%
X160180000Y-99060000D03*
%TD*%
D16*
%TO.P,K1,A1*%
%TO.N,Net-(D1-Pad2)*%
X107700000Y-87280000D03*
D17*
%TO.P,K1,A2*%
%TO.N,VCC*%
X107700000Y-75280000D03*
D18*
%TO.P,K1,COM*%
%TO.N,Net-(J1-Pad2)*%
X109700000Y-81280000D03*
D17*
%TO.P,K1,NC*%
%TO.N,unconnected-(K1-PadNC)*%
X95500000Y-87280000D03*
%TO.P,K1,NO*%
%TO.N,Net-(J1-Pad4)*%
X95500000Y-75280000D03*
%TD*%
D19*
%TO.P,J5,1,Pin_1*%
%TO.N,VCC*%
X117140000Y-62330000D03*
D20*
%TO.P,J5,2,Pin_2*%
%TO.N,Net-(J5-Pad2)*%
X117140000Y-64830000D03*
%TO.P,J5,3,Pin_3*%
%TO.N,Net-(J5-Pad3)*%
X117140000Y-67330000D03*
%TO.P,J5,4,Pin_4*%
%TO.N,Net-(J5-Pad4)*%
X117140000Y-69830000D03*
%TO.P,J5,5,Pin_5*%
%TO.N,Net-(J5-Pad5)*%
X117140000Y-72330000D03*
%TO.P,J5,6,Pin_6*%
%TO.N,GND*%
X117140000Y-74830000D03*
%TD*%
D16*
%TO.P,K4,A1*%
%TO.N,Net-(D4-Pad2)*%
X156460000Y-75280000D03*
D17*
%TO.P,K4,A2*%
%TO.N,VCC*%
X156460000Y-87280000D03*
D18*
%TO.P,K4,COM*%
%TO.N,Net-(J1-Pad2)*%
X154460000Y-81280000D03*
D17*
%TO.P,K4,NC*%
%TO.N,unconnected-(K4-PadNC)*%
X168660000Y-75280000D03*
%TO.P,K4,NO*%
%TO.N,Net-(J2-Pad2)*%
X168660000Y-87280000D03*
%TD*%
D21*
%TO.P,J4,1,Pin_1*%
%TO.N,VCC*%
X144780000Y-63500000D03*
D22*
%TO.P,J4,2,Pin_2*%
%TO.N,GND*%
X147320000Y-63500000D03*
%TO.P,J4,3,Pin_3*%
%TO.N,Net-(J4-Pad3)*%
X144780000Y-66040000D03*
%TO.P,J4,4,Pin_4*%
%TO.N,Net-(J4-Pad4)*%
X147320000Y-66040000D03*
%TO.P,J4,5,Pin_5*%
%TO.N,Net-(J4-Pad5)*%
X144780000Y-68580000D03*
%TO.P,J4,6,Pin_6*%
%TO.N,Net-(J4-Pad6)*%
X147320000Y-68580000D03*
%TO.P,J4,7,Pin_7*%
%TO.N,Net-(J4-Pad7)*%
X144780000Y-71120000D03*
%TO.P,J4,8,Pin_8*%
%TO.N,Net-(J4-Pad8)*%
X147320000Y-71120000D03*
%TO.P,J4,9,Pin_9*%
%TO.N,Net-(J4-Pad9)*%
X144780000Y-73660000D03*
%TO.P,J4,10,Pin_10*%
%TO.N,Net-(J4-Pad10)*%
X147320000Y-73660000D03*
%TD*%
D16*
%TO.P,K2,A1*%
%TO.N,Net-(D2-Pad2)*%
X107700000Y-69500000D03*
D17*
%TO.P,K2,A2*%
%TO.N,VCC*%
X107700000Y-57500000D03*
D18*
%TO.P,K2,COM*%
%TO.N,Net-(J1-Pad2)*%
X109700000Y-63500000D03*
D17*
%TO.P,K2,NC*%
%TO.N,unconnected-(K2-PadNC)*%
X95500000Y-69500000D03*
%TO.P,K2,NO*%
%TO.N,Net-(J1-Pad3)*%
X95500000Y-57500000D03*
%TD*%
D23*
%TO.P,Q3,1,B*%
%TO.N,Net-(Q3-Pad1)*%
X143177500Y-95570000D03*
%TO.P,Q3,2,E*%
%TO.N,GND*%
X143177500Y-97470000D03*
%TO.P,Q3,3,C*%
%TO.N,Net-(D3-Pad2)*%
X141302500Y-96520000D03*
%TD*%
D24*
%TO.P,D1,1,K*%
%TO.N,VCC*%
X136270000Y-86360000D03*
%TO.P,D1,2,A*%
%TO.N,Net-(D1-Pad2)*%
X132970000Y-86360000D03*
%TD*%
D25*
%TO.P,U1,1,ADJ*%
%TO.N,GND*%
X132690000Y-66280000D03*
%TO.P,U1,2,VO*%
%TO.N,Net-(U1-Pad2)*%
X132690000Y-68580000D03*
D26*
X126390000Y-68580000D03*
D25*
%TO.P,U1,3,VI*%
%TO.N,VCC*%
X132690000Y-70880000D03*
%TD*%
D23*
%TO.P,Q4,1,B*%
%TO.N,Net-(Q4-Pad1)*%
X143177500Y-100650000D03*
%TO.P,Q4,2,E*%
%TO.N,GND*%
X143177500Y-102550000D03*
%TO.P,Q4,3,C*%
%TO.N,Net-(D4-Pad2)*%
X141302500Y-101600000D03*
%TD*%
%TO.P,Q2,1,B*%
%TO.N,Net-(Q2-Pad1)*%
X143177500Y-90490000D03*
%TO.P,Q2,2,E*%
%TO.N,GND*%
X143177500Y-92390000D03*
%TO.P,Q2,3,C*%
%TO.N,Net-(D2-Pad2)*%
X141302500Y-91440000D03*
%TD*%
D24*
%TO.P,D4,1,K*%
%TO.N,VCC*%
X136270000Y-101600000D03*
%TO.P,D4,2,A*%
%TO.N,Net-(D4-Pad2)*%
X132970000Y-101600000D03*
%TD*%
D23*
%TO.P,Q1,1,B*%
%TO.N,Net-(Q1-Pad1)*%
X143177500Y-85410000D03*
%TO.P,Q1,2,E*%
%TO.N,GND*%
X143177500Y-87310000D03*
%TO.P,Q1,3,C*%
%TO.N,Net-(D1-Pad2)*%
X141302500Y-86360000D03*
%TD*%
D24*
%TO.P,D3,1,K*%
%TO.N,VCC*%
X136270000Y-96520000D03*
%TO.P,D3,2,A*%
%TO.N,Net-(D3-Pad2)*%
X132970000Y-96520000D03*
%TD*%
D27*
%TO.P,R4,1*%
%TO.N,Net-(Q4-Pad1)*%
X137160000Y-59960000D03*
%TO.P,R4,2*%
%TO.N,Net-(R4-Pad2)*%
X137160000Y-61960000D03*
%TD*%
D24*
%TO.P,D2,1,K*%
%TO.N,VCC*%
X136270000Y-91440000D03*
%TO.P,D2,2,A*%
%TO.N,Net-(D2-Pad2)*%
X132970000Y-91440000D03*
%TD*%
D28*
%TO.P,C1,1*%
%TO.N,VCC*%
X120417500Y-81280000D03*
%TO.P,C1,2*%
%TO.N,GND*%
X118342500Y-81280000D03*
%TD*%
D27*
%TO.P,R3,1*%
%TO.N,Net-(Q3-Pad1)*%
X132080000Y-59960000D03*
%TO.P,R3,2*%
%TO.N,Net-(R3-Pad2)*%
X132080000Y-61960000D03*
%TD*%
%TO.P,R2,1*%
%TO.N,Net-(Q2-Pad1)*%
X127000000Y-59960000D03*
%TO.P,R2,2*%
%TO.N,Net-(R2-Pad2)*%
X127000000Y-61960000D03*
%TD*%
%TO.P,R1,1*%
%TO.N,Net-(Q1-Pad1)*%
X121920000Y-59960000D03*
%TO.P,R1,2*%
%TO.N,Net-(R1-Pad2)*%
X121920000Y-61960000D03*
%TD*%
D29*
%TO.P,C2,1*%
%TO.N,GND*%
X118342500Y-78740000D03*
%TO.P,C2,2*%
%TO.N,Net-(J4-Pad1)*%
X120417500Y-78740000D03*
%TD*%
D30*
%TO.N,VCC*%
X136270000Y-88191300D03*
%TO.N,Net-(D1-Pad2)*%
X131892700Y-85356500D03*
X141182000Y-85356500D03*
%TO.N,Net-(D2-Pad2)*%
X113368000Y-69500000D03*
%TO.N,Net-(D3-Pad2)*%
X142240000Y-93980000D03*
X142240000Y-88900000D03*
X141561700Y-82865300D03*
%TO.N,Net-(D4-Pad2)*%
X150295600Y-76282200D03*
%TO.N,GND*%
X143168400Y-86360000D03*
X134326800Y-67832200D03*
%TO.N,Net-(J4-Pad4)*%
X119437500Y-73705200D03*
X123064600Y-79893900D03*
%TO.N,Net-(J4-Pad5)*%
X140550400Y-70772900D03*
X135935500Y-65153300D03*
%TO.N,Net-(J5-Pad2)*%
X114099700Y-70207500D03*
X120595200Y-76861000D03*
X125769400Y-77156100D03*
X129798000Y-73047700D03*
%TO.N,Net-(J5-Pad3)*%
X113311600Y-64921900D03*
X143303300Y-62397200D03*
%TO.N,Net-(J5-Pad4)*%
X122655500Y-72795700D03*
%TO.N,Net-(J5-Pad5)*%
X129924400Y-60817300D03*
%TO.N,Net-(Q3-Pad1)*%
X141821100Y-98162000D03*
X116840000Y-80671700D03*
%TO.N,Net-(Q4-Pad1)*%
X143568800Y-99134200D03*
X114732500Y-78640900D03*
%TO.N,Net-(R1-Pad2)*%
X118440400Y-66445500D03*
%TO.N,Net-(R2-Pad2)*%
X123440800Y-69385000D03*
%TO.N,Net-(R3-Pad2)*%
X134599400Y-60495000D03*
%TO.N,Net-(R4-Pad2)*%
X136117400Y-58795600D03*
%TO.N,Net-(J4-Pad7)*%
X133623800Y-64893900D03*
X136395200Y-75894600D03*
%TO.N,Net-(J4-Pad9)*%
X134720700Y-64964700D03*
X138978000Y-76759900D03*
%TO.N,Net-(J6-Pad2)*%
X125094900Y-64900000D03*
X125038700Y-78490200D03*
%TO.N,Net-(J6-Pad3)*%
X133268000Y-73276100D03*
%TO.N,Net-(J6-Pad4)*%
X140097300Y-62043700D03*
%TO.N,Net-(J6-Pad5)*%
X141370000Y-63288500D03*
%TO.N,Net-(U1-Pad2)*%
X125542000Y-59652000D03*
%TD*%
D31*
%TO.N,Net-(J1-Pad1)*%
X109360000Y-98960000D02*
X120650000Y-87670000D01*
X109360000Y-99060000D02*
X109360000Y-98960000D01*
D32*
%TO.N,VCC*%
X146103300Y-62176700D02*
X144780000Y-63500000D01*
X147860700Y-62176700D02*
X146103300Y-62176700D01*
X149324920Y-65842920D02*
X149324919Y-63640919D01*
X152982000Y-69500000D02*
X149324920Y-65842920D01*
X149324919Y-63640919D02*
X147860700Y-62176700D01*
X155184000Y-69500000D02*
X152982000Y-69500000D01*
X150559520Y-82678420D02*
X155161100Y-87280000D01*
X155161100Y-87280000D02*
X156460000Y-87280000D01*
X151145111Y-76634080D02*
X150559520Y-77219671D01*
X150559520Y-77219671D02*
X150559520Y-82678420D01*
X150038791Y-74824000D02*
X151145111Y-75930320D01*
X149860000Y-74824000D02*
X150038791Y-74824000D01*
X155184000Y-69500000D02*
X149860000Y-74824000D01*
X151145111Y-75930320D02*
X151145111Y-76634080D01*
%TO.N,Net-(D4-Pad2)*%
X143812849Y-101600000D02*
X141302500Y-101600000D01*
X149860000Y-95552849D02*
X143812849Y-101600000D01*
X149860000Y-76717800D02*
X149860000Y-95552849D01*
X150295600Y-76282200D02*
X149860000Y-76717800D01*
%TO.N,VCC*%
X136270000Y-91440000D02*
X136270000Y-88191300D01*
X124460000Y-81280000D02*
X124460000Y-79979700D01*
X136270000Y-96520000D02*
X136270000Y-91440000D01*
X136270000Y-101600000D02*
X136270000Y-96520000D01*
X132690000Y-72080300D02*
X124790600Y-79979700D01*
X112220400Y-67249600D02*
X117140000Y-62330000D01*
X132690000Y-70880000D02*
X132690000Y-72080300D01*
X120417500Y-81280000D02*
X124460000Y-81280000D01*
X124790600Y-79979700D02*
X124460000Y-79979700D01*
X136270000Y-86360000D02*
X136270000Y-88191300D01*
X107700000Y-75280000D02*
X112220400Y-70759600D01*
X156460000Y-69500000D02*
X155184000Y-69500000D01*
X112220400Y-70759600D02*
X112220400Y-67249600D01*
%TO.N,Net-(D1-Pad2)*%
X141302500Y-86360000D02*
X141302500Y-85477000D01*
X141302500Y-85477000D02*
X141182000Y-85356500D01*
X107700000Y-87280000D02*
X108688229Y-87280000D01*
X112023230Y-83945000D02*
X129779700Y-83945000D01*
X111954115Y-84014115D02*
X112023230Y-83945000D01*
D33*
X131892700Y-86058000D02*
X131892700Y-85356500D01*
X132194700Y-86360000D02*
X131892700Y-86058000D01*
D32*
X108688229Y-87280000D02*
X111954115Y-84014115D01*
X111954115Y-84014115D02*
X111954115Y-84014114D01*
X129779700Y-83945000D02*
X132194700Y-86360000D01*
X132970000Y-86360000D02*
X132194700Y-86360000D01*
%TO.N,Net-(D2-Pad2)*%
X116653709Y-83245480D02*
X113431580Y-80023351D01*
D33*
X134620000Y-84694700D02*
X134620000Y-91440000D01*
D32*
X139700000Y-91440000D02*
X139700000Y-89235594D01*
X113431580Y-77677465D02*
X112919920Y-77165805D01*
X141302500Y-91440000D02*
X139700000Y-91440000D01*
X113431580Y-80023351D02*
X113431580Y-77677465D01*
D33*
X134620000Y-91440000D02*
X132970000Y-91440000D01*
D32*
X112919920Y-77165805D02*
X112919920Y-69948080D01*
X112919920Y-69948080D02*
X113368000Y-69500000D01*
X137476400Y-85617378D02*
X135679022Y-83820000D01*
X137476400Y-87011994D02*
X137476400Y-85617378D01*
X139700000Y-89235594D02*
X137476400Y-87011994D01*
X135679022Y-83820000D02*
X131168694Y-83820000D01*
D33*
X133745300Y-83820000D02*
X134620000Y-84694700D01*
D32*
X130594174Y-83245480D02*
X116653709Y-83245480D01*
X131168694Y-83820000D02*
X130594174Y-83245480D01*
D33*
%TO.N,Net-(D3-Pad2)*%
X135688700Y-102547000D02*
X132970000Y-99828300D01*
D32*
X141621435Y-88900000D02*
X139622480Y-86901045D01*
X142240000Y-88900000D02*
X141621435Y-88900000D01*
D33*
X132970000Y-99828300D02*
X132970000Y-96520000D01*
X136847900Y-102547000D02*
X135688700Y-102547000D01*
X141095800Y-96726700D02*
X141095800Y-98299100D01*
D32*
X141302500Y-94917500D02*
X142240000Y-93980000D01*
D33*
X141302500Y-96520000D02*
X141095800Y-96726700D01*
X141095800Y-98299100D02*
X136847900Y-102547000D01*
D32*
X141302500Y-96520000D02*
X141302500Y-94917500D01*
X139622480Y-84804520D02*
X141561700Y-82865300D01*
X139622480Y-86901045D02*
X139622480Y-84804520D01*
D33*
%TO.N,Net-(D4-Pad2)*%
X143656100Y-101600000D02*
X141302500Y-101600000D01*
X144254100Y-102198000D02*
X143656100Y-101600000D01*
X133745300Y-101600000D02*
X135367400Y-103222100D01*
X135367400Y-103222100D02*
X143964700Y-103222100D01*
X132970000Y-101600000D02*
X133745300Y-101600000D01*
X143964700Y-103222100D02*
X144254100Y-102932700D01*
X144254100Y-102932700D02*
X144254100Y-102198000D01*
D34*
%TO.N,Net-(J1-Pad4)*%
X92360000Y-75280000D02*
X91440000Y-76200000D01*
X91440000Y-96520000D02*
X93980000Y-99060000D01*
X91440000Y-76200000D02*
X91440000Y-96520000D01*
X95500000Y-75280000D02*
X92360000Y-75280000D01*
X93980000Y-99060000D02*
X94360000Y-99060000D01*
%TO.N,Net-(J2-Pad2)*%
X165100000Y-90840000D02*
X165100000Y-91440000D01*
X165100000Y-91440000D02*
X165180000Y-91520000D01*
X165180000Y-91520000D02*
X165180000Y-99060000D01*
X168660000Y-87280000D02*
X165100000Y-90840000D01*
D32*
%TO.N,GND*%
X143177500Y-87310000D02*
X143168400Y-87300900D01*
X148625400Y-63930670D02*
X148194730Y-63500000D01*
X144400700Y-92985900D02*
X144400700Y-96246800D01*
X148194730Y-63500000D02*
X147320000Y-63500000D01*
X145906600Y-91480000D02*
X144400700Y-92985900D01*
X118342500Y-78740000D02*
X117140000Y-77537500D01*
X143773400Y-92985900D02*
X144400700Y-92985900D01*
X143177500Y-102550000D02*
X140604900Y-102550000D01*
X145906600Y-91480000D02*
X145906600Y-88412600D01*
X117140000Y-77537500D02*
X117140000Y-74830000D01*
X139277800Y-79979700D02*
X139700000Y-79979700D01*
X143177500Y-92390000D02*
X143773400Y-92985900D01*
X148625400Y-81588600D02*
X143854000Y-86360000D01*
X143177500Y-98008200D02*
X143177500Y-97470000D01*
X134326800Y-67832200D02*
X134326800Y-75028700D01*
X132690000Y-66280000D02*
X134140300Y-66280000D01*
X148625400Y-69885400D02*
X148625400Y-63930670D01*
X143854000Y-86360000D02*
X143168400Y-86360000D01*
X148625400Y-69885400D02*
X148625400Y-81588600D01*
X139700000Y-81280000D02*
X139700000Y-79979700D01*
X134140300Y-66280000D02*
X134140300Y-67645700D01*
X118342500Y-78740000D02*
X118342500Y-81280000D01*
X134140300Y-67645700D02*
X134326800Y-67832200D01*
X140604900Y-102550000D02*
X140066300Y-102011400D01*
X144400700Y-96246800D02*
X143177500Y-97470000D01*
X140066300Y-101119400D02*
X143177500Y-98008200D01*
X145906600Y-88412600D02*
X143854000Y-86360000D01*
X143168400Y-87300900D02*
X143168400Y-86360000D01*
X134326800Y-75028700D02*
X139277800Y-79979700D01*
X140066300Y-102011400D02*
X140066300Y-101119400D01*
X147320000Y-91480000D02*
X145906600Y-91480000D01*
D34*
%TO.N,Net-(J1-Pad2)*%
X109700000Y-63500000D02*
X104140000Y-63500000D01*
X101600000Y-96300000D02*
X104360000Y-99060000D01*
X104140000Y-81280000D02*
X101600000Y-83820000D01*
X101600000Y-83820000D02*
X101600000Y-96300000D01*
X104360000Y-101820000D02*
X109220000Y-106680000D01*
X109220000Y-106680000D02*
X154940000Y-106680000D01*
X104140000Y-63500000D02*
X101600000Y-66040000D01*
X154940000Y-106680000D02*
X160180000Y-101440000D01*
X160180000Y-101440000D02*
X160180000Y-99060000D01*
X101600000Y-66040000D02*
X101600000Y-83820000D01*
X104360000Y-99060000D02*
X104360000Y-101820000D01*
X109700000Y-81280000D02*
X104140000Y-81280000D01*
D33*
%TO.N,Net-(J4-Pad4)*%
X123064600Y-79893900D02*
X123064600Y-77332300D01*
X123064600Y-77332300D02*
X119437500Y-73705200D01*
%TO.N,Net-(J4-Pad5)*%
X139428400Y-68646200D02*
X135935500Y-65153300D01*
X139428400Y-69650900D02*
X139428400Y-68646200D01*
X140550400Y-70772900D02*
X139428400Y-69650900D01*
%TO.N,Net-(J5-Pad2)*%
X114006100Y-78940400D02*
X117397100Y-82331400D01*
X119380000Y-78076200D02*
X120595200Y-76861000D01*
X114006100Y-70301100D02*
X114006100Y-78940400D01*
X119380000Y-81880400D02*
X119380000Y-78076200D01*
X114099700Y-70207500D02*
X114006100Y-70301100D01*
X117397100Y-82331400D02*
X118929000Y-82331400D01*
X118929000Y-82331400D02*
X119380000Y-81880400D01*
X129798000Y-73047700D02*
X129798000Y-73127500D01*
X129798000Y-73127500D02*
X125769400Y-77156100D01*
%TO.N,Net-(J5-Pad3)*%
X137993000Y-57086900D02*
X120234300Y-57086900D01*
X120234300Y-57086900D02*
X113311600Y-64009600D01*
X113311600Y-64009600D02*
X113311600Y-64921900D01*
X143303300Y-62397200D02*
X137993000Y-57086900D01*
%TO.N,Net-(J5-Pad4)*%
X116625800Y-71005300D02*
X117140000Y-71005300D01*
X122655500Y-72795700D02*
X119321300Y-72795700D01*
X116597700Y-73580000D02*
X115821500Y-72803800D01*
X115821500Y-72803800D02*
X115821500Y-71809600D01*
X119321300Y-72795700D02*
X118537000Y-73580000D01*
X117140000Y-69830000D02*
X117140000Y-71005300D01*
X118537000Y-73580000D02*
X116597700Y-73580000D01*
X115821500Y-71809600D02*
X116625800Y-71005300D01*
%TO.N,Net-(J5-Pad5)*%
X117140000Y-72330000D02*
X118710200Y-70759800D01*
X124445700Y-59642100D02*
X125161200Y-58926600D01*
X118710200Y-70759800D02*
X118710200Y-69612900D01*
X124445700Y-63877400D02*
X124445700Y-59642100D01*
X128033700Y-58926600D02*
X129924400Y-60817300D01*
X125161200Y-58926600D02*
X128033700Y-58926600D01*
X118710200Y-69612900D02*
X124445700Y-63877400D01*
%TO.N,Net-(Q1-Pad1)*%
X143177500Y-63309700D02*
X137405000Y-57537200D01*
X143177500Y-85410000D02*
X143177500Y-63309700D01*
X137405000Y-57537200D02*
X124342800Y-57537200D01*
X124342800Y-57537200D02*
X121920000Y-59960000D01*
%TO.N,Net-(Q2-Pad1)*%
X128041400Y-59960000D02*
X130967800Y-62886400D01*
X127000000Y-59960000D02*
X128041400Y-59960000D01*
X140197000Y-85255800D02*
X140197000Y-86663072D01*
X130967800Y-62886400D02*
X137871700Y-62886400D01*
X137871700Y-62886400D02*
X139472100Y-61286000D01*
X141468448Y-87934520D02*
X143177500Y-87934520D01*
X142287000Y-83165800D02*
X140197000Y-85255800D01*
X140447700Y-61286000D02*
X142287000Y-63125300D01*
X139472100Y-61286000D02*
X140447700Y-61286000D01*
X140197000Y-86663072D02*
X141468448Y-87934520D01*
X142287000Y-63125300D02*
X142287000Y-83165800D01*
X143177500Y-87934520D02*
X143177500Y-90490000D01*
%TO.N,Net-(Q3-Pad1)*%
X117732100Y-68580000D02*
X123623000Y-62689100D01*
X116840000Y-80671700D02*
X116840000Y-79722600D01*
X115352000Y-69767700D02*
X116539700Y-68580000D01*
X141821100Y-98162000D02*
X141821100Y-97413900D01*
X115352000Y-78234600D02*
X115352000Y-69767700D01*
X116539700Y-68580000D02*
X117732100Y-68580000D01*
X124926700Y-58476300D02*
X130596300Y-58476300D01*
X141821100Y-97413900D02*
X143177500Y-96057500D01*
X116840000Y-79722600D02*
X115352000Y-78234600D01*
X143177500Y-96057500D02*
X143177500Y-95570000D01*
X123623000Y-62689100D02*
X123623000Y-59780000D01*
X130596300Y-58476300D02*
X132080000Y-59960000D01*
X123623000Y-59780000D02*
X124926700Y-58476300D01*
%TO.N,Net-(Q4-Pad1)*%
X118440400Y-65368300D02*
X117728700Y-66080000D01*
X137160000Y-59960000D02*
X137160000Y-58777200D01*
X123099000Y-59665200D02*
X123099000Y-60474500D01*
X136370300Y-57987500D02*
X124776700Y-57987500D01*
X114825000Y-78548400D02*
X114732500Y-78640900D01*
X114825000Y-67856700D02*
X114825000Y-78548400D01*
X137160000Y-58777200D02*
X136370300Y-57987500D01*
X123099000Y-60474500D02*
X122613500Y-60960000D01*
X122613500Y-60960000D02*
X121300600Y-60960000D01*
X116601700Y-66080000D02*
X114825000Y-67856700D01*
X124776700Y-57987500D02*
X123099000Y-59665200D01*
X143177500Y-99525500D02*
X143568800Y-99134200D01*
X117728700Y-66080000D02*
X116601700Y-66080000D01*
X118440400Y-63820200D02*
X118440400Y-65368300D01*
X143177500Y-100650000D02*
X143177500Y-99525500D01*
X121300600Y-60960000D02*
X118440400Y-63820200D01*
%TO.N,Net-(R1-Pad2)*%
X121920000Y-62965900D02*
X121920000Y-61960000D01*
X118440400Y-66445500D02*
X121920000Y-62965900D01*
%TO.N,Net-(R2-Pad2)*%
X127000000Y-61960000D02*
X123440800Y-65519200D01*
X123440800Y-65519200D02*
X123440800Y-69385000D01*
%TO.N,Net-(R3-Pad2)*%
X132080000Y-61960000D02*
X133134400Y-61960000D01*
X133134400Y-61960000D02*
X134599400Y-60495000D01*
%TO.N,Net-(R4-Pad2)*%
X136117400Y-60917400D02*
X136117400Y-58795600D01*
X137160000Y-61960000D02*
X136117400Y-60917400D01*
%TO.N,Net-(J4-Pad7)*%
X136395200Y-67665300D02*
X133623800Y-64893900D01*
X136395200Y-75894600D02*
X136395200Y-67665300D01*
%TO.N,Net-(J4-Pad9)*%
X138978000Y-69222000D02*
X134720700Y-64964700D01*
X138978000Y-76759900D02*
X138978000Y-69222000D01*
%TO.N,Net-(J6-Pad2)*%
X125038700Y-64956200D02*
X125038700Y-78490200D01*
X125094900Y-64900000D02*
X125038700Y-64956200D01*
%TO.N,Net-(J6-Pad3)*%
X133268000Y-76376700D02*
X129540000Y-80104700D01*
X133268000Y-73276100D02*
X133268000Y-76376700D01*
X129540000Y-81280000D02*
X129540000Y-80104700D01*
%TO.N,Net-(J6-Pad4)*%
X141275700Y-70472400D02*
X140097300Y-69294000D01*
X137648800Y-80104600D02*
X138430000Y-80885800D01*
X140097300Y-69294000D02*
X140097300Y-62043700D01*
X133255300Y-81280000D02*
X133255300Y-80912700D01*
X132080000Y-81280000D02*
X133255300Y-81280000D01*
X134063400Y-80104600D02*
X137648800Y-80104600D01*
X138430000Y-81685000D02*
X139229000Y-82484000D01*
X138430000Y-80885800D02*
X138430000Y-81685000D01*
X133255300Y-80912700D02*
X134063400Y-80104600D01*
X140220400Y-82484000D02*
X141275700Y-81428700D01*
X139229000Y-82484000D02*
X140220400Y-82484000D01*
X141275700Y-81428700D02*
X141275700Y-70472400D01*
%TO.N,Net-(J6-Pad5)*%
X137082300Y-82934300D02*
X140407000Y-82934300D01*
X134620000Y-81280000D02*
X135795300Y-81280000D01*
X141726000Y-81615300D02*
X141726000Y-63644500D01*
X140407000Y-82934300D02*
X141726000Y-81615300D01*
X141726000Y-63644500D02*
X141370000Y-63288500D01*
X135795300Y-81280000D02*
X135795300Y-81647300D01*
X135795300Y-81647300D02*
X137082300Y-82934300D01*
%TO.N,Net-(U1-Pad2)*%
X132690000Y-68580000D02*
X132690000Y-67504700D01*
X128073400Y-66354700D02*
X129223400Y-67504700D01*
X127618300Y-60960000D02*
X126328100Y-60960000D01*
X128073400Y-61415100D02*
X127618300Y-60960000D01*
X128073400Y-66354700D02*
X128073400Y-61415100D01*
X126390000Y-68580000D02*
X126390000Y-66354700D01*
X126390000Y-66354700D02*
X128073400Y-66354700D01*
X129223400Y-67504700D02*
X132690000Y-67504700D01*
X125542000Y-60173900D02*
X125542000Y-59652000D01*
X126328100Y-60960000D02*
X125542000Y-60173900D01*
%TD*%
%TA.AperFunction,Conductor*%
%TO.N,GND*%
G36*
X142599754Y-98765030D02*
G01*
X142658738Y-98804544D01*
X142686995Y-98869675D01*
X142681791Y-98924165D01*
X142675258Y-98944272D01*
X142674568Y-98950833D01*
X142674568Y-98950835D01*
X142666446Y-99028109D01*
X142655296Y-99134200D01*
X142652232Y-99133878D01*
X142636562Y-99187246D01*
X142636778Y-99187374D01*
X142636275Y-99188225D01*
X142635984Y-99189215D01*
X142634184Y-99191760D01*
X142632742Y-99194199D01*
X142627886Y-99200459D01*
X142624741Y-99207728D01*
X142624738Y-99207732D01*
X142610326Y-99241037D01*
X142605109Y-99251687D01*
X142583805Y-99290440D01*
X142581834Y-99298115D01*
X142581834Y-99298116D01*
X142578767Y-99310062D01*
X142572363Y-99328766D01*
X142564319Y-99347355D01*
X142563080Y-99355178D01*
X142563077Y-99355188D01*
X142557401Y-99391024D01*
X142554995Y-99402644D01*
X142544000Y-99445470D01*
X142544000Y-99465724D01*
X142542449Y-99485434D01*
X142539280Y-99505443D01*
X142540026Y-99513335D01*
X142543441Y-99549461D01*
X142544000Y-99561319D01*
X142544000Y-99733033D01*
X142523998Y-99801154D01*
X142470342Y-99847647D01*
X142453152Y-99854030D01*
X142334014Y-99888642D01*
X142334009Y-99888644D01*
X142326399Y-99890855D01*
X142319572Y-99894892D01*
X142319573Y-99894892D01*
X142190020Y-99971509D01*
X142190017Y-99971511D01*
X142183193Y-99975547D01*
X142065547Y-100093193D01*
X142061511Y-100100017D01*
X142061509Y-100100020D01*
X142056871Y-100107863D01*
X141980855Y-100236399D01*
X141934438Y-100396169D01*
X141931500Y-100433498D01*
X141931500Y-100665500D01*
X141911498Y-100733621D01*
X141857842Y-100780114D01*
X141805500Y-100791500D01*
X140648498Y-100791500D01*
X140646050Y-100791693D01*
X140646042Y-100791693D01*
X140617579Y-100793933D01*
X140617574Y-100793934D01*
X140611169Y-100794438D01*
X140511231Y-100823472D01*
X140459012Y-100838643D01*
X140459010Y-100838644D01*
X140451399Y-100840855D01*
X140444572Y-100844892D01*
X140444573Y-100844892D01*
X140315020Y-100921509D01*
X140315017Y-100921511D01*
X140308193Y-100925547D01*
X140190547Y-101043193D01*
X140186511Y-101050017D01*
X140186509Y-101050020D01*
X140127194Y-101150316D01*
X140105855Y-101186399D01*
X140059438Y-101346169D01*
X140056500Y-101383498D01*
X140056500Y-101816502D01*
X140056693Y-101818950D01*
X140056693Y-101818958D01*
X140058719Y-101844692D01*
X140059438Y-101853831D01*
X140085943Y-101945062D01*
X140099746Y-101992572D01*
X140105855Y-102013601D01*
X140109892Y-102020427D01*
X140186509Y-102149980D01*
X140186511Y-102149983D01*
X140190547Y-102156807D01*
X140308193Y-102274453D01*
X140315017Y-102278489D01*
X140315020Y-102278491D01*
X140442948Y-102354147D01*
X140491401Y-102406039D01*
X140504106Y-102475890D01*
X140477031Y-102541521D01*
X140418770Y-102582095D01*
X140378809Y-102588600D01*
X138006394Y-102588600D01*
X137938273Y-102568598D01*
X137891780Y-102514942D01*
X137881676Y-102444668D01*
X137911170Y-102380088D01*
X137917299Y-102373505D01*
X139529102Y-100761703D01*
X141284666Y-99006139D01*
X141346978Y-98972113D01*
X141417794Y-98977178D01*
X141425009Y-98980127D01*
X141532777Y-99028108D01*
X141532785Y-99028111D01*
X141538812Y-99030794D01*
X141632212Y-99050647D01*
X141719156Y-99069128D01*
X141719161Y-99069128D01*
X141725613Y-99070500D01*
X141916587Y-99070500D01*
X141923039Y-99069128D01*
X141923044Y-99069128D01*
X142009988Y-99050647D01*
X142103388Y-99030794D01*
X142109421Y-99028108D01*
X142271822Y-98955803D01*
X142271824Y-98955802D01*
X142277852Y-98953118D01*
X142290028Y-98944272D01*
X142351452Y-98899644D01*
X142432353Y-98840866D01*
X142436776Y-98835954D01*
X142468324Y-98800917D01*
X142528770Y-98763678D01*
X142599754Y-98765030D01*
G37*
%TD.AperFunction*%
%TA.AperFunction,Conductor*%
G36*
X148785072Y-66386411D02*
G01*
X148820754Y-66411435D01*
X152398230Y-69988911D01*
X152410616Y-70003323D01*
X152419149Y-70014918D01*
X152419154Y-70014923D01*
X152423492Y-70020818D01*
X152429070Y-70025557D01*
X152429073Y-70025560D01*
X152463768Y-70055035D01*
X152471284Y-70061965D01*
X152476979Y-70067660D01*
X152479861Y-70069940D01*
X152499251Y-70085281D01*
X152502655Y-70088072D01*
X152552703Y-70130591D01*
X152558285Y-70135333D01*
X152564801Y-70138661D01*
X152569850Y-70142028D01*
X152574979Y-70145195D01*
X152580716Y-70149734D01*
X152646875Y-70180655D01*
X152650769Y-70182558D01*
X152715808Y-70215769D01*
X152722916Y-70217508D01*
X152728559Y-70219607D01*
X152734322Y-70221524D01*
X152740950Y-70224622D01*
X152748112Y-70226112D01*
X152748113Y-70226112D01*
X152812412Y-70239486D01*
X152816696Y-70240456D01*
X152887610Y-70257808D01*
X152893212Y-70258156D01*
X152893215Y-70258156D01*
X152898764Y-70258500D01*
X152898762Y-70258536D01*
X152902755Y-70258775D01*
X152906947Y-70259149D01*
X152914115Y-70260640D01*
X152991520Y-70258546D01*
X152994928Y-70258500D01*
X153048629Y-70258500D01*
X153116750Y-70278502D01*
X153163243Y-70332158D01*
X153173347Y-70402432D01*
X153143853Y-70467012D01*
X153137724Y-70473595D01*
X149385850Y-74225469D01*
X149377577Y-74233037D01*
X149376268Y-74234132D01*
X149370148Y-74238144D01*
X149365116Y-74243456D01*
X149316872Y-74294383D01*
X149314494Y-74296825D01*
X149292340Y-74318979D01*
X149290067Y-74321852D01*
X149289584Y-74322462D01*
X149282245Y-74330935D01*
X149248510Y-74366547D01*
X149244834Y-74372876D01*
X149244831Y-74372880D01*
X149235937Y-74388193D01*
X149225800Y-74403082D01*
X149210266Y-74422716D01*
X149207166Y-74429349D01*
X149189500Y-74467147D01*
X149184306Y-74477081D01*
X149163353Y-74513155D01*
X149163351Y-74513159D01*
X149159674Y-74519490D01*
X149157552Y-74526495D01*
X149157551Y-74526498D01*
X149152415Y-74543454D01*
X149145976Y-74560271D01*
X149138480Y-74576311D01*
X149138478Y-74576316D01*
X149135378Y-74582950D01*
X149133887Y-74590117D01*
X149133887Y-74590118D01*
X149125392Y-74630961D01*
X149122622Y-74641825D01*
X149119963Y-74650605D01*
X149108405Y-74688767D01*
X149107952Y-74696071D01*
X149106854Y-74713759D01*
X149104456Y-74731610D01*
X149100850Y-74748947D01*
X149100849Y-74748954D01*
X149099360Y-74756115D01*
X149099558Y-74763430D01*
X149100686Y-74805135D01*
X149100490Y-74816344D01*
X149100034Y-74823700D01*
X149097453Y-74865298D01*
X149098693Y-74872513D01*
X149098693Y-74872517D01*
X149101692Y-74889968D01*
X149103466Y-74907898D01*
X149104143Y-74932921D01*
X149106017Y-74939988D01*
X149106018Y-74939996D01*
X149116713Y-74980331D01*
X149119101Y-74991284D01*
X149127406Y-75039614D01*
X149137209Y-75062653D01*
X149143059Y-75079688D01*
X149149474Y-75103884D01*
X149152926Y-75110335D01*
X149152927Y-75110338D01*
X149172607Y-75147117D01*
X149177452Y-75157228D01*
X149196657Y-75202364D01*
X149200996Y-75208260D01*
X149211492Y-75222522D01*
X149221109Y-75237764D01*
X149229461Y-75253375D01*
X149229466Y-75253382D01*
X149232918Y-75259834D01*
X149237765Y-75265322D01*
X149265385Y-75296596D01*
X149272424Y-75305320D01*
X149296228Y-75337665D01*
X149301492Y-75344818D01*
X149307076Y-75349562D01*
X149320566Y-75361023D01*
X149333426Y-75373638D01*
X149350000Y-75392404D01*
X149355977Y-75396628D01*
X149390050Y-75420708D01*
X149398898Y-75427570D01*
X149436285Y-75459333D01*
X149458586Y-75470720D01*
X149473993Y-75480033D01*
X149494440Y-75494484D01*
X149501225Y-75497219D01*
X149501226Y-75497219D01*
X149538641Y-75512298D01*
X149594346Y-75556314D01*
X149617412Y-75623459D01*
X149600514Y-75692416D01*
X149585182Y-75713467D01*
X149556560Y-75745256D01*
X149553259Y-75750974D01*
X149464735Y-75904302D01*
X149461073Y-75910644D01*
X149410206Y-76067197D01*
X149406213Y-76079485D01*
X149375475Y-76129644D01*
X149371089Y-76134030D01*
X149356677Y-76146416D01*
X149345082Y-76154949D01*
X149345077Y-76154954D01*
X149339182Y-76159292D01*
X149334443Y-76164870D01*
X149334440Y-76164873D01*
X149304965Y-76199568D01*
X149298035Y-76207084D01*
X149292340Y-76212779D01*
X149290060Y-76215661D01*
X149274719Y-76235051D01*
X149271928Y-76238455D01*
X149229409Y-76288503D01*
X149224667Y-76294085D01*
X149221339Y-76300601D01*
X149217972Y-76305650D01*
X149214805Y-76310779D01*
X149210266Y-76316516D01*
X149179345Y-76382675D01*
X149177442Y-76386569D01*
X149144231Y-76451608D01*
X149142492Y-76458716D01*
X149140393Y-76464359D01*
X149138476Y-76470122D01*
X149135378Y-76476750D01*
X149133888Y-76483912D01*
X149133888Y-76483913D01*
X149120514Y-76548212D01*
X149119544Y-76552496D01*
X149102192Y-76623410D01*
X149101500Y-76634564D01*
X149101464Y-76634562D01*
X149101225Y-76638555D01*
X149100851Y-76642747D01*
X149099360Y-76649915D01*
X149101047Y-76712258D01*
X149101454Y-76727321D01*
X149101500Y-76730728D01*
X149101500Y-90814913D01*
X149081498Y-90883034D01*
X149027842Y-90929527D01*
X148957568Y-90939631D01*
X148892988Y-90910137D01*
X148859091Y-90863131D01*
X148803752Y-90729530D01*
X148799271Y-90720736D01*
X148669596Y-90509125D01*
X148660330Y-90503078D01*
X148650125Y-90509085D01*
X147692022Y-91467188D01*
X147684408Y-91481132D01*
X147684539Y-91482965D01*
X147688790Y-91489580D01*
X148648666Y-92449456D01*
X148662204Y-92456849D01*
X148668735Y-92452280D01*
X148799271Y-92239264D01*
X148803752Y-92230470D01*
X148859091Y-92096869D01*
X148903639Y-92041588D01*
X148971003Y-92019167D01*
X149039794Y-92036725D01*
X149088172Y-92088687D01*
X149101500Y-92145087D01*
X149101500Y-95186478D01*
X149081498Y-95254599D01*
X149064595Y-95275573D01*
X144444935Y-99895233D01*
X144382623Y-99929259D01*
X144311808Y-99924194D01*
X144254972Y-99881647D01*
X144230161Y-99815127D01*
X144245252Y-99745753D01*
X144262204Y-99721828D01*
X144303421Y-99676052D01*
X144303422Y-99676051D01*
X144307840Y-99671144D01*
X144378094Y-99549461D01*
X144400023Y-99511479D01*
X144400024Y-99511478D01*
X144403327Y-99505756D01*
X144462342Y-99324128D01*
X144463821Y-99310062D01*
X144481614Y-99140765D01*
X144482304Y-99134200D01*
X144471154Y-99028109D01*
X144463032Y-98950835D01*
X144463032Y-98950833D01*
X144462342Y-98944272D01*
X144403327Y-98762644D01*
X144307840Y-98597256D01*
X144209748Y-98488313D01*
X144184475Y-98460245D01*
X144184474Y-98460244D01*
X144180053Y-98455334D01*
X144095210Y-98393692D01*
X144051857Y-98337471D01*
X144045782Y-98266735D01*
X144078913Y-98203943D01*
X144105133Y-98183303D01*
X144164677Y-98148089D01*
X144177104Y-98138449D01*
X144283449Y-98032104D01*
X144293089Y-98019678D01*
X144369648Y-97890221D01*
X144375893Y-97875790D01*
X144414939Y-97741395D01*
X144414899Y-97727294D01*
X144407630Y-97724000D01*
X143049500Y-97724000D01*
X142981379Y-97703998D01*
X142934886Y-97650342D01*
X142923500Y-97598000D01*
X142923500Y-97342000D01*
X142943502Y-97273879D01*
X142997158Y-97227386D01*
X143049500Y-97216000D01*
X144401878Y-97216000D01*
X144415409Y-97212027D01*
X144416544Y-97204129D01*
X144375893Y-97064210D01*
X144369648Y-97049779D01*
X144293089Y-96920322D01*
X144283449Y-96907896D01*
X144177104Y-96801551D01*
X144164678Y-96791911D01*
X144035221Y-96715352D01*
X144020790Y-96709107D01*
X143874935Y-96666731D01*
X143862333Y-96664430D01*
X143833916Y-96662193D01*
X143828986Y-96662000D01*
X143770041Y-96662000D01*
X143701920Y-96641998D01*
X143655427Y-96588342D01*
X143645323Y-96518068D01*
X143678192Y-96449746D01*
X143688660Y-96438599D01*
X143694086Y-96432821D01*
X143695988Y-96429361D01*
X143750807Y-96387086D01*
X143796524Y-96378500D01*
X143831502Y-96378500D01*
X143833950Y-96378307D01*
X143833958Y-96378307D01*
X143862421Y-96376067D01*
X143862426Y-96376066D01*
X143868831Y-96375562D01*
X143968769Y-96346528D01*
X144020988Y-96331357D01*
X144020990Y-96331356D01*
X144028601Y-96329145D01*
X144071968Y-96303498D01*
X144164980Y-96248491D01*
X144164983Y-96248489D01*
X144171807Y-96244453D01*
X144289453Y-96126807D01*
X144293489Y-96119983D01*
X144293491Y-96119980D01*
X144370108Y-95990427D01*
X144374145Y-95983601D01*
X144379550Y-95964999D01*
X144403060Y-95884074D01*
X144420562Y-95823831D01*
X144421676Y-95809684D01*
X144423307Y-95788958D01*
X144423307Y-95788950D01*
X144423500Y-95786502D01*
X144423500Y-95353498D01*
X144420562Y-95316169D01*
X144374145Y-95156399D01*
X144357107Y-95127589D01*
X144293491Y-95020020D01*
X144293489Y-95020017D01*
X144289453Y-95013193D01*
X144171807Y-94895547D01*
X144164983Y-94891511D01*
X144164980Y-94891509D01*
X144035427Y-94814892D01*
X144035428Y-94814892D01*
X144028601Y-94810855D01*
X144020990Y-94808644D01*
X144020988Y-94808643D01*
X143968769Y-94793472D01*
X143868831Y-94764438D01*
X143862426Y-94763934D01*
X143862421Y-94763933D01*
X143833958Y-94761693D01*
X143833950Y-94761693D01*
X143831502Y-94761500D01*
X143041841Y-94761500D01*
X142973720Y-94741498D01*
X142927227Y-94687842D01*
X142917123Y-94617568D01*
X142948203Y-94551192D01*
X142979040Y-94516944D01*
X143074527Y-94351556D01*
X143133542Y-94169928D01*
X143135395Y-94152303D01*
X143152814Y-93986565D01*
X143153504Y-93980000D01*
X143152814Y-93973435D01*
X143134232Y-93796635D01*
X143134232Y-93796633D01*
X143133542Y-93790072D01*
X143074527Y-93608444D01*
X142979040Y-93443056D01*
X142913560Y-93370333D01*
X142882842Y-93306326D01*
X142891607Y-93235872D01*
X142911972Y-93203510D01*
X142921829Y-93192135D01*
X142923500Y-93184452D01*
X142923500Y-93179884D01*
X143431500Y-93179884D01*
X143435975Y-93195123D01*
X143437365Y-93196328D01*
X143445048Y-93197999D01*
X143828984Y-93197999D01*
X143833920Y-93197805D01*
X143862336Y-93195570D01*
X143874931Y-93193270D01*
X144020790Y-93150893D01*
X144035221Y-93144648D01*
X144164678Y-93068089D01*
X144177104Y-93058449D01*
X144283449Y-92952104D01*
X144293089Y-92939678D01*
X144362561Y-92822204D01*
X146343151Y-92822204D01*
X146347720Y-92828735D01*
X146560736Y-92959271D01*
X146569530Y-92963752D01*
X146801492Y-93059834D01*
X146810877Y-93062883D01*
X147055017Y-93121496D01*
X147064764Y-93123039D01*
X147315070Y-93142739D01*
X147324930Y-93142739D01*
X147575236Y-93123039D01*
X147584983Y-93121496D01*
X147829123Y-93062883D01*
X147838508Y-93059834D01*
X148070470Y-92963752D01*
X148079264Y-92959271D01*
X148290875Y-92829596D01*
X148296922Y-92820330D01*
X148290915Y-92810125D01*
X147332812Y-91852022D01*
X147318868Y-91844408D01*
X147317035Y-91844539D01*
X147310420Y-91848790D01*
X146350544Y-92808666D01*
X146343151Y-92822204D01*
X144362561Y-92822204D01*
X144369648Y-92810221D01*
X144375893Y-92795790D01*
X144414939Y-92661395D01*
X144414899Y-92647294D01*
X144407630Y-92644000D01*
X143449615Y-92644000D01*
X143434376Y-92648475D01*
X143433171Y-92649865D01*
X143431500Y-92657548D01*
X143431500Y-93179884D01*
X142923500Y-93179884D01*
X142923500Y-92662115D01*
X142919025Y-92646876D01*
X142917635Y-92645671D01*
X142909952Y-92644000D01*
X141953122Y-92644000D01*
X141939591Y-92647973D01*
X141938456Y-92655871D01*
X141979107Y-92795790D01*
X141985354Y-92810225D01*
X142051130Y-92921449D01*
X142068589Y-92990265D01*
X142046072Y-93057596D01*
X141990727Y-93102065D01*
X141968869Y-93108834D01*
X141964175Y-93109832D01*
X141964173Y-93109833D01*
X141957712Y-93111206D01*
X141951682Y-93113891D01*
X141951681Y-93113891D01*
X141789278Y-93186197D01*
X141789276Y-93186198D01*
X141783248Y-93188882D01*
X141777907Y-93192762D01*
X141777906Y-93192763D01*
X141763114Y-93203510D01*
X141628747Y-93301134D01*
X141624326Y-93306044D01*
X141624325Y-93306045D01*
X141516974Y-93425271D01*
X141500960Y-93443056D01*
X141405473Y-93608444D01*
X141403431Y-93614729D01*
X141350613Y-93777285D01*
X141319875Y-93827444D01*
X140813589Y-94333730D01*
X140799177Y-94346116D01*
X140787582Y-94354649D01*
X140787577Y-94354654D01*
X140781682Y-94358992D01*
X140776943Y-94364570D01*
X140776940Y-94364573D01*
X140747465Y-94399268D01*
X140740535Y-94406784D01*
X140734840Y-94412479D01*
X140732560Y-94415361D01*
X140717219Y-94434751D01*
X140714428Y-94438155D01*
X140671909Y-94488203D01*
X140667167Y-94493785D01*
X140663839Y-94500301D01*
X140660472Y-94505350D01*
X140657305Y-94510479D01*
X140652766Y-94516216D01*
X140621845Y-94582375D01*
X140619942Y-94586269D01*
X140586731Y-94651308D01*
X140584992Y-94658416D01*
X140582893Y-94664059D01*
X140580976Y-94669822D01*
X140577878Y-94676450D01*
X140576388Y-94683612D01*
X140576388Y-94683613D01*
X140563014Y-94747912D01*
X140562044Y-94752196D01*
X140544692Y-94823110D01*
X140544000Y-94834264D01*
X140543964Y-94834262D01*
X140543725Y-94838255D01*
X140543351Y-94842447D01*
X140541860Y-94849615D01*
X140542058Y-94856932D01*
X140543954Y-94927021D01*
X140544000Y-94930428D01*
X140544000Y-95639348D01*
X140523998Y-95707469D01*
X140470342Y-95753962D01*
X140466279Y-95755471D01*
X140466289Y-95755494D01*
X140459012Y-95758643D01*
X140451399Y-95760855D01*
X140444572Y-95764892D01*
X140444573Y-95764892D01*
X140315020Y-95841509D01*
X140315017Y-95841511D01*
X140308193Y-95845547D01*
X140190547Y-95963193D01*
X140186511Y-95970017D01*
X140186509Y-95970020D01*
X140136259Y-96054988D01*
X140105855Y-96106399D01*
X140103644Y-96114010D01*
X140103643Y-96114012D01*
X140098296Y-96132416D01*
X140059438Y-96266169D01*
X140058934Y-96272574D01*
X140058933Y-96272579D01*
X140056693Y-96301042D01*
X140056500Y-96303498D01*
X140056500Y-96736502D01*
X140059438Y-96773831D01*
X140105855Y-96933601D01*
X140109892Y-96940427D01*
X140186509Y-97069980D01*
X140186511Y-97069983D01*
X140190547Y-97076807D01*
X140308193Y-97194453D01*
X140400442Y-97249009D01*
X140448892Y-97300899D01*
X140462300Y-97357460D01*
X140462300Y-97984506D01*
X140442298Y-98052627D01*
X140425395Y-98073601D01*
X137443595Y-101055400D01*
X137381283Y-101089426D01*
X137310467Y-101084361D01*
X137253632Y-101041814D01*
X137228821Y-100975294D01*
X137228500Y-100966305D01*
X137228500Y-100951866D01*
X137221745Y-100889684D01*
X137170615Y-100753295D01*
X137083261Y-100636739D01*
X137076081Y-100631358D01*
X137069731Y-100625008D01*
X137071366Y-100623373D01*
X137036421Y-100576641D01*
X137028500Y-100532671D01*
X137028500Y-97587329D01*
X137048502Y-97519208D01*
X137070407Y-97495668D01*
X137069731Y-97494992D01*
X137076081Y-97488642D01*
X137083261Y-97483261D01*
X137170615Y-97366705D01*
X137221745Y-97230316D01*
X137228500Y-97168134D01*
X137228500Y-95871866D01*
X137221745Y-95809684D01*
X137170615Y-95673295D01*
X137083261Y-95556739D01*
X137076081Y-95551358D01*
X137069731Y-95545008D01*
X137071366Y-95543373D01*
X137036421Y-95496641D01*
X137028500Y-95452671D01*
X137028500Y-92507329D01*
X137048502Y-92439208D01*
X137070407Y-92415668D01*
X137069731Y-92414992D01*
X137076081Y-92408642D01*
X137083261Y-92403261D01*
X137170615Y-92286705D01*
X137221745Y-92150316D01*
X137228500Y-92088134D01*
X137228500Y-90791866D01*
X137221745Y-90729684D01*
X137170615Y-90593295D01*
X137083261Y-90476739D01*
X137076081Y-90471358D01*
X137069731Y-90465008D01*
X137071366Y-90463373D01*
X137036421Y-90416641D01*
X137028500Y-90372671D01*
X137028500Y-88728299D01*
X137045381Y-88665299D01*
X137051382Y-88654906D01*
X137104527Y-88562856D01*
X137163542Y-88381228D01*
X137166372Y-88354307D01*
X137182814Y-88197865D01*
X137183504Y-88191300D01*
X137173773Y-88098717D01*
X137186545Y-88028881D01*
X137235047Y-87977034D01*
X137303880Y-87959639D01*
X137371190Y-87982220D01*
X137388178Y-87996453D01*
X138904595Y-89512870D01*
X138938621Y-89575182D01*
X138941500Y-89601965D01*
X138941500Y-91412165D01*
X138941258Y-91419966D01*
X138937453Y-91481298D01*
X138948380Y-91544889D01*
X138949349Y-91551618D01*
X138954471Y-91595548D01*
X138956818Y-91615681D01*
X138960058Y-91624607D01*
X138965799Y-91646258D01*
X138967406Y-91655614D01*
X138991361Y-91711911D01*
X138992670Y-91714988D01*
X138995152Y-91721289D01*
X139017167Y-91781937D01*
X139021181Y-91788059D01*
X139022373Y-91789878D01*
X139032933Y-91809615D01*
X139033787Y-91811623D01*
X139033794Y-91811635D01*
X139036657Y-91818364D01*
X139040993Y-91824256D01*
X139040996Y-91824261D01*
X139074900Y-91870332D01*
X139078790Y-91875928D01*
X139114144Y-91929852D01*
X139119461Y-91934889D01*
X139121039Y-91936384D01*
X139135861Y-91953166D01*
X139141492Y-91960818D01*
X139147065Y-91965553D01*
X139147072Y-91965560D01*
X139190649Y-92002581D01*
X139195723Y-92007133D01*
X139226560Y-92036345D01*
X139242547Y-92051490D01*
X139248874Y-92055165D01*
X139248883Y-92055172D01*
X139250768Y-92056267D01*
X139269047Y-92069185D01*
X139270706Y-92070594D01*
X139270709Y-92070596D01*
X139276285Y-92075333D01*
X139282799Y-92078659D01*
X139282803Y-92078662D01*
X139333736Y-92104670D01*
X139339719Y-92107932D01*
X139389159Y-92136649D01*
X139389161Y-92136650D01*
X139395490Y-92140326D01*
X139402494Y-92142447D01*
X139402498Y-92142449D01*
X139404575Y-92143078D01*
X139425351Y-92151451D01*
X139433808Y-92155769D01*
X139496495Y-92171108D01*
X139503012Y-92172891D01*
X139564767Y-92191595D01*
X139574017Y-92192169D01*
X139574246Y-92192183D01*
X139596383Y-92195551D01*
X139600154Y-92196474D01*
X139600166Y-92196476D01*
X139605610Y-92197808D01*
X139613461Y-92198295D01*
X139614825Y-92198380D01*
X139614835Y-92198380D01*
X139616764Y-92198500D01*
X139672165Y-92198500D01*
X139679966Y-92198742D01*
X139741298Y-92202547D01*
X139754260Y-92200320D01*
X139775596Y-92198500D01*
X140431246Y-92198500D01*
X140466398Y-92203503D01*
X140604989Y-92243767D01*
X140604993Y-92243768D01*
X140611169Y-92245562D01*
X140617574Y-92246066D01*
X140617579Y-92246067D01*
X140646042Y-92248307D01*
X140646050Y-92248307D01*
X140648498Y-92248500D01*
X141956502Y-92248500D01*
X141958950Y-92248307D01*
X141958958Y-92248307D01*
X141987421Y-92246067D01*
X141987426Y-92246066D01*
X141993831Y-92245562D01*
X142138601Y-92203503D01*
X142145988Y-92201357D01*
X142145990Y-92201356D01*
X142153601Y-92199145D01*
X142226946Y-92155769D01*
X142230703Y-92153547D01*
X142294842Y-92136000D01*
X142905385Y-92136000D01*
X142920624Y-92131525D01*
X142921829Y-92130135D01*
X142923500Y-92122452D01*
X142923500Y-92117885D01*
X143431500Y-92117885D01*
X143435975Y-92133124D01*
X143437365Y-92134329D01*
X143445048Y-92136000D01*
X144401878Y-92136000D01*
X144415409Y-92132027D01*
X144416544Y-92124129D01*
X144375893Y-91984210D01*
X144369648Y-91969779D01*
X144293089Y-91840322D01*
X144283449Y-91827896D01*
X144177104Y-91721551D01*
X144164678Y-91711911D01*
X144035221Y-91635352D01*
X144020790Y-91629107D01*
X143874935Y-91586731D01*
X143862333Y-91584430D01*
X143833916Y-91582193D01*
X143828986Y-91582000D01*
X143449615Y-91582000D01*
X143434376Y-91586475D01*
X143433171Y-91587865D01*
X143431500Y-91595548D01*
X143431500Y-92117885D01*
X142923500Y-92117885D01*
X142923500Y-91600116D01*
X142919025Y-91584877D01*
X142917635Y-91583672D01*
X142909952Y-91582001D01*
X142674500Y-91582001D01*
X142606379Y-91561999D01*
X142559886Y-91508343D01*
X142554793Y-91484930D01*
X145657261Y-91484930D01*
X145676961Y-91735236D01*
X145678504Y-91744983D01*
X145737117Y-91989123D01*
X145740166Y-91998508D01*
X145836248Y-92230470D01*
X145840729Y-92239264D01*
X145970404Y-92450875D01*
X145979670Y-92456922D01*
X145989875Y-92450915D01*
X146947978Y-91492812D01*
X146955592Y-91478868D01*
X146955461Y-91477035D01*
X146951210Y-91470420D01*
X145991334Y-90510544D01*
X145977796Y-90503151D01*
X145971265Y-90507720D01*
X145840729Y-90720736D01*
X145836248Y-90729530D01*
X145740166Y-90961492D01*
X145737117Y-90970877D01*
X145678504Y-91215017D01*
X145676961Y-91224764D01*
X145657261Y-91475070D01*
X145657261Y-91484930D01*
X142554793Y-91484930D01*
X142548500Y-91456001D01*
X142548500Y-91424500D01*
X142568502Y-91356379D01*
X142622158Y-91309886D01*
X142674500Y-91298500D01*
X143831502Y-91298500D01*
X143833950Y-91298307D01*
X143833958Y-91298307D01*
X143862421Y-91296067D01*
X143862426Y-91296066D01*
X143868831Y-91295562D01*
X143968769Y-91266528D01*
X144020988Y-91251357D01*
X144020990Y-91251356D01*
X144028601Y-91249145D01*
X144132504Y-91187697D01*
X144164980Y-91168491D01*
X144164983Y-91168489D01*
X144171807Y-91164453D01*
X144289453Y-91046807D01*
X144293489Y-91039983D01*
X144293491Y-91039980D01*
X144370108Y-90910427D01*
X144374145Y-90903601D01*
X144420562Y-90743831D01*
X144421676Y-90729684D01*
X144423307Y-90708958D01*
X144423307Y-90708950D01*
X144423500Y-90706502D01*
X144423500Y-90273498D01*
X144420562Y-90236169D01*
X144392527Y-90139670D01*
X146343078Y-90139670D01*
X146349085Y-90149875D01*
X147307188Y-91107978D01*
X147321132Y-91115592D01*
X147322965Y-91115461D01*
X147329580Y-91111210D01*
X148289456Y-90151334D01*
X148296849Y-90137796D01*
X148292280Y-90131265D01*
X148079264Y-90000729D01*
X148070470Y-89996248D01*
X147838508Y-89900166D01*
X147829123Y-89897117D01*
X147584983Y-89838504D01*
X147575236Y-89836961D01*
X147324930Y-89817261D01*
X147315070Y-89817261D01*
X147064764Y-89836961D01*
X147055017Y-89838504D01*
X146810877Y-89897117D01*
X146801492Y-89900166D01*
X146569530Y-89996248D01*
X146560736Y-90000729D01*
X146349125Y-90130404D01*
X146343078Y-90139670D01*
X144392527Y-90139670D01*
X144374145Y-90076399D01*
X144304386Y-89958443D01*
X144293491Y-89940020D01*
X144293489Y-89940017D01*
X144289453Y-89933193D01*
X144171807Y-89815547D01*
X144164983Y-89811511D01*
X144164980Y-89811509D01*
X144035427Y-89734892D01*
X144035428Y-89734892D01*
X144028601Y-89730855D01*
X144020991Y-89728644D01*
X144020986Y-89728642D01*
X143901848Y-89694030D01*
X143842012Y-89655817D01*
X143812334Y-89591321D01*
X143811000Y-89573033D01*
X143811000Y-88226447D01*
X143831002Y-88158326D01*
X143884658Y-88111833D01*
X143901847Y-88105450D01*
X144020788Y-88070894D01*
X144035221Y-88064648D01*
X144164678Y-87988089D01*
X144177104Y-87978449D01*
X144283449Y-87872104D01*
X144293089Y-87859678D01*
X144369648Y-87730221D01*
X144375893Y-87715790D01*
X144414939Y-87581395D01*
X144414899Y-87567294D01*
X144407630Y-87564000D01*
X143757695Y-87564000D01*
X143689574Y-87543998D01*
X143670169Y-87526789D01*
X143669500Y-87527502D01*
X143663493Y-87521861D01*
X143647812Y-87504074D01*
X143647634Y-87503829D01*
X143647632Y-87503827D01*
X143642972Y-87497413D01*
X143636862Y-87492358D01*
X143599704Y-87461617D01*
X143593770Y-87456386D01*
X143558602Y-87423362D01*
X143558599Y-87423360D01*
X143552821Y-87417934D01*
X143545597Y-87413962D01*
X143525994Y-87400639D01*
X143525754Y-87400440D01*
X143525747Y-87400436D01*
X143519644Y-87395387D01*
X143480100Y-87376779D01*
X143468824Y-87371473D01*
X143461792Y-87367891D01*
X143412560Y-87340825D01*
X143404885Y-87338855D01*
X143404879Y-87338852D01*
X143404581Y-87338776D01*
X143382272Y-87330744D01*
X143381997Y-87330614D01*
X143381989Y-87330611D01*
X143374818Y-87327237D01*
X143319651Y-87316714D01*
X143311942Y-87314991D01*
X143277949Y-87306263D01*
X143265207Y-87302991D01*
X143265206Y-87302991D01*
X143257530Y-87301020D01*
X143249293Y-87301020D01*
X143225684Y-87298788D01*
X143225381Y-87298730D01*
X143225377Y-87298730D01*
X143217594Y-87297245D01*
X143161549Y-87300771D01*
X143153638Y-87301020D01*
X143049500Y-87301020D01*
X142981379Y-87281018D01*
X142934886Y-87227362D01*
X142923500Y-87175020D01*
X142923500Y-87037885D01*
X143431500Y-87037885D01*
X143435975Y-87053124D01*
X143437365Y-87054329D01*
X143445048Y-87056000D01*
X144401878Y-87056000D01*
X144415409Y-87052027D01*
X144416544Y-87044129D01*
X144375893Y-86904210D01*
X144369648Y-86889779D01*
X144293089Y-86760322D01*
X144283449Y-86747896D01*
X144177104Y-86641551D01*
X144164678Y-86631911D01*
X144035221Y-86555352D01*
X144020790Y-86549107D01*
X143874935Y-86506731D01*
X143862333Y-86504430D01*
X143833916Y-86502193D01*
X143828986Y-86502000D01*
X143449615Y-86502000D01*
X143434376Y-86506475D01*
X143433171Y-86507865D01*
X143431500Y-86515548D01*
X143431500Y-87037885D01*
X142923500Y-87037885D01*
X142923500Y-86520116D01*
X142919025Y-86504877D01*
X142917635Y-86503672D01*
X142909952Y-86502001D01*
X142674500Y-86502001D01*
X142606379Y-86481999D01*
X142559886Y-86428343D01*
X142548500Y-86376001D01*
X142548500Y-86344500D01*
X142568502Y-86276379D01*
X142622158Y-86229886D01*
X142674500Y-86218500D01*
X143831502Y-86218500D01*
X143833950Y-86218307D01*
X143833958Y-86218307D01*
X143862421Y-86216067D01*
X143862426Y-86216066D01*
X143868831Y-86215562D01*
X143968769Y-86186528D01*
X144020988Y-86171357D01*
X144020990Y-86171356D01*
X144028601Y-86169145D01*
X144057411Y-86152107D01*
X144164980Y-86088491D01*
X144164983Y-86088489D01*
X144171807Y-86084453D01*
X144289453Y-85966807D01*
X144293489Y-85959983D01*
X144293491Y-85959980D01*
X144370108Y-85830427D01*
X144374145Y-85823601D01*
X144420562Y-85663831D01*
X144421552Y-85651264D01*
X144423307Y-85628958D01*
X144423307Y-85628950D01*
X144423500Y-85626502D01*
X144423500Y-85193498D01*
X144420562Y-85156169D01*
X144386661Y-85039481D01*
X144376357Y-85004012D01*
X144376356Y-85004010D01*
X144374145Y-84996399D01*
X144342091Y-84942198D01*
X144293491Y-84860020D01*
X144293489Y-84860017D01*
X144289453Y-84853193D01*
X144171807Y-84735547D01*
X144164983Y-84731511D01*
X144164980Y-84731509D01*
X144035427Y-84654892D01*
X144035428Y-84654892D01*
X144028601Y-84650855D01*
X144020991Y-84648644D01*
X144020986Y-84648642D01*
X143901848Y-84614030D01*
X143842012Y-84575817D01*
X143812334Y-84511321D01*
X143811000Y-84493033D01*
X143811000Y-74886848D01*
X143831002Y-74818727D01*
X143884658Y-74772234D01*
X143954932Y-74762130D01*
X144000569Y-74778060D01*
X144191000Y-74889338D01*
X144399692Y-74969030D01*
X144404760Y-74970061D01*
X144404763Y-74970062D01*
X144481863Y-74985748D01*
X144618597Y-75013567D01*
X144623772Y-75013757D01*
X144623774Y-75013757D01*
X144836673Y-75021564D01*
X144836677Y-75021564D01*
X144841837Y-75021753D01*
X144846957Y-75021097D01*
X144846959Y-75021097D01*
X145058288Y-74994025D01*
X145058289Y-74994025D01*
X145063416Y-74993368D01*
X145068366Y-74991883D01*
X145272429Y-74930661D01*
X145272434Y-74930659D01*
X145277384Y-74929174D01*
X145477994Y-74830896D01*
X145659860Y-74701173D01*
X145672310Y-74688767D01*
X145789458Y-74572027D01*
X145818096Y-74543489D01*
X145900114Y-74429349D01*
X145948453Y-74362077D01*
X145949776Y-74363028D01*
X145996645Y-74319857D01*
X146066580Y-74307625D01*
X146132026Y-74335144D01*
X146159875Y-74366994D01*
X146219987Y-74465088D01*
X146366250Y-74633938D01*
X146450846Y-74704171D01*
X146532829Y-74772234D01*
X146538126Y-74776632D01*
X146731000Y-74889338D01*
X146939692Y-74969030D01*
X146944760Y-74970061D01*
X146944763Y-74970062D01*
X147021863Y-74985748D01*
X147158597Y-75013567D01*
X147163772Y-75013757D01*
X147163774Y-75013757D01*
X147376673Y-75021564D01*
X147376677Y-75021564D01*
X147381837Y-75021753D01*
X147386957Y-75021097D01*
X147386959Y-75021097D01*
X147598288Y-74994025D01*
X147598289Y-74994025D01*
X147603416Y-74993368D01*
X147608366Y-74991883D01*
X147812429Y-74930661D01*
X147812434Y-74930659D01*
X147817384Y-74929174D01*
X148017994Y-74830896D01*
X148199860Y-74701173D01*
X148212310Y-74688767D01*
X148329458Y-74572027D01*
X148358096Y-74543489D01*
X148488453Y-74362077D01*
X148502463Y-74333731D01*
X148585136Y-74166453D01*
X148585137Y-74166451D01*
X148587430Y-74161811D01*
X148652370Y-73948069D01*
X148681529Y-73726590D01*
X148682323Y-73694105D01*
X148683074Y-73663365D01*
X148683074Y-73663361D01*
X148683156Y-73660000D01*
X148664852Y-73437361D01*
X148610431Y-73220702D01*
X148521354Y-73015840D01*
X148400014Y-72828277D01*
X148249670Y-72663051D01*
X148245619Y-72659852D01*
X148245615Y-72659848D01*
X148078414Y-72527800D01*
X148078410Y-72527798D01*
X148074359Y-72524598D01*
X148033053Y-72501796D01*
X147983084Y-72451364D01*
X147968312Y-72381921D01*
X147993428Y-72315516D01*
X148020780Y-72288909D01*
X148088212Y-72240810D01*
X148199860Y-72161173D01*
X148212894Y-72148185D01*
X148293486Y-72067874D01*
X148358096Y-72003489D01*
X148488453Y-71822077D01*
X148509320Y-71779857D01*
X148585136Y-71626453D01*
X148585137Y-71626451D01*
X148587430Y-71621811D01*
X148652370Y-71408069D01*
X148681529Y-71186590D01*
X148681777Y-71176447D01*
X148683074Y-71123365D01*
X148683074Y-71123361D01*
X148683156Y-71120000D01*
X148664852Y-70897361D01*
X148610431Y-70680702D01*
X148521354Y-70475840D01*
X148400014Y-70288277D01*
X148249670Y-70123051D01*
X148245619Y-70119852D01*
X148245615Y-70119848D01*
X148078414Y-69987800D01*
X148078410Y-69987798D01*
X148074359Y-69984598D01*
X148033053Y-69961796D01*
X147983084Y-69911364D01*
X147968312Y-69841921D01*
X147993428Y-69775516D01*
X148020780Y-69748909D01*
X148080936Y-69706000D01*
X148199860Y-69621173D01*
X148244416Y-69576773D01*
X148354435Y-69467137D01*
X148358096Y-69463489D01*
X148374748Y-69440316D01*
X148485435Y-69286277D01*
X148488453Y-69282077D01*
X148502124Y-69254417D01*
X148585136Y-69086453D01*
X148585137Y-69086451D01*
X148587430Y-69081811D01*
X148652370Y-68868069D01*
X148681529Y-68646590D01*
X148683156Y-68580000D01*
X148664852Y-68357361D01*
X148610431Y-68140702D01*
X148521354Y-67935840D01*
X148450925Y-67826973D01*
X148402822Y-67752617D01*
X148402820Y-67752614D01*
X148400014Y-67748277D01*
X148249670Y-67583051D01*
X148245619Y-67579852D01*
X148245615Y-67579848D01*
X148078414Y-67447800D01*
X148078410Y-67447798D01*
X148074359Y-67444598D01*
X148033053Y-67421796D01*
X147983084Y-67371364D01*
X147968312Y-67301921D01*
X147993428Y-67235516D01*
X148020780Y-67208909D01*
X148080426Y-67166364D01*
X148199860Y-67081173D01*
X148358096Y-66923489D01*
X148488453Y-66742077D01*
X148505836Y-66706906D01*
X148585136Y-66546453D01*
X148585137Y-66546451D01*
X148587430Y-66541811D01*
X148611101Y-66463901D01*
X148650042Y-66404537D01*
X148714896Y-66375650D01*
X148785072Y-66386411D01*
G37*
%TD.AperFunction*%
%TA.AperFunction,Conductor*%
G36*
X134406512Y-66572970D02*
G01*
X134413095Y-66579099D01*
X135724795Y-67890799D01*
X135758821Y-67953111D01*
X135761700Y-67979894D01*
X135761700Y-75192076D01*
X135741698Y-75260197D01*
X135729342Y-75276379D01*
X135656160Y-75357656D01*
X135560673Y-75523044D01*
X135501658Y-75704672D01*
X135500968Y-75711233D01*
X135500968Y-75711235D01*
X135486022Y-75853441D01*
X135481696Y-75894600D01*
X135482386Y-75901165D01*
X135500527Y-76073763D01*
X135501658Y-76084528D01*
X135560673Y-76266156D01*
X135656160Y-76431544D01*
X135660578Y-76436451D01*
X135660579Y-76436452D01*
X135773730Y-76562119D01*
X135783947Y-76573466D01*
X135868038Y-76634562D01*
X135927323Y-76677635D01*
X135938448Y-76685718D01*
X135944476Y-76688402D01*
X135944478Y-76688403D01*
X136105064Y-76759900D01*
X136112912Y-76763394D01*
X136200860Y-76782088D01*
X136293256Y-76801728D01*
X136293261Y-76801728D01*
X136299713Y-76803100D01*
X136490687Y-76803100D01*
X136497139Y-76801728D01*
X136497144Y-76801728D01*
X136589540Y-76782088D01*
X136677488Y-76763394D01*
X136685336Y-76759900D01*
X136845922Y-76688403D01*
X136845924Y-76688402D01*
X136851952Y-76685718D01*
X136863078Y-76677635D01*
X136922362Y-76634562D01*
X137006453Y-76573466D01*
X137016670Y-76562119D01*
X137129821Y-76436452D01*
X137129822Y-76436451D01*
X137134240Y-76431544D01*
X137229727Y-76266156D01*
X137288742Y-76084528D01*
X137289874Y-76073763D01*
X137308014Y-75901165D01*
X137308704Y-75894600D01*
X137304378Y-75853441D01*
X137289432Y-75711235D01*
X137289432Y-75711233D01*
X137288742Y-75704672D01*
X137229727Y-75523044D01*
X137134240Y-75357656D01*
X137061063Y-75276385D01*
X137030347Y-75212379D01*
X137028700Y-75192076D01*
X137028700Y-68472794D01*
X137048702Y-68404673D01*
X137102358Y-68358180D01*
X137172632Y-68348076D01*
X137237212Y-68377570D01*
X137243795Y-68383699D01*
X138307595Y-69447499D01*
X138341621Y-69509811D01*
X138344500Y-69536594D01*
X138344500Y-76057376D01*
X138324498Y-76125497D01*
X138312142Y-76141679D01*
X138238960Y-76222956D01*
X138191008Y-76306011D01*
X138152644Y-76372460D01*
X138143473Y-76388344D01*
X138084458Y-76569972D01*
X138083768Y-76576533D01*
X138083768Y-76576535D01*
X138071373Y-76694465D01*
X138064496Y-76759900D01*
X138065186Y-76766465D01*
X138083524Y-76940938D01*
X138084458Y-76949828D01*
X138143473Y-77131456D01*
X138238960Y-77296844D01*
X138366747Y-77438766D01*
X138465843Y-77510764D01*
X138505899Y-77539866D01*
X138521248Y-77551018D01*
X138527276Y-77553702D01*
X138527278Y-77553703D01*
X138676436Y-77620112D01*
X138695712Y-77628694D01*
X138789113Y-77648547D01*
X138876056Y-77667028D01*
X138876061Y-77667028D01*
X138882513Y-77668400D01*
X139073487Y-77668400D01*
X139079939Y-77667028D01*
X139079944Y-77667028D01*
X139166887Y-77648547D01*
X139260288Y-77628694D01*
X139279564Y-77620112D01*
X139428722Y-77553703D01*
X139428724Y-77553702D01*
X139434752Y-77551018D01*
X139450102Y-77539866D01*
X139490157Y-77510764D01*
X139589253Y-77438766D01*
X139717040Y-77296844D01*
X139812527Y-77131456D01*
X139871542Y-76949828D01*
X139872477Y-76940938D01*
X139890814Y-76766465D01*
X139891504Y-76759900D01*
X139884627Y-76694465D01*
X139872232Y-76576535D01*
X139872232Y-76576533D01*
X139871542Y-76569972D01*
X139812527Y-76388344D01*
X139803357Y-76372460D01*
X139764992Y-76306011D01*
X139717040Y-76222956D01*
X139643863Y-76141685D01*
X139613147Y-76077679D01*
X139611500Y-76057376D01*
X139611500Y-71416117D01*
X139631502Y-71347996D01*
X139685158Y-71301503D01*
X139755432Y-71291399D01*
X139820012Y-71320893D01*
X139831132Y-71331803D01*
X139939147Y-71451766D01*
X140093648Y-71564018D01*
X140099676Y-71566702D01*
X140099678Y-71566703D01*
X140233880Y-71626453D01*
X140268112Y-71641694D01*
X140361512Y-71661547D01*
X140448456Y-71680028D01*
X140448461Y-71680028D01*
X140454913Y-71681400D01*
X140516200Y-71681400D01*
X140584321Y-71701402D01*
X140630814Y-71755058D01*
X140642200Y-71807400D01*
X140642200Y-80035523D01*
X140622198Y-80103644D01*
X140568542Y-80150137D01*
X140498268Y-80160241D01*
X140454830Y-80143660D01*
X140454081Y-80145017D01*
X140263117Y-80039599D01*
X140253705Y-80035369D01*
X140052959Y-79964280D01*
X140042988Y-79961646D01*
X139971837Y-79948972D01*
X139958540Y-79950432D01*
X139954000Y-79964989D01*
X139954000Y-81408000D01*
X139933998Y-81476121D01*
X139880342Y-81522614D01*
X139828000Y-81534000D01*
X139572000Y-81534000D01*
X139503879Y-81513998D01*
X139457386Y-81460342D01*
X139446000Y-81408000D01*
X139446000Y-79963102D01*
X139442082Y-79949758D01*
X139427806Y-79947771D01*
X139389324Y-79953660D01*
X139379288Y-79956051D01*
X139176868Y-80022212D01*
X139167359Y-80026209D01*
X138978463Y-80124542D01*
X138969738Y-80130036D01*
X138828939Y-80235751D01*
X138762454Y-80260657D01*
X138693058Y-80245665D01*
X138664191Y-80224086D01*
X138152452Y-79712347D01*
X138144912Y-79704061D01*
X138140800Y-79697582D01*
X138114834Y-79673198D01*
X138091149Y-79650957D01*
X138088307Y-79648202D01*
X138068570Y-79628465D01*
X138065373Y-79625985D01*
X138056351Y-79618280D01*
X138038001Y-79601048D01*
X138024121Y-79588014D01*
X138017175Y-79584195D01*
X138017172Y-79584193D01*
X138006366Y-79578252D01*
X137989847Y-79567401D01*
X137985208Y-79563803D01*
X137973841Y-79554986D01*
X137966572Y-79551841D01*
X137966568Y-79551838D01*
X137933263Y-79537426D01*
X137922613Y-79532209D01*
X137883860Y-79510905D01*
X137864237Y-79505867D01*
X137845534Y-79499463D01*
X137834220Y-79494567D01*
X137834219Y-79494567D01*
X137826945Y-79491419D01*
X137819122Y-79490180D01*
X137819112Y-79490177D01*
X137783276Y-79484501D01*
X137771656Y-79482095D01*
X137736511Y-79473072D01*
X137736510Y-79473072D01*
X137728830Y-79471100D01*
X137708576Y-79471100D01*
X137688865Y-79469549D01*
X137676686Y-79467620D01*
X137668857Y-79466380D01*
X137639586Y-79469147D01*
X137624839Y-79470541D01*
X137612981Y-79471100D01*
X134142167Y-79471100D01*
X134130984Y-79470573D01*
X134123491Y-79468898D01*
X134115565Y-79469147D01*
X134115564Y-79469147D01*
X134055401Y-79471038D01*
X134051443Y-79471100D01*
X134023544Y-79471100D01*
X134019554Y-79471604D01*
X134007720Y-79472536D01*
X133963511Y-79473926D01*
X133955897Y-79476138D01*
X133955892Y-79476139D01*
X133944059Y-79479577D01*
X133924696Y-79483588D01*
X133904603Y-79486126D01*
X133897236Y-79489043D01*
X133897231Y-79489044D01*
X133863492Y-79502402D01*
X133852265Y-79506246D01*
X133809807Y-79518582D01*
X133802981Y-79522619D01*
X133792372Y-79528893D01*
X133774624Y-79537588D01*
X133755783Y-79545048D01*
X133749367Y-79549710D01*
X133749366Y-79549710D01*
X133720013Y-79571036D01*
X133710093Y-79577552D01*
X133678865Y-79596020D01*
X133678862Y-79596022D01*
X133672038Y-79600058D01*
X133657717Y-79614379D01*
X133642684Y-79627219D01*
X133626293Y-79639128D01*
X133621242Y-79645233D01*
X133621237Y-79645238D01*
X133598106Y-79673198D01*
X133590118Y-79681976D01*
X133077387Y-80194707D01*
X133015075Y-80228733D01*
X132944260Y-80223668D01*
X132910200Y-80204494D01*
X132838414Y-80147800D01*
X132838410Y-80147798D01*
X132834359Y-80144598D01*
X132820431Y-80136909D01*
X132743434Y-80094405D01*
X132638789Y-80036638D01*
X132633920Y-80034914D01*
X132633916Y-80034912D01*
X132433087Y-79963795D01*
X132433083Y-79963794D01*
X132428212Y-79962069D01*
X132423119Y-79961162D01*
X132423116Y-79961161D01*
X132213373Y-79923800D01*
X132213367Y-79923799D01*
X132208284Y-79922894D01*
X132134452Y-79921992D01*
X131990081Y-79920228D01*
X131990079Y-79920228D01*
X131984911Y-79920165D01*
X131764091Y-79953955D01*
X131551756Y-80023357D01*
X131507299Y-80046500D01*
X131379775Y-80112885D01*
X131353607Y-80126507D01*
X131349474Y-80129610D01*
X131349471Y-80129612D01*
X131208107Y-80235751D01*
X131174965Y-80260635D01*
X131171393Y-80264373D01*
X131063729Y-80377037D01*
X131020629Y-80422138D01*
X130913201Y-80579621D01*
X130858293Y-80624621D01*
X130787768Y-80632792D01*
X130724021Y-80601538D01*
X130703324Y-80577054D01*
X130622822Y-80452617D01*
X130622820Y-80452614D01*
X130620014Y-80448277D01*
X130469670Y-80283051D01*
X130465615Y-80279848D01*
X130462326Y-80277251D01*
X130421266Y-80219333D01*
X130418036Y-80148409D01*
X130451327Y-80089277D01*
X133660247Y-76880357D01*
X133668537Y-76872813D01*
X133675018Y-76868700D01*
X133721659Y-76819032D01*
X133724413Y-76816191D01*
X133744134Y-76796470D01*
X133746612Y-76793275D01*
X133754318Y-76784253D01*
X133771022Y-76766465D01*
X133784586Y-76752021D01*
X133794346Y-76734268D01*
X133805199Y-76717745D01*
X133812753Y-76708006D01*
X133817613Y-76701741D01*
X133835176Y-76661157D01*
X133840383Y-76650527D01*
X133861695Y-76611760D01*
X133863666Y-76604083D01*
X133863668Y-76604078D01*
X133866732Y-76592142D01*
X133873138Y-76573430D01*
X133874635Y-76569972D01*
X133881181Y-76554845D01*
X133882421Y-76547017D01*
X133882423Y-76547010D01*
X133888099Y-76511176D01*
X133890505Y-76499556D01*
X133899528Y-76464411D01*
X133899528Y-76464410D01*
X133901500Y-76456730D01*
X133901500Y-76436476D01*
X133903051Y-76416765D01*
X133904980Y-76404586D01*
X133906220Y-76396757D01*
X133902059Y-76352738D01*
X133901500Y-76340881D01*
X133901500Y-73978624D01*
X133921502Y-73910503D01*
X133933858Y-73894321D01*
X134007040Y-73813044D01*
X134083569Y-73680492D01*
X134099223Y-73653379D01*
X134099224Y-73653378D01*
X134102527Y-73647656D01*
X134161542Y-73466028D01*
X134163311Y-73449202D01*
X134180814Y-73282665D01*
X134181504Y-73276100D01*
X134175682Y-73220702D01*
X134162232Y-73092735D01*
X134162232Y-73092733D01*
X134161542Y-73086172D01*
X134102527Y-72904544D01*
X134007040Y-72739156D01*
X133941954Y-72666870D01*
X133883675Y-72602145D01*
X133883674Y-72602144D01*
X133879253Y-72597234D01*
X133754379Y-72506507D01*
X133730094Y-72488863D01*
X133730093Y-72488862D01*
X133724752Y-72484982D01*
X133718724Y-72482298D01*
X133718722Y-72482297D01*
X133556319Y-72409991D01*
X133556318Y-72409991D01*
X133550288Y-72407306D01*
X133543833Y-72405934D01*
X133543830Y-72405933D01*
X133525956Y-72402134D01*
X133463482Y-72368406D01*
X133429161Y-72306257D01*
X133428790Y-72253237D01*
X133429488Y-72249880D01*
X133430461Y-72245582D01*
X133432013Y-72239242D01*
X133433160Y-72234551D01*
X133468780Y-72173137D01*
X133531949Y-72140730D01*
X133555549Y-72138500D01*
X133738134Y-72138500D01*
X133800316Y-72131745D01*
X133936705Y-72080615D01*
X134053261Y-71993261D01*
X134140615Y-71876705D01*
X134191745Y-71740316D01*
X134198500Y-71678134D01*
X134198500Y-70081866D01*
X134191745Y-70019684D01*
X134140615Y-69883295D01*
X134134313Y-69874886D01*
X134082360Y-69805565D01*
X134057512Y-69739058D01*
X134072565Y-69669676D01*
X134082360Y-69654435D01*
X134135229Y-69583892D01*
X134135230Y-69583890D01*
X134140615Y-69576705D01*
X134191745Y-69440316D01*
X134198500Y-69378134D01*
X134198500Y-67781866D01*
X134191745Y-67719684D01*
X134140615Y-67583295D01*
X134082047Y-67505148D01*
X134057199Y-67438642D01*
X134072252Y-67369259D01*
X134082047Y-67354018D01*
X134134786Y-67283648D01*
X134143324Y-67268054D01*
X134188478Y-67147606D01*
X134192105Y-67132351D01*
X134197631Y-67081486D01*
X134198000Y-67074672D01*
X134198000Y-66668194D01*
X134218002Y-66600073D01*
X134271658Y-66553580D01*
X134341932Y-66543476D01*
X134406512Y-66572970D01*
G37*
%TD.AperFunction*%
%TA.AperFunction,Conductor*%
G36*
X118758423Y-74318934D02*
G01*
X118790855Y-74344759D01*
X118826247Y-74384066D01*
X118923806Y-74454947D01*
X118954271Y-74477081D01*
X118980748Y-74496318D01*
X118986776Y-74499002D01*
X118986778Y-74499003D01*
X119106021Y-74552093D01*
X119155212Y-74573994D01*
X119231069Y-74590118D01*
X119335556Y-74612328D01*
X119335561Y-74612328D01*
X119342013Y-74613700D01*
X119397906Y-74613700D01*
X119466027Y-74633702D01*
X119487001Y-74650605D01*
X120575227Y-75738832D01*
X120609253Y-75801144D01*
X120604188Y-75871960D01*
X120561641Y-75928795D01*
X120501183Y-75952500D01*
X120499713Y-75952500D01*
X120312912Y-75992206D01*
X120306882Y-75994891D01*
X120306881Y-75994891D01*
X120144478Y-76067197D01*
X120144476Y-76067198D01*
X120138448Y-76069882D01*
X120133107Y-76073762D01*
X120133106Y-76073763D01*
X120109649Y-76090806D01*
X119983947Y-76182134D01*
X119979526Y-76187044D01*
X119979525Y-76187045D01*
X119922531Y-76250344D01*
X119856160Y-76324056D01*
X119815415Y-76394629D01*
X119775005Y-76464621D01*
X119760673Y-76489444D01*
X119701658Y-76671072D01*
X119700968Y-76677633D01*
X119700968Y-76677635D01*
X119692322Y-76759900D01*
X119687782Y-76803100D01*
X119684293Y-76836292D01*
X119657280Y-76901949D01*
X119648078Y-76912217D01*
X119045805Y-77514490D01*
X118983493Y-77548516D01*
X118917043Y-77544988D01*
X118841285Y-77519861D01*
X118827920Y-77516995D01*
X118733562Y-77507328D01*
X118727145Y-77507000D01*
X118614615Y-77507000D01*
X118599376Y-77511475D01*
X118598171Y-77512865D01*
X118596500Y-77520548D01*
X118596500Y-79954882D01*
X118600643Y-79968992D01*
X118602868Y-80031273D01*
X118596500Y-80060547D01*
X118596500Y-81408000D01*
X118576498Y-81476121D01*
X118522842Y-81522614D01*
X118470500Y-81534000D01*
X118214500Y-81534000D01*
X118146379Y-81513998D01*
X118099886Y-81460342D01*
X118088500Y-81408000D01*
X118088500Y-80065118D01*
X118084357Y-80051008D01*
X118082132Y-79988727D01*
X118088500Y-79959453D01*
X118088500Y-79012115D01*
X118084025Y-78996876D01*
X118082635Y-78995671D01*
X118074952Y-78994000D01*
X117265116Y-78994000D01*
X117249877Y-78998475D01*
X117227966Y-79023761D01*
X117168240Y-79062144D01*
X117097244Y-79062144D01*
X117043647Y-79030343D01*
X116481190Y-78467885D01*
X117247000Y-78467885D01*
X117251475Y-78483124D01*
X117252865Y-78484329D01*
X117260548Y-78486000D01*
X118070385Y-78486000D01*
X118085624Y-78481525D01*
X118086829Y-78480135D01*
X118088500Y-78472452D01*
X118088500Y-77525116D01*
X118084025Y-77509877D01*
X118082635Y-77508672D01*
X118074952Y-77507001D01*
X117957905Y-77507001D01*
X117951386Y-77507338D01*
X117855794Y-77517257D01*
X117842400Y-77520149D01*
X117688216Y-77571588D01*
X117675038Y-77577761D01*
X117537193Y-77663063D01*
X117525792Y-77672099D01*
X117411261Y-77786829D01*
X117402249Y-77798240D01*
X117317184Y-77936243D01*
X117311037Y-77949424D01*
X117259862Y-78103710D01*
X117256995Y-78117086D01*
X117247328Y-78211438D01*
X117247000Y-78217855D01*
X117247000Y-78467885D01*
X116481190Y-78467885D01*
X116022405Y-78009100D01*
X115988379Y-77946788D01*
X115985500Y-77920005D01*
X115985500Y-76008295D01*
X116005502Y-75940174D01*
X116059158Y-75893681D01*
X116129432Y-75883577D01*
X116191391Y-75910861D01*
X116238912Y-75949826D01*
X116247678Y-75955850D01*
X116438682Y-76064576D01*
X116448346Y-76069041D01*
X116654941Y-76144031D01*
X116665208Y-76146802D01*
X116868174Y-76183504D01*
X116881414Y-76182085D01*
X116886000Y-76167450D01*
X116886000Y-76163849D01*
X117394000Y-76163849D01*
X117398310Y-76178527D01*
X117410193Y-76180590D01*
X117489325Y-76173876D01*
X117499797Y-76172086D01*
X117712535Y-76116870D01*
X117722575Y-76113335D01*
X117922970Y-76023063D01*
X117932256Y-76017894D01*
X118114575Y-75895150D01*
X118122870Y-75888481D01*
X118281900Y-75736772D01*
X118288941Y-75728814D01*
X118420141Y-75552475D01*
X118425745Y-75543438D01*
X118525357Y-75347516D01*
X118529357Y-75337665D01*
X118594534Y-75127760D01*
X118596817Y-75117376D01*
X118598861Y-75101957D01*
X118596665Y-75087793D01*
X118583478Y-75084000D01*
X117412115Y-75084000D01*
X117396876Y-75088475D01*
X117395671Y-75089865D01*
X117394000Y-75097548D01*
X117394000Y-76163849D01*
X116886000Y-76163849D01*
X116886000Y-74702000D01*
X116906002Y-74633879D01*
X116959658Y-74587386D01*
X117012000Y-74576000D01*
X118581192Y-74576000D01*
X118594723Y-74572027D01*
X118596248Y-74561420D01*
X118573908Y-74454947D01*
X118579496Y-74384170D01*
X118622461Y-74327650D01*
X118689162Y-74303331D01*
X118758423Y-74318934D01*
G37*
%TD.AperFunction*%
%TA.AperFunction,Conductor*%
G36*
X128915412Y-61730370D02*
G01*
X128921995Y-61736499D01*
X130464143Y-63278647D01*
X130471687Y-63286937D01*
X130475800Y-63293418D01*
X130481577Y-63298843D01*
X130525467Y-63340058D01*
X130528309Y-63342813D01*
X130548031Y-63362535D01*
X130551155Y-63364958D01*
X130551159Y-63364962D01*
X130551224Y-63365012D01*
X130560245Y-63372717D01*
X130592479Y-63402986D01*
X130599427Y-63406805D01*
X130599429Y-63406807D01*
X130610232Y-63412746D01*
X130626759Y-63423602D01*
X130636498Y-63431157D01*
X130636500Y-63431158D01*
X130642760Y-63436014D01*
X130683340Y-63453574D01*
X130693988Y-63458791D01*
X130718776Y-63472418D01*
X130732740Y-63480095D01*
X130740416Y-63482066D01*
X130740419Y-63482067D01*
X130752362Y-63485133D01*
X130771067Y-63491537D01*
X130789655Y-63499581D01*
X130797478Y-63500820D01*
X130797488Y-63500823D01*
X130833324Y-63506499D01*
X130844944Y-63508905D01*
X130880089Y-63517928D01*
X130887770Y-63519900D01*
X130908024Y-63519900D01*
X130927734Y-63521451D01*
X130947743Y-63524620D01*
X130955635Y-63523874D01*
X130974380Y-63522102D01*
X130991762Y-63520459D01*
X131003619Y-63519900D01*
X137792933Y-63519900D01*
X137804116Y-63520427D01*
X137811609Y-63522102D01*
X137819535Y-63521853D01*
X137819536Y-63521853D01*
X137879686Y-63519962D01*
X137883645Y-63519900D01*
X137911556Y-63519900D01*
X137915491Y-63519403D01*
X137915556Y-63519395D01*
X137927393Y-63518462D01*
X137959651Y-63517448D01*
X137963670Y-63517322D01*
X137971589Y-63517073D01*
X137991043Y-63511421D01*
X138010400Y-63507413D01*
X138022630Y-63505868D01*
X138022631Y-63505868D01*
X138030497Y-63504874D01*
X138037868Y-63501955D01*
X138037870Y-63501955D01*
X138071612Y-63488596D01*
X138082842Y-63484751D01*
X138117683Y-63474629D01*
X138117684Y-63474629D01*
X138125293Y-63472418D01*
X138132112Y-63468385D01*
X138132117Y-63468383D01*
X138142728Y-63462107D01*
X138160476Y-63453412D01*
X138179317Y-63445952D01*
X138215087Y-63419964D01*
X138225007Y-63413448D01*
X138256235Y-63394980D01*
X138256238Y-63394978D01*
X138263062Y-63390942D01*
X138277383Y-63376621D01*
X138292417Y-63363780D01*
X138294131Y-63362535D01*
X138308807Y-63351872D01*
X138336998Y-63317795D01*
X138344988Y-63309016D01*
X139137868Y-62516136D01*
X139200180Y-62482110D01*
X139270995Y-62487175D01*
X139327831Y-62529722D01*
X139336079Y-62542225D01*
X139358260Y-62580644D01*
X139431437Y-62661915D01*
X139462153Y-62725921D01*
X139463800Y-62746224D01*
X139463800Y-67481506D01*
X139443798Y-67549627D01*
X139390142Y-67596120D01*
X139319868Y-67606224D01*
X139255288Y-67576730D01*
X139248705Y-67570601D01*
X138154226Y-66476121D01*
X136882622Y-65204517D01*
X136848596Y-65142205D01*
X136846407Y-65128592D01*
X136829732Y-64969935D01*
X136829732Y-64969933D01*
X136829042Y-64963372D01*
X136770027Y-64781744D01*
X136764500Y-64772170D01*
X136683126Y-64631227D01*
X136674540Y-64616356D01*
X136546753Y-64474434D01*
X136392252Y-64362182D01*
X136386224Y-64359498D01*
X136386222Y-64359497D01*
X136223819Y-64287191D01*
X136223818Y-64287191D01*
X136217788Y-64284506D01*
X136124388Y-64264653D01*
X136037444Y-64246172D01*
X136037439Y-64246172D01*
X136030987Y-64244800D01*
X135840013Y-64244800D01*
X135833561Y-64246172D01*
X135833556Y-64246172D01*
X135746612Y-64264653D01*
X135653212Y-64284506D01*
X135647182Y-64287191D01*
X135647181Y-64287191D01*
X135639208Y-64290741D01*
X135506661Y-64349754D01*
X135436296Y-64359188D01*
X135371999Y-64329082D01*
X135361778Y-64318957D01*
X135336373Y-64290741D01*
X135336364Y-64290733D01*
X135331953Y-64285834D01*
X135289646Y-64255096D01*
X135182794Y-64177463D01*
X135182793Y-64177462D01*
X135177452Y-64173582D01*
X135171424Y-64170898D01*
X135171422Y-64170897D01*
X135009019Y-64098591D01*
X135009018Y-64098591D01*
X135002988Y-64095906D01*
X134909587Y-64076053D01*
X134822644Y-64057572D01*
X134822639Y-64057572D01*
X134816187Y-64056200D01*
X134625213Y-64056200D01*
X134618761Y-64057572D01*
X134618756Y-64057572D01*
X134531813Y-64076053D01*
X134438412Y-64095906D01*
X134432385Y-64098589D01*
X134432377Y-64098592D01*
X134277112Y-64167720D01*
X134206745Y-64177154D01*
X134151803Y-64154549D01*
X134085894Y-64106663D01*
X134085893Y-64106662D01*
X134080552Y-64102782D01*
X134074524Y-64100098D01*
X134074522Y-64100097D01*
X133912119Y-64027791D01*
X133912118Y-64027791D01*
X133906088Y-64025106D01*
X133812688Y-64005253D01*
X133725744Y-63986772D01*
X133725739Y-63986772D01*
X133719287Y-63985400D01*
X133528313Y-63985400D01*
X133521861Y-63986772D01*
X133521856Y-63986772D01*
X133434912Y-64005253D01*
X133341512Y-64025106D01*
X133335482Y-64027791D01*
X133335481Y-64027791D01*
X133173078Y-64100097D01*
X133173076Y-64100098D01*
X133167048Y-64102782D01*
X133012547Y-64215034D01*
X133008126Y-64219944D01*
X133008125Y-64219945D01*
X132892846Y-64347976D01*
X132884760Y-64356956D01*
X132881459Y-64362674D01*
X132814099Y-64479345D01*
X132789273Y-64522344D01*
X132730258Y-64703972D01*
X132729568Y-64710533D01*
X132729568Y-64710535D01*
X132718157Y-64819107D01*
X132710296Y-64893900D01*
X132710640Y-64897177D01*
X132690984Y-64964121D01*
X132637328Y-65010614D01*
X132584986Y-65022000D01*
X131645331Y-65022001D01*
X131638510Y-65022371D01*
X131587648Y-65027895D01*
X131572396Y-65031521D01*
X131451946Y-65076676D01*
X131436351Y-65085214D01*
X131334276Y-65161715D01*
X131321715Y-65174276D01*
X131245214Y-65276351D01*
X131236676Y-65291946D01*
X131191522Y-65412394D01*
X131187895Y-65427649D01*
X131182369Y-65478514D01*
X131182000Y-65485328D01*
X131182000Y-66007885D01*
X131186475Y-66023124D01*
X131187865Y-66024329D01*
X131195548Y-66026000D01*
X132818000Y-66026000D01*
X132886121Y-66046002D01*
X132932614Y-66099658D01*
X132944000Y-66152000D01*
X132944000Y-66408000D01*
X132923998Y-66476121D01*
X132870342Y-66522614D01*
X132818000Y-66534000D01*
X131200116Y-66534000D01*
X131184877Y-66538475D01*
X131183672Y-66539865D01*
X131182001Y-66547548D01*
X131182001Y-66745200D01*
X131161999Y-66813321D01*
X131108343Y-66859814D01*
X131056001Y-66871200D01*
X129537995Y-66871200D01*
X129469874Y-66851198D01*
X129448899Y-66834295D01*
X128743804Y-66129199D01*
X128709779Y-66066887D01*
X128706900Y-66040104D01*
X128706900Y-61825594D01*
X128726902Y-61757473D01*
X128780558Y-61710980D01*
X128850832Y-61700876D01*
X128915412Y-61730370D01*
G37*
%TD.AperFunction*%
%TA.AperFunction,Conductor*%
G36*
X147364032Y-63200924D02*
G01*
X147409095Y-63229885D01*
X148430474Y-64251264D01*
X148455845Y-64265118D01*
X148500802Y-64274897D01*
X148551005Y-64325098D01*
X148566419Y-64385486D01*
X148566420Y-65065463D01*
X148546418Y-65133584D01*
X148492762Y-65180077D01*
X148422489Y-65190181D01*
X148357908Y-65160688D01*
X148347227Y-65150263D01*
X148253152Y-65046876D01*
X148253142Y-65046867D01*
X148249670Y-65043051D01*
X148245616Y-65039849D01*
X148245615Y-65039848D01*
X148078414Y-64907800D01*
X148078410Y-64907798D01*
X148074359Y-64904598D01*
X148032569Y-64881529D01*
X147982598Y-64831097D01*
X147967826Y-64761654D01*
X147992942Y-64695248D01*
X148020293Y-64668642D01*
X148069247Y-64633723D01*
X148077648Y-64623023D01*
X148070660Y-64609870D01*
X147332812Y-63872022D01*
X147318868Y-63864408D01*
X147317035Y-63864539D01*
X147310420Y-63868790D01*
X146566737Y-64612473D01*
X146559977Y-64624853D01*
X146565258Y-64631907D01*
X146611969Y-64659203D01*
X146660693Y-64710841D01*
X146673764Y-64780624D01*
X146647033Y-64846396D01*
X146606584Y-64879752D01*
X146593607Y-64886507D01*
X146589474Y-64889610D01*
X146589471Y-64889612D01*
X146419100Y-65017530D01*
X146414965Y-65020635D01*
X146260629Y-65182138D01*
X146153201Y-65339621D01*
X146098293Y-65384621D01*
X146027768Y-65392792D01*
X145964021Y-65361538D01*
X145943324Y-65337054D01*
X145862822Y-65212617D01*
X145862820Y-65212614D01*
X145860014Y-65208277D01*
X145709670Y-65043051D01*
X145667006Y-65009357D01*
X145625944Y-64951441D01*
X145622712Y-64880518D01*
X145658337Y-64819107D01*
X145691647Y-64796376D01*
X145697007Y-64793865D01*
X145703946Y-64791550D01*
X145854348Y-64698478D01*
X145979305Y-64573303D01*
X145983146Y-64567072D01*
X146068275Y-64428968D01*
X146068276Y-64428966D01*
X146072115Y-64422738D01*
X146096913Y-64347975D01*
X146137342Y-64289616D01*
X146166630Y-64271934D01*
X146205694Y-64255096D01*
X147230905Y-63229885D01*
X147293217Y-63195859D01*
X147364032Y-63200924D01*
G37*
%TD.AperFunction*%
%TD*%
M02*
