%TF.GenerationSoftware,KiCad,Pcbnew,(6.0.4)*%
%TF.CreationDate,2022-04-18T16:03:53+05:30*%
%TF.ProjectId,esp32 switch,65737033-3220-4737-9769-7463682e6b69,rev?*%
%TF.SameCoordinates,Original*%
%TF.FileFunction,Soldermask,Bot*%
%TF.FilePolarity,Negative*%
%FSLAX46Y46*%
G04 Gerber Fmt 4.6, Leading zero omitted, Abs format (unit mm)*
G04 Created by KiCad (PCBNEW (6.0.4)) date 2022-04-18 16:03:53*
%MOMM*%
%LPD*%
G01*
G04 APERTURE LIST*
G04 Aperture macros list*
%AMRoundRect*
0 Rectangle with rounded corners*
0 $1 Rounding radius*
0 $2 $3 $4 $5 $6 $7 $8 $9 X,Y pos of 4 corners*
0 Add a 4 corners polygon primitive as box body*
4,1,4,$2,$3,$4,$5,$6,$7,$8,$9,$2,$3,0*
0 Add four circle primitives for the rounded corners*
1,1,$1+$1,$2,$3*
1,1,$1+$1,$4,$5*
1,1,$1+$1,$6,$7*
1,1,$1+$1,$8,$9*
0 Add four rect primitives between the rounded corners*
20,1,$1+$1,$2,$3,$4,$5,0*
20,1,$1+$1,$4,$5,$6,$7,0*
20,1,$1+$1,$6,$7,$8,$9,0*
20,1,$1+$1,$8,$9,$2,$3,0*%
G04 Aperture macros list end*
%ADD10R,2.300000X2.000000*%
%ADD11C,2.300000*%
%ADD12R,1.700000X1.700000*%
%ADD13O,1.700000X1.700000*%
%ADD14R,1.980000X3.960000*%
%ADD15O,1.980000X3.960000*%
%ADD16R,1.980000X1.980000*%
%ADD17C,1.980000*%
%ADD18C,1.935000*%
%ADD19RoundRect,0.250000X-0.725000X0.600000X-0.725000X-0.600000X0.725000X-0.600000X0.725000X0.600000X0*%
%ADD20O,1.950000X1.700000*%
%ADD21RoundRect,0.250000X-0.600000X-0.600000X0.600000X-0.600000X0.600000X0.600000X-0.600000X0.600000X0*%
%ADD22C,1.700000*%
%ADD23RoundRect,0.150000X0.587500X0.150000X-0.587500X0.150000X-0.587500X-0.150000X0.587500X-0.150000X0*%
%ADD24R,0.900000X1.200000*%
%ADD25R,2.000000X1.500000*%
%ADD26R,2.000000X3.800000*%
%ADD27RoundRect,0.250000X-0.450000X0.350000X-0.450000X-0.350000X0.450000X-0.350000X0.450000X0.350000X0*%
%ADD28RoundRect,0.250000X0.337500X0.475000X-0.337500X0.475000X-0.337500X-0.475000X0.337500X-0.475000X0*%
%ADD29RoundRect,0.250000X-0.337500X-0.475000X0.337500X-0.475000X0.337500X0.475000X-0.337500X0.475000X0*%
G04 APERTURE END LIST*
D10*
%TO.C,PS1*%
X120650000Y-87670000D03*
D11*
X120650000Y-92670000D03*
X147320000Y-91480000D03*
X147320000Y-101680000D03*
%TD*%
D12*
%TO.C,J6*%
X124460000Y-81280000D03*
D13*
X127000000Y-81280000D03*
X129540000Y-81280000D03*
X132080000Y-81280000D03*
X134620000Y-81280000D03*
X137160000Y-81280000D03*
X139700000Y-81280000D03*
%TD*%
D14*
%TO.C,J1*%
X109360000Y-99060000D03*
D15*
X104360000Y-99060000D03*
X99360000Y-99060000D03*
X94360000Y-99060000D03*
%TD*%
D16*
%TO.C,K3*%
X156460000Y-57500000D03*
D17*
X156460000Y-69500000D03*
D18*
X154460000Y-63500000D03*
D17*
X168660000Y-57500000D03*
X168660000Y-69500000D03*
%TD*%
D14*
%TO.C,J2*%
X170180000Y-99060000D03*
D15*
X165180000Y-99060000D03*
X160180000Y-99060000D03*
%TD*%
D16*
%TO.C,K1*%
X107700000Y-87280000D03*
D17*
X107700000Y-75280000D03*
D18*
X109700000Y-81280000D03*
D17*
X95500000Y-87280000D03*
X95500000Y-75280000D03*
%TD*%
D19*
%TO.C,J5*%
X117140000Y-62330000D03*
D20*
X117140000Y-64830000D03*
X117140000Y-67330000D03*
X117140000Y-69830000D03*
X117140000Y-72330000D03*
X117140000Y-74830000D03*
%TD*%
D16*
%TO.C,K4*%
X156460000Y-75280000D03*
D17*
X156460000Y-87280000D03*
D18*
X154460000Y-81280000D03*
D17*
X168660000Y-75280000D03*
X168660000Y-87280000D03*
%TD*%
D21*
%TO.C,J4*%
X144780000Y-63500000D03*
D22*
X147320000Y-63500000D03*
X144780000Y-66040000D03*
X147320000Y-66040000D03*
X144780000Y-68580000D03*
X147320000Y-68580000D03*
X144780000Y-71120000D03*
X147320000Y-71120000D03*
X144780000Y-73660000D03*
X147320000Y-73660000D03*
%TD*%
D16*
%TO.C,K2*%
X107700000Y-69500000D03*
D17*
X107700000Y-57500000D03*
D18*
X109700000Y-63500000D03*
D17*
X95500000Y-69500000D03*
X95500000Y-57500000D03*
%TD*%
D23*
%TO.C,Q3*%
X143177500Y-95570000D03*
X143177500Y-97470000D03*
X141302500Y-96520000D03*
%TD*%
D24*
%TO.C,D1*%
X136270000Y-86360000D03*
X132970000Y-86360000D03*
%TD*%
D25*
%TO.C,U1*%
X132690000Y-66280000D03*
X132690000Y-68580000D03*
D26*
X126390000Y-68580000D03*
D25*
X132690000Y-70880000D03*
%TD*%
D23*
%TO.C,Q4*%
X143177500Y-100650000D03*
X143177500Y-102550000D03*
X141302500Y-101600000D03*
%TD*%
%TO.C,Q2*%
X143177500Y-90490000D03*
X143177500Y-92390000D03*
X141302500Y-91440000D03*
%TD*%
D24*
%TO.C,D4*%
X136270000Y-101600000D03*
X132970000Y-101600000D03*
%TD*%
D23*
%TO.C,Q1*%
X143177500Y-85410000D03*
X143177500Y-87310000D03*
X141302500Y-86360000D03*
%TD*%
D24*
%TO.C,D3*%
X136270000Y-96520000D03*
X132970000Y-96520000D03*
%TD*%
D27*
%TO.C,R4*%
X137160000Y-59960000D03*
X137160000Y-61960000D03*
%TD*%
D24*
%TO.C,D2*%
X136270000Y-91440000D03*
X132970000Y-91440000D03*
%TD*%
D28*
%TO.C,C1*%
X120417500Y-81280000D03*
X118342500Y-81280000D03*
%TD*%
D27*
%TO.C,R3*%
X132080000Y-59960000D03*
X132080000Y-61960000D03*
%TD*%
%TO.C,R2*%
X127000000Y-59960000D03*
X127000000Y-61960000D03*
%TD*%
%TO.C,R1*%
X121920000Y-59960000D03*
X121920000Y-61960000D03*
%TD*%
D29*
%TO.C,C2*%
X118342500Y-78740000D03*
X120417500Y-78740000D03*
%TD*%
M02*
