%TF.GenerationSoftware,KiCad,Pcbnew,(6.0.4)*%
%TF.CreationDate,2022-04-18T16:03:53+05:30*%
%TF.ProjectId,esp32 switch,65737033-3220-4737-9769-7463682e6b69,rev?*%
%TF.SameCoordinates,Original*%
%TF.FileFunction,Copper,L1,Top*%
%TF.FilePolarity,Positive*%
%FSLAX46Y46*%
G04 Gerber Fmt 4.6, Leading zero omitted, Abs format (unit mm)*
G04 Created by KiCad (PCBNEW (6.0.4)) date 2022-04-18 16:03:53*
%MOMM*%
%LPD*%
G01*
G04 APERTURE LIST*
G04 Aperture macros list*
%AMRoundRect*
0 Rectangle with rounded corners*
0 $1 Rounding radius*
0 $2 $3 $4 $5 $6 $7 $8 $9 X,Y pos of 4 corners*
0 Add a 4 corners polygon primitive as box body*
4,1,4,$2,$3,$4,$5,$6,$7,$8,$9,$2,$3,0*
0 Add four circle primitives for the rounded corners*
1,1,$1+$1,$2,$3*
1,1,$1+$1,$4,$5*
1,1,$1+$1,$6,$7*
1,1,$1+$1,$8,$9*
0 Add four rect primitives between the rounded corners*
20,1,$1+$1,$2,$3,$4,$5,0*
20,1,$1+$1,$4,$5,$6,$7,0*
20,1,$1+$1,$6,$7,$8,$9,0*
20,1,$1+$1,$8,$9,$2,$3,0*%
G04 Aperture macros list end*
%TA.AperFunction,ComponentPad*%
%ADD10R,2.300000X2.000000*%
%TD*%
%TA.AperFunction,ComponentPad*%
%ADD11C,2.300000*%
%TD*%
%TA.AperFunction,ComponentPad*%
%ADD12R,1.700000X1.700000*%
%TD*%
%TA.AperFunction,ComponentPad*%
%ADD13O,1.700000X1.700000*%
%TD*%
%TA.AperFunction,SMDPad,CuDef*%
%ADD14R,2.000000X0.900000*%
%TD*%
%TA.AperFunction,SMDPad,CuDef*%
%ADD15R,0.900000X2.000000*%
%TD*%
%TA.AperFunction,SMDPad,CuDef*%
%ADD16R,5.000000X5.000000*%
%TD*%
%TA.AperFunction,ComponentPad*%
%ADD17R,1.980000X3.960000*%
%TD*%
%TA.AperFunction,ComponentPad*%
%ADD18O,1.980000X3.960000*%
%TD*%
%TA.AperFunction,ComponentPad*%
%ADD19R,1.980000X1.980000*%
%TD*%
%TA.AperFunction,ComponentPad*%
%ADD20C,1.980000*%
%TD*%
%TA.AperFunction,ComponentPad*%
%ADD21C,1.935000*%
%TD*%
%TA.AperFunction,ComponentPad*%
%ADD22RoundRect,0.250000X-0.725000X0.600000X-0.725000X-0.600000X0.725000X-0.600000X0.725000X0.600000X0*%
%TD*%
%TA.AperFunction,ComponentPad*%
%ADD23O,1.950000X1.700000*%
%TD*%
%TA.AperFunction,ComponentPad*%
%ADD24RoundRect,0.250000X-0.600000X-0.600000X0.600000X-0.600000X0.600000X0.600000X-0.600000X0.600000X0*%
%TD*%
%TA.AperFunction,ComponentPad*%
%ADD25C,1.700000*%
%TD*%
%TA.AperFunction,ViaPad*%
%ADD26C,0.800000*%
%TD*%
%TA.AperFunction,Conductor*%
%ADD27C,0.500000*%
%TD*%
%TA.AperFunction,Conductor*%
%ADD28C,2.000000*%
%TD*%
%TA.AperFunction,Conductor*%
%ADD29C,1.000000*%
%TD*%
%TA.AperFunction,Conductor*%
%ADD30C,0.250000*%
%TD*%
G04 APERTURE END LIST*
D10*
%TO.P,PS1,1,AC/L*%
%TO.N,Net-(J1-Pad1)*%
X120650000Y-87670000D03*
D11*
%TO.P,PS1,2,AC/N*%
%TO.N,Net-(J1-Pad2)*%
X120650000Y-92670000D03*
%TO.P,PS1,3,-Vout*%
%TO.N,GND*%
X147320000Y-91480000D03*
%TO.P,PS1,4,+Vout*%
%TO.N,VCC*%
X147320000Y-101680000D03*
%TD*%
D12*
%TO.P,J6,1,Pin_1*%
%TO.N,VCC*%
X124460000Y-81280000D03*
D13*
%TO.P,J6,2,Pin_2*%
%TO.N,Net-(J6-Pad2)*%
X127000000Y-81280000D03*
%TO.P,J6,3,Pin_3*%
%TO.N,Net-(J6-Pad3)*%
X129540000Y-81280000D03*
%TO.P,J6,4,Pin_4*%
%TO.N,Net-(J6-Pad4)*%
X132080000Y-81280000D03*
%TO.P,J6,5,Pin_5*%
%TO.N,Net-(J6-Pad5)*%
X134620000Y-81280000D03*
%TO.P,J6,6,Pin_6*%
%TO.N,Net-(J6-Pad6)*%
X137160000Y-81280000D03*
%TO.P,J6,7,Pin_7*%
%TO.N,GND*%
X139700000Y-81280000D03*
%TD*%
D14*
%TO.P,U2,1,GND*%
%TO.N,GND*%
X121040000Y-57955000D03*
%TO.P,U2,2,VDD*%
%TO.N,Net-(U1-Pad2)*%
X121040000Y-59225000D03*
%TO.P,U2,3,EN*%
%TO.N,Net-(J6-Pad2)*%
X121040000Y-60495000D03*
%TO.P,U2,4,SENSOR_VP*%
%TO.N,unconnected-(U2-Pad4)*%
X121040000Y-61765000D03*
%TO.P,U2,5,SENSOR_VN*%
%TO.N,unconnected-(U2-Pad5)*%
X121040000Y-63035000D03*
%TO.P,U2,6,IO34*%
%TO.N,Net-(J4-Pad8)*%
X121040000Y-64305000D03*
%TO.P,U2,7,IO35*%
%TO.N,Net-(J4-Pad7)*%
X121040000Y-65575000D03*
%TO.P,U2,8,IO32*%
%TO.N,Net-(J4-Pad10)*%
X121040000Y-66845000D03*
%TO.P,U2,9,IO33*%
%TO.N,Net-(J4-Pad9)*%
X121040000Y-68115000D03*
%TO.P,U2,10,IO25*%
%TO.N,Net-(R2-Pad2)*%
X121040000Y-69385000D03*
%TO.P,U2,11,IO26*%
%TO.N,Net-(R1-Pad2)*%
X121040000Y-70655000D03*
%TO.P,U2,12,IO27*%
%TO.N,Net-(J4-Pad5)*%
X121040000Y-71925000D03*
%TO.P,U2,13,IO14*%
%TO.N,Net-(J4-Pad4)*%
X121040000Y-73195000D03*
%TO.P,U2,14,IO12*%
%TO.N,unconnected-(U2-Pad14)*%
X121040000Y-74465000D03*
D15*
%TO.P,U2,15,GND*%
%TO.N,GND*%
X123825000Y-75465000D03*
%TO.P,U2,16,IO13*%
%TO.N,Net-(J4-Pad3)*%
X125095000Y-75465000D03*
%TO.P,U2,17,SHD/SD2*%
%TO.N,unconnected-(U2-Pad17)*%
X126365000Y-75465000D03*
%TO.P,U2,18,SWP/SD3*%
%TO.N,unconnected-(U2-Pad18)*%
X127635000Y-75465000D03*
%TO.P,U2,19,SCS/CMD*%
%TO.N,unconnected-(U2-Pad19)*%
X128905000Y-75465000D03*
%TO.P,U2,20,SCK/CLK*%
%TO.N,unconnected-(U2-Pad20)*%
X130175000Y-75465000D03*
%TO.P,U2,21,SDO/SD0*%
%TO.N,unconnected-(U2-Pad21)*%
X131445000Y-75465000D03*
%TO.P,U2,22,SDI/SD1*%
%TO.N,unconnected-(U2-Pad22)*%
X132715000Y-75465000D03*
%TO.P,U2,23,IO15*%
%TO.N,unconnected-(U2-Pad23)*%
X133985000Y-75465000D03*
%TO.P,U2,24,IO2*%
%TO.N,Net-(J6-Pad6)*%
X135255000Y-75465000D03*
D14*
%TO.P,U2,25,IO0*%
%TO.N,Net-(J6-Pad3)*%
X138040000Y-74465000D03*
%TO.P,U2,26,IO4*%
%TO.N,Net-(J4-Pad6)*%
X138040000Y-73195000D03*
%TO.P,U2,27,IO16*%
%TO.N,unconnected-(U2-Pad27)*%
X138040000Y-71925000D03*
%TO.P,U2,28,IO17*%
%TO.N,unconnected-(U2-Pad28)*%
X138040000Y-70655000D03*
%TO.P,U2,29,IO5*%
%TO.N,Net-(J5-Pad2)*%
X138040000Y-69385000D03*
%TO.P,U2,30,IO18*%
%TO.N,Net-(J5-Pad3)*%
X138040000Y-68115000D03*
%TO.P,U2,31,IO19*%
%TO.N,Net-(J5-Pad4)*%
X138040000Y-66845000D03*
%TO.P,U2,32,NC*%
%TO.N,unconnected-(U2-Pad32)*%
X138040000Y-65575000D03*
%TO.P,U2,33,IO21*%
%TO.N,Net-(J5-Pad5)*%
X138040000Y-64305000D03*
%TO.P,U2,34,RXD0/IO3*%
%TO.N,Net-(J6-Pad5)*%
X138040000Y-63035000D03*
%TO.P,U2,35,TXD0/IO1*%
%TO.N,Net-(J6-Pad4)*%
X138040000Y-61765000D03*
%TO.P,U2,36,IO22*%
%TO.N,Net-(R3-Pad2)*%
X138040000Y-60495000D03*
%TO.P,U2,37,IO23*%
%TO.N,Net-(R4-Pad2)*%
X138040000Y-59225000D03*
%TO.P,U2,38,GND*%
%TO.N,GND*%
X138040000Y-57955000D03*
D16*
%TO.P,U2,39,GND*%
X128540000Y-65455000D03*
%TD*%
D17*
%TO.P,J1,1,Pin_1*%
%TO.N,Net-(J1-Pad1)*%
X109360000Y-99060000D03*
D18*
%TO.P,J1,2,Pin_2*%
%TO.N,Net-(J1-Pad2)*%
X104360000Y-99060000D03*
%TO.P,J1,3,Pin_3*%
%TO.N,Net-(J1-Pad3)*%
X99360000Y-99060000D03*
%TO.P,J1,4,Pin_4*%
%TO.N,Net-(J1-Pad4)*%
X94360000Y-99060000D03*
%TD*%
D19*
%TO.P,K3,A1*%
%TO.N,Net-(D3-Pad2)*%
X156460000Y-57500000D03*
D20*
%TO.P,K3,A2*%
%TO.N,VCC*%
X156460000Y-69500000D03*
D21*
%TO.P,K3,COM*%
%TO.N,Net-(J1-Pad2)*%
X154460000Y-63500000D03*
D20*
%TO.P,K3,NC*%
%TO.N,unconnected-(K3-PadNC)*%
X168660000Y-57500000D03*
%TO.P,K3,NO*%
%TO.N,Net-(J2-Pad1)*%
X168660000Y-69500000D03*
%TD*%
D17*
%TO.P,J2,1,Pin_1*%
%TO.N,Net-(J2-Pad1)*%
X170180000Y-99060000D03*
D18*
%TO.P,J2,2,Pin_2*%
%TO.N,Net-(J2-Pad2)*%
X165180000Y-99060000D03*
%TO.P,J2,3,Pin_3*%
%TO.N,Net-(J1-Pad2)*%
X160180000Y-99060000D03*
%TD*%
D19*
%TO.P,K1,A1*%
%TO.N,Net-(D1-Pad2)*%
X107700000Y-87280000D03*
D20*
%TO.P,K1,A2*%
%TO.N,VCC*%
X107700000Y-75280000D03*
D21*
%TO.P,K1,COM*%
%TO.N,Net-(J1-Pad2)*%
X109700000Y-81280000D03*
D20*
%TO.P,K1,NC*%
%TO.N,unconnected-(K1-PadNC)*%
X95500000Y-87280000D03*
%TO.P,K1,NO*%
%TO.N,Net-(J1-Pad4)*%
X95500000Y-75280000D03*
%TD*%
D22*
%TO.P,J5,1,Pin_1*%
%TO.N,VCC*%
X117140000Y-62330000D03*
D23*
%TO.P,J5,2,Pin_2*%
%TO.N,Net-(J5-Pad2)*%
X117140000Y-64830000D03*
%TO.P,J5,3,Pin_3*%
%TO.N,Net-(J5-Pad3)*%
X117140000Y-67330000D03*
%TO.P,J5,4,Pin_4*%
%TO.N,Net-(J5-Pad4)*%
X117140000Y-69830000D03*
%TO.P,J5,5,Pin_5*%
%TO.N,Net-(J5-Pad5)*%
X117140000Y-72330000D03*
%TO.P,J5,6,Pin_6*%
%TO.N,GND*%
X117140000Y-74830000D03*
%TD*%
D19*
%TO.P,K4,A1*%
%TO.N,Net-(D4-Pad2)*%
X156460000Y-75280000D03*
D20*
%TO.P,K4,A2*%
%TO.N,VCC*%
X156460000Y-87280000D03*
D21*
%TO.P,K4,COM*%
%TO.N,Net-(J1-Pad2)*%
X154460000Y-81280000D03*
D20*
%TO.P,K4,NC*%
%TO.N,unconnected-(K4-PadNC)*%
X168660000Y-75280000D03*
%TO.P,K4,NO*%
%TO.N,Net-(J2-Pad2)*%
X168660000Y-87280000D03*
%TD*%
D24*
%TO.P,J4,1,Pin_1*%
%TO.N,VCC*%
X144780000Y-63500000D03*
D25*
%TO.P,J4,2,Pin_2*%
%TO.N,GND*%
X147320000Y-63500000D03*
%TO.P,J4,3,Pin_3*%
%TO.N,Net-(J4-Pad3)*%
X144780000Y-66040000D03*
%TO.P,J4,4,Pin_4*%
%TO.N,Net-(J4-Pad4)*%
X147320000Y-66040000D03*
%TO.P,J4,5,Pin_5*%
%TO.N,Net-(J4-Pad5)*%
X144780000Y-68580000D03*
%TO.P,J4,6,Pin_6*%
%TO.N,Net-(J4-Pad6)*%
X147320000Y-68580000D03*
%TO.P,J4,7,Pin_7*%
%TO.N,Net-(J4-Pad7)*%
X144780000Y-71120000D03*
%TO.P,J4,8,Pin_8*%
%TO.N,Net-(J4-Pad8)*%
X147320000Y-71120000D03*
%TO.P,J4,9,Pin_9*%
%TO.N,Net-(J4-Pad9)*%
X144780000Y-73660000D03*
%TO.P,J4,10,Pin_10*%
%TO.N,Net-(J4-Pad10)*%
X147320000Y-73660000D03*
%TD*%
D19*
%TO.P,K2,A1*%
%TO.N,Net-(D2-Pad2)*%
X107700000Y-69500000D03*
D20*
%TO.P,K2,A2*%
%TO.N,VCC*%
X107700000Y-57500000D03*
D21*
%TO.P,K2,COM*%
%TO.N,Net-(J1-Pad2)*%
X109700000Y-63500000D03*
D20*
%TO.P,K2,NC*%
%TO.N,unconnected-(K2-PadNC)*%
X95500000Y-69500000D03*
%TO.P,K2,NO*%
%TO.N,Net-(J1-Pad3)*%
X95500000Y-57500000D03*
%TD*%
D26*
%TO.N,VCC*%
X136270000Y-88191300D03*
%TO.N,Net-(D1-Pad2)*%
X131892700Y-85356500D03*
X141182000Y-85356500D03*
%TO.N,Net-(D2-Pad2)*%
X113368000Y-69500000D03*
%TO.N,Net-(D3-Pad2)*%
X142240000Y-93980000D03*
X142240000Y-88900000D03*
X141561700Y-82865300D03*
%TO.N,Net-(D4-Pad2)*%
X150295600Y-76282200D03*
%TO.N,GND*%
X143168400Y-86360000D03*
X134326800Y-67832200D03*
%TO.N,Net-(J4-Pad4)*%
X119437500Y-73705200D03*
X123064600Y-79893900D03*
%TO.N,Net-(J4-Pad5)*%
X140550400Y-70772900D03*
X135935500Y-65153300D03*
%TO.N,Net-(J5-Pad2)*%
X114099700Y-70207500D03*
X120595200Y-76861000D03*
X125769400Y-77156100D03*
X129798000Y-73047700D03*
%TO.N,Net-(J5-Pad3)*%
X113311600Y-64921900D03*
X143303300Y-62397200D03*
%TO.N,Net-(J5-Pad4)*%
X122655500Y-72795700D03*
%TO.N,Net-(J5-Pad5)*%
X129924400Y-60817300D03*
%TO.N,Net-(Q3-Pad1)*%
X141821100Y-98162000D03*
X116840000Y-80671700D03*
%TO.N,Net-(Q4-Pad1)*%
X143568800Y-99134200D03*
X114732500Y-78640900D03*
%TO.N,Net-(R1-Pad2)*%
X118440400Y-66445500D03*
%TO.N,Net-(R2-Pad2)*%
X123440800Y-69385000D03*
%TO.N,Net-(R3-Pad2)*%
X134599400Y-60495000D03*
%TO.N,Net-(R4-Pad2)*%
X136117400Y-58795600D03*
%TO.N,Net-(J4-Pad7)*%
X133623800Y-64893900D03*
X136395200Y-75894600D03*
%TO.N,Net-(J4-Pad9)*%
X134720700Y-64964700D03*
X138978000Y-76759900D03*
%TO.N,Net-(J6-Pad2)*%
X125094900Y-64900000D03*
X125038700Y-78490200D03*
%TO.N,Net-(J6-Pad3)*%
X133268000Y-73276100D03*
%TO.N,Net-(J6-Pad4)*%
X140097300Y-62043700D03*
%TO.N,Net-(J6-Pad5)*%
X141370000Y-63288500D03*
%TO.N,Net-(U1-Pad2)*%
X125542000Y-59652000D03*
%TD*%
D27*
%TO.N,Net-(D3-Pad2)*%
X153320000Y-57500000D02*
X156460000Y-57500000D01*
X150350320Y-60469680D02*
X153320000Y-57500000D01*
X150350320Y-74076680D02*
X150350320Y-60469680D01*
X141561700Y-82865300D02*
X150350320Y-74076680D01*
%TO.N,VCC*%
X108741500Y-76321500D02*
X118201200Y-76321500D01*
X136270000Y-90630000D02*
X136270000Y-88191300D01*
X136270000Y-87280000D02*
X136270000Y-88191300D01*
X156460000Y-87280000D02*
X136270000Y-87280000D01*
X107700000Y-57500000D02*
X112310000Y-57500000D01*
X136270000Y-87280000D02*
X130460000Y-87280000D01*
X107700000Y-75280000D02*
X108741500Y-76321500D01*
X112310000Y-57500000D02*
X117140000Y-62330000D01*
X130460000Y-87280000D02*
X124460000Y-81280000D01*
X147320000Y-101680000D02*
X136270000Y-90630000D01*
X118201200Y-76321500D02*
X123159700Y-81280000D01*
X124460000Y-81280000D02*
X123159700Y-81280000D01*
%TO.N,Net-(D1-Pad2)*%
X141182000Y-85356500D02*
X131892700Y-85356500D01*
%TO.N,Net-(D2-Pad2)*%
X107700000Y-69500000D02*
X113368000Y-69500000D01*
%TO.N,Net-(D3-Pad2)*%
X142240000Y-93980000D02*
X142240000Y-88900000D01*
%TO.N,Net-(D4-Pad2)*%
X154142500Y-76282200D02*
X155144700Y-75280000D01*
X150295600Y-76282200D02*
X154142500Y-76282200D01*
X156460000Y-75280000D02*
X155144700Y-75280000D01*
D28*
%TO.N,Net-(J1-Pad3)*%
X95500000Y-57500000D02*
X99360000Y-61360000D01*
X99360000Y-61360000D02*
X99360000Y-99060000D01*
%TO.N,Net-(J2-Pad1)*%
X172720000Y-96520000D02*
X170180000Y-99060000D01*
X172720000Y-73560000D02*
X172720000Y-96520000D01*
X168660000Y-69500000D02*
X172720000Y-73560000D01*
D27*
%TO.N,GND*%
X122924700Y-74739900D02*
X122924700Y-74196000D01*
X134326800Y-67890000D02*
X130019400Y-72197400D01*
X134326800Y-67832200D02*
X134326800Y-67890000D01*
X143168400Y-86360000D02*
X143168400Y-86048700D01*
X130019400Y-72197400D02*
X129445800Y-72197400D01*
X137314900Y-57955000D02*
X138040000Y-57955000D01*
X147320000Y-61611100D02*
X147320000Y-62200489D01*
X137314900Y-57955000D02*
X136589700Y-57955000D01*
X147320000Y-62200489D02*
X147320000Y-63050480D01*
X131675300Y-57863900D02*
X128540000Y-60999200D01*
X118390200Y-74830000D02*
X118945800Y-75385600D01*
X139700000Y-81280000D02*
X139700000Y-82580300D01*
X124275400Y-73564300D02*
X123825000Y-74014700D01*
X143663900Y-57955000D02*
X147320000Y-61611100D01*
X143168400Y-86048700D02*
X139700000Y-82580300D01*
X128540000Y-60999200D02*
X128540000Y-65455000D01*
X138040000Y-57955000D02*
X143663900Y-57955000D01*
X125495800Y-57955000D02*
X121040000Y-57955000D01*
X128078900Y-73564300D02*
X124275400Y-73564300D01*
X136498600Y-57863900D02*
X131675300Y-57863900D01*
X123825000Y-75465000D02*
X123825000Y-74014700D01*
X123106000Y-74014700D02*
X123825000Y-74014700D01*
X129445800Y-72197400D02*
X128078900Y-73564300D01*
X122924700Y-74196000D02*
X123106000Y-74014700D01*
X122279000Y-75385600D02*
X122924700Y-74739900D01*
X128540000Y-60999200D02*
X125495800Y-57955000D01*
X118945800Y-75385600D02*
X122279000Y-75385600D01*
X117140000Y-74830000D02*
X118390200Y-74830000D01*
X136589700Y-57955000D02*
X136498600Y-57863900D01*
D29*
%TO.N,Net-(J1-Pad2)*%
X104360000Y-96520000D02*
X106900000Y-93980000D01*
D28*
X154460000Y-81280000D02*
X160020000Y-81280000D01*
D29*
X119340000Y-93980000D02*
X120650000Y-92670000D01*
D28*
X154460000Y-63500000D02*
X157480000Y-63500000D01*
X157480000Y-63500000D02*
X162560000Y-68580000D01*
X162560000Y-83820000D02*
X162560000Y-96680000D01*
X162560000Y-96680000D02*
X160180000Y-99060000D01*
X160020000Y-81280000D02*
X162560000Y-83820000D01*
D29*
X106900000Y-93980000D02*
X119340000Y-93980000D01*
X104360000Y-99060000D02*
X104360000Y-96520000D01*
D28*
X162560000Y-68580000D02*
X162560000Y-81600000D01*
X162560000Y-81280000D02*
X162560000Y-83820000D01*
D30*
%TO.N,Net-(J4-Pad3)*%
X140599280Y-69698320D02*
X139825100Y-70472500D01*
X144780000Y-66227717D02*
X141309397Y-69698320D01*
X139200100Y-75248800D02*
X136875800Y-75248800D01*
X125095000Y-74139700D02*
X125095000Y-75465000D01*
X136030400Y-74275000D02*
X135895100Y-74139700D01*
X135895100Y-74139700D02*
X125095000Y-74139700D01*
X141309397Y-69698320D02*
X140599280Y-69698320D01*
X139825100Y-74623800D02*
X139200100Y-75248800D01*
X144780000Y-66040000D02*
X144780000Y-66227717D01*
X136875800Y-75248800D02*
X136030400Y-74403400D01*
X139825100Y-70472500D02*
X139825100Y-74623800D01*
X136030400Y-74403400D02*
X136030400Y-74275000D01*
%TO.N,Net-(J4-Pad4)*%
X126496700Y-82503000D02*
X137625200Y-82503000D01*
X123064600Y-79893900D02*
X125275900Y-79893900D01*
X137625200Y-82503000D02*
X138430000Y-81698200D01*
X146050000Y-67310000D02*
X147320000Y-66040000D01*
X125275900Y-79893900D02*
X125635400Y-80253400D01*
X125635400Y-80253400D02*
X125635400Y-81641700D01*
X138430000Y-80885300D02*
X143060100Y-76255200D01*
X143060100Y-76255200D02*
X143901100Y-76255200D01*
X119714700Y-73195000D02*
X119714700Y-73428000D01*
X146050000Y-74106300D02*
X146050000Y-67310000D01*
X143901100Y-76255200D02*
X146050000Y-74106300D01*
X119714700Y-73428000D02*
X119437500Y-73705200D01*
X121040000Y-73195000D02*
X119714700Y-73195000D01*
X138430000Y-81698200D02*
X138430000Y-80885300D01*
X125635400Y-81641700D02*
X126496700Y-82503000D01*
%TO.N,Net-(J4-Pad5)*%
X132907100Y-67461000D02*
X132907100Y-67859100D01*
X129594400Y-71171800D02*
X129020800Y-71171800D01*
X135005900Y-66082900D02*
X134285200Y-66082900D01*
X129020800Y-71171800D02*
X128267600Y-71925000D01*
X134285200Y-66082900D02*
X132907100Y-67461000D01*
X135935500Y-65153300D02*
X135005900Y-66082900D01*
X140550400Y-70772900D02*
X142587100Y-70772900D01*
X128267600Y-71925000D02*
X121040000Y-71925000D01*
X132907100Y-67859100D02*
X129594400Y-71171800D01*
X142587100Y-70772900D02*
X144780000Y-68580000D01*
%TO.N,Net-(J5-Pad2)*%
X117140000Y-64830000D02*
X115839700Y-64830000D01*
X114099700Y-69139100D02*
X114099700Y-70207500D01*
X112586200Y-64610100D02*
X112586200Y-67625600D01*
X125474300Y-76861000D02*
X120595200Y-76861000D01*
X112999800Y-64196500D02*
X112586200Y-64610100D01*
X125769400Y-77156100D02*
X125474300Y-76861000D01*
X112586200Y-67625600D02*
X114099700Y-69139100D01*
X131605400Y-73047700D02*
X135268100Y-69385000D01*
X115839700Y-64830000D02*
X115206200Y-64196500D01*
X129798000Y-73047700D02*
X131605400Y-73047700D01*
X135268100Y-69385000D02*
X138040000Y-69385000D01*
X115206200Y-64196500D02*
X112999800Y-64196500D01*
%TO.N,Net-(J5-Pad3)*%
X143303300Y-62397200D02*
X143303300Y-64177000D01*
X143303300Y-64177000D02*
X139365300Y-68115000D01*
X138040000Y-68115000D02*
X139365300Y-68115000D01*
X117140000Y-67330000D02*
X115719700Y-67330000D01*
X115719700Y-67330000D02*
X113311600Y-64921900D01*
%TO.N,Net-(J5-Pad4)*%
X128033800Y-72795700D02*
X122655500Y-72795700D01*
X133357400Y-67727100D02*
X133357400Y-68045700D01*
X129781000Y-71622100D02*
X129207400Y-71622100D01*
X129207400Y-71622100D02*
X128033800Y-72795700D01*
X134239500Y-66845000D02*
X133357400Y-67727100D01*
X138040000Y-66845000D02*
X134239500Y-66845000D01*
X133357400Y-68045700D02*
X129781000Y-71622100D01*
%TO.N,Net-(J5-Pad5)*%
X129924400Y-60817300D02*
X133227000Y-60817300D01*
X133227000Y-60817300D02*
X136714700Y-64305000D01*
X138040000Y-64305000D02*
X136714700Y-64305000D01*
%TO.N,Net-(Q3-Pad1)*%
X117134000Y-80671700D02*
X119723200Y-83260900D01*
X116840000Y-80671700D02*
X117134000Y-80671700D01*
X124644000Y-83260900D02*
X139545100Y-98162000D01*
X119723200Y-83260900D02*
X124644000Y-83260900D01*
X139545100Y-98162000D02*
X141821100Y-98162000D01*
%TO.N,Net-(Q4-Pad1)*%
X125148900Y-82810600D02*
X130662200Y-88323900D01*
X143568800Y-98883800D02*
X143568800Y-99134200D01*
X130662200Y-88323900D02*
X133008900Y-88323900D01*
X119051400Y-78640900D02*
X123221100Y-82810600D01*
X114732500Y-78640900D02*
X119051400Y-78640900D01*
X133008900Y-88323900D02*
X143568800Y-98883800D01*
X123221100Y-82810600D02*
X125148900Y-82810600D01*
%TO.N,Net-(R1-Pad2)*%
X119714700Y-70655000D02*
X121040000Y-70655000D01*
X118440400Y-69380700D02*
X119714700Y-70655000D01*
X118440400Y-66445500D02*
X118440400Y-69380700D01*
%TO.N,Net-(R2-Pad2)*%
X123440800Y-69385000D02*
X121040000Y-69385000D01*
%TO.N,Net-(R3-Pad2)*%
X138040000Y-60495000D02*
X134599400Y-60495000D01*
%TO.N,Net-(R4-Pad2)*%
X136714700Y-59225000D02*
X136285300Y-58795600D01*
X138040000Y-59225000D02*
X136714700Y-59225000D01*
X136285300Y-58795600D02*
X136117400Y-58795600D01*
%TO.N,Net-(J4-Pad6)*%
X141548000Y-68824000D02*
X141123200Y-69248800D01*
X140411900Y-69248800D02*
X139365300Y-70295400D01*
X148843880Y-65902870D02*
X148843880Y-67056120D01*
X138040000Y-73195000D02*
X139365300Y-73195000D01*
X147711510Y-64770500D02*
X148843880Y-65902870D01*
X146049500Y-64770500D02*
X144333600Y-64770500D01*
X144333600Y-64770500D02*
X141548000Y-67556100D01*
X141548000Y-67556100D02*
X141548000Y-68824000D01*
X139365300Y-70295400D02*
X139365300Y-73195000D01*
X141123200Y-69248800D02*
X140411900Y-69248800D01*
X148843880Y-67056120D02*
X147320000Y-68580000D01*
X146049500Y-64770500D02*
X147711510Y-64770500D01*
%TO.N,Net-(J4-Pad7)*%
X122508900Y-65575000D02*
X125223200Y-68289300D01*
X121040000Y-65575000D02*
X122508900Y-65575000D01*
X136395200Y-75894600D02*
X140005400Y-75894600D01*
X125223200Y-68289300D02*
X131203100Y-68289300D01*
X131847200Y-67645200D02*
X131847200Y-66670500D01*
X140005400Y-75894600D02*
X144780000Y-71120000D01*
X131203100Y-68289300D02*
X131847200Y-67645200D01*
X131847200Y-66670500D02*
X133623800Y-64893900D01*
%TO.N,Net-(J4-Pad8)*%
X143754400Y-57163300D02*
X149293400Y-62702300D01*
X121040000Y-64305000D02*
X119714700Y-64305000D01*
X119714700Y-64305000D02*
X119714700Y-57365600D01*
X119714700Y-57365600D02*
X119917000Y-57163300D01*
X149293400Y-69146600D02*
X147320000Y-71120000D01*
X149293400Y-62702300D02*
X149293400Y-69146600D01*
X119917000Y-57163300D02*
X143754400Y-57163300D01*
%TO.N,Net-(J4-Pad9)*%
X124187000Y-68115000D02*
X124811600Y-68739600D01*
X121040000Y-68115000D02*
X122365300Y-68115000D01*
X131389700Y-68739600D02*
X132456800Y-67672500D01*
X138978000Y-76759900D02*
X141680100Y-76759900D01*
X122365300Y-68115000D02*
X124187000Y-68115000D01*
X132456800Y-67228600D02*
X134720700Y-64964700D01*
X141680100Y-76759900D02*
X144780000Y-73660000D01*
X132456800Y-67672500D02*
X132456800Y-67228600D01*
X124811600Y-68739600D02*
X131389700Y-68739600D01*
%TO.N,Net-(J4-Pad10)*%
X121040000Y-66845000D02*
X119714700Y-66845000D01*
X149775800Y-71204200D02*
X147320000Y-73660000D01*
X119264400Y-66394700D02*
X119264400Y-57179000D01*
X143922500Y-56647200D02*
X149775800Y-62500500D01*
X119264400Y-57179000D02*
X119796200Y-56647200D01*
X149775800Y-62500500D02*
X149775800Y-71204200D01*
X119714700Y-66845000D02*
X119264400Y-66394700D01*
X119796200Y-56647200D02*
X143922500Y-56647200D01*
%TO.N,Net-(J6-Pad2)*%
X127000000Y-80104700D02*
X126653200Y-80104700D01*
X126653200Y-80104700D02*
X125038700Y-78490200D01*
X122365300Y-62170400D02*
X125094900Y-64900000D01*
X127000000Y-81280000D02*
X127000000Y-80104700D01*
X122365300Y-60495000D02*
X122365300Y-62170400D01*
X121040000Y-60495000D02*
X122365300Y-60495000D01*
%TO.N,Net-(J6-Pad3)*%
X137306300Y-74465000D02*
X136117400Y-73276100D01*
X138040000Y-74465000D02*
X137306300Y-74465000D01*
X136117400Y-73276100D02*
X133268000Y-73276100D01*
%TO.N,Net-(J6-Pad4)*%
X139818600Y-61765000D02*
X140097300Y-62043700D01*
X139365300Y-61765000D02*
X139818600Y-61765000D01*
X138040000Y-61765000D02*
X139365300Y-61765000D01*
%TO.N,Net-(J6-Pad5)*%
X138040000Y-63035000D02*
X136714700Y-63035000D01*
X136714700Y-63035000D02*
X136714700Y-63215500D01*
X136787700Y-63288500D02*
X141370000Y-63288500D01*
X136714700Y-63215500D02*
X136787700Y-63288500D01*
%TO.N,Net-(J6-Pad6)*%
X137160000Y-81280000D02*
X137160000Y-80104700D01*
X135255000Y-78199700D02*
X137160000Y-80104700D01*
X135255000Y-75465000D02*
X135255000Y-78199700D01*
%TO.N,Net-(U1-Pad2)*%
X121040000Y-59225000D02*
X125115000Y-59225000D01*
X125115000Y-59225000D02*
X125542000Y-59652000D01*
%TD*%
%TA.AperFunction,Conductor*%
%TO.N,GND*%
G36*
X155164790Y-88058502D02*
G01*
X155204102Y-88098665D01*
X155246625Y-88168056D01*
X155407961Y-88354307D01*
X155411936Y-88357607D01*
X155411940Y-88357611D01*
X155439289Y-88380316D01*
X155597550Y-88511707D01*
X155810300Y-88636028D01*
X155815120Y-88637868D01*
X155815125Y-88637871D01*
X155963523Y-88694538D01*
X156040499Y-88723932D01*
X156045567Y-88724963D01*
X156045570Y-88724964D01*
X156154844Y-88747196D01*
X156281964Y-88773059D01*
X156287137Y-88773249D01*
X156287140Y-88773249D01*
X156523045Y-88781899D01*
X156523049Y-88781899D01*
X156528209Y-88782088D01*
X156533329Y-88781432D01*
X156533331Y-88781432D01*
X156767496Y-88751435D01*
X156767497Y-88751435D01*
X156772624Y-88750778D01*
X156777574Y-88749293D01*
X157003687Y-88681456D01*
X157003692Y-88681454D01*
X157008642Y-88679969D01*
X157098337Y-88636028D01*
X157225275Y-88573842D01*
X157225280Y-88573839D01*
X157229926Y-88571563D01*
X157234136Y-88568560D01*
X157234141Y-88568557D01*
X157426321Y-88431476D01*
X157426326Y-88431472D01*
X157430533Y-88428471D01*
X157480000Y-88379176D01*
X157480000Y-88900000D01*
X152400000Y-88900000D01*
X152400000Y-91440000D01*
X149860000Y-104140000D01*
X132805038Y-104140000D01*
X132736917Y-104119998D01*
X132690424Y-104066342D01*
X132681666Y-104039601D01*
X131947240Y-100500424D01*
X129665679Y-89505644D01*
X129671423Y-89434882D01*
X129714513Y-89378457D01*
X129781268Y-89354286D01*
X129850494Y-89370042D01*
X129878146Y-89390950D01*
X139041443Y-98554247D01*
X139048987Y-98562537D01*
X139053100Y-98569018D01*
X139058877Y-98574443D01*
X139102767Y-98615658D01*
X139105609Y-98618413D01*
X139125331Y-98638135D01*
X139128473Y-98640572D01*
X139128533Y-98640619D01*
X139137545Y-98648317D01*
X139163136Y-98672347D01*
X139169779Y-98678586D01*
X139176722Y-98682403D01*
X139187531Y-98688345D01*
X139204053Y-98699198D01*
X139220059Y-98711614D01*
X139227337Y-98714764D01*
X139227338Y-98714764D01*
X139260637Y-98729174D01*
X139271287Y-98734391D01*
X139310040Y-98755695D01*
X139317715Y-98757666D01*
X139317716Y-98757666D01*
X139329662Y-98760733D01*
X139348367Y-98767137D01*
X139366955Y-98775181D01*
X139374778Y-98776420D01*
X139374788Y-98776423D01*
X139410624Y-98782099D01*
X139422244Y-98784505D01*
X139457389Y-98793528D01*
X139465070Y-98795500D01*
X139485324Y-98795500D01*
X139505034Y-98797051D01*
X139525043Y-98800220D01*
X139532935Y-98799474D01*
X139569061Y-98796059D01*
X139580919Y-98795500D01*
X141112900Y-98795500D01*
X141181021Y-98815502D01*
X141200247Y-98831843D01*
X141200520Y-98831540D01*
X141205432Y-98835963D01*
X141209847Y-98840866D01*
X141215186Y-98844745D01*
X141352173Y-98944272D01*
X141364348Y-98953118D01*
X141370376Y-98955802D01*
X141370378Y-98955803D01*
X141532781Y-99028109D01*
X141538812Y-99030794D01*
X141632212Y-99050647D01*
X141719156Y-99069128D01*
X141719161Y-99069128D01*
X141725613Y-99070500D01*
X141916587Y-99070500D01*
X141923039Y-99069128D01*
X141923044Y-99069128D01*
X142009988Y-99050647D01*
X142103388Y-99030794D01*
X142109419Y-99028109D01*
X142271822Y-98955803D01*
X142271824Y-98955802D01*
X142277852Y-98953118D01*
X142290028Y-98944272D01*
X142427014Y-98844745D01*
X142432353Y-98840866D01*
X142437134Y-98835556D01*
X142437405Y-98835389D01*
X142441680Y-98831540D01*
X142442384Y-98832322D01*
X142497580Y-98798316D01*
X142568564Y-98799667D01*
X142619866Y-98830771D01*
X142638288Y-98849193D01*
X142672314Y-98911505D01*
X142674503Y-98951457D01*
X142655296Y-99134200D01*
X142675258Y-99324128D01*
X142734273Y-99505756D01*
X142829760Y-99671144D01*
X142957547Y-99813066D01*
X143112048Y-99925318D01*
X143118076Y-99928002D01*
X143118078Y-99928003D01*
X143280481Y-100000309D01*
X143286512Y-100002994D01*
X143351276Y-100016760D01*
X143466856Y-100041328D01*
X143466861Y-100041328D01*
X143473313Y-100042700D01*
X143664287Y-100042700D01*
X143670739Y-100041328D01*
X143670744Y-100041328D01*
X143786324Y-100016760D01*
X143851088Y-100002994D01*
X143857119Y-100000309D01*
X144019522Y-99928003D01*
X144019524Y-99928002D01*
X144025552Y-99925318D01*
X144180053Y-99813066D01*
X144184477Y-99808153D01*
X144186130Y-99806318D01*
X144187351Y-99805566D01*
X144189380Y-99803739D01*
X144189714Y-99804110D01*
X144246578Y-99769081D01*
X144317561Y-99770436D01*
X144368857Y-99801538D01*
X145687015Y-101119696D01*
X145721041Y-101182008D01*
X145720439Y-101238205D01*
X145678009Y-101414938D01*
X145678008Y-101414944D01*
X145676854Y-101419751D01*
X145656372Y-101680000D01*
X145676854Y-101940249D01*
X145678008Y-101945056D01*
X145678009Y-101945062D01*
X145716424Y-102105069D01*
X145737796Y-102194089D01*
X145837697Y-102435271D01*
X145974097Y-102657856D01*
X146143637Y-102856363D01*
X146342144Y-103025903D01*
X146564729Y-103162303D01*
X146569299Y-103164196D01*
X146569303Y-103164198D01*
X146801338Y-103260310D01*
X146805911Y-103262204D01*
X146894931Y-103283576D01*
X147054938Y-103321991D01*
X147054944Y-103321992D01*
X147059751Y-103323146D01*
X147320000Y-103343628D01*
X147580249Y-103323146D01*
X147585056Y-103321992D01*
X147585062Y-103321991D01*
X147745069Y-103283576D01*
X147834089Y-103262204D01*
X147838662Y-103260310D01*
X148070697Y-103164198D01*
X148070701Y-103164196D01*
X148075271Y-103162303D01*
X148297856Y-103025903D01*
X148496363Y-102856363D01*
X148665903Y-102657856D01*
X148802303Y-102435271D01*
X148902204Y-102194089D01*
X148923576Y-102105069D01*
X148961991Y-101945062D01*
X148961992Y-101945056D01*
X148963146Y-101940249D01*
X148983628Y-101680000D01*
X148963146Y-101419751D01*
X148961992Y-101414944D01*
X148961991Y-101414938D01*
X148919560Y-101238205D01*
X148902204Y-101165911D01*
X148900310Y-101161338D01*
X148804198Y-100929303D01*
X148804196Y-100929299D01*
X148802303Y-100924729D01*
X148665903Y-100702144D01*
X148496363Y-100503637D01*
X148297856Y-100334097D01*
X148075271Y-100197697D01*
X148070701Y-100195804D01*
X148070697Y-100195802D01*
X147838662Y-100099690D01*
X147838660Y-100099689D01*
X147834089Y-100097796D01*
X147745069Y-100076424D01*
X147585062Y-100038009D01*
X147585056Y-100038008D01*
X147580249Y-100036854D01*
X147320000Y-100016372D01*
X147059751Y-100036854D01*
X147054944Y-100038008D01*
X147054938Y-100038009D01*
X146878205Y-100080439D01*
X146807297Y-100076892D01*
X146759696Y-100047015D01*
X141724193Y-95011512D01*
X141690167Y-94949200D01*
X141695232Y-94878385D01*
X141737779Y-94821549D01*
X141804299Y-94796738D01*
X141864537Y-94807310D01*
X141907794Y-94826569D01*
X141957712Y-94848794D01*
X142051113Y-94868647D01*
X142138056Y-94887128D01*
X142138061Y-94887128D01*
X142144513Y-94888500D01*
X142335487Y-94888500D01*
X142341939Y-94887128D01*
X142341944Y-94887128D01*
X142428888Y-94868647D01*
X142522288Y-94848794D01*
X142564743Y-94829892D01*
X142690722Y-94773803D01*
X142690724Y-94773802D01*
X142696752Y-94771118D01*
X142851253Y-94658866D01*
X142979040Y-94516944D01*
X143074527Y-94351556D01*
X143133542Y-94169928D01*
X143135395Y-94152303D01*
X143152814Y-93986565D01*
X143153504Y-93980000D01*
X143152814Y-93973435D01*
X143134232Y-93796635D01*
X143134232Y-93796633D01*
X143133542Y-93790072D01*
X143074527Y-93608444D01*
X143015381Y-93506000D01*
X142998500Y-93443001D01*
X142998500Y-92822204D01*
X146343151Y-92822204D01*
X146347720Y-92828735D01*
X146560736Y-92959271D01*
X146569530Y-92963752D01*
X146801492Y-93059834D01*
X146810877Y-93062883D01*
X147055017Y-93121496D01*
X147064764Y-93123039D01*
X147315070Y-93142739D01*
X147324930Y-93142739D01*
X147575236Y-93123039D01*
X147584983Y-93121496D01*
X147829123Y-93062883D01*
X147838508Y-93059834D01*
X148070470Y-92963752D01*
X148079264Y-92959271D01*
X148290875Y-92829596D01*
X148296922Y-92820330D01*
X148290915Y-92810125D01*
X147332812Y-91852022D01*
X147318868Y-91844408D01*
X147317035Y-91844539D01*
X147310420Y-91848790D01*
X146350544Y-92808666D01*
X146343151Y-92822204D01*
X142998500Y-92822204D01*
X142998500Y-91484930D01*
X145657261Y-91484930D01*
X145676961Y-91735236D01*
X145678504Y-91744983D01*
X145737117Y-91989123D01*
X145740166Y-91998508D01*
X145836248Y-92230470D01*
X145840729Y-92239264D01*
X145970404Y-92450875D01*
X145979670Y-92456922D01*
X145989875Y-92450915D01*
X146947978Y-91492812D01*
X146954356Y-91481132D01*
X147684408Y-91481132D01*
X147684539Y-91482965D01*
X147688790Y-91489580D01*
X148648666Y-92449456D01*
X148662204Y-92456849D01*
X148668735Y-92452280D01*
X148799271Y-92239264D01*
X148803752Y-92230470D01*
X148899834Y-91998508D01*
X148902883Y-91989123D01*
X148961496Y-91744983D01*
X148963039Y-91735236D01*
X148982739Y-91484930D01*
X148982739Y-91475070D01*
X148963039Y-91224764D01*
X148961496Y-91215017D01*
X148902883Y-90970877D01*
X148899834Y-90961492D01*
X148803752Y-90729530D01*
X148799271Y-90720736D01*
X148669596Y-90509125D01*
X148660330Y-90503078D01*
X148650125Y-90509085D01*
X147692022Y-91467188D01*
X147684408Y-91481132D01*
X146954356Y-91481132D01*
X146955592Y-91478868D01*
X146955461Y-91477035D01*
X146951210Y-91470420D01*
X145991334Y-90510544D01*
X145977796Y-90503151D01*
X145971265Y-90507720D01*
X145840729Y-90720736D01*
X145836248Y-90729530D01*
X145740166Y-90961492D01*
X145737117Y-90970877D01*
X145678504Y-91215017D01*
X145676961Y-91224764D01*
X145657261Y-91475070D01*
X145657261Y-91484930D01*
X142998500Y-91484930D01*
X142998500Y-90139670D01*
X146343078Y-90139670D01*
X146349085Y-90149875D01*
X147307188Y-91107978D01*
X147321132Y-91115592D01*
X147322965Y-91115461D01*
X147329580Y-91111210D01*
X148289456Y-90151334D01*
X148296849Y-90137796D01*
X148292280Y-90131265D01*
X148079264Y-90000729D01*
X148070470Y-89996248D01*
X147838508Y-89900166D01*
X147829123Y-89897117D01*
X147584983Y-89838504D01*
X147575236Y-89836961D01*
X147324930Y-89817261D01*
X147315070Y-89817261D01*
X147064764Y-89836961D01*
X147055017Y-89838504D01*
X146810877Y-89897117D01*
X146801492Y-89900166D01*
X146569530Y-89996248D01*
X146560736Y-90000729D01*
X146349125Y-90130404D01*
X146343078Y-90139670D01*
X142998500Y-90139670D01*
X142998500Y-89436999D01*
X143015381Y-89373999D01*
X143026763Y-89354286D01*
X143074527Y-89271556D01*
X143133542Y-89089928D01*
X143153504Y-88900000D01*
X143140024Y-88771745D01*
X143134232Y-88716635D01*
X143134232Y-88716633D01*
X143133542Y-88710072D01*
X143074527Y-88528444D01*
X143067750Y-88516705D01*
X142993156Y-88387506D01*
X142979040Y-88363056D01*
X142974137Y-88357611D01*
X142876173Y-88248810D01*
X142845455Y-88184803D01*
X142854220Y-88114349D01*
X142899683Y-88059818D01*
X142969809Y-88038500D01*
X155096669Y-88038500D01*
X155164790Y-88058502D01*
G37*
%TD.AperFunction*%
%TA.AperFunction,Conductor*%
G36*
X149509852Y-72470218D02*
G01*
X149566688Y-72512765D01*
X149591499Y-72579285D01*
X149591820Y-72588274D01*
X149591820Y-73710309D01*
X149571818Y-73778430D01*
X149554915Y-73799404D01*
X141405369Y-81948950D01*
X141342472Y-81983101D01*
X141285876Y-81995131D01*
X141285867Y-81995134D01*
X141279412Y-81996506D01*
X141273382Y-81999191D01*
X141273381Y-81999191D01*
X141110978Y-82071497D01*
X141110976Y-82071498D01*
X141104948Y-82074182D01*
X141077510Y-82094117D01*
X141010646Y-82117975D01*
X140941494Y-82101896D01*
X140892013Y-82050983D01*
X140877912Y-81981401D01*
X140890493Y-81936354D01*
X140964670Y-81786267D01*
X140968469Y-81776672D01*
X141030377Y-81572910D01*
X141032555Y-81562837D01*
X141033986Y-81551962D01*
X141031775Y-81537778D01*
X141018617Y-81534000D01*
X139972115Y-81534000D01*
X139956876Y-81538475D01*
X139955671Y-81539865D01*
X139954000Y-81547548D01*
X139954000Y-82598517D01*
X139958064Y-82612359D01*
X139971478Y-82614393D01*
X139978184Y-82613534D01*
X139988262Y-82611392D01*
X140192255Y-82550191D01*
X140201842Y-82546433D01*
X140393095Y-82452739D01*
X140401945Y-82447464D01*
X140533783Y-82353425D01*
X140600856Y-82330151D01*
X140669865Y-82346835D01*
X140718899Y-82398179D01*
X140732390Y-82467882D01*
X140726784Y-82494940D01*
X140688632Y-82612359D01*
X140668158Y-82675372D01*
X140648196Y-82865300D01*
X140648886Y-82871865D01*
X140665512Y-83030048D01*
X140668158Y-83055228D01*
X140727173Y-83236856D01*
X140822660Y-83402244D01*
X140950447Y-83544166D01*
X141104948Y-83656418D01*
X141110976Y-83659102D01*
X141110978Y-83659103D01*
X141238511Y-83715884D01*
X141279412Y-83734094D01*
X141341165Y-83747220D01*
X141459756Y-83772428D01*
X141459761Y-83772428D01*
X141466213Y-83773800D01*
X141657187Y-83773800D01*
X141663639Y-83772428D01*
X141663644Y-83772428D01*
X141782235Y-83747220D01*
X141843988Y-83734094D01*
X141884889Y-83715884D01*
X142012422Y-83659103D01*
X142012424Y-83659102D01*
X142018452Y-83656418D01*
X142172953Y-83544166D01*
X142300740Y-83402244D01*
X142396227Y-83236856D01*
X142451087Y-83068014D01*
X142481825Y-83017856D01*
X149179647Y-76320034D01*
X149241959Y-76286008D01*
X149312774Y-76291073D01*
X149369610Y-76333620D01*
X149394052Y-76395958D01*
X149402058Y-76472128D01*
X149461073Y-76653756D01*
X149464376Y-76659478D01*
X149464377Y-76659479D01*
X149477395Y-76682027D01*
X149556560Y-76819144D01*
X149560978Y-76824051D01*
X149560979Y-76824052D01*
X149652418Y-76925605D01*
X149684347Y-76961066D01*
X149838848Y-77073318D01*
X149844876Y-77076002D01*
X149844878Y-77076003D01*
X149860000Y-77082736D01*
X149860000Y-83820000D01*
X155675000Y-85758333D01*
X155733297Y-85798849D01*
X155760437Y-85864454D01*
X155747800Y-85934317D01*
X155693335Y-85989628D01*
X155658748Y-86007633D01*
X155654615Y-86010736D01*
X155654612Y-86010738D01*
X155465832Y-86152479D01*
X155461697Y-86155584D01*
X155291455Y-86333731D01*
X155200882Y-86466507D01*
X155145973Y-86511507D01*
X155096796Y-86521500D01*
X136297835Y-86521500D01*
X136290033Y-86521258D01*
X136228702Y-86517453D01*
X136215740Y-86519680D01*
X136194404Y-86521500D01*
X130826371Y-86521500D01*
X130758250Y-86501498D01*
X130737276Y-86484595D01*
X129609181Y-85356500D01*
X130979196Y-85356500D01*
X130999158Y-85546428D01*
X131058173Y-85728056D01*
X131061476Y-85733778D01*
X131061477Y-85733779D01*
X131089029Y-85781500D01*
X131153660Y-85893444D01*
X131281447Y-86035366D01*
X131380543Y-86107364D01*
X131430604Y-86143735D01*
X131435948Y-86147618D01*
X131441976Y-86150302D01*
X131441978Y-86150303D01*
X131597140Y-86219385D01*
X131610412Y-86225294D01*
X131688377Y-86241866D01*
X131790756Y-86263628D01*
X131790761Y-86263628D01*
X131797213Y-86265000D01*
X131988187Y-86265000D01*
X131994639Y-86263628D01*
X131994644Y-86263628D01*
X132097023Y-86241866D01*
X132174988Y-86225294D01*
X132188260Y-86219385D01*
X132343422Y-86150303D01*
X132343424Y-86150302D01*
X132349452Y-86147618D01*
X132354791Y-86143739D01*
X132354798Y-86143735D01*
X132361228Y-86139063D01*
X132435287Y-86115000D01*
X140639413Y-86115000D01*
X140713472Y-86139063D01*
X140719902Y-86143735D01*
X140719909Y-86143739D01*
X140725248Y-86147618D01*
X140731276Y-86150302D01*
X140731278Y-86150303D01*
X140886440Y-86219385D01*
X140899712Y-86225294D01*
X140977677Y-86241866D01*
X141080056Y-86263628D01*
X141080061Y-86263628D01*
X141086513Y-86265000D01*
X141277487Y-86265000D01*
X141283939Y-86263628D01*
X141283944Y-86263628D01*
X141386323Y-86241866D01*
X141464288Y-86225294D01*
X141477560Y-86219385D01*
X141632722Y-86150303D01*
X141632724Y-86150302D01*
X141638752Y-86147618D01*
X141644097Y-86143735D01*
X141694157Y-86107364D01*
X141793253Y-86035366D01*
X141921040Y-85893444D01*
X141985671Y-85781500D01*
X142013223Y-85733779D01*
X142013224Y-85733778D01*
X142016527Y-85728056D01*
X142075542Y-85546428D01*
X142095504Y-85356500D01*
X142075542Y-85166572D01*
X142016527Y-84984944D01*
X141921040Y-84819556D01*
X141793253Y-84677634D01*
X141650527Y-84573937D01*
X141644094Y-84569263D01*
X141644093Y-84569262D01*
X141638752Y-84565382D01*
X141632724Y-84562698D01*
X141632722Y-84562697D01*
X141470319Y-84490391D01*
X141470318Y-84490391D01*
X141464288Y-84487706D01*
X141370888Y-84467853D01*
X141283944Y-84449372D01*
X141283939Y-84449372D01*
X141277487Y-84448000D01*
X141086513Y-84448000D01*
X141080061Y-84449372D01*
X141080056Y-84449372D01*
X140993112Y-84467853D01*
X140899712Y-84487706D01*
X140893682Y-84490391D01*
X140893681Y-84490391D01*
X140731278Y-84562697D01*
X140731276Y-84562698D01*
X140725248Y-84565382D01*
X140719909Y-84569261D01*
X140719902Y-84569265D01*
X140713472Y-84573937D01*
X140639413Y-84598000D01*
X132435287Y-84598000D01*
X132361228Y-84573937D01*
X132354798Y-84569265D01*
X132354791Y-84569261D01*
X132349452Y-84565382D01*
X132343424Y-84562698D01*
X132343422Y-84562697D01*
X132181019Y-84490391D01*
X132181018Y-84490391D01*
X132174988Y-84487706D01*
X132081588Y-84467853D01*
X131994644Y-84449372D01*
X131994639Y-84449372D01*
X131988187Y-84448000D01*
X131797213Y-84448000D01*
X131790761Y-84449372D01*
X131790756Y-84449372D01*
X131703812Y-84467853D01*
X131610412Y-84487706D01*
X131604382Y-84490391D01*
X131604381Y-84490391D01*
X131441978Y-84562697D01*
X131441976Y-84562698D01*
X131435948Y-84565382D01*
X131430607Y-84569262D01*
X131430606Y-84569263D01*
X131424173Y-84573937D01*
X131281447Y-84677634D01*
X131153660Y-84819556D01*
X131058173Y-84984944D01*
X130999158Y-85166572D01*
X130979196Y-85356500D01*
X129609181Y-85356500D01*
X127604276Y-83351595D01*
X127570250Y-83289283D01*
X127575315Y-83218468D01*
X127617862Y-83161632D01*
X127684382Y-83136821D01*
X127693371Y-83136500D01*
X137546433Y-83136500D01*
X137557616Y-83137027D01*
X137565109Y-83138702D01*
X137573035Y-83138453D01*
X137573036Y-83138453D01*
X137633186Y-83136562D01*
X137637145Y-83136500D01*
X137665056Y-83136500D01*
X137668991Y-83136003D01*
X137669056Y-83135995D01*
X137680893Y-83135062D01*
X137713151Y-83134048D01*
X137717170Y-83133922D01*
X137725089Y-83133673D01*
X137744543Y-83128021D01*
X137763900Y-83124013D01*
X137776130Y-83122468D01*
X137776131Y-83122468D01*
X137783997Y-83121474D01*
X137791368Y-83118555D01*
X137791370Y-83118555D01*
X137825112Y-83105196D01*
X137836342Y-83101351D01*
X137871183Y-83091229D01*
X137871184Y-83091229D01*
X137878793Y-83089018D01*
X137885612Y-83084985D01*
X137885617Y-83084983D01*
X137896228Y-83078707D01*
X137913976Y-83070012D01*
X137932817Y-83062552D01*
X137968587Y-83036564D01*
X137978507Y-83030048D01*
X138009735Y-83011580D01*
X138009738Y-83011578D01*
X138016562Y-83007542D01*
X138030883Y-82993221D01*
X138045917Y-82980380D01*
X138055894Y-82973131D01*
X138062307Y-82968472D01*
X138067358Y-82962367D01*
X138067363Y-82962362D01*
X138090499Y-82934396D01*
X138098487Y-82925618D01*
X138678460Y-82345645D01*
X138740772Y-82311619D01*
X138811587Y-82316684D01*
X138848039Y-82337795D01*
X138914435Y-82392917D01*
X138922881Y-82398831D01*
X139106756Y-82506279D01*
X139116042Y-82510729D01*
X139315001Y-82586703D01*
X139324899Y-82589579D01*
X139428250Y-82610606D01*
X139442299Y-82609410D01*
X139446000Y-82599065D01*
X139446000Y-81152000D01*
X139466002Y-81083879D01*
X139519658Y-81037386D01*
X139572000Y-81026000D01*
X141018344Y-81026000D01*
X141031875Y-81022027D01*
X141033180Y-81012947D01*
X140991214Y-80845875D01*
X140987894Y-80836124D01*
X140902972Y-80640814D01*
X140898105Y-80631739D01*
X140782426Y-80452926D01*
X140776136Y-80444757D01*
X140632806Y-80287240D01*
X140625273Y-80280215D01*
X140458139Y-80148222D01*
X140449556Y-80142520D01*
X140350804Y-80088006D01*
X140300833Y-80037573D01*
X140286061Y-79968131D01*
X140311177Y-79901725D01*
X140322602Y-79888602D01*
X143285599Y-76925605D01*
X143347911Y-76891579D01*
X143374694Y-76888700D01*
X143822333Y-76888700D01*
X143833516Y-76889227D01*
X143841009Y-76890902D01*
X143848935Y-76890653D01*
X143848936Y-76890653D01*
X143909086Y-76888762D01*
X143913045Y-76888700D01*
X143940956Y-76888700D01*
X143944891Y-76888203D01*
X143944956Y-76888195D01*
X143956793Y-76887262D01*
X143989051Y-76886248D01*
X143993070Y-76886122D01*
X144000989Y-76885873D01*
X144020443Y-76880221D01*
X144039800Y-76876213D01*
X144052030Y-76874668D01*
X144052031Y-76874668D01*
X144059897Y-76873674D01*
X144067268Y-76870755D01*
X144067270Y-76870755D01*
X144101012Y-76857396D01*
X144112242Y-76853551D01*
X144147083Y-76843429D01*
X144147084Y-76843429D01*
X144154693Y-76841218D01*
X144161512Y-76837185D01*
X144161517Y-76837183D01*
X144172128Y-76830907D01*
X144189876Y-76822212D01*
X144208717Y-76814752D01*
X144244487Y-76788764D01*
X144254407Y-76782248D01*
X144285635Y-76763780D01*
X144285638Y-76763778D01*
X144292462Y-76759742D01*
X144306783Y-76745421D01*
X144321817Y-76732580D01*
X144331794Y-76725331D01*
X144338207Y-76720672D01*
X144366398Y-76686595D01*
X144374388Y-76677816D01*
X146313458Y-74738746D01*
X146375770Y-74704720D01*
X146446585Y-74709785D01*
X146483038Y-74730897D01*
X146538126Y-74776632D01*
X146731000Y-74889338D01*
X146939692Y-74969030D01*
X146944760Y-74970061D01*
X146944763Y-74970062D01*
X147052017Y-74991883D01*
X147158597Y-75013567D01*
X147163772Y-75013757D01*
X147163774Y-75013757D01*
X147376673Y-75021564D01*
X147376677Y-75021564D01*
X147381837Y-75021753D01*
X147386957Y-75021097D01*
X147386959Y-75021097D01*
X147598288Y-74994025D01*
X147598289Y-74994025D01*
X147603416Y-74993368D01*
X147608366Y-74991883D01*
X147812429Y-74930661D01*
X147812434Y-74930659D01*
X147817384Y-74929174D01*
X148017994Y-74830896D01*
X148199860Y-74701173D01*
X148213724Y-74687358D01*
X148326107Y-74575366D01*
X148358096Y-74543489D01*
X148397630Y-74488472D01*
X148485435Y-74366277D01*
X148488453Y-74362077D01*
X148502463Y-74333731D01*
X148585136Y-74166453D01*
X148585137Y-74166451D01*
X148587430Y-74161811D01*
X148642593Y-73980250D01*
X148650865Y-73953023D01*
X148650865Y-73953021D01*
X148652370Y-73948069D01*
X148681529Y-73726590D01*
X148682460Y-73688500D01*
X148683074Y-73663365D01*
X148683074Y-73663361D01*
X148683156Y-73660000D01*
X148664852Y-73437361D01*
X148636821Y-73325765D01*
X148639625Y-73254823D01*
X148669930Y-73205974D01*
X149376725Y-72499179D01*
X149439037Y-72465153D01*
X149509852Y-72470218D01*
G37*
%TD.AperFunction*%
%TA.AperFunction,Conductor*%
G36*
X113960930Y-66483236D02*
G01*
X114005993Y-66512197D01*
X115216043Y-67722247D01*
X115223587Y-67730537D01*
X115227700Y-67737018D01*
X115233477Y-67742443D01*
X115277367Y-67783658D01*
X115280209Y-67786413D01*
X115299931Y-67806135D01*
X115303055Y-67808558D01*
X115303059Y-67808562D01*
X115303124Y-67808612D01*
X115312145Y-67816317D01*
X115344379Y-67846586D01*
X115351327Y-67850405D01*
X115351329Y-67850407D01*
X115362132Y-67856346D01*
X115378659Y-67867202D01*
X115388398Y-67874757D01*
X115388400Y-67874758D01*
X115394660Y-67879614D01*
X115435240Y-67897174D01*
X115445888Y-67902391D01*
X115450931Y-67905163D01*
X115484640Y-67923695D01*
X115492316Y-67925666D01*
X115492319Y-67925667D01*
X115504262Y-67928733D01*
X115522967Y-67935137D01*
X115541555Y-67943181D01*
X115549378Y-67944420D01*
X115549388Y-67944423D01*
X115585224Y-67950099D01*
X115596844Y-67952505D01*
X115631175Y-67961319D01*
X115639670Y-67963500D01*
X115659924Y-67963500D01*
X115679634Y-67965051D01*
X115699643Y-67968220D01*
X115707535Y-67967474D01*
X115707536Y-67967474D01*
X115728421Y-67965500D01*
X115798122Y-67979003D01*
X115847997Y-68025575D01*
X115878987Y-68076644D01*
X115913377Y-68133317D01*
X115916874Y-68137347D01*
X116047348Y-68287705D01*
X116064477Y-68307445D01*
X116068608Y-68310832D01*
X116238627Y-68450240D01*
X116238633Y-68450244D01*
X116242755Y-68453624D01*
X116274250Y-68471552D01*
X116323555Y-68522632D01*
X116337417Y-68592262D01*
X116311434Y-68658333D01*
X116282284Y-68685573D01*
X116160681Y-68767441D01*
X116156824Y-68771120D01*
X116156822Y-68771122D01*
X116099874Y-68825448D01*
X115993865Y-68926576D01*
X115856246Y-69111542D01*
X115853830Y-69116293D01*
X115853828Y-69116297D01*
X115806186Y-69210003D01*
X115751760Y-69317051D01*
X115750178Y-69322145D01*
X115750177Y-69322148D01*
X115707953Y-69458131D01*
X115683393Y-69537227D01*
X115682692Y-69542516D01*
X115654324Y-69756556D01*
X115653102Y-69765774D01*
X115661751Y-69996158D01*
X115709093Y-70221791D01*
X115711051Y-70226750D01*
X115711052Y-70226752D01*
X115774755Y-70388056D01*
X115793776Y-70436221D01*
X115796543Y-70440780D01*
X115796544Y-70440783D01*
X115875195Y-70570395D01*
X115913377Y-70633317D01*
X115916874Y-70637347D01*
X116014067Y-70749352D01*
X116064477Y-70807445D01*
X116068608Y-70810832D01*
X116238627Y-70950240D01*
X116238633Y-70950244D01*
X116242755Y-70953624D01*
X116274250Y-70971552D01*
X116323555Y-71022632D01*
X116337417Y-71092262D01*
X116311434Y-71158333D01*
X116282284Y-71185573D01*
X116160681Y-71267441D01*
X116156824Y-71271120D01*
X116156822Y-71271122D01*
X116111071Y-71314767D01*
X115993865Y-71426576D01*
X115990682Y-71430854D01*
X115975123Y-71451766D01*
X115856246Y-71611542D01*
X115751760Y-71817051D01*
X115750178Y-71822145D01*
X115750177Y-71822148D01*
X115688115Y-72022020D01*
X115683393Y-72037227D01*
X115682692Y-72042516D01*
X115667304Y-72158623D01*
X115653102Y-72265774D01*
X115653302Y-72271103D01*
X115653302Y-72271105D01*
X115656825Y-72364955D01*
X115661751Y-72496158D01*
X115709093Y-72721791D01*
X115711051Y-72726750D01*
X115711052Y-72726752D01*
X115786566Y-72917963D01*
X115793776Y-72936221D01*
X115913377Y-73133317D01*
X115916874Y-73137347D01*
X116058227Y-73300242D01*
X116064477Y-73307445D01*
X116068608Y-73310832D01*
X116238627Y-73450240D01*
X116238633Y-73450244D01*
X116242755Y-73453624D01*
X116247398Y-73456267D01*
X116274735Y-73471829D01*
X116324041Y-73522912D01*
X116337902Y-73592542D01*
X116311918Y-73658613D01*
X116282768Y-73685851D01*
X116165422Y-73764852D01*
X116157130Y-73771519D01*
X115998100Y-73923228D01*
X115991059Y-73931186D01*
X115859859Y-74107525D01*
X115854255Y-74116562D01*
X115754643Y-74312484D01*
X115750643Y-74322335D01*
X115685466Y-74532240D01*
X115683183Y-74542624D01*
X115681139Y-74558043D01*
X115683335Y-74572207D01*
X115696522Y-74576000D01*
X118581192Y-74576000D01*
X118594723Y-74572027D01*
X118596248Y-74561420D01*
X118573908Y-74454947D01*
X118579496Y-74384170D01*
X118622461Y-74327650D01*
X118689162Y-74303331D01*
X118758423Y-74318934D01*
X118790855Y-74344759D01*
X118826247Y-74384066D01*
X118866779Y-74413514D01*
X118970442Y-74488830D01*
X118980748Y-74496318D01*
X118986776Y-74499002D01*
X118986778Y-74499003D01*
X119135276Y-74565118D01*
X119155212Y-74573994D01*
X119239693Y-74591951D01*
X119335556Y-74612328D01*
X119335561Y-74612328D01*
X119342013Y-74613700D01*
X119405500Y-74613700D01*
X119473621Y-74633702D01*
X119520114Y-74687358D01*
X119531500Y-74739700D01*
X119531500Y-74963134D01*
X119538255Y-75025316D01*
X119589385Y-75161705D01*
X119676739Y-75278261D01*
X119793295Y-75365615D01*
X119929684Y-75416745D01*
X119991866Y-75423500D01*
X122088134Y-75423500D01*
X122150316Y-75416745D01*
X122286705Y-75365615D01*
X122403261Y-75278261D01*
X122467247Y-75192885D01*
X122867000Y-75192885D01*
X122871475Y-75208124D01*
X122872865Y-75209329D01*
X122880548Y-75211000D01*
X123552885Y-75211000D01*
X123568124Y-75206525D01*
X123569329Y-75205135D01*
X123571000Y-75197452D01*
X123571000Y-73975116D01*
X123566525Y-73959877D01*
X123565135Y-73958672D01*
X123557452Y-73957001D01*
X123330331Y-73957001D01*
X123323510Y-73957371D01*
X123272648Y-73962895D01*
X123257396Y-73966521D01*
X123136946Y-74011676D01*
X123121351Y-74020214D01*
X123019276Y-74096715D01*
X123006715Y-74109276D01*
X122930214Y-74211351D01*
X122921676Y-74226946D01*
X122876522Y-74347394D01*
X122872895Y-74362649D01*
X122867369Y-74413514D01*
X122867000Y-74420328D01*
X122867000Y-75192885D01*
X122467247Y-75192885D01*
X122490615Y-75161705D01*
X122541745Y-75025316D01*
X122548500Y-74963134D01*
X122548500Y-73966866D01*
X122541745Y-73904684D01*
X122530403Y-73874429D01*
X122525220Y-73803623D01*
X122559140Y-73741254D01*
X122621395Y-73707125D01*
X122648385Y-73704200D01*
X122750987Y-73704200D01*
X122757439Y-73702828D01*
X122757444Y-73702828D01*
X122863248Y-73680338D01*
X122937788Y-73664494D01*
X122955415Y-73656646D01*
X123106222Y-73589503D01*
X123106224Y-73589502D01*
X123112252Y-73586818D01*
X123121433Y-73580148D01*
X123261414Y-73478445D01*
X123266753Y-73474566D01*
X123271168Y-73469663D01*
X123276080Y-73465240D01*
X123277205Y-73466489D01*
X123330514Y-73433649D01*
X123363700Y-73429200D01*
X124603683Y-73429200D01*
X124671804Y-73449202D01*
X124718297Y-73502858D01*
X124728401Y-73573132D01*
X124698907Y-73637712D01*
X124689997Y-73646421D01*
X124687982Y-73647700D01*
X124682558Y-73653476D01*
X124682341Y-73653707D01*
X124664554Y-73669388D01*
X124664309Y-73669566D01*
X124664307Y-73669568D01*
X124657893Y-73674228D01*
X124652839Y-73680337D01*
X124652838Y-73680338D01*
X124622097Y-73717496D01*
X124616866Y-73723430D01*
X124583842Y-73758598D01*
X124583840Y-73758601D01*
X124578414Y-73764379D01*
X124574445Y-73771599D01*
X124561119Y-73791206D01*
X124560920Y-73791446D01*
X124560916Y-73791453D01*
X124555867Y-73797556D01*
X124552493Y-73804727D01*
X124531953Y-73848376D01*
X124528371Y-73855408D01*
X124504580Y-73898683D01*
X124454236Y-73948740D01*
X124380560Y-73963243D01*
X124326488Y-73957369D01*
X124319672Y-73957000D01*
X124097115Y-73957000D01*
X124081876Y-73961475D01*
X124080671Y-73962865D01*
X124079000Y-73970548D01*
X124079000Y-75593000D01*
X124058998Y-75661121D01*
X124005342Y-75707614D01*
X123953000Y-75719000D01*
X122885116Y-75719000D01*
X122869877Y-75723475D01*
X122868672Y-75724865D01*
X122867001Y-75732548D01*
X122867001Y-76101500D01*
X122846999Y-76169621D01*
X122793343Y-76216114D01*
X122741001Y-76227500D01*
X121303400Y-76227500D01*
X121235279Y-76207498D01*
X121216053Y-76191157D01*
X121215780Y-76191460D01*
X121210868Y-76187037D01*
X121206453Y-76182134D01*
X121129742Y-76126400D01*
X121057294Y-76073763D01*
X121057293Y-76073762D01*
X121051952Y-76069882D01*
X121045924Y-76067198D01*
X121045922Y-76067197D01*
X120883519Y-75994891D01*
X120883518Y-75994891D01*
X120877488Y-75992206D01*
X120784088Y-75972353D01*
X120697144Y-75953872D01*
X120697139Y-75953872D01*
X120690687Y-75952500D01*
X120499713Y-75952500D01*
X120493261Y-75953872D01*
X120493256Y-75953872D01*
X120406312Y-75972353D01*
X120312912Y-75992206D01*
X120306882Y-75994891D01*
X120306881Y-75994891D01*
X120144478Y-76067197D01*
X120144476Y-76067198D01*
X120138448Y-76069882D01*
X120133107Y-76073762D01*
X120133106Y-76073763D01*
X120094930Y-76101500D01*
X119983947Y-76182134D01*
X119979526Y-76187044D01*
X119979525Y-76187045D01*
X119890419Y-76286008D01*
X119856160Y-76324056D01*
X119852859Y-76329774D01*
X119774460Y-76465565D01*
X119760673Y-76489444D01*
X119751815Y-76516705D01*
X119746017Y-76534550D01*
X119705943Y-76593156D01*
X119640546Y-76620792D01*
X119570589Y-76608685D01*
X119537089Y-76584708D01*
X118784970Y-75832589D01*
X118772584Y-75818177D01*
X118764051Y-75806582D01*
X118764046Y-75806577D01*
X118759708Y-75800682D01*
X118754130Y-75795943D01*
X118754127Y-75795940D01*
X118719432Y-75766465D01*
X118711916Y-75759535D01*
X118706221Y-75753840D01*
X118700080Y-75748982D01*
X118683949Y-75736219D01*
X118680545Y-75733428D01*
X118630497Y-75690909D01*
X118630495Y-75690908D01*
X118624915Y-75686167D01*
X118618399Y-75682839D01*
X118613350Y-75679472D01*
X118608221Y-75676305D01*
X118602484Y-75671766D01*
X118536325Y-75640845D01*
X118532423Y-75638938D01*
X118521204Y-75633209D01*
X118469632Y-75584414D01*
X118452627Y-75515484D01*
X118466190Y-75463888D01*
X118525357Y-75347516D01*
X118529357Y-75337665D01*
X118594534Y-75127760D01*
X118596817Y-75117376D01*
X118598861Y-75101957D01*
X118596665Y-75087793D01*
X118583478Y-75084000D01*
X115698808Y-75084000D01*
X115685277Y-75087973D01*
X115683752Y-75098580D01*
X115708477Y-75216421D01*
X115711536Y-75226613D01*
X115776344Y-75390718D01*
X115782762Y-75461424D01*
X115749935Y-75524376D01*
X115688284Y-75559586D01*
X115659152Y-75563000D01*
X109317929Y-75563000D01*
X109249808Y-75542998D01*
X109203315Y-75489342D01*
X109193007Y-75420554D01*
X109201404Y-75356773D01*
X109201404Y-75356769D01*
X109201841Y-75353452D01*
X109203636Y-75280000D01*
X109193219Y-75153297D01*
X109183869Y-75039568D01*
X109183868Y-75039562D01*
X109183445Y-75034417D01*
X109146349Y-74886731D01*
X109124675Y-74800441D01*
X109124674Y-74800437D01*
X109123416Y-74795430D01*
X109121357Y-74790694D01*
X109027220Y-74574193D01*
X109027218Y-74574190D01*
X109025160Y-74569456D01*
X109020644Y-74562475D01*
X108894126Y-74366908D01*
X108894121Y-74366902D01*
X108891315Y-74362564D01*
X108879331Y-74349393D01*
X108789157Y-74250294D01*
X108725477Y-74180310D01*
X108721426Y-74177111D01*
X108721422Y-74177107D01*
X108577860Y-74063730D01*
X108532099Y-74027590D01*
X108437043Y-73975116D01*
X108320906Y-73911004D01*
X108320903Y-73911003D01*
X108316375Y-73908503D01*
X108084097Y-73826250D01*
X108029457Y-73816517D01*
X107846593Y-73783943D01*
X107846589Y-73783943D01*
X107841505Y-73783037D01*
X107762086Y-73782067D01*
X107600282Y-73780090D01*
X107600280Y-73780090D01*
X107595112Y-73780027D01*
X107351536Y-73817299D01*
X107117318Y-73893853D01*
X107112730Y-73896241D01*
X107112726Y-73896243D01*
X106909853Y-74001852D01*
X106898748Y-74007633D01*
X106894613Y-74010737D01*
X106894614Y-74010737D01*
X106881652Y-74020469D01*
X106815167Y-74045374D01*
X106745771Y-74030381D01*
X106695498Y-73980250D01*
X106680000Y-73919708D01*
X106680000Y-71172190D01*
X106700002Y-71104069D01*
X106716905Y-71083095D01*
X106764595Y-71035405D01*
X106826907Y-71001379D01*
X106853690Y-70998500D01*
X108738134Y-70998500D01*
X108800316Y-70991745D01*
X108936705Y-70940615D01*
X109053261Y-70853261D01*
X109140615Y-70736705D01*
X109191745Y-70600316D01*
X109198500Y-70538134D01*
X109198500Y-70384500D01*
X109218502Y-70316379D01*
X109272158Y-70269886D01*
X109324500Y-70258500D01*
X112825413Y-70258500D01*
X112899472Y-70282563D01*
X112905902Y-70287235D01*
X112905909Y-70287239D01*
X112911248Y-70291118D01*
X112917276Y-70293802D01*
X112917278Y-70293803D01*
X112967985Y-70316379D01*
X113085712Y-70368794D01*
X113127129Y-70377597D01*
X113133944Y-70379046D01*
X113196417Y-70412774D01*
X113227580Y-70463356D01*
X113265173Y-70579056D01*
X113360660Y-70744444D01*
X113365078Y-70749351D01*
X113365079Y-70749352D01*
X113462790Y-70857871D01*
X113488447Y-70886366D01*
X113569100Y-70944964D01*
X113635297Y-70993059D01*
X113642948Y-70998618D01*
X113648976Y-71001302D01*
X113648978Y-71001303D01*
X113811381Y-71073609D01*
X113817412Y-71076294D01*
X113892832Y-71092325D01*
X113997756Y-71114628D01*
X113997761Y-71114628D01*
X114004213Y-71116000D01*
X114195187Y-71116000D01*
X114201639Y-71114628D01*
X114201644Y-71114628D01*
X114306568Y-71092325D01*
X114381988Y-71076294D01*
X114388019Y-71073609D01*
X114550422Y-71001303D01*
X114550424Y-71001302D01*
X114556452Y-70998618D01*
X114564104Y-70993059D01*
X114630300Y-70944964D01*
X114710953Y-70886366D01*
X114736610Y-70857871D01*
X114834321Y-70749352D01*
X114834322Y-70749351D01*
X114838740Y-70744444D01*
X114934227Y-70579056D01*
X114993242Y-70397428D01*
X114995634Y-70374675D01*
X115012514Y-70214065D01*
X115013204Y-70207500D01*
X115007299Y-70151317D01*
X114993932Y-70024135D01*
X114993932Y-70024133D01*
X114993242Y-70017572D01*
X114934227Y-69835944D01*
X114917788Y-69807470D01*
X114861089Y-69709266D01*
X114838740Y-69670556D01*
X114765563Y-69589285D01*
X114734847Y-69525279D01*
X114733200Y-69504976D01*
X114733200Y-69217867D01*
X114733727Y-69206684D01*
X114735402Y-69199191D01*
X114733262Y-69131114D01*
X114733200Y-69127155D01*
X114733200Y-69099244D01*
X114732695Y-69095244D01*
X114731762Y-69083401D01*
X114731219Y-69066105D01*
X114730373Y-69039210D01*
X114724722Y-69019758D01*
X114720714Y-69000406D01*
X114719167Y-68988163D01*
X114718174Y-68980303D01*
X114715256Y-68972932D01*
X114701900Y-68939197D01*
X114698055Y-68927970D01*
X114696581Y-68922897D01*
X114685718Y-68885507D01*
X114681684Y-68878685D01*
X114681681Y-68878679D01*
X114675406Y-68868068D01*
X114666710Y-68850318D01*
X114662172Y-68838856D01*
X114662169Y-68838851D01*
X114659252Y-68831483D01*
X114643130Y-68809293D01*
X114633273Y-68795725D01*
X114626757Y-68785807D01*
X114614766Y-68765532D01*
X114604242Y-68747737D01*
X114589918Y-68733413D01*
X114577076Y-68718378D01*
X114575616Y-68716368D01*
X114565172Y-68701993D01*
X114531106Y-68673811D01*
X114522327Y-68665822D01*
X113256605Y-67400100D01*
X113222579Y-67337788D01*
X113219700Y-67311005D01*
X113219700Y-67172490D01*
X113239702Y-67104369D01*
X113256605Y-67083395D01*
X113827803Y-66512197D01*
X113890115Y-66478171D01*
X113960930Y-66483236D01*
G37*
%TD.AperFunction*%
%TA.AperFunction,Conductor*%
G36*
X136474291Y-67498502D02*
G01*
X136520784Y-67552158D01*
X136531985Y-67611317D01*
X136531868Y-67613480D01*
X136531500Y-67616866D01*
X136531500Y-68613134D01*
X136531868Y-68616520D01*
X136531985Y-68618683D01*
X136515698Y-68687786D01*
X136464636Y-68737114D01*
X136406170Y-68751500D01*
X135346867Y-68751500D01*
X135335684Y-68750973D01*
X135328191Y-68749298D01*
X135320265Y-68749547D01*
X135320264Y-68749547D01*
X135260114Y-68751438D01*
X135256155Y-68751500D01*
X135228244Y-68751500D01*
X135224310Y-68751997D01*
X135224309Y-68751997D01*
X135224244Y-68752005D01*
X135212407Y-68752938D01*
X135180149Y-68753952D01*
X135176130Y-68754078D01*
X135168211Y-68754327D01*
X135148757Y-68759979D01*
X135129400Y-68763987D01*
X135117170Y-68765532D01*
X135117169Y-68765532D01*
X135109303Y-68766526D01*
X135101932Y-68769445D01*
X135101930Y-68769445D01*
X135068188Y-68782804D01*
X135056958Y-68786649D01*
X135022117Y-68796771D01*
X135022116Y-68796771D01*
X135014507Y-68798982D01*
X135007688Y-68803015D01*
X135007683Y-68803017D01*
X134997072Y-68809293D01*
X134979324Y-68817988D01*
X134960483Y-68825448D01*
X134954067Y-68830110D01*
X134954066Y-68830110D01*
X134924713Y-68851436D01*
X134914793Y-68857952D01*
X134883565Y-68876420D01*
X134883562Y-68876422D01*
X134876738Y-68880458D01*
X134862417Y-68894779D01*
X134847384Y-68907619D01*
X134830993Y-68919528D01*
X134802802Y-68953605D01*
X134794812Y-68962384D01*
X131379900Y-72377295D01*
X131317588Y-72411321D01*
X131290805Y-72414200D01*
X130506200Y-72414200D01*
X130438079Y-72394198D01*
X130418853Y-72377857D01*
X130418580Y-72378160D01*
X130413668Y-72373737D01*
X130409253Y-72368834D01*
X130254752Y-72256582D01*
X130256220Y-72254561D01*
X130215005Y-72211319D01*
X130201582Y-72141603D01*
X130229924Y-72073289D01*
X130246298Y-72053496D01*
X130254288Y-72044716D01*
X133749647Y-68549357D01*
X133757937Y-68541813D01*
X133764418Y-68537700D01*
X133811059Y-68488032D01*
X133813813Y-68485191D01*
X133833534Y-68465470D01*
X133836012Y-68462275D01*
X133843718Y-68453253D01*
X133868558Y-68426801D01*
X133873986Y-68421021D01*
X133883746Y-68403268D01*
X133894599Y-68386745D01*
X133902153Y-68377006D01*
X133907013Y-68370741D01*
X133924576Y-68330157D01*
X133929783Y-68319527D01*
X133951095Y-68280760D01*
X133953066Y-68273083D01*
X133953068Y-68273078D01*
X133956132Y-68261142D01*
X133962538Y-68242430D01*
X133967434Y-68231117D01*
X133970581Y-68223845D01*
X133974709Y-68197786D01*
X133977497Y-68180181D01*
X133979904Y-68168560D01*
X133988928Y-68133411D01*
X133988928Y-68133410D01*
X133990900Y-68125730D01*
X133990900Y-68105469D01*
X133992451Y-68085758D01*
X133994379Y-68073585D01*
X133995619Y-68065757D01*
X133994873Y-68057861D01*
X133994206Y-68050802D01*
X134007710Y-67981102D01*
X134030552Y-67949852D01*
X134465001Y-67515404D01*
X134527313Y-67481379D01*
X134554096Y-67478500D01*
X136406170Y-67478500D01*
X136474291Y-67498502D01*
G37*
%TD.AperFunction*%
%TA.AperFunction,Conductor*%
G36*
X143507927Y-57816802D02*
G01*
X143528901Y-57833705D01*
X147639757Y-61944562D01*
X147673782Y-62006872D01*
X147668717Y-62077687D01*
X147626170Y-62134523D01*
X147559650Y-62159334D01*
X147528566Y-62157703D01*
X147453317Y-62144300D01*
X147443073Y-62143331D01*
X147230116Y-62140728D01*
X147219832Y-62141448D01*
X147009321Y-62173661D01*
X146999293Y-62176050D01*
X146796868Y-62242212D01*
X146787359Y-62246209D01*
X146598466Y-62344540D01*
X146589734Y-62350039D01*
X146569677Y-62365099D01*
X146561223Y-62376427D01*
X146567968Y-62388758D01*
X147590115Y-63410905D01*
X147624141Y-63473217D01*
X147619076Y-63544032D01*
X147590115Y-63589095D01*
X147409095Y-63770115D01*
X147346783Y-63804141D01*
X147275968Y-63799076D01*
X147230905Y-63770115D01*
X146209849Y-62749059D01*
X146169510Y-62727031D01*
X146156523Y-62724206D01*
X146106322Y-62674003D01*
X146097388Y-62653497D01*
X146073870Y-62583007D01*
X146073869Y-62583005D01*
X146071550Y-62576054D01*
X145978478Y-62425652D01*
X145853303Y-62300695D01*
X145797879Y-62266531D01*
X145708968Y-62211725D01*
X145708966Y-62211724D01*
X145702738Y-62207885D01*
X145599555Y-62173661D01*
X145541389Y-62154368D01*
X145541387Y-62154368D01*
X145534861Y-62152203D01*
X145528025Y-62151503D01*
X145528022Y-62151502D01*
X145481923Y-62146779D01*
X145430400Y-62141500D01*
X144267015Y-62141500D01*
X144198894Y-62121498D01*
X144152401Y-62067842D01*
X144147182Y-62054436D01*
X144139869Y-62031929D01*
X144137827Y-62025644D01*
X144122776Y-61999574D01*
X144045641Y-61865974D01*
X144042340Y-61860256D01*
X143921276Y-61725800D01*
X143918975Y-61723245D01*
X143918974Y-61723244D01*
X143914553Y-61718334D01*
X143760052Y-61606082D01*
X143754024Y-61603398D01*
X143754022Y-61603397D01*
X143591619Y-61531091D01*
X143591618Y-61531091D01*
X143585588Y-61528406D01*
X143492188Y-61508553D01*
X143405244Y-61490072D01*
X143405239Y-61490072D01*
X143398787Y-61488700D01*
X143207813Y-61488700D01*
X143201361Y-61490072D01*
X143201356Y-61490072D01*
X143114412Y-61508553D01*
X143021012Y-61528406D01*
X143014982Y-61531091D01*
X143014981Y-61531091D01*
X142852578Y-61603397D01*
X142852576Y-61603398D01*
X142846548Y-61606082D01*
X142692047Y-61718334D01*
X142687626Y-61723244D01*
X142687625Y-61723245D01*
X142685325Y-61725800D01*
X142564260Y-61860256D01*
X142560959Y-61865974D01*
X142483825Y-61999574D01*
X142468773Y-62025644D01*
X142409758Y-62207272D01*
X142409068Y-62213833D01*
X142409068Y-62213835D01*
X142405610Y-62246738D01*
X142389796Y-62397200D01*
X142390486Y-62403765D01*
X142404119Y-62533472D01*
X142409758Y-62587128D01*
X142468773Y-62768756D01*
X142564260Y-62934144D01*
X142637437Y-63015415D01*
X142668153Y-63079421D01*
X142669800Y-63099724D01*
X142669800Y-63862406D01*
X142649798Y-63930527D01*
X142632895Y-63951501D01*
X139763595Y-66820800D01*
X139701283Y-66854826D01*
X139630467Y-66849761D01*
X139573632Y-66807214D01*
X139548821Y-66740694D01*
X139548500Y-66731705D01*
X139548500Y-66346866D01*
X139541745Y-66284684D01*
X139530328Y-66254229D01*
X139525145Y-66183423D01*
X139530326Y-66165776D01*
X139541745Y-66135316D01*
X139548500Y-66073134D01*
X139548500Y-65076866D01*
X139541745Y-65014684D01*
X139530328Y-64984229D01*
X139525145Y-64913423D01*
X139530326Y-64895776D01*
X139541745Y-64865316D01*
X139548500Y-64803134D01*
X139548500Y-64048000D01*
X139568502Y-63979879D01*
X139622158Y-63933386D01*
X139674500Y-63922000D01*
X140661800Y-63922000D01*
X140729921Y-63942002D01*
X140749147Y-63958343D01*
X140749420Y-63958040D01*
X140754332Y-63962463D01*
X140758747Y-63967366D01*
X140764434Y-63971498D01*
X140846340Y-64031006D01*
X140913248Y-64079618D01*
X140919276Y-64082302D01*
X140919278Y-64082303D01*
X141081681Y-64154609D01*
X141087712Y-64157294D01*
X141164341Y-64173582D01*
X141268056Y-64195628D01*
X141268061Y-64195628D01*
X141274513Y-64197000D01*
X141465487Y-64197000D01*
X141471939Y-64195628D01*
X141471944Y-64195628D01*
X141575659Y-64173582D01*
X141652288Y-64157294D01*
X141658319Y-64154609D01*
X141820722Y-64082303D01*
X141820724Y-64082302D01*
X141826752Y-64079618D01*
X141981253Y-63967366D01*
X142014423Y-63930527D01*
X142104621Y-63830352D01*
X142104622Y-63830351D01*
X142109040Y-63825444D01*
X142189929Y-63685341D01*
X142201223Y-63665779D01*
X142201224Y-63665778D01*
X142204527Y-63660056D01*
X142263542Y-63478428D01*
X142283504Y-63288500D01*
X142263542Y-63098572D01*
X142204527Y-62916944D01*
X142109040Y-62751556D01*
X142074258Y-62712926D01*
X141985675Y-62614545D01*
X141985674Y-62614544D01*
X141981253Y-62609634D01*
X141826752Y-62497382D01*
X141820724Y-62494698D01*
X141820722Y-62494697D01*
X141658319Y-62422391D01*
X141658318Y-62422391D01*
X141652288Y-62419706D01*
X141558887Y-62399853D01*
X141471944Y-62381372D01*
X141471939Y-62381372D01*
X141465487Y-62380000D01*
X141274513Y-62380000D01*
X141268061Y-62381372D01*
X141268056Y-62381372D01*
X141132179Y-62410254D01*
X141061388Y-62404852D01*
X141004756Y-62362035D01*
X140980262Y-62295397D01*
X140986149Y-62248073D01*
X140990842Y-62233628D01*
X140998706Y-62158812D01*
X141010114Y-62050265D01*
X141010804Y-62043700D01*
X141006166Y-61999574D01*
X140991532Y-61860335D01*
X140991532Y-61860333D01*
X140990842Y-61853772D01*
X140931827Y-61672144D01*
X140836340Y-61506756D01*
X140830298Y-61500045D01*
X140712975Y-61369745D01*
X140712974Y-61369744D01*
X140708553Y-61364834D01*
X140600210Y-61286118D01*
X140559394Y-61256463D01*
X140559393Y-61256462D01*
X140554052Y-61252582D01*
X140548024Y-61249898D01*
X140548022Y-61249897D01*
X140385619Y-61177591D01*
X140385618Y-61177591D01*
X140379588Y-61174906D01*
X140255368Y-61148502D01*
X140199244Y-61136572D01*
X140199239Y-61136572D01*
X140192787Y-61135200D01*
X140001813Y-61135200D01*
X139995355Y-61136573D01*
X139995352Y-61136573D01*
X139982156Y-61139378D01*
X139924621Y-61138173D01*
X139906312Y-61133472D01*
X139906309Y-61133472D01*
X139898630Y-61131500D01*
X139878376Y-61131500D01*
X139858665Y-61129949D01*
X139846486Y-61128020D01*
X139838657Y-61126780D01*
X139830765Y-61127526D01*
X139794639Y-61130941D01*
X139782781Y-61131500D01*
X139673830Y-61131500D01*
X139605709Y-61111498D01*
X139559216Y-61057842D01*
X139548015Y-60998683D01*
X139548132Y-60996520D01*
X139548500Y-60993134D01*
X139548500Y-59996866D01*
X139541745Y-59934684D01*
X139530328Y-59904229D01*
X139525145Y-59833423D01*
X139530326Y-59815776D01*
X139541745Y-59785316D01*
X139548500Y-59723134D01*
X139548500Y-58726866D01*
X139541745Y-58664684D01*
X139530061Y-58633517D01*
X139524878Y-58562712D01*
X139530061Y-58545057D01*
X139538479Y-58522602D01*
X139542105Y-58507351D01*
X139547631Y-58456486D01*
X139548000Y-58449672D01*
X139548000Y-58227115D01*
X139543525Y-58211876D01*
X139542135Y-58210671D01*
X139534452Y-58209000D01*
X137912000Y-58209000D01*
X137843879Y-58188998D01*
X137797386Y-58135342D01*
X137786000Y-58083000D01*
X137786000Y-57922800D01*
X137806002Y-57854679D01*
X137859658Y-57808186D01*
X137912000Y-57796800D01*
X143439806Y-57796800D01*
X143507927Y-57816802D01*
G37*
%TD.AperFunction*%
%TA.AperFunction,Conductor*%
G36*
X135626831Y-57816802D02*
G01*
X135673324Y-57870458D01*
X135683428Y-57940732D01*
X135653934Y-58005312D01*
X135632771Y-58024736D01*
X135552578Y-58083000D01*
X135506147Y-58116734D01*
X135501726Y-58121644D01*
X135501725Y-58121645D01*
X135406760Y-58227115D01*
X135378360Y-58258656D01*
X135282873Y-58424044D01*
X135223858Y-58605672D01*
X135223168Y-58612233D01*
X135223168Y-58612235D01*
X135211477Y-58723469D01*
X135203896Y-58795600D01*
X135204586Y-58802165D01*
X135223072Y-58978045D01*
X135223858Y-58985528D01*
X135282873Y-59167156D01*
X135378360Y-59332544D01*
X135506147Y-59474466D01*
X135660648Y-59586718D01*
X135666674Y-59589401D01*
X135666681Y-59589405D01*
X135736283Y-59620393D01*
X135790379Y-59666373D01*
X135811029Y-59734300D01*
X135791677Y-59802608D01*
X135738466Y-59849610D01*
X135685035Y-59861500D01*
X135307600Y-59861500D01*
X135239479Y-59841498D01*
X135220253Y-59825157D01*
X135219980Y-59825460D01*
X135215068Y-59821037D01*
X135210653Y-59816134D01*
X135157423Y-59777460D01*
X135061494Y-59707763D01*
X135061493Y-59707762D01*
X135056152Y-59703882D01*
X135050124Y-59701198D01*
X135050122Y-59701197D01*
X134887719Y-59628891D01*
X134887718Y-59628891D01*
X134881688Y-59626206D01*
X134788288Y-59606353D01*
X134701344Y-59587872D01*
X134701339Y-59587872D01*
X134694887Y-59586500D01*
X134503913Y-59586500D01*
X134497461Y-59587872D01*
X134497456Y-59587872D01*
X134410512Y-59606353D01*
X134317112Y-59626206D01*
X134311082Y-59628891D01*
X134311081Y-59628891D01*
X134148678Y-59701197D01*
X134148676Y-59701198D01*
X134142648Y-59703882D01*
X133988147Y-59816134D01*
X133983726Y-59821044D01*
X133983725Y-59821045D01*
X133874331Y-59942540D01*
X133860360Y-59958056D01*
X133764873Y-60123444D01*
X133762832Y-60129726D01*
X133762831Y-60129728D01*
X133759899Y-60138752D01*
X133739540Y-60201411D01*
X133699468Y-60260015D01*
X133634071Y-60287652D01*
X133564115Y-60275545D01*
X133557710Y-60272083D01*
X133552041Y-60267686D01*
X133544772Y-60264541D01*
X133544768Y-60264538D01*
X133511463Y-60250126D01*
X133500813Y-60244909D01*
X133462060Y-60223605D01*
X133442437Y-60218567D01*
X133423734Y-60212163D01*
X133412420Y-60207267D01*
X133412419Y-60207267D01*
X133405145Y-60204119D01*
X133397322Y-60202880D01*
X133397312Y-60202877D01*
X133361476Y-60197201D01*
X133349856Y-60194795D01*
X133314711Y-60185772D01*
X133314710Y-60185772D01*
X133307030Y-60183800D01*
X133286776Y-60183800D01*
X133267065Y-60182249D01*
X133254886Y-60180320D01*
X133247057Y-60179080D01*
X133203198Y-60183226D01*
X133203039Y-60183241D01*
X133191181Y-60183800D01*
X130632600Y-60183800D01*
X130564479Y-60163798D01*
X130545253Y-60147457D01*
X130544980Y-60147760D01*
X130540068Y-60143337D01*
X130535653Y-60138434D01*
X130466212Y-60087982D01*
X130386494Y-60030063D01*
X130386493Y-60030062D01*
X130381152Y-60026182D01*
X130375124Y-60023498D01*
X130375122Y-60023497D01*
X130212719Y-59951191D01*
X130212718Y-59951191D01*
X130206688Y-59948506D01*
X130106866Y-59927288D01*
X130026344Y-59910172D01*
X130026339Y-59910172D01*
X130019887Y-59908800D01*
X129828913Y-59908800D01*
X129822461Y-59910172D01*
X129822456Y-59910172D01*
X129741934Y-59927288D01*
X129642112Y-59948506D01*
X129636082Y-59951191D01*
X129636081Y-59951191D01*
X129473678Y-60023497D01*
X129473676Y-60023498D01*
X129467648Y-60026182D01*
X129313147Y-60138434D01*
X129308726Y-60143344D01*
X129308725Y-60143345D01*
X129199603Y-60264538D01*
X129185360Y-60280356D01*
X129157371Y-60328834D01*
X129093602Y-60439286D01*
X129089873Y-60445744D01*
X129030858Y-60627372D01*
X129010896Y-60817300D01*
X129011586Y-60823865D01*
X129029377Y-60993134D01*
X129030858Y-61007228D01*
X129089873Y-61188856D01*
X129093176Y-61194578D01*
X129093177Y-61194579D01*
X129114227Y-61231039D01*
X129185360Y-61354244D01*
X129189778Y-61359151D01*
X129189779Y-61359152D01*
X129307660Y-61490072D01*
X129313147Y-61496166D01*
X129467648Y-61608418D01*
X129473676Y-61611102D01*
X129473678Y-61611103D01*
X129624896Y-61678429D01*
X129642112Y-61686094D01*
X129735513Y-61705947D01*
X129822456Y-61724428D01*
X129822461Y-61724428D01*
X129828913Y-61725800D01*
X130019887Y-61725800D01*
X130026339Y-61724428D01*
X130026344Y-61724428D01*
X130113287Y-61705947D01*
X130206688Y-61686094D01*
X130223904Y-61678429D01*
X130375122Y-61611103D01*
X130375124Y-61611102D01*
X130381152Y-61608418D01*
X130535653Y-61496166D01*
X130540068Y-61491263D01*
X130544980Y-61486840D01*
X130546105Y-61488089D01*
X130599414Y-61455249D01*
X130632600Y-61450800D01*
X132912406Y-61450800D01*
X132980527Y-61470802D01*
X133001501Y-61487705D01*
X135623970Y-64110174D01*
X135657996Y-64172486D01*
X135652931Y-64243301D01*
X135610384Y-64300137D01*
X135586124Y-64314375D01*
X135506662Y-64349754D01*
X135436295Y-64359188D01*
X135371998Y-64329081D01*
X135361778Y-64318957D01*
X135336373Y-64290741D01*
X135336364Y-64290733D01*
X135331953Y-64285834D01*
X135273412Y-64243301D01*
X135182794Y-64177463D01*
X135182793Y-64177462D01*
X135177452Y-64173582D01*
X135171424Y-64170898D01*
X135171422Y-64170897D01*
X135009019Y-64098591D01*
X135009018Y-64098591D01*
X135002988Y-64095906D01*
X134908101Y-64075737D01*
X134822644Y-64057572D01*
X134822639Y-64057572D01*
X134816187Y-64056200D01*
X134625213Y-64056200D01*
X134618761Y-64057572D01*
X134618756Y-64057572D01*
X134533299Y-64075737D01*
X134438412Y-64095906D01*
X134432385Y-64098589D01*
X134432377Y-64098592D01*
X134277112Y-64167720D01*
X134206745Y-64177154D01*
X134151803Y-64154549D01*
X134085894Y-64106663D01*
X134085893Y-64106662D01*
X134080552Y-64102782D01*
X134074524Y-64100098D01*
X134074522Y-64100097D01*
X133912119Y-64027791D01*
X133912118Y-64027791D01*
X133906088Y-64025106D01*
X133812688Y-64005253D01*
X133725744Y-63986772D01*
X133725739Y-63986772D01*
X133719287Y-63985400D01*
X133528313Y-63985400D01*
X133521861Y-63986772D01*
X133521856Y-63986772D01*
X133434912Y-64005253D01*
X133341512Y-64025106D01*
X133335482Y-64027791D01*
X133335481Y-64027791D01*
X133173078Y-64100097D01*
X133173076Y-64100098D01*
X133167048Y-64102782D01*
X133161707Y-64106662D01*
X133161706Y-64106663D01*
X133126448Y-64132280D01*
X133012547Y-64215034D01*
X133008126Y-64219944D01*
X133008125Y-64219945D01*
X132946628Y-64288245D01*
X132884760Y-64356956D01*
X132789273Y-64522344D01*
X132730258Y-64703972D01*
X132715816Y-64841386D01*
X132712893Y-64869193D01*
X132685880Y-64934850D01*
X132676687Y-64945109D01*
X131763093Y-65858702D01*
X131700783Y-65892726D01*
X131629967Y-65887661D01*
X131573132Y-65845114D01*
X131548321Y-65778594D01*
X131548000Y-65769605D01*
X131548000Y-65727115D01*
X131543525Y-65711876D01*
X131542135Y-65710671D01*
X131534452Y-65709000D01*
X128412000Y-65709000D01*
X128343879Y-65688998D01*
X128297386Y-65635342D01*
X128286000Y-65583000D01*
X128286000Y-65182885D01*
X128794000Y-65182885D01*
X128798475Y-65198124D01*
X128799865Y-65199329D01*
X128807548Y-65201000D01*
X131529884Y-65201000D01*
X131545123Y-65196525D01*
X131546328Y-65195135D01*
X131547999Y-65187452D01*
X131547999Y-62910331D01*
X131547629Y-62903510D01*
X131542105Y-62852648D01*
X131538479Y-62837396D01*
X131493324Y-62716946D01*
X131484786Y-62701351D01*
X131408285Y-62599276D01*
X131395724Y-62586715D01*
X131293649Y-62510214D01*
X131278054Y-62501676D01*
X131157606Y-62456522D01*
X131142351Y-62452895D01*
X131091486Y-62447369D01*
X131084672Y-62447000D01*
X128812115Y-62447000D01*
X128796876Y-62451475D01*
X128795671Y-62452865D01*
X128794000Y-62460548D01*
X128794000Y-65182885D01*
X128286000Y-65182885D01*
X128286000Y-62465116D01*
X128281525Y-62449877D01*
X128280135Y-62448672D01*
X128272452Y-62447001D01*
X125995331Y-62447001D01*
X125988510Y-62447371D01*
X125937648Y-62452895D01*
X125922396Y-62456521D01*
X125801946Y-62501676D01*
X125786351Y-62510214D01*
X125684276Y-62586715D01*
X125671715Y-62599276D01*
X125595214Y-62701351D01*
X125586676Y-62716946D01*
X125541522Y-62837394D01*
X125537895Y-62852649D01*
X125532369Y-62903514D01*
X125532000Y-62910328D01*
X125532000Y-63908809D01*
X125511998Y-63976930D01*
X125458342Y-64023423D01*
X125388068Y-64033527D01*
X125377230Y-64031006D01*
X125377188Y-64031206D01*
X125196844Y-63992872D01*
X125196839Y-63992872D01*
X125190387Y-63991500D01*
X125134495Y-63991500D01*
X125066374Y-63971498D01*
X125045400Y-63954595D01*
X123035705Y-61944900D01*
X123001679Y-61882588D01*
X122998800Y-61855805D01*
X122998800Y-60566793D01*
X123001032Y-60543184D01*
X123001090Y-60542881D01*
X123001090Y-60542877D01*
X123002575Y-60535094D01*
X122999049Y-60479049D01*
X122998800Y-60471138D01*
X122998800Y-60455144D01*
X122996794Y-60439270D01*
X122996051Y-60431402D01*
X122993023Y-60383263D01*
X122993023Y-60383262D01*
X122992525Y-60375350D01*
X122989979Y-60367513D01*
X122984806Y-60344369D01*
X122984768Y-60344065D01*
X122984767Y-60344060D01*
X122983774Y-60336203D01*
X122980858Y-60328838D01*
X122980857Y-60328834D01*
X122963101Y-60283989D01*
X122960429Y-60276570D01*
X122943064Y-60223125D01*
X122938694Y-60216239D01*
X122938650Y-60216169D01*
X122927885Y-60195042D01*
X122927771Y-60194754D01*
X122927768Y-60194749D01*
X122924852Y-60187383D01*
X122920196Y-60180975D01*
X122920193Y-60180969D01*
X122891842Y-60141948D01*
X122887392Y-60135401D01*
X122857300Y-60087982D01*
X122851293Y-60082341D01*
X122835612Y-60064555D01*
X122831258Y-60058563D01*
X122807399Y-59991697D01*
X122823477Y-59922545D01*
X122874389Y-59873063D01*
X122933193Y-59858500D01*
X124562299Y-59858500D01*
X124630420Y-59878502D01*
X124676913Y-59932158D01*
X124682131Y-59945561D01*
X124707473Y-60023556D01*
X124710776Y-60029278D01*
X124710777Y-60029279D01*
X124727685Y-60058564D01*
X124802960Y-60188944D01*
X124807378Y-60193851D01*
X124807379Y-60193852D01*
X124876777Y-60270926D01*
X124930747Y-60330866D01*
X125028372Y-60401795D01*
X125074565Y-60435356D01*
X125085248Y-60443118D01*
X125091276Y-60445802D01*
X125091278Y-60445803D01*
X125166292Y-60479201D01*
X125259712Y-60520794D01*
X125353113Y-60540647D01*
X125440056Y-60559128D01*
X125440061Y-60559128D01*
X125446513Y-60560500D01*
X125637487Y-60560500D01*
X125643939Y-60559128D01*
X125643944Y-60559128D01*
X125730887Y-60540647D01*
X125824288Y-60520794D01*
X125917708Y-60479201D01*
X125992722Y-60445803D01*
X125992724Y-60445802D01*
X125998752Y-60443118D01*
X126009436Y-60435356D01*
X126055628Y-60401795D01*
X126153253Y-60330866D01*
X126207223Y-60270926D01*
X126276621Y-60193852D01*
X126276622Y-60193851D01*
X126281040Y-60188944D01*
X126356315Y-60058564D01*
X126373223Y-60029279D01*
X126373224Y-60029278D01*
X126376527Y-60023556D01*
X126435542Y-59841928D01*
X126438292Y-59815769D01*
X126454814Y-59658565D01*
X126455504Y-59652000D01*
X126436845Y-59474466D01*
X126436232Y-59468635D01*
X126436232Y-59468633D01*
X126435542Y-59462072D01*
X126376527Y-59280444D01*
X126281040Y-59115056D01*
X126170264Y-58992026D01*
X126157675Y-58978045D01*
X126157674Y-58978044D01*
X126153253Y-58973134D01*
X125998752Y-58860882D01*
X125992724Y-58858198D01*
X125992722Y-58858197D01*
X125830319Y-58785891D01*
X125830318Y-58785891D01*
X125824288Y-58783206D01*
X125730888Y-58763353D01*
X125643944Y-58744872D01*
X125643939Y-58744872D01*
X125637487Y-58743500D01*
X125577571Y-58743500D01*
X125509450Y-58723498D01*
X125502703Y-58718234D01*
X125502511Y-58718499D01*
X125496100Y-58713841D01*
X125490321Y-58708414D01*
X125483375Y-58704595D01*
X125483372Y-58704593D01*
X125472566Y-58698652D01*
X125456047Y-58687801D01*
X125455583Y-58687441D01*
X125440041Y-58675386D01*
X125432772Y-58672241D01*
X125432768Y-58672238D01*
X125399463Y-58657826D01*
X125388813Y-58652609D01*
X125350060Y-58631305D01*
X125330437Y-58626267D01*
X125311734Y-58619863D01*
X125300420Y-58614967D01*
X125300419Y-58614967D01*
X125293145Y-58611819D01*
X125285322Y-58610580D01*
X125285312Y-58610577D01*
X125249476Y-58604901D01*
X125237856Y-58602495D01*
X125202711Y-58593472D01*
X125202710Y-58593472D01*
X125195030Y-58591500D01*
X125174776Y-58591500D01*
X125155065Y-58589949D01*
X125142886Y-58588020D01*
X125135057Y-58586780D01*
X125127165Y-58587526D01*
X125091039Y-58590941D01*
X125079181Y-58591500D01*
X122673328Y-58591500D01*
X122605207Y-58571498D01*
X122558714Y-58517842D01*
X122547512Y-58458688D01*
X122548000Y-58449675D01*
X122548000Y-58227115D01*
X122543525Y-58211876D01*
X122542135Y-58210671D01*
X122534452Y-58209000D01*
X120912000Y-58209000D01*
X120843879Y-58188998D01*
X120797386Y-58135342D01*
X120786000Y-58083000D01*
X120786000Y-57922800D01*
X120806002Y-57854679D01*
X120859658Y-57808186D01*
X120912000Y-57796800D01*
X135558710Y-57796800D01*
X135626831Y-57816802D01*
G37*
%TD.AperFunction*%
%TD*%
%TA.AperFunction,Conductor*%
%TO.N,GND*%
G36*
X158127227Y-87242409D02*
G01*
X158393845Y-87331282D01*
X158452145Y-87371799D01*
X158479284Y-87437404D01*
X158480000Y-87450816D01*
X158480000Y-89774000D01*
X158459998Y-89842121D01*
X158406342Y-89888614D01*
X158354000Y-89900000D01*
X153400000Y-89900000D01*
X153400000Y-92427524D01*
X153397553Y-92452235D01*
X151064001Y-104119998D01*
X150880258Y-105038711D01*
X150847285Y-105101586D01*
X150785553Y-105136653D01*
X150756705Y-105140000D01*
X133805038Y-105140000D01*
X133736917Y-105119998D01*
X133690424Y-105066342D01*
X133681666Y-105039601D01*
X133498668Y-104157739D01*
X130580012Y-90092816D01*
X139041443Y-98554247D01*
X139048987Y-98562537D01*
X139053100Y-98569018D01*
X139058877Y-98574443D01*
X139102767Y-98615658D01*
X139105609Y-98618413D01*
X139125331Y-98638135D01*
X139128473Y-98640572D01*
X139128533Y-98640619D01*
X139137545Y-98648317D01*
X139163136Y-98672347D01*
X139169779Y-98678586D01*
X139176722Y-98682403D01*
X139187531Y-98688345D01*
X139204053Y-98699198D01*
X139220059Y-98711614D01*
X139227337Y-98714764D01*
X139227338Y-98714764D01*
X139260637Y-98729174D01*
X139271287Y-98734391D01*
X139310040Y-98755695D01*
X139317715Y-98757666D01*
X139317716Y-98757666D01*
X139329662Y-98760733D01*
X139348367Y-98767137D01*
X139366955Y-98775181D01*
X139374778Y-98776420D01*
X139374788Y-98776423D01*
X139410624Y-98782099D01*
X139422244Y-98784505D01*
X139457389Y-98793528D01*
X139465070Y-98795500D01*
X139485324Y-98795500D01*
X139505034Y-98797051D01*
X139525043Y-98800220D01*
X139532935Y-98799474D01*
X139569061Y-98796059D01*
X139580919Y-98795500D01*
X141112900Y-98795500D01*
X141181021Y-98815502D01*
X141200247Y-98831843D01*
X141200520Y-98831540D01*
X141205432Y-98835963D01*
X141209847Y-98840866D01*
X141215186Y-98844745D01*
X141352173Y-98944272D01*
X141364348Y-98953118D01*
X141370376Y-98955802D01*
X141370378Y-98955803D01*
X141532781Y-99028109D01*
X141538812Y-99030794D01*
X141632212Y-99050647D01*
X141719156Y-99069128D01*
X141719161Y-99069128D01*
X141725613Y-99070500D01*
X141916587Y-99070500D01*
X141923039Y-99069128D01*
X141923044Y-99069128D01*
X142009988Y-99050647D01*
X142103388Y-99030794D01*
X142109419Y-99028109D01*
X142271822Y-98955803D01*
X142271824Y-98955802D01*
X142277852Y-98953118D01*
X142290028Y-98944272D01*
X142427014Y-98844745D01*
X142432353Y-98840866D01*
X142437134Y-98835556D01*
X142437405Y-98835389D01*
X142441680Y-98831540D01*
X142442384Y-98832322D01*
X142497580Y-98798316D01*
X142568564Y-98799667D01*
X142619866Y-98830771D01*
X142638288Y-98849193D01*
X142672314Y-98911505D01*
X142674503Y-98951457D01*
X142655296Y-99134200D01*
X142675258Y-99324128D01*
X142734273Y-99505756D01*
X142829760Y-99671144D01*
X142957547Y-99813066D01*
X143112048Y-99925318D01*
X143118076Y-99928002D01*
X143118078Y-99928003D01*
X143280481Y-100000309D01*
X143286512Y-100002994D01*
X143351276Y-100016760D01*
X143466856Y-100041328D01*
X143466861Y-100041328D01*
X143473313Y-100042700D01*
X143664287Y-100042700D01*
X143670739Y-100041328D01*
X143670744Y-100041328D01*
X143786324Y-100016760D01*
X143851088Y-100002994D01*
X143857119Y-100000309D01*
X144019522Y-99928003D01*
X144019524Y-99928002D01*
X144025552Y-99925318D01*
X144180053Y-99813066D01*
X144184477Y-99808153D01*
X144186130Y-99806318D01*
X144187351Y-99805566D01*
X144189380Y-99803739D01*
X144189714Y-99804110D01*
X144246578Y-99769081D01*
X144317561Y-99770436D01*
X144368857Y-99801538D01*
X145687015Y-101119696D01*
X145721041Y-101182008D01*
X145720439Y-101238205D01*
X145678009Y-101414938D01*
X145678008Y-101414944D01*
X145676854Y-101419751D01*
X145656372Y-101680000D01*
X145676854Y-101940249D01*
X145678008Y-101945056D01*
X145678009Y-101945062D01*
X145716424Y-102105069D01*
X145737796Y-102194089D01*
X145837697Y-102435271D01*
X145974097Y-102657856D01*
X146143637Y-102856363D01*
X146342144Y-103025903D01*
X146564729Y-103162303D01*
X146569299Y-103164196D01*
X146569303Y-103164198D01*
X146801338Y-103260310D01*
X146805911Y-103262204D01*
X146894931Y-103283576D01*
X147054938Y-103321991D01*
X147054944Y-103321992D01*
X147059751Y-103323146D01*
X147320000Y-103343628D01*
X147580249Y-103323146D01*
X147585056Y-103321992D01*
X147585062Y-103321991D01*
X147745069Y-103283576D01*
X147834089Y-103262204D01*
X147838662Y-103260310D01*
X148070697Y-103164198D01*
X148070701Y-103164196D01*
X148075271Y-103162303D01*
X148297856Y-103025903D01*
X148496363Y-102856363D01*
X148665903Y-102657856D01*
X148802303Y-102435271D01*
X148902204Y-102194089D01*
X148923576Y-102105069D01*
X148961991Y-101945062D01*
X148961992Y-101945056D01*
X148963146Y-101940249D01*
X148983628Y-101680000D01*
X148963146Y-101419751D01*
X148961992Y-101414944D01*
X148961991Y-101414938D01*
X148919560Y-101238205D01*
X148902204Y-101165911D01*
X148900310Y-101161338D01*
X148804198Y-100929303D01*
X148804196Y-100929299D01*
X148802303Y-100924729D01*
X148665903Y-100702144D01*
X148496363Y-100503637D01*
X148297856Y-100334097D01*
X148075271Y-100197697D01*
X148070701Y-100195804D01*
X148070697Y-100195802D01*
X147838662Y-100099690D01*
X147838660Y-100099689D01*
X147834089Y-100097796D01*
X147745069Y-100076424D01*
X147585062Y-100038009D01*
X147585056Y-100038008D01*
X147580249Y-100036854D01*
X147320000Y-100016372D01*
X147059751Y-100036854D01*
X147054944Y-100038008D01*
X147054938Y-100038009D01*
X146878205Y-100080439D01*
X146807297Y-100076892D01*
X146759696Y-100047015D01*
X141724193Y-95011512D01*
X141690167Y-94949200D01*
X141695232Y-94878385D01*
X141737779Y-94821549D01*
X141804299Y-94796738D01*
X141864537Y-94807310D01*
X141907794Y-94826569D01*
X141957712Y-94848794D01*
X142051113Y-94868647D01*
X142138056Y-94887128D01*
X142138061Y-94887128D01*
X142144513Y-94888500D01*
X142335487Y-94888500D01*
X142341939Y-94887128D01*
X142341944Y-94887128D01*
X142428888Y-94868647D01*
X142522288Y-94848794D01*
X142564743Y-94829892D01*
X142690722Y-94773803D01*
X142690724Y-94773802D01*
X142696752Y-94771118D01*
X142851253Y-94658866D01*
X142979040Y-94516944D01*
X143074527Y-94351556D01*
X143133542Y-94169928D01*
X143135395Y-94152303D01*
X143152814Y-93986565D01*
X143153504Y-93980000D01*
X143152814Y-93973435D01*
X143134232Y-93796635D01*
X143134232Y-93796633D01*
X143133542Y-93790072D01*
X143074527Y-93608444D01*
X143015381Y-93506000D01*
X142998500Y-93443001D01*
X142998500Y-92822204D01*
X146343151Y-92822204D01*
X146347720Y-92828735D01*
X146560736Y-92959271D01*
X146569530Y-92963752D01*
X146801492Y-93059834D01*
X146810877Y-93062883D01*
X147055017Y-93121496D01*
X147064764Y-93123039D01*
X147315070Y-93142739D01*
X147324930Y-93142739D01*
X147575236Y-93123039D01*
X147584983Y-93121496D01*
X147829123Y-93062883D01*
X147838508Y-93059834D01*
X148070470Y-92963752D01*
X148079264Y-92959271D01*
X148290875Y-92829596D01*
X148296922Y-92820330D01*
X148290915Y-92810125D01*
X147332812Y-91852022D01*
X147318868Y-91844408D01*
X147317035Y-91844539D01*
X147310420Y-91848790D01*
X146350544Y-92808666D01*
X146343151Y-92822204D01*
X142998500Y-92822204D01*
X142998500Y-91484930D01*
X145657261Y-91484930D01*
X145676961Y-91735236D01*
X145678504Y-91744983D01*
X145737117Y-91989123D01*
X145740166Y-91998508D01*
X145836248Y-92230470D01*
X145840729Y-92239264D01*
X145970404Y-92450875D01*
X145979670Y-92456922D01*
X145989875Y-92450915D01*
X146947978Y-91492812D01*
X146954356Y-91481132D01*
X147684408Y-91481132D01*
X147684539Y-91482965D01*
X147688790Y-91489580D01*
X148648666Y-92449456D01*
X148662204Y-92456849D01*
X148668735Y-92452280D01*
X148799271Y-92239264D01*
X148803752Y-92230470D01*
X148899834Y-91998508D01*
X148902883Y-91989123D01*
X148961496Y-91744983D01*
X148963039Y-91735236D01*
X148982739Y-91484930D01*
X148982739Y-91475070D01*
X148963039Y-91224764D01*
X148961496Y-91215017D01*
X148902883Y-90970877D01*
X148899834Y-90961492D01*
X148803752Y-90729530D01*
X148799271Y-90720736D01*
X148669596Y-90509125D01*
X148660330Y-90503078D01*
X148650125Y-90509085D01*
X147692022Y-91467188D01*
X147684408Y-91481132D01*
X146954356Y-91481132D01*
X146955592Y-91478868D01*
X146955461Y-91477035D01*
X146951210Y-91470420D01*
X145991334Y-90510544D01*
X145977796Y-90503151D01*
X145971265Y-90507720D01*
X145840729Y-90720736D01*
X145836248Y-90729530D01*
X145740166Y-90961492D01*
X145737117Y-90970877D01*
X145678504Y-91215017D01*
X145676961Y-91224764D01*
X145657261Y-91475070D01*
X145657261Y-91484930D01*
X142998500Y-91484930D01*
X142998500Y-90139670D01*
X146343078Y-90139670D01*
X146349085Y-90149875D01*
X147307188Y-91107978D01*
X147321132Y-91115592D01*
X147322965Y-91115461D01*
X147329580Y-91111210D01*
X148289456Y-90151334D01*
X148296849Y-90137796D01*
X148292280Y-90131265D01*
X148079264Y-90000729D01*
X148070470Y-89996248D01*
X147838508Y-89900166D01*
X147829123Y-89897117D01*
X147584983Y-89838504D01*
X147575236Y-89836961D01*
X147324930Y-89817261D01*
X147315070Y-89817261D01*
X147064764Y-89836961D01*
X147055017Y-89838504D01*
X146810877Y-89897117D01*
X146801492Y-89900166D01*
X146569530Y-89996248D01*
X146560736Y-90000729D01*
X146349125Y-90130404D01*
X146343078Y-90139670D01*
X142998500Y-90139670D01*
X142998500Y-89436999D01*
X143015381Y-89373999D01*
X143026763Y-89354286D01*
X143074527Y-89271556D01*
X143133542Y-89089928D01*
X143153504Y-88900000D01*
X143139524Y-88766984D01*
X143134232Y-88716635D01*
X143134232Y-88716633D01*
X143133542Y-88710072D01*
X143074527Y-88528444D01*
X143067750Y-88516705D01*
X142993156Y-88387506D01*
X142979040Y-88363056D01*
X142974137Y-88357611D01*
X142876173Y-88248810D01*
X142845455Y-88184803D01*
X142854220Y-88114349D01*
X142899683Y-88059818D01*
X142969809Y-88038500D01*
X155096669Y-88038500D01*
X155164790Y-88058502D01*
X155204102Y-88098665D01*
X155246625Y-88168056D01*
X155407961Y-88354307D01*
X155411936Y-88357607D01*
X155411940Y-88357611D01*
X155432482Y-88374665D01*
X155597550Y-88511707D01*
X155810300Y-88636028D01*
X155815120Y-88637868D01*
X155815125Y-88637871D01*
X155963523Y-88694538D01*
X156040499Y-88723932D01*
X156045567Y-88724963D01*
X156045570Y-88724964D01*
X156164840Y-88749230D01*
X156281964Y-88773059D01*
X156287137Y-88773249D01*
X156287140Y-88773249D01*
X156523045Y-88781899D01*
X156523049Y-88781899D01*
X156528209Y-88782088D01*
X156533329Y-88781432D01*
X156533331Y-88781432D01*
X156767496Y-88751435D01*
X156767497Y-88751435D01*
X156772624Y-88750778D01*
X156777574Y-88749293D01*
X157003687Y-88681456D01*
X157003692Y-88681454D01*
X157008642Y-88679969D01*
X157098337Y-88636028D01*
X157225275Y-88573842D01*
X157225280Y-88573839D01*
X157229926Y-88571563D01*
X157234136Y-88568560D01*
X157234141Y-88568557D01*
X157426321Y-88431476D01*
X157426326Y-88431472D01*
X157430533Y-88428471D01*
X157605076Y-88254536D01*
X157748868Y-88054430D01*
X157751156Y-88049801D01*
X157855757Y-87838155D01*
X157855758Y-87838152D01*
X157858045Y-87833525D01*
X157863358Y-87816038D01*
X157928174Y-87602708D01*
X157928175Y-87602702D01*
X157929678Y-87597756D01*
X157961841Y-87353452D01*
X157961880Y-87351858D01*
X157986988Y-87285804D01*
X158044089Y-87243614D01*
X158114935Y-87238992D01*
X158127227Y-87242409D01*
G37*
%TD.AperFunction*%
%TA.AperFunction,Conductor*%
G36*
X149509852Y-72470218D02*
G01*
X149566688Y-72512765D01*
X149591499Y-72579285D01*
X149591820Y-72588274D01*
X149591820Y-73710309D01*
X149571818Y-73778430D01*
X149554915Y-73799404D01*
X141405369Y-81948950D01*
X141342472Y-81983101D01*
X141285876Y-81995131D01*
X141285867Y-81995134D01*
X141279412Y-81996506D01*
X141273382Y-81999191D01*
X141273381Y-81999191D01*
X141110978Y-82071497D01*
X141110976Y-82071498D01*
X141104948Y-82074182D01*
X141077510Y-82094117D01*
X141010646Y-82117975D01*
X140941494Y-82101896D01*
X140892013Y-82050983D01*
X140877912Y-81981401D01*
X140890493Y-81936354D01*
X140964670Y-81786267D01*
X140968469Y-81776672D01*
X141030377Y-81572910D01*
X141032555Y-81562837D01*
X141033986Y-81551962D01*
X141031775Y-81537778D01*
X141018617Y-81534000D01*
X139972115Y-81534000D01*
X139956876Y-81538475D01*
X139955671Y-81539865D01*
X139954000Y-81547548D01*
X139954000Y-82598517D01*
X139958064Y-82612359D01*
X139971478Y-82614393D01*
X139978184Y-82613534D01*
X139988262Y-82611392D01*
X140192255Y-82550191D01*
X140201842Y-82546433D01*
X140393095Y-82452739D01*
X140401945Y-82447464D01*
X140533783Y-82353425D01*
X140600856Y-82330151D01*
X140669865Y-82346835D01*
X140718899Y-82398179D01*
X140732390Y-82467882D01*
X140726784Y-82494940D01*
X140688632Y-82612359D01*
X140668158Y-82675372D01*
X140648196Y-82865300D01*
X140648886Y-82871865D01*
X140665512Y-83030048D01*
X140668158Y-83055228D01*
X140727173Y-83236856D01*
X140822660Y-83402244D01*
X140950447Y-83544166D01*
X141104948Y-83656418D01*
X141110976Y-83659102D01*
X141110978Y-83659103D01*
X141238511Y-83715884D01*
X141279412Y-83734094D01*
X141341165Y-83747220D01*
X141459756Y-83772428D01*
X141459761Y-83772428D01*
X141466213Y-83773800D01*
X141657187Y-83773800D01*
X141663639Y-83772428D01*
X141663644Y-83772428D01*
X141782235Y-83747220D01*
X141843988Y-83734094D01*
X141884889Y-83715884D01*
X142012422Y-83659103D01*
X142012424Y-83659102D01*
X142018452Y-83656418D01*
X142172953Y-83544166D01*
X142300740Y-83402244D01*
X142396227Y-83236856D01*
X142451087Y-83068014D01*
X142481825Y-83017856D01*
X149179647Y-76320034D01*
X149241959Y-76286008D01*
X149312774Y-76291073D01*
X149369610Y-76333620D01*
X149394052Y-76395958D01*
X149402058Y-76472128D01*
X149461073Y-76653756D01*
X149464376Y-76659478D01*
X149464377Y-76659479D01*
X149477395Y-76682027D01*
X149556560Y-76819144D01*
X149560978Y-76824051D01*
X149560979Y-76824052D01*
X149651886Y-76925014D01*
X149684347Y-76961066D01*
X149772870Y-77025382D01*
X149815106Y-77056068D01*
X149838848Y-77073318D01*
X149844876Y-77076002D01*
X149844878Y-77076003D01*
X150007281Y-77148309D01*
X150013312Y-77150994D01*
X150106712Y-77170847D01*
X150193656Y-77189328D01*
X150193661Y-77189328D01*
X150200113Y-77190700D01*
X150391087Y-77190700D01*
X150397539Y-77189328D01*
X150397544Y-77189328D01*
X150484488Y-77170847D01*
X150577888Y-77150994D01*
X150682752Y-77104306D01*
X150753118Y-77094872D01*
X150817415Y-77124978D01*
X150855229Y-77185067D01*
X150860000Y-77219413D01*
X150860000Y-84820000D01*
X155317966Y-86305989D01*
X155291455Y-86333731D01*
X155200882Y-86466507D01*
X155145973Y-86511507D01*
X155096796Y-86521500D01*
X136297835Y-86521500D01*
X136290033Y-86521258D01*
X136228702Y-86517453D01*
X136215740Y-86519680D01*
X136194404Y-86521500D01*
X130826371Y-86521500D01*
X130758250Y-86501498D01*
X130737276Y-86484595D01*
X129609181Y-85356500D01*
X130979196Y-85356500D01*
X130999158Y-85546428D01*
X131058173Y-85728056D01*
X131061476Y-85733778D01*
X131061477Y-85733779D01*
X131089029Y-85781500D01*
X131153660Y-85893444D01*
X131281447Y-86035366D01*
X131380543Y-86107364D01*
X131430604Y-86143735D01*
X131435948Y-86147618D01*
X131441976Y-86150302D01*
X131441978Y-86150303D01*
X131597140Y-86219385D01*
X131610412Y-86225294D01*
X131688377Y-86241866D01*
X131790756Y-86263628D01*
X131790761Y-86263628D01*
X131797213Y-86265000D01*
X131988187Y-86265000D01*
X131994639Y-86263628D01*
X131994644Y-86263628D01*
X132097023Y-86241866D01*
X132174988Y-86225294D01*
X132188260Y-86219385D01*
X132343422Y-86150303D01*
X132343424Y-86150302D01*
X132349452Y-86147618D01*
X132354791Y-86143739D01*
X132354798Y-86143735D01*
X132361228Y-86139063D01*
X132435287Y-86115000D01*
X140639413Y-86115000D01*
X140713472Y-86139063D01*
X140719902Y-86143735D01*
X140719909Y-86143739D01*
X140725248Y-86147618D01*
X140731276Y-86150302D01*
X140731278Y-86150303D01*
X140886440Y-86219385D01*
X140899712Y-86225294D01*
X140977677Y-86241866D01*
X141080056Y-86263628D01*
X141080061Y-86263628D01*
X141086513Y-86265000D01*
X141277487Y-86265000D01*
X141283939Y-86263628D01*
X141283944Y-86263628D01*
X141386323Y-86241866D01*
X141464288Y-86225294D01*
X141477560Y-86219385D01*
X141632722Y-86150303D01*
X141632724Y-86150302D01*
X141638752Y-86147618D01*
X141644097Y-86143735D01*
X141694157Y-86107364D01*
X141793253Y-86035366D01*
X141921040Y-85893444D01*
X141985671Y-85781500D01*
X142013223Y-85733779D01*
X142013224Y-85733778D01*
X142016527Y-85728056D01*
X142075542Y-85546428D01*
X142095504Y-85356500D01*
X142075542Y-85166572D01*
X142016527Y-84984944D01*
X141921040Y-84819556D01*
X141793253Y-84677634D01*
X141650527Y-84573937D01*
X141644094Y-84569263D01*
X141644093Y-84569262D01*
X141638752Y-84565382D01*
X141632724Y-84562698D01*
X141632722Y-84562697D01*
X141470319Y-84490391D01*
X141470318Y-84490391D01*
X141464288Y-84487706D01*
X141370888Y-84467853D01*
X141283944Y-84449372D01*
X141283939Y-84449372D01*
X141277487Y-84448000D01*
X141086513Y-84448000D01*
X141080061Y-84449372D01*
X141080056Y-84449372D01*
X140993112Y-84467853D01*
X140899712Y-84487706D01*
X140893682Y-84490391D01*
X140893681Y-84490391D01*
X140731278Y-84562697D01*
X140731276Y-84562698D01*
X140725248Y-84565382D01*
X140719909Y-84569261D01*
X140719902Y-84569265D01*
X140713472Y-84573937D01*
X140639413Y-84598000D01*
X132435287Y-84598000D01*
X132361228Y-84573937D01*
X132354798Y-84569265D01*
X132354791Y-84569261D01*
X132349452Y-84565382D01*
X132343424Y-84562698D01*
X132343422Y-84562697D01*
X132181019Y-84490391D01*
X132181018Y-84490391D01*
X132174988Y-84487706D01*
X132081588Y-84467853D01*
X131994644Y-84449372D01*
X131994639Y-84449372D01*
X131988187Y-84448000D01*
X131797213Y-84448000D01*
X131790761Y-84449372D01*
X131790756Y-84449372D01*
X131703812Y-84467853D01*
X131610412Y-84487706D01*
X131604382Y-84490391D01*
X131604381Y-84490391D01*
X131441978Y-84562697D01*
X131441976Y-84562698D01*
X131435948Y-84565382D01*
X131430607Y-84569262D01*
X131430606Y-84569263D01*
X131424173Y-84573937D01*
X131281447Y-84677634D01*
X131153660Y-84819556D01*
X131058173Y-84984944D01*
X130999158Y-85166572D01*
X130979196Y-85356500D01*
X129609181Y-85356500D01*
X127604276Y-83351595D01*
X127570250Y-83289283D01*
X127575315Y-83218468D01*
X127617862Y-83161632D01*
X127684382Y-83136821D01*
X127693371Y-83136500D01*
X137546433Y-83136500D01*
X137557616Y-83137027D01*
X137565109Y-83138702D01*
X137573035Y-83138453D01*
X137573036Y-83138453D01*
X137633186Y-83136562D01*
X137637145Y-83136500D01*
X137665056Y-83136500D01*
X137668991Y-83136003D01*
X137669056Y-83135995D01*
X137680893Y-83135062D01*
X137713151Y-83134048D01*
X137717170Y-83133922D01*
X137725089Y-83133673D01*
X137744543Y-83128021D01*
X137763900Y-83124013D01*
X137776130Y-83122468D01*
X137776131Y-83122468D01*
X137783997Y-83121474D01*
X137791368Y-83118555D01*
X137791370Y-83118555D01*
X137825112Y-83105196D01*
X137836342Y-83101351D01*
X137871183Y-83091229D01*
X137871184Y-83091229D01*
X137878793Y-83089018D01*
X137885612Y-83084985D01*
X137885617Y-83084983D01*
X137896228Y-83078707D01*
X137913976Y-83070012D01*
X137932817Y-83062552D01*
X137968587Y-83036564D01*
X137978507Y-83030048D01*
X138009735Y-83011580D01*
X138009738Y-83011578D01*
X138016562Y-83007542D01*
X138030883Y-82993221D01*
X138045917Y-82980380D01*
X138055894Y-82973131D01*
X138062307Y-82968472D01*
X138067358Y-82962367D01*
X138067363Y-82962362D01*
X138090499Y-82934396D01*
X138098487Y-82925618D01*
X138678460Y-82345645D01*
X138740772Y-82311619D01*
X138811587Y-82316684D01*
X138848039Y-82337795D01*
X138914435Y-82392917D01*
X138922881Y-82398831D01*
X139106756Y-82506279D01*
X139116042Y-82510729D01*
X139315001Y-82586703D01*
X139324899Y-82589579D01*
X139428250Y-82610606D01*
X139442299Y-82609410D01*
X139446000Y-82599065D01*
X139446000Y-81152000D01*
X139466002Y-81083879D01*
X139519658Y-81037386D01*
X139572000Y-81026000D01*
X141018344Y-81026000D01*
X141031875Y-81022027D01*
X141033180Y-81012947D01*
X140991214Y-80845875D01*
X140987894Y-80836124D01*
X140902972Y-80640814D01*
X140898105Y-80631739D01*
X140782426Y-80452926D01*
X140776136Y-80444757D01*
X140632806Y-80287240D01*
X140625273Y-80280215D01*
X140458139Y-80148222D01*
X140449556Y-80142520D01*
X140350804Y-80088006D01*
X140300833Y-80037573D01*
X140286061Y-79968131D01*
X140311177Y-79901725D01*
X140322602Y-79888602D01*
X143285599Y-76925605D01*
X143347911Y-76891579D01*
X143374694Y-76888700D01*
X143822333Y-76888700D01*
X143833516Y-76889227D01*
X143841009Y-76890902D01*
X143848935Y-76890653D01*
X143848936Y-76890653D01*
X143909086Y-76888762D01*
X143913045Y-76888700D01*
X143940956Y-76888700D01*
X143944891Y-76888203D01*
X143944956Y-76888195D01*
X143956793Y-76887262D01*
X143989051Y-76886248D01*
X143993070Y-76886122D01*
X144000989Y-76885873D01*
X144020443Y-76880221D01*
X144039800Y-76876213D01*
X144052030Y-76874668D01*
X144052031Y-76874668D01*
X144059897Y-76873674D01*
X144067268Y-76870755D01*
X144067270Y-76870755D01*
X144101012Y-76857396D01*
X144112242Y-76853551D01*
X144147083Y-76843429D01*
X144147084Y-76843429D01*
X144154693Y-76841218D01*
X144161512Y-76837185D01*
X144161517Y-76837183D01*
X144172128Y-76830907D01*
X144189876Y-76822212D01*
X144208717Y-76814752D01*
X144244487Y-76788764D01*
X144254407Y-76782248D01*
X144285635Y-76763780D01*
X144285638Y-76763778D01*
X144292462Y-76759742D01*
X144306783Y-76745421D01*
X144321817Y-76732580D01*
X144331794Y-76725331D01*
X144338207Y-76720672D01*
X144366398Y-76686595D01*
X144374388Y-76677816D01*
X146313458Y-74738746D01*
X146375770Y-74704720D01*
X146446585Y-74709785D01*
X146483038Y-74730897D01*
X146538126Y-74776632D01*
X146731000Y-74889338D01*
X146939692Y-74969030D01*
X146944760Y-74970061D01*
X146944763Y-74970062D01*
X147052017Y-74991883D01*
X147158597Y-75013567D01*
X147163772Y-75013757D01*
X147163774Y-75013757D01*
X147376673Y-75021564D01*
X147376677Y-75021564D01*
X147381837Y-75021753D01*
X147386957Y-75021097D01*
X147386959Y-75021097D01*
X147598288Y-74994025D01*
X147598289Y-74994025D01*
X147603416Y-74993368D01*
X147608366Y-74991883D01*
X147812429Y-74930661D01*
X147812434Y-74930659D01*
X147817384Y-74929174D01*
X148017994Y-74830896D01*
X148199860Y-74701173D01*
X148213724Y-74687358D01*
X148326107Y-74575366D01*
X148358096Y-74543489D01*
X148397630Y-74488472D01*
X148485435Y-74366277D01*
X148488453Y-74362077D01*
X148502463Y-74333731D01*
X148585136Y-74166453D01*
X148585137Y-74166451D01*
X148587430Y-74161811D01*
X148641506Y-73983826D01*
X148650865Y-73953023D01*
X148650865Y-73953021D01*
X148652370Y-73948069D01*
X148681529Y-73726590D01*
X148682460Y-73688500D01*
X148683074Y-73663365D01*
X148683074Y-73663361D01*
X148683156Y-73660000D01*
X148664852Y-73437361D01*
X148636821Y-73325765D01*
X148639625Y-73254823D01*
X148669930Y-73205974D01*
X149376725Y-72499179D01*
X149439037Y-72465153D01*
X149509852Y-72470218D01*
G37*
%TD.AperFunction*%
%TA.AperFunction,Conductor*%
G36*
X115216043Y-67722247D02*
G01*
X115223587Y-67730537D01*
X115227700Y-67737018D01*
X115233477Y-67742443D01*
X115277367Y-67783658D01*
X115280209Y-67786413D01*
X115299931Y-67806135D01*
X115303055Y-67808558D01*
X115303059Y-67808562D01*
X115303124Y-67808612D01*
X115312145Y-67816317D01*
X115344379Y-67846586D01*
X115351327Y-67850405D01*
X115351329Y-67850407D01*
X115362132Y-67856346D01*
X115378659Y-67867202D01*
X115388398Y-67874757D01*
X115388400Y-67874758D01*
X115394660Y-67879614D01*
X115435240Y-67897174D01*
X115445888Y-67902391D01*
X115450931Y-67905163D01*
X115484640Y-67923695D01*
X115492316Y-67925666D01*
X115492319Y-67925667D01*
X115504262Y-67928733D01*
X115522967Y-67935137D01*
X115541555Y-67943181D01*
X115549378Y-67944420D01*
X115549388Y-67944423D01*
X115585224Y-67950099D01*
X115596844Y-67952505D01*
X115631989Y-67961528D01*
X115639670Y-67963500D01*
X115659924Y-67963500D01*
X115679634Y-67965051D01*
X115699643Y-67968220D01*
X115707535Y-67967474D01*
X115707536Y-67967474D01*
X115728421Y-67965500D01*
X115798122Y-67979003D01*
X115847997Y-68025575D01*
X115884517Y-68085758D01*
X115913377Y-68133317D01*
X115916874Y-68137347D01*
X116047348Y-68287705D01*
X116064477Y-68307445D01*
X116068608Y-68310832D01*
X116238627Y-68450240D01*
X116238633Y-68450244D01*
X116242755Y-68453624D01*
X116274250Y-68471552D01*
X116323555Y-68522632D01*
X116337417Y-68592262D01*
X116311434Y-68658333D01*
X116282284Y-68685573D01*
X116160681Y-68767441D01*
X116156824Y-68771120D01*
X116156822Y-68771122D01*
X116099874Y-68825448D01*
X115993865Y-68926576D01*
X115856246Y-69111542D01*
X115853830Y-69116293D01*
X115853828Y-69116297D01*
X115806186Y-69210003D01*
X115751760Y-69317051D01*
X115750178Y-69322145D01*
X115750177Y-69322148D01*
X115709016Y-69454708D01*
X115683393Y-69537227D01*
X115682692Y-69542516D01*
X115654324Y-69756556D01*
X115653102Y-69765774D01*
X115661751Y-69996158D01*
X115709093Y-70221791D01*
X115711051Y-70226750D01*
X115711052Y-70226752D01*
X115774755Y-70388056D01*
X115793776Y-70436221D01*
X115796543Y-70440780D01*
X115796544Y-70440783D01*
X115875195Y-70570395D01*
X115913377Y-70633317D01*
X115916874Y-70637347D01*
X116014067Y-70749352D01*
X116064477Y-70807445D01*
X116068608Y-70810832D01*
X116238627Y-70950240D01*
X116238633Y-70950244D01*
X116242755Y-70953624D01*
X116274250Y-70971552D01*
X116323555Y-71022632D01*
X116337417Y-71092262D01*
X116311434Y-71158333D01*
X116282284Y-71185573D01*
X116160681Y-71267441D01*
X116156824Y-71271120D01*
X116156822Y-71271122D01*
X116111071Y-71314767D01*
X115993865Y-71426576D01*
X115990682Y-71430854D01*
X115975123Y-71451766D01*
X115856246Y-71611542D01*
X115751760Y-71817051D01*
X115750178Y-71822145D01*
X115750177Y-71822148D01*
X115688115Y-72022020D01*
X115683393Y-72037227D01*
X115682692Y-72042516D01*
X115667304Y-72158623D01*
X115653102Y-72265774D01*
X115653302Y-72271103D01*
X115653302Y-72271105D01*
X115656825Y-72364955D01*
X115661751Y-72496158D01*
X115709093Y-72721791D01*
X115711051Y-72726750D01*
X115711052Y-72726752D01*
X115786566Y-72917963D01*
X115793776Y-72936221D01*
X115913377Y-73133317D01*
X115916874Y-73137347D01*
X116058227Y-73300242D01*
X116064477Y-73307445D01*
X116068608Y-73310832D01*
X116238627Y-73450240D01*
X116238633Y-73450244D01*
X116242755Y-73453624D01*
X116247398Y-73456267D01*
X116274735Y-73471829D01*
X116324041Y-73522912D01*
X116337902Y-73592542D01*
X116311918Y-73658613D01*
X116282768Y-73685851D01*
X116165422Y-73764852D01*
X116157130Y-73771519D01*
X115998100Y-73923228D01*
X115991059Y-73931186D01*
X115859859Y-74107525D01*
X115854255Y-74116562D01*
X115754643Y-74312484D01*
X115750643Y-74322335D01*
X115685466Y-74532240D01*
X115683183Y-74542624D01*
X115681139Y-74558043D01*
X115683335Y-74572207D01*
X115696522Y-74576000D01*
X118581192Y-74576000D01*
X118594723Y-74572027D01*
X118596248Y-74561420D01*
X118573908Y-74454947D01*
X118579496Y-74384170D01*
X118622461Y-74327650D01*
X118689162Y-74303331D01*
X118758423Y-74318934D01*
X118790855Y-74344759D01*
X118826247Y-74384066D01*
X118866779Y-74413514D01*
X118970442Y-74488830D01*
X118980748Y-74496318D01*
X118986776Y-74499002D01*
X118986778Y-74499003D01*
X119135276Y-74565118D01*
X119155212Y-74573994D01*
X119239693Y-74591951D01*
X119335556Y-74612328D01*
X119335561Y-74612328D01*
X119342013Y-74613700D01*
X119405500Y-74613700D01*
X119473621Y-74633702D01*
X119520114Y-74687358D01*
X119531500Y-74739700D01*
X119531500Y-74963134D01*
X119538255Y-75025316D01*
X119589385Y-75161705D01*
X119676739Y-75278261D01*
X119793295Y-75365615D01*
X119929684Y-75416745D01*
X119991866Y-75423500D01*
X122088134Y-75423500D01*
X122150316Y-75416745D01*
X122286705Y-75365615D01*
X122403261Y-75278261D01*
X122467247Y-75192885D01*
X122867000Y-75192885D01*
X122871475Y-75208124D01*
X122872865Y-75209329D01*
X122880548Y-75211000D01*
X123552885Y-75211000D01*
X123568124Y-75206525D01*
X123569329Y-75205135D01*
X123571000Y-75197452D01*
X123571000Y-73975116D01*
X123566525Y-73959877D01*
X123565135Y-73958672D01*
X123557452Y-73957001D01*
X123330331Y-73957001D01*
X123323510Y-73957371D01*
X123272648Y-73962895D01*
X123257396Y-73966521D01*
X123136946Y-74011676D01*
X123121351Y-74020214D01*
X123019276Y-74096715D01*
X123006715Y-74109276D01*
X122930214Y-74211351D01*
X122921676Y-74226946D01*
X122876522Y-74347394D01*
X122872895Y-74362649D01*
X122867369Y-74413514D01*
X122867000Y-74420328D01*
X122867000Y-75192885D01*
X122467247Y-75192885D01*
X122490615Y-75161705D01*
X122541745Y-75025316D01*
X122548500Y-74963134D01*
X122548500Y-73966866D01*
X122541745Y-73904684D01*
X122530403Y-73874429D01*
X122525220Y-73803623D01*
X122559140Y-73741254D01*
X122621395Y-73707125D01*
X122648385Y-73704200D01*
X122750987Y-73704200D01*
X122757439Y-73702828D01*
X122757444Y-73702828D01*
X122863248Y-73680338D01*
X122937788Y-73664494D01*
X122955415Y-73656646D01*
X123106222Y-73589503D01*
X123106224Y-73589502D01*
X123112252Y-73586818D01*
X123121433Y-73580148D01*
X123261414Y-73478445D01*
X123266753Y-73474566D01*
X123271168Y-73469663D01*
X123276080Y-73465240D01*
X123277205Y-73466489D01*
X123330514Y-73433649D01*
X123363700Y-73429200D01*
X124603683Y-73429200D01*
X124671804Y-73449202D01*
X124718297Y-73502858D01*
X124728401Y-73573132D01*
X124698907Y-73637712D01*
X124689997Y-73646421D01*
X124687982Y-73647700D01*
X124682558Y-73653476D01*
X124682341Y-73653707D01*
X124664554Y-73669388D01*
X124664309Y-73669566D01*
X124664307Y-73669568D01*
X124657893Y-73674228D01*
X124652839Y-73680337D01*
X124652838Y-73680338D01*
X124622097Y-73717496D01*
X124616866Y-73723430D01*
X124583842Y-73758598D01*
X124583840Y-73758601D01*
X124578414Y-73764379D01*
X124574445Y-73771599D01*
X124561119Y-73791206D01*
X124560920Y-73791446D01*
X124560916Y-73791453D01*
X124555867Y-73797556D01*
X124552493Y-73804727D01*
X124531953Y-73848376D01*
X124528371Y-73855408D01*
X124504580Y-73898683D01*
X124454236Y-73948740D01*
X124380560Y-73963243D01*
X124326488Y-73957369D01*
X124319672Y-73957000D01*
X124097115Y-73957000D01*
X124081876Y-73961475D01*
X124080671Y-73962865D01*
X124079000Y-73970548D01*
X124079000Y-75593000D01*
X124058998Y-75661121D01*
X124005342Y-75707614D01*
X123953000Y-75719000D01*
X122885116Y-75719000D01*
X122869877Y-75723475D01*
X122868672Y-75724865D01*
X122867001Y-75732548D01*
X122867001Y-76101500D01*
X122846999Y-76169621D01*
X122793343Y-76216114D01*
X122741001Y-76227500D01*
X121303400Y-76227500D01*
X121235279Y-76207498D01*
X121216053Y-76191157D01*
X121215780Y-76191460D01*
X121210868Y-76187037D01*
X121206453Y-76182134D01*
X121129742Y-76126400D01*
X121057294Y-76073763D01*
X121057293Y-76073762D01*
X121051952Y-76069882D01*
X121045924Y-76067198D01*
X121045922Y-76067197D01*
X120883519Y-75994891D01*
X120883518Y-75994891D01*
X120877488Y-75992206D01*
X120784088Y-75972353D01*
X120697144Y-75953872D01*
X120697139Y-75953872D01*
X120690687Y-75952500D01*
X120499713Y-75952500D01*
X120493261Y-75953872D01*
X120493256Y-75953872D01*
X120406312Y-75972353D01*
X120312912Y-75992206D01*
X120306882Y-75994891D01*
X120306881Y-75994891D01*
X120144478Y-76067197D01*
X120144476Y-76067198D01*
X120138448Y-76069882D01*
X120133107Y-76073762D01*
X120133106Y-76073763D01*
X120094930Y-76101500D01*
X119983947Y-76182134D01*
X119979526Y-76187044D01*
X119979525Y-76187045D01*
X119890419Y-76286008D01*
X119856160Y-76324056D01*
X119814647Y-76395958D01*
X119774460Y-76465565D01*
X119760673Y-76489444D01*
X119751815Y-76516705D01*
X119746017Y-76534550D01*
X119705943Y-76593156D01*
X119640546Y-76620792D01*
X119570589Y-76608685D01*
X119537089Y-76584708D01*
X118784970Y-75832589D01*
X118772584Y-75818177D01*
X118764051Y-75806582D01*
X118764046Y-75806577D01*
X118759708Y-75800682D01*
X118754130Y-75795943D01*
X118754127Y-75795940D01*
X118719432Y-75766465D01*
X118711916Y-75759535D01*
X118706221Y-75753840D01*
X118700080Y-75748982D01*
X118683949Y-75736219D01*
X118680545Y-75733428D01*
X118630497Y-75690909D01*
X118630495Y-75690908D01*
X118624915Y-75686167D01*
X118618399Y-75682839D01*
X118613350Y-75679472D01*
X118608221Y-75676305D01*
X118602484Y-75671766D01*
X118536325Y-75640845D01*
X118532423Y-75638938D01*
X118521204Y-75633209D01*
X118469632Y-75584414D01*
X118452627Y-75515484D01*
X118466190Y-75463888D01*
X118525357Y-75347516D01*
X118529357Y-75337665D01*
X118594534Y-75127760D01*
X118596817Y-75117376D01*
X118598861Y-75101957D01*
X118596665Y-75087793D01*
X118583478Y-75084000D01*
X115698808Y-75084000D01*
X115685277Y-75087973D01*
X115683752Y-75098580D01*
X115708477Y-75216421D01*
X115711536Y-75226613D01*
X115776344Y-75390718D01*
X115782762Y-75461424D01*
X115749935Y-75524376D01*
X115688284Y-75559586D01*
X115659152Y-75563000D01*
X109317929Y-75563000D01*
X109249808Y-75542998D01*
X109203315Y-75489342D01*
X109193007Y-75420554D01*
X109201404Y-75356773D01*
X109201404Y-75356769D01*
X109201841Y-75353452D01*
X109203636Y-75280000D01*
X109193219Y-75153297D01*
X109183869Y-75039568D01*
X109183868Y-75039562D01*
X109183445Y-75034417D01*
X109146349Y-74886731D01*
X109124675Y-74800441D01*
X109124674Y-74800437D01*
X109123416Y-74795430D01*
X109121357Y-74790694D01*
X109027220Y-74574193D01*
X109027218Y-74574190D01*
X109025160Y-74569456D01*
X109020644Y-74562475D01*
X108894126Y-74366908D01*
X108894121Y-74366902D01*
X108891315Y-74362564D01*
X108879331Y-74349393D01*
X108789157Y-74250294D01*
X108725477Y-74180310D01*
X108721426Y-74177111D01*
X108721422Y-74177107D01*
X108577860Y-74063730D01*
X108532099Y-74027590D01*
X108437043Y-73975116D01*
X108320906Y-73911004D01*
X108320903Y-73911003D01*
X108316375Y-73908503D01*
X108084097Y-73826250D01*
X108033847Y-73817299D01*
X107846593Y-73783943D01*
X107846589Y-73783943D01*
X107841505Y-73783037D01*
X107704612Y-73781365D01*
X107680000Y-73781064D01*
X107680000Y-72120000D01*
X108813016Y-70986984D01*
X108928297Y-70943767D01*
X108936705Y-70940615D01*
X109053261Y-70853261D01*
X109140615Y-70736705D01*
X109186984Y-70613016D01*
X109541500Y-70258500D01*
X112825413Y-70258500D01*
X112899472Y-70282563D01*
X112905902Y-70287235D01*
X112905909Y-70287239D01*
X112911248Y-70291118D01*
X112917276Y-70293802D01*
X112917278Y-70293803D01*
X113059669Y-70357199D01*
X113085712Y-70368794D01*
X113127129Y-70377597D01*
X113133944Y-70379046D01*
X113196417Y-70412774D01*
X113227580Y-70463356D01*
X113265173Y-70579056D01*
X113360660Y-70744444D01*
X113365078Y-70749351D01*
X113365079Y-70749352D01*
X113462790Y-70857871D01*
X113488447Y-70886366D01*
X113569100Y-70944964D01*
X113635297Y-70993059D01*
X113642948Y-70998618D01*
X113648976Y-71001302D01*
X113648978Y-71001303D01*
X113811381Y-71073609D01*
X113817412Y-71076294D01*
X113892832Y-71092325D01*
X113997756Y-71114628D01*
X113997761Y-71114628D01*
X114004213Y-71116000D01*
X114195187Y-71116000D01*
X114201639Y-71114628D01*
X114201644Y-71114628D01*
X114306568Y-71092325D01*
X114381988Y-71076294D01*
X114388019Y-71073609D01*
X114550422Y-71001303D01*
X114550424Y-71001302D01*
X114556452Y-70998618D01*
X114564104Y-70993059D01*
X114630300Y-70944964D01*
X114710953Y-70886366D01*
X114736610Y-70857871D01*
X114834321Y-70749352D01*
X114834322Y-70749351D01*
X114838740Y-70744444D01*
X114934227Y-70579056D01*
X114993242Y-70397428D01*
X114995634Y-70374675D01*
X115012514Y-70214065D01*
X115013204Y-70207500D01*
X115007299Y-70151317D01*
X114993932Y-70024135D01*
X114993932Y-70024133D01*
X114993242Y-70017572D01*
X114934227Y-69835944D01*
X114917788Y-69807470D01*
X114861089Y-69709266D01*
X114838740Y-69670556D01*
X114765563Y-69589285D01*
X114734847Y-69525279D01*
X114733200Y-69504976D01*
X114733200Y-69217867D01*
X114733727Y-69206684D01*
X114735402Y-69199191D01*
X114733262Y-69131114D01*
X114733200Y-69127155D01*
X114733200Y-69099244D01*
X114732695Y-69095244D01*
X114731762Y-69083401D01*
X114731219Y-69066105D01*
X114730373Y-69039210D01*
X114724722Y-69019758D01*
X114720714Y-69000406D01*
X114719167Y-68988163D01*
X114718174Y-68980303D01*
X114715256Y-68972932D01*
X114701900Y-68939197D01*
X114698055Y-68927970D01*
X114696581Y-68922897D01*
X114685718Y-68885507D01*
X114681684Y-68878685D01*
X114681681Y-68878679D01*
X114675406Y-68868068D01*
X114666710Y-68850318D01*
X114662172Y-68838856D01*
X114662169Y-68838851D01*
X114659252Y-68831483D01*
X114643130Y-68809293D01*
X114633273Y-68795725D01*
X114626757Y-68785807D01*
X114614766Y-68765532D01*
X114604242Y-68747737D01*
X114589918Y-68733413D01*
X114577076Y-68718378D01*
X114565172Y-68701993D01*
X114531106Y-68673811D01*
X114522327Y-68665822D01*
X114098253Y-68241748D01*
X114916898Y-67423102D01*
X115216043Y-67722247D01*
G37*
%TD.AperFunction*%
%TA.AperFunction,Conductor*%
G36*
X136474291Y-67498502D02*
G01*
X136520784Y-67552158D01*
X136531985Y-67611317D01*
X136531868Y-67613480D01*
X136531500Y-67616866D01*
X136531500Y-68613134D01*
X136531868Y-68616520D01*
X136531985Y-68618683D01*
X136515698Y-68687786D01*
X136464636Y-68737114D01*
X136406170Y-68751500D01*
X135346867Y-68751500D01*
X135335684Y-68750973D01*
X135328191Y-68749298D01*
X135320265Y-68749547D01*
X135320264Y-68749547D01*
X135260114Y-68751438D01*
X135256155Y-68751500D01*
X135228244Y-68751500D01*
X135224310Y-68751997D01*
X135224309Y-68751997D01*
X135224244Y-68752005D01*
X135212407Y-68752938D01*
X135180149Y-68753952D01*
X135176130Y-68754078D01*
X135168211Y-68754327D01*
X135148757Y-68759979D01*
X135129400Y-68763987D01*
X135117170Y-68765532D01*
X135117169Y-68765532D01*
X135109303Y-68766526D01*
X135101932Y-68769445D01*
X135101930Y-68769445D01*
X135068188Y-68782804D01*
X135056958Y-68786649D01*
X135022117Y-68796771D01*
X135022116Y-68796771D01*
X135014507Y-68798982D01*
X135007688Y-68803015D01*
X135007683Y-68803017D01*
X134997072Y-68809293D01*
X134979324Y-68817988D01*
X134960483Y-68825448D01*
X134954067Y-68830110D01*
X134954066Y-68830110D01*
X134924713Y-68851436D01*
X134914793Y-68857952D01*
X134883565Y-68876420D01*
X134883562Y-68876422D01*
X134876738Y-68880458D01*
X134862417Y-68894779D01*
X134847384Y-68907619D01*
X134830993Y-68919528D01*
X134802802Y-68953605D01*
X134794812Y-68962384D01*
X131379900Y-72377295D01*
X131317588Y-72411321D01*
X131290805Y-72414200D01*
X130506200Y-72414200D01*
X130438079Y-72394198D01*
X130418853Y-72377857D01*
X130418580Y-72378160D01*
X130413668Y-72373737D01*
X130409253Y-72368834D01*
X130254752Y-72256582D01*
X130256220Y-72254561D01*
X130215005Y-72211319D01*
X130201582Y-72141603D01*
X130229924Y-72073289D01*
X130246298Y-72053496D01*
X130254288Y-72044716D01*
X133749647Y-68549357D01*
X133757937Y-68541813D01*
X133764418Y-68537700D01*
X133811059Y-68488032D01*
X133813813Y-68485191D01*
X133833534Y-68465470D01*
X133836012Y-68462275D01*
X133843718Y-68453253D01*
X133868558Y-68426801D01*
X133873986Y-68421021D01*
X133883746Y-68403268D01*
X133894599Y-68386745D01*
X133902153Y-68377006D01*
X133907013Y-68370741D01*
X133924576Y-68330157D01*
X133929783Y-68319527D01*
X133951095Y-68280760D01*
X133953066Y-68273083D01*
X133953068Y-68273078D01*
X133956132Y-68261142D01*
X133962538Y-68242430D01*
X133967434Y-68231117D01*
X133970581Y-68223845D01*
X133977497Y-68180181D01*
X133979904Y-68168560D01*
X133988928Y-68133411D01*
X133988928Y-68133410D01*
X133990900Y-68125730D01*
X133990900Y-68105469D01*
X133992451Y-68085758D01*
X133994379Y-68073585D01*
X133995619Y-68065757D01*
X133994873Y-68057861D01*
X133994206Y-68050802D01*
X134007710Y-67981102D01*
X134030552Y-67949852D01*
X134465001Y-67515404D01*
X134527313Y-67481379D01*
X134554096Y-67478500D01*
X136406170Y-67478500D01*
X136474291Y-67498502D01*
G37*
%TD.AperFunction*%
%TA.AperFunction,Conductor*%
G36*
X143507927Y-57816802D02*
G01*
X143528901Y-57833705D01*
X147639757Y-61944562D01*
X147673782Y-62006872D01*
X147668717Y-62077687D01*
X147626170Y-62134523D01*
X147559650Y-62159334D01*
X147528566Y-62157703D01*
X147453317Y-62144300D01*
X147443073Y-62143331D01*
X147230116Y-62140728D01*
X147219832Y-62141448D01*
X147009321Y-62173661D01*
X146999293Y-62176050D01*
X146796868Y-62242212D01*
X146787359Y-62246209D01*
X146598466Y-62344540D01*
X146589734Y-62350039D01*
X146569677Y-62365099D01*
X146561223Y-62376427D01*
X146567968Y-62388758D01*
X147590115Y-63410905D01*
X147624141Y-63473217D01*
X147619076Y-63544032D01*
X147590115Y-63589095D01*
X147409095Y-63770115D01*
X147346783Y-63804141D01*
X147275968Y-63799076D01*
X147230905Y-63770115D01*
X146209849Y-62749059D01*
X146169510Y-62727031D01*
X146156523Y-62724206D01*
X146106322Y-62674003D01*
X146097388Y-62653497D01*
X146073870Y-62583007D01*
X146073869Y-62583005D01*
X146071550Y-62576054D01*
X145978478Y-62425652D01*
X145853303Y-62300695D01*
X145797879Y-62266531D01*
X145708968Y-62211725D01*
X145708966Y-62211724D01*
X145702738Y-62207885D01*
X145599555Y-62173661D01*
X145541389Y-62154368D01*
X145541387Y-62154368D01*
X145534861Y-62152203D01*
X145528025Y-62151503D01*
X145528022Y-62151502D01*
X145481923Y-62146779D01*
X145430400Y-62141500D01*
X144267015Y-62141500D01*
X144198894Y-62121498D01*
X144152401Y-62067842D01*
X144147182Y-62054436D01*
X144139869Y-62031929D01*
X144137827Y-62025644D01*
X144122776Y-61999574D01*
X144045641Y-61865974D01*
X144042340Y-61860256D01*
X143921276Y-61725800D01*
X143918975Y-61723245D01*
X143918974Y-61723244D01*
X143914553Y-61718334D01*
X143760052Y-61606082D01*
X143754024Y-61603398D01*
X143754022Y-61603397D01*
X143591619Y-61531091D01*
X143591618Y-61531091D01*
X143585588Y-61528406D01*
X143492188Y-61508553D01*
X143405244Y-61490072D01*
X143405239Y-61490072D01*
X143398787Y-61488700D01*
X143207813Y-61488700D01*
X143201361Y-61490072D01*
X143201356Y-61490072D01*
X143114412Y-61508553D01*
X143021012Y-61528406D01*
X143014982Y-61531091D01*
X143014981Y-61531091D01*
X142852578Y-61603397D01*
X142852576Y-61603398D01*
X142846548Y-61606082D01*
X142692047Y-61718334D01*
X142687626Y-61723244D01*
X142687625Y-61723245D01*
X142685325Y-61725800D01*
X142564260Y-61860256D01*
X142560959Y-61865974D01*
X142483825Y-61999574D01*
X142468773Y-62025644D01*
X142409758Y-62207272D01*
X142409068Y-62213833D01*
X142409068Y-62213835D01*
X142405610Y-62246738D01*
X142389796Y-62397200D01*
X142390486Y-62403765D01*
X142404119Y-62533472D01*
X142409758Y-62587128D01*
X142468773Y-62768756D01*
X142564260Y-62934144D01*
X142637437Y-63015415D01*
X142668153Y-63079421D01*
X142669800Y-63099724D01*
X142669800Y-63862406D01*
X142649798Y-63930527D01*
X142632895Y-63951501D01*
X139763595Y-66820800D01*
X139701283Y-66854826D01*
X139630467Y-66849761D01*
X139573632Y-66807214D01*
X139548821Y-66740694D01*
X139548500Y-66731705D01*
X139548500Y-66346866D01*
X139541745Y-66284684D01*
X139530328Y-66254229D01*
X139525145Y-66183423D01*
X139530326Y-66165776D01*
X139541745Y-66135316D01*
X139548500Y-66073134D01*
X139548500Y-65076866D01*
X139541745Y-65014684D01*
X139530328Y-64984229D01*
X139525145Y-64913423D01*
X139530326Y-64895776D01*
X139541745Y-64865316D01*
X139548500Y-64803134D01*
X139548500Y-64048000D01*
X139568502Y-63979879D01*
X139622158Y-63933386D01*
X139674500Y-63922000D01*
X140661800Y-63922000D01*
X140729921Y-63942002D01*
X140749147Y-63958343D01*
X140749420Y-63958040D01*
X140754332Y-63962463D01*
X140758747Y-63967366D01*
X140764434Y-63971498D01*
X140846340Y-64031006D01*
X140913248Y-64079618D01*
X140919276Y-64082302D01*
X140919278Y-64082303D01*
X141081681Y-64154609D01*
X141087712Y-64157294D01*
X141164341Y-64173582D01*
X141268056Y-64195628D01*
X141268061Y-64195628D01*
X141274513Y-64197000D01*
X141465487Y-64197000D01*
X141471939Y-64195628D01*
X141471944Y-64195628D01*
X141575659Y-64173582D01*
X141652288Y-64157294D01*
X141658319Y-64154609D01*
X141820722Y-64082303D01*
X141820724Y-64082302D01*
X141826752Y-64079618D01*
X141981253Y-63967366D01*
X142014423Y-63930527D01*
X142104621Y-63830352D01*
X142104622Y-63830351D01*
X142109040Y-63825444D01*
X142189929Y-63685341D01*
X142201223Y-63665779D01*
X142201224Y-63665778D01*
X142204527Y-63660056D01*
X142263542Y-63478428D01*
X142283504Y-63288500D01*
X142263542Y-63098572D01*
X142204527Y-62916944D01*
X142109040Y-62751556D01*
X142074258Y-62712926D01*
X141985675Y-62614545D01*
X141985674Y-62614544D01*
X141981253Y-62609634D01*
X141826752Y-62497382D01*
X141820724Y-62494698D01*
X141820722Y-62494697D01*
X141658319Y-62422391D01*
X141658318Y-62422391D01*
X141652288Y-62419706D01*
X141558887Y-62399853D01*
X141471944Y-62381372D01*
X141471939Y-62381372D01*
X141465487Y-62380000D01*
X141274513Y-62380000D01*
X141268061Y-62381372D01*
X141268056Y-62381372D01*
X141132179Y-62410254D01*
X141061388Y-62404852D01*
X141004756Y-62362035D01*
X140980262Y-62295397D01*
X140986149Y-62248073D01*
X140990842Y-62233628D01*
X140998706Y-62158812D01*
X141010114Y-62050265D01*
X141010804Y-62043700D01*
X141006166Y-61999574D01*
X140991532Y-61860335D01*
X140991532Y-61860333D01*
X140990842Y-61853772D01*
X140931827Y-61672144D01*
X140836340Y-61506756D01*
X140830298Y-61500045D01*
X140712975Y-61369745D01*
X140712974Y-61369744D01*
X140708553Y-61364834D01*
X140600210Y-61286118D01*
X140559394Y-61256463D01*
X140559393Y-61256462D01*
X140554052Y-61252582D01*
X140548024Y-61249898D01*
X140548022Y-61249897D01*
X140385619Y-61177591D01*
X140385618Y-61177591D01*
X140379588Y-61174906D01*
X140255368Y-61148502D01*
X140199244Y-61136572D01*
X140199239Y-61136572D01*
X140192787Y-61135200D01*
X140001813Y-61135200D01*
X139995355Y-61136573D01*
X139995352Y-61136573D01*
X139982156Y-61139378D01*
X139924621Y-61138173D01*
X139906312Y-61133472D01*
X139906309Y-61133472D01*
X139898630Y-61131500D01*
X139878376Y-61131500D01*
X139858665Y-61129949D01*
X139846486Y-61128020D01*
X139838657Y-61126780D01*
X139830765Y-61127526D01*
X139794639Y-61130941D01*
X139782781Y-61131500D01*
X139673830Y-61131500D01*
X139605709Y-61111498D01*
X139559216Y-61057842D01*
X139548015Y-60998683D01*
X139548132Y-60996520D01*
X139548500Y-60993134D01*
X139548500Y-59996866D01*
X139541745Y-59934684D01*
X139530328Y-59904229D01*
X139525145Y-59833423D01*
X139530326Y-59815776D01*
X139541745Y-59785316D01*
X139548500Y-59723134D01*
X139548500Y-58726866D01*
X139541745Y-58664684D01*
X139530061Y-58633517D01*
X139524878Y-58562712D01*
X139530061Y-58545057D01*
X139538479Y-58522602D01*
X139542105Y-58507351D01*
X139547631Y-58456486D01*
X139548000Y-58449672D01*
X139548000Y-58227115D01*
X139543525Y-58211876D01*
X139542135Y-58210671D01*
X139534452Y-58209000D01*
X137912000Y-58209000D01*
X137843879Y-58188998D01*
X137797386Y-58135342D01*
X137786000Y-58083000D01*
X137786000Y-57922800D01*
X137806002Y-57854679D01*
X137859658Y-57808186D01*
X137912000Y-57796800D01*
X143439806Y-57796800D01*
X143507927Y-57816802D01*
G37*
%TD.AperFunction*%
%TA.AperFunction,Conductor*%
G36*
X135626831Y-57816802D02*
G01*
X135673324Y-57870458D01*
X135683428Y-57940732D01*
X135653934Y-58005312D01*
X135632771Y-58024736D01*
X135552578Y-58083000D01*
X135506147Y-58116734D01*
X135501726Y-58121644D01*
X135501725Y-58121645D01*
X135406760Y-58227115D01*
X135378360Y-58258656D01*
X135282873Y-58424044D01*
X135223858Y-58605672D01*
X135223168Y-58612233D01*
X135223168Y-58612235D01*
X135211477Y-58723469D01*
X135203896Y-58795600D01*
X135204586Y-58802165D01*
X135223072Y-58978045D01*
X135223858Y-58985528D01*
X135282873Y-59167156D01*
X135378360Y-59332544D01*
X135506147Y-59474466D01*
X135660648Y-59586718D01*
X135666674Y-59589401D01*
X135666681Y-59589405D01*
X135736283Y-59620393D01*
X135790379Y-59666373D01*
X135811029Y-59734300D01*
X135791677Y-59802608D01*
X135738466Y-59849610D01*
X135685035Y-59861500D01*
X135307600Y-59861500D01*
X135239479Y-59841498D01*
X135220253Y-59825157D01*
X135219980Y-59825460D01*
X135215068Y-59821037D01*
X135210653Y-59816134D01*
X135157423Y-59777460D01*
X135061494Y-59707763D01*
X135061493Y-59707762D01*
X135056152Y-59703882D01*
X135050124Y-59701198D01*
X135050122Y-59701197D01*
X134887719Y-59628891D01*
X134887718Y-59628891D01*
X134881688Y-59626206D01*
X134788288Y-59606353D01*
X134701344Y-59587872D01*
X134701339Y-59587872D01*
X134694887Y-59586500D01*
X134503913Y-59586500D01*
X134497461Y-59587872D01*
X134497456Y-59587872D01*
X134410512Y-59606353D01*
X134317112Y-59626206D01*
X134311082Y-59628891D01*
X134311081Y-59628891D01*
X134148678Y-59701197D01*
X134148676Y-59701198D01*
X134142648Y-59703882D01*
X133988147Y-59816134D01*
X133983726Y-59821044D01*
X133983725Y-59821045D01*
X133874331Y-59942540D01*
X133860360Y-59958056D01*
X133764873Y-60123444D01*
X133762832Y-60129726D01*
X133762831Y-60129728D01*
X133759899Y-60138752D01*
X133739540Y-60201411D01*
X133699468Y-60260015D01*
X133634071Y-60287652D01*
X133564115Y-60275545D01*
X133557710Y-60272083D01*
X133552041Y-60267686D01*
X133544772Y-60264541D01*
X133544768Y-60264538D01*
X133511463Y-60250126D01*
X133500813Y-60244909D01*
X133462060Y-60223605D01*
X133442437Y-60218567D01*
X133423734Y-60212163D01*
X133412420Y-60207267D01*
X133412419Y-60207267D01*
X133405145Y-60204119D01*
X133397322Y-60202880D01*
X133397312Y-60202877D01*
X133361476Y-60197201D01*
X133349856Y-60194795D01*
X133314711Y-60185772D01*
X133314710Y-60185772D01*
X133307030Y-60183800D01*
X133286776Y-60183800D01*
X133267065Y-60182249D01*
X133254886Y-60180320D01*
X133247057Y-60179080D01*
X133203198Y-60183226D01*
X133203039Y-60183241D01*
X133191181Y-60183800D01*
X130632600Y-60183800D01*
X130564479Y-60163798D01*
X130545253Y-60147457D01*
X130544980Y-60147760D01*
X130540068Y-60143337D01*
X130535653Y-60138434D01*
X130466212Y-60087982D01*
X130386494Y-60030063D01*
X130386493Y-60030062D01*
X130381152Y-60026182D01*
X130375124Y-60023498D01*
X130375122Y-60023497D01*
X130212719Y-59951191D01*
X130212718Y-59951191D01*
X130206688Y-59948506D01*
X130106866Y-59927288D01*
X130026344Y-59910172D01*
X130026339Y-59910172D01*
X130019887Y-59908800D01*
X129828913Y-59908800D01*
X129822461Y-59910172D01*
X129822456Y-59910172D01*
X129741934Y-59927288D01*
X129642112Y-59948506D01*
X129636082Y-59951191D01*
X129636081Y-59951191D01*
X129473678Y-60023497D01*
X129473676Y-60023498D01*
X129467648Y-60026182D01*
X129313147Y-60138434D01*
X129308726Y-60143344D01*
X129308725Y-60143345D01*
X129199603Y-60264538D01*
X129185360Y-60280356D01*
X129157371Y-60328834D01*
X129093602Y-60439286D01*
X129089873Y-60445744D01*
X129030858Y-60627372D01*
X129010896Y-60817300D01*
X129011586Y-60823865D01*
X129029377Y-60993134D01*
X129030858Y-61007228D01*
X129089873Y-61188856D01*
X129093176Y-61194578D01*
X129093177Y-61194579D01*
X129114227Y-61231039D01*
X129185360Y-61354244D01*
X129189778Y-61359151D01*
X129189779Y-61359152D01*
X129307660Y-61490072D01*
X129313147Y-61496166D01*
X129467648Y-61608418D01*
X129473676Y-61611102D01*
X129473678Y-61611103D01*
X129624896Y-61678429D01*
X129642112Y-61686094D01*
X129735513Y-61705947D01*
X129822456Y-61724428D01*
X129822461Y-61724428D01*
X129828913Y-61725800D01*
X130019887Y-61725800D01*
X130026339Y-61724428D01*
X130026344Y-61724428D01*
X130113287Y-61705947D01*
X130206688Y-61686094D01*
X130223904Y-61678429D01*
X130375122Y-61611103D01*
X130375124Y-61611102D01*
X130381152Y-61608418D01*
X130535653Y-61496166D01*
X130540068Y-61491263D01*
X130544980Y-61486840D01*
X130546105Y-61488089D01*
X130599414Y-61455249D01*
X130632600Y-61450800D01*
X132912406Y-61450800D01*
X132980527Y-61470802D01*
X133001501Y-61487705D01*
X135623970Y-64110174D01*
X135657996Y-64172486D01*
X135652931Y-64243301D01*
X135610384Y-64300137D01*
X135586124Y-64314375D01*
X135506662Y-64349754D01*
X135436295Y-64359188D01*
X135371998Y-64329081D01*
X135361778Y-64318957D01*
X135336373Y-64290741D01*
X135336364Y-64290733D01*
X135331953Y-64285834D01*
X135273412Y-64243301D01*
X135182794Y-64177463D01*
X135182793Y-64177462D01*
X135177452Y-64173582D01*
X135171424Y-64170898D01*
X135171422Y-64170897D01*
X135009019Y-64098591D01*
X135009018Y-64098591D01*
X135002988Y-64095906D01*
X134908101Y-64075737D01*
X134822644Y-64057572D01*
X134822639Y-64057572D01*
X134816187Y-64056200D01*
X134625213Y-64056200D01*
X134618761Y-64057572D01*
X134618756Y-64057572D01*
X134533299Y-64075737D01*
X134438412Y-64095906D01*
X134432385Y-64098589D01*
X134432377Y-64098592D01*
X134277112Y-64167720D01*
X134206745Y-64177154D01*
X134151803Y-64154549D01*
X134085894Y-64106663D01*
X134085893Y-64106662D01*
X134080552Y-64102782D01*
X134074524Y-64100098D01*
X134074522Y-64100097D01*
X133912119Y-64027791D01*
X133912118Y-64027791D01*
X133906088Y-64025106D01*
X133812688Y-64005253D01*
X133725744Y-63986772D01*
X133725739Y-63986772D01*
X133719287Y-63985400D01*
X133528313Y-63985400D01*
X133521861Y-63986772D01*
X133521856Y-63986772D01*
X133434912Y-64005253D01*
X133341512Y-64025106D01*
X133335482Y-64027791D01*
X133335481Y-64027791D01*
X133173078Y-64100097D01*
X133173076Y-64100098D01*
X133167048Y-64102782D01*
X133161707Y-64106662D01*
X133161706Y-64106663D01*
X133126448Y-64132280D01*
X133012547Y-64215034D01*
X133008126Y-64219944D01*
X133008125Y-64219945D01*
X132946628Y-64288245D01*
X132884760Y-64356956D01*
X132789273Y-64522344D01*
X132730258Y-64703972D01*
X132716417Y-64835667D01*
X132712893Y-64869193D01*
X132685880Y-64934850D01*
X132676687Y-64945109D01*
X131763093Y-65858702D01*
X131700783Y-65892726D01*
X131629967Y-65887661D01*
X131573132Y-65845114D01*
X131548321Y-65778594D01*
X131548000Y-65769605D01*
X131548000Y-65727115D01*
X131543525Y-65711876D01*
X131542135Y-65710671D01*
X131534452Y-65709000D01*
X128412000Y-65709000D01*
X128343879Y-65688998D01*
X128297386Y-65635342D01*
X128286000Y-65583000D01*
X128286000Y-65182885D01*
X128794000Y-65182885D01*
X128798475Y-65198124D01*
X128799865Y-65199329D01*
X128807548Y-65201000D01*
X131529884Y-65201000D01*
X131545123Y-65196525D01*
X131546328Y-65195135D01*
X131547999Y-65187452D01*
X131547999Y-62910331D01*
X131547629Y-62903510D01*
X131542105Y-62852648D01*
X131538479Y-62837396D01*
X131493324Y-62716946D01*
X131484786Y-62701351D01*
X131408285Y-62599276D01*
X131395724Y-62586715D01*
X131293649Y-62510214D01*
X131278054Y-62501676D01*
X131157606Y-62456522D01*
X131142351Y-62452895D01*
X131091486Y-62447369D01*
X131084672Y-62447000D01*
X128812115Y-62447000D01*
X128796876Y-62451475D01*
X128795671Y-62452865D01*
X128794000Y-62460548D01*
X128794000Y-65182885D01*
X128286000Y-65182885D01*
X128286000Y-62465116D01*
X128281525Y-62449877D01*
X128280135Y-62448672D01*
X128272452Y-62447001D01*
X125995331Y-62447001D01*
X125988510Y-62447371D01*
X125937648Y-62452895D01*
X125922396Y-62456521D01*
X125801946Y-62501676D01*
X125786351Y-62510214D01*
X125684276Y-62586715D01*
X125671715Y-62599276D01*
X125595214Y-62701351D01*
X125586676Y-62716946D01*
X125541522Y-62837394D01*
X125537895Y-62852649D01*
X125532369Y-62903514D01*
X125532000Y-62910328D01*
X125532000Y-63908809D01*
X125511998Y-63976930D01*
X125458342Y-64023423D01*
X125388068Y-64033527D01*
X125377230Y-64031006D01*
X125377188Y-64031206D01*
X125196844Y-63992872D01*
X125196839Y-63992872D01*
X125190387Y-63991500D01*
X125134495Y-63991500D01*
X125066374Y-63971498D01*
X125045400Y-63954595D01*
X123035705Y-61944900D01*
X123001679Y-61882588D01*
X122998800Y-61855805D01*
X122998800Y-60566793D01*
X123001032Y-60543184D01*
X123001090Y-60542881D01*
X123001090Y-60542877D01*
X123002575Y-60535094D01*
X122999049Y-60479049D01*
X122998800Y-60471138D01*
X122998800Y-60455144D01*
X122996794Y-60439270D01*
X122996051Y-60431402D01*
X122993023Y-60383263D01*
X122993023Y-60383262D01*
X122992525Y-60375350D01*
X122989979Y-60367513D01*
X122984806Y-60344369D01*
X122984768Y-60344065D01*
X122984767Y-60344060D01*
X122983774Y-60336203D01*
X122980858Y-60328838D01*
X122980857Y-60328834D01*
X122963101Y-60283989D01*
X122960429Y-60276570D01*
X122943064Y-60223125D01*
X122938694Y-60216239D01*
X122938650Y-60216169D01*
X122927885Y-60195042D01*
X122927771Y-60194754D01*
X122927768Y-60194749D01*
X122924852Y-60187383D01*
X122920196Y-60180975D01*
X122920193Y-60180969D01*
X122891842Y-60141948D01*
X122887392Y-60135401D01*
X122857300Y-60087982D01*
X122851293Y-60082341D01*
X122835612Y-60064555D01*
X122831258Y-60058563D01*
X122807399Y-59991697D01*
X122823477Y-59922545D01*
X122874389Y-59873063D01*
X122933193Y-59858500D01*
X124562299Y-59858500D01*
X124630420Y-59878502D01*
X124676913Y-59932158D01*
X124682131Y-59945561D01*
X124707473Y-60023556D01*
X124710776Y-60029278D01*
X124710777Y-60029279D01*
X124727685Y-60058564D01*
X124802960Y-60188944D01*
X124807378Y-60193851D01*
X124807379Y-60193852D01*
X124876777Y-60270926D01*
X124930747Y-60330866D01*
X125028372Y-60401795D01*
X125074565Y-60435356D01*
X125085248Y-60443118D01*
X125091276Y-60445802D01*
X125091278Y-60445803D01*
X125166292Y-60479201D01*
X125259712Y-60520794D01*
X125353113Y-60540647D01*
X125440056Y-60559128D01*
X125440061Y-60559128D01*
X125446513Y-60560500D01*
X125637487Y-60560500D01*
X125643939Y-60559128D01*
X125643944Y-60559128D01*
X125730887Y-60540647D01*
X125824288Y-60520794D01*
X125917708Y-60479201D01*
X125992722Y-60445803D01*
X125992724Y-60445802D01*
X125998752Y-60443118D01*
X126009436Y-60435356D01*
X126055628Y-60401795D01*
X126153253Y-60330866D01*
X126207223Y-60270926D01*
X126276621Y-60193852D01*
X126276622Y-60193851D01*
X126281040Y-60188944D01*
X126356315Y-60058564D01*
X126373223Y-60029279D01*
X126373224Y-60029278D01*
X126376527Y-60023556D01*
X126435542Y-59841928D01*
X126438292Y-59815769D01*
X126454814Y-59658565D01*
X126455504Y-59652000D01*
X126436845Y-59474466D01*
X126436232Y-59468635D01*
X126436232Y-59468633D01*
X126435542Y-59462072D01*
X126376527Y-59280444D01*
X126281040Y-59115056D01*
X126175761Y-58998131D01*
X126157675Y-58978045D01*
X126157674Y-58978044D01*
X126153253Y-58973134D01*
X125998752Y-58860882D01*
X125992724Y-58858198D01*
X125992722Y-58858197D01*
X125830319Y-58785891D01*
X125830318Y-58785891D01*
X125824288Y-58783206D01*
X125730888Y-58763353D01*
X125643944Y-58744872D01*
X125643939Y-58744872D01*
X125637487Y-58743500D01*
X125577571Y-58743500D01*
X125509450Y-58723498D01*
X125502703Y-58718234D01*
X125502511Y-58718499D01*
X125496100Y-58713841D01*
X125490321Y-58708414D01*
X125483375Y-58704595D01*
X125483372Y-58704593D01*
X125472566Y-58698652D01*
X125456047Y-58687801D01*
X125455583Y-58687441D01*
X125440041Y-58675386D01*
X125432772Y-58672241D01*
X125432768Y-58672238D01*
X125399463Y-58657826D01*
X125388813Y-58652609D01*
X125350060Y-58631305D01*
X125330437Y-58626267D01*
X125311734Y-58619863D01*
X125300420Y-58614967D01*
X125300419Y-58614967D01*
X125293145Y-58611819D01*
X125285322Y-58610580D01*
X125285312Y-58610577D01*
X125249476Y-58604901D01*
X125237856Y-58602495D01*
X125202711Y-58593472D01*
X125202710Y-58593472D01*
X125195030Y-58591500D01*
X125174776Y-58591500D01*
X125155065Y-58589949D01*
X125142886Y-58588020D01*
X125135057Y-58586780D01*
X125127165Y-58587526D01*
X125091039Y-58590941D01*
X125079181Y-58591500D01*
X122673328Y-58591500D01*
X122605207Y-58571498D01*
X122558714Y-58517842D01*
X122547512Y-58458688D01*
X122548000Y-58449675D01*
X122548000Y-58227115D01*
X122543525Y-58211876D01*
X122542135Y-58210671D01*
X122534452Y-58209000D01*
X120912000Y-58209000D01*
X120843879Y-58188998D01*
X120797386Y-58135342D01*
X120786000Y-58083000D01*
X120786000Y-57922800D01*
X120806002Y-57854679D01*
X120859658Y-57808186D01*
X120912000Y-57796800D01*
X135558710Y-57796800D01*
X135626831Y-57816802D01*
G37*
%TD.AperFunction*%
%TD*%
M02*
