M48
; DRILL file {KiCad (6.0.4)} date Mon Apr 18 16:03:51 2022
; FORMAT={-:-/ absolute / inch / decimal}
; #@! TF.CreationDate,2022-04-18T16:03:51+05:30
; #@! TF.GenerationSoftware,Kicad,Pcbnew,(6.0.4)
; #@! TF.FileFunction,Plated,1,2,PTH
FMAT,2
INCH
; #@! TA.AperFunction,Plated,PTH,ViaDrill
T1C0.0157
; #@! TA.AperFunction,Plated,PTH,ComponentDrill
T2C0.0374
; #@! TA.AperFunction,Plated,PTH,ComponentDrill
T3C0.0394
; #@! TA.AperFunction,Plated,PTH,ComponentDrill
T4C0.0508
; #@! TA.AperFunction,Plated,PTH,ComponentDrill
T5C0.0520
%
G90
G05
T1
X4.4611Y-2.556
X4.4633Y-2.7362
X4.4921Y-2.7641
X4.517Y-3.0961
X4.6Y-3.1761
X4.663Y-2.616
X4.7023Y-2.9018
X4.7478Y-3.026
X4.829Y-2.866
X4.8451Y-3.1454
X4.8599Y-2.7317
X4.9228Y-3.0902
X4.925Y-2.5551
X4.9426Y-2.3485
X4.9516Y-3.0376
X5.1102Y-2.8759
X5.1151Y-2.3944
X5.1926Y-3.3605
X5.2468Y-2.8849
X5.2608Y-2.5549
X5.2885Y-2.6706
X5.2992Y-2.3817
X5.304Y-2.5577
X5.3518Y-2.5651
X5.359Y-2.3148
X5.365Y-3.4721
X5.3699Y-2.988
X5.4716Y-3.022
X5.5156Y-2.4427
X5.5335Y-2.7863
X5.5583Y-3.3605
X5.5657Y-2.4917
X5.5733Y-3.2624
X5.5835Y-3.8646
X5.6Y-3.5
X5.6Y-3.7
X5.6366Y-3.4
X5.6419Y-2.4566
X5.6523Y-3.9029
X5.9171Y-3.0032
T2
X4.6118Y-2.4539
X4.6118Y-2.5524
X4.6118Y-2.6508
X4.6118Y-2.7492
X4.6118Y-2.8476
X4.6118Y-2.9461
T3
X4.75Y-3.4516
X4.75Y-3.6484
X4.9Y-3.2
X5.0Y-3.2
X5.1Y-3.2
X5.2Y-3.2
X5.3Y-3.2
X5.4Y-3.2
X5.5Y-3.2
X5.7Y-2.5
X5.7Y-2.6
X5.7Y-2.7
X5.7Y-2.8
X5.7Y-2.9
X5.8Y-2.5
X5.8Y-2.6
X5.8Y-2.7
X5.8Y-2.8
X5.8Y-2.9
X5.8Y-3.6016
X5.8Y-4.0031
T4
X4.3189Y-2.5
X4.3189Y-3.2
X6.0811Y-2.5
X6.0811Y-3.2
T5
X3.715Y-3.9
X3.7598Y-2.2638
X3.7598Y-2.7362
X3.7598Y-2.9638
X3.7598Y-3.4362
X3.9118Y-3.9
X4.1087Y-3.9
X4.2402Y-2.2638
X4.2402Y-2.7362
X4.2402Y-2.9638
X4.2402Y-3.4362
X4.3055Y-3.9
X6.1598Y-2.2638
X6.1598Y-2.7362
X6.1598Y-2.9638
X6.1598Y-3.4362
X6.3063Y-3.9
X6.5031Y-3.9
X6.6402Y-2.2638
X6.6402Y-2.7362
X6.6402Y-2.9638
X6.6402Y-3.4362
X6.7Y-3.9
T0
M30
