%TF.GenerationSoftware,KiCad,Pcbnew,(6.0.4)*%
%TF.CreationDate,2022-04-18T16:03:53+05:30*%
%TF.ProjectId,esp32 switch,65737033-3220-4737-9769-7463682e6b69,rev?*%
%TF.SameCoordinates,Original*%
%TF.FileFunction,Legend,Bot*%
%TF.FilePolarity,Positive*%
%FSLAX46Y46*%
G04 Gerber Fmt 4.6, Leading zero omitted, Abs format (unit mm)*
G04 Created by KiCad (PCBNEW (6.0.4)) date 2022-04-18 16:03:53*
%MOMM*%
%LPD*%
G01*
G04 APERTURE LIST*
%ADD10C,0.750000*%
%ADD11C,0.300000*%
%ADD12C,0.150000*%
%ADD13C,0.120000*%
G04 APERTURE END LIST*
D10*
X130682857Y-91654285D02*
X128397142Y-91654285D01*
X129540000Y-92797142D02*
X129540000Y-90511428D01*
D11*
X125880000Y-102403571D02*
X125880000Y-100903571D01*
X125522857Y-100903571D01*
X125308571Y-100975000D01*
X125165714Y-101117857D01*
X125094285Y-101260714D01*
X125022857Y-101546428D01*
X125022857Y-101760714D01*
X125094285Y-102046428D01*
X125165714Y-102189285D01*
X125308571Y-102332142D01*
X125522857Y-102403571D01*
X125880000Y-102403571D01*
X123808571Y-102332142D02*
X123951428Y-102403571D01*
X124237142Y-102403571D01*
X124380000Y-102332142D01*
X124451428Y-102189285D01*
X124451428Y-101617857D01*
X124380000Y-101475000D01*
X124237142Y-101403571D01*
X123951428Y-101403571D01*
X123808571Y-101475000D01*
X123737142Y-101617857D01*
X123737142Y-101760714D01*
X124451428Y-101903571D01*
X123165714Y-102332142D02*
X123022857Y-102403571D01*
X122737142Y-102403571D01*
X122594285Y-102332142D01*
X122522857Y-102189285D01*
X122522857Y-102117857D01*
X122594285Y-101975000D01*
X122737142Y-101903571D01*
X122951428Y-101903571D01*
X123094285Y-101832142D01*
X123165714Y-101689285D01*
X123165714Y-101617857D01*
X123094285Y-101475000D01*
X122951428Y-101403571D01*
X122737142Y-101403571D01*
X122594285Y-101475000D01*
X121880000Y-102403571D02*
X121880000Y-101403571D01*
X121880000Y-100903571D02*
X121951428Y-100975000D01*
X121880000Y-101046428D01*
X121808571Y-100975000D01*
X121880000Y-100903571D01*
X121880000Y-101046428D01*
X120522857Y-101403571D02*
X120522857Y-102617857D01*
X120594285Y-102760714D01*
X120665714Y-102832142D01*
X120808571Y-102903571D01*
X121022857Y-102903571D01*
X121165714Y-102832142D01*
X120522857Y-102332142D02*
X120665714Y-102403571D01*
X120951428Y-102403571D01*
X121094285Y-102332142D01*
X121165714Y-102260714D01*
X121237142Y-102117857D01*
X121237142Y-101689285D01*
X121165714Y-101546428D01*
X121094285Y-101475000D01*
X120951428Y-101403571D01*
X120665714Y-101403571D01*
X120522857Y-101475000D01*
X119808571Y-101403571D02*
X119808571Y-102403571D01*
X119808571Y-101546428D02*
X119737142Y-101475000D01*
X119594285Y-101403571D01*
X119380000Y-101403571D01*
X119237142Y-101475000D01*
X119165714Y-101617857D01*
X119165714Y-102403571D01*
X117880000Y-102332142D02*
X118022857Y-102403571D01*
X118308571Y-102403571D01*
X118451428Y-102332142D01*
X118522857Y-102189285D01*
X118522857Y-101617857D01*
X118451428Y-101475000D01*
X118308571Y-101403571D01*
X118022857Y-101403571D01*
X117880000Y-101475000D01*
X117808571Y-101617857D01*
X117808571Y-101760714D01*
X118522857Y-101903571D01*
X116522857Y-102403571D02*
X116522857Y-100903571D01*
X116522857Y-102332142D02*
X116665714Y-102403571D01*
X116951428Y-102403571D01*
X117094285Y-102332142D01*
X117165714Y-102260714D01*
X117237142Y-102117857D01*
X117237142Y-101689285D01*
X117165714Y-101546428D01*
X117094285Y-101475000D01*
X116951428Y-101403571D01*
X116665714Y-101403571D01*
X116522857Y-101475000D01*
X114665714Y-102403571D02*
X114665714Y-100903571D01*
X114665714Y-101475000D02*
X114522857Y-101403571D01*
X114237142Y-101403571D01*
X114094285Y-101475000D01*
X114022857Y-101546428D01*
X113951428Y-101689285D01*
X113951428Y-102117857D01*
X114022857Y-102260714D01*
X114094285Y-102332142D01*
X114237142Y-102403571D01*
X114522857Y-102403571D01*
X114665714Y-102332142D01*
X113451428Y-101403571D02*
X113094285Y-102403571D01*
X112737142Y-101403571D02*
X113094285Y-102403571D01*
X113237142Y-102760714D01*
X113308571Y-102832142D01*
X113451428Y-102903571D01*
X131237142Y-104818571D02*
X131237142Y-103318571D01*
X130737142Y-104390000D01*
X130237142Y-103318571D01*
X130237142Y-104818571D01*
X129308571Y-104818571D02*
X129451428Y-104747142D01*
X129522857Y-104675714D01*
X129594285Y-104532857D01*
X129594285Y-104104285D01*
X129522857Y-103961428D01*
X129451428Y-103890000D01*
X129308571Y-103818571D01*
X129094285Y-103818571D01*
X128951428Y-103890000D01*
X128880000Y-103961428D01*
X128808571Y-104104285D01*
X128808571Y-104532857D01*
X128880000Y-104675714D01*
X128951428Y-104747142D01*
X129094285Y-104818571D01*
X129308571Y-104818571D01*
X128165714Y-104818571D02*
X128165714Y-103318571D01*
X127522857Y-104818571D02*
X127522857Y-104032857D01*
X127594285Y-103890000D01*
X127737142Y-103818571D01*
X127951428Y-103818571D01*
X128094285Y-103890000D01*
X128165714Y-103961428D01*
X126165714Y-104818571D02*
X126165714Y-104032857D01*
X126237142Y-103890000D01*
X126380000Y-103818571D01*
X126665714Y-103818571D01*
X126808571Y-103890000D01*
X126165714Y-104747142D02*
X126308571Y-104818571D01*
X126665714Y-104818571D01*
X126808571Y-104747142D01*
X126880000Y-104604285D01*
X126880000Y-104461428D01*
X126808571Y-104318571D01*
X126665714Y-104247142D01*
X126308571Y-104247142D01*
X126165714Y-104175714D01*
X125451428Y-104818571D02*
X125451428Y-103818571D01*
X125451428Y-103961428D02*
X125380000Y-103890000D01*
X125237142Y-103818571D01*
X125022857Y-103818571D01*
X124880000Y-103890000D01*
X124808571Y-104032857D01*
X124808571Y-104818571D01*
X124808571Y-104032857D02*
X124737142Y-103890000D01*
X124594285Y-103818571D01*
X124380000Y-103818571D01*
X124237142Y-103890000D01*
X124165714Y-104032857D01*
X124165714Y-104818571D01*
X123451428Y-104818571D02*
X123451428Y-103818571D01*
X123451428Y-103961428D02*
X123380000Y-103890000D01*
X123237142Y-103818571D01*
X123022857Y-103818571D01*
X122880000Y-103890000D01*
X122808571Y-104032857D01*
X122808571Y-104818571D01*
X122808571Y-104032857D02*
X122737142Y-103890000D01*
X122594285Y-103818571D01*
X122380000Y-103818571D01*
X122237142Y-103890000D01*
X122165714Y-104032857D01*
X122165714Y-104818571D01*
X120880000Y-104747142D02*
X121022857Y-104818571D01*
X121308571Y-104818571D01*
X121451428Y-104747142D01*
X121522857Y-104604285D01*
X121522857Y-104032857D01*
X121451428Y-103890000D01*
X121308571Y-103818571D01*
X121022857Y-103818571D01*
X120880000Y-103890000D01*
X120808571Y-104032857D01*
X120808571Y-104175714D01*
X121522857Y-104318571D01*
X119522857Y-104818571D02*
X119522857Y-103318571D01*
X119522857Y-104747142D02*
X119665714Y-104818571D01*
X119951428Y-104818571D01*
X120094285Y-104747142D01*
X120165714Y-104675714D01*
X120237142Y-104532857D01*
X120237142Y-104104285D01*
X120165714Y-103961428D01*
X120094285Y-103890000D01*
X119951428Y-103818571D01*
X119665714Y-103818571D01*
X119522857Y-103890000D01*
X117737142Y-104390000D02*
X117022857Y-104390000D01*
X117880000Y-104818571D02*
X117380000Y-103318571D01*
X116880000Y-104818571D01*
X116451428Y-104747142D02*
X116308571Y-104818571D01*
X116022857Y-104818571D01*
X115880000Y-104747142D01*
X115808571Y-104604285D01*
X115808571Y-104532857D01*
X115880000Y-104390000D01*
X116022857Y-104318571D01*
X116237142Y-104318571D01*
X116380000Y-104247142D01*
X116451428Y-104104285D01*
X116451428Y-104032857D01*
X116380000Y-103890000D01*
X116237142Y-103818571D01*
X116022857Y-103818571D01*
X115880000Y-103890000D01*
X114951428Y-104818571D02*
X115094285Y-104747142D01*
X115165714Y-104604285D01*
X115165714Y-103318571D01*
X113737142Y-104818571D02*
X113737142Y-104032857D01*
X113808571Y-103890000D01*
X113951428Y-103818571D01*
X114237142Y-103818571D01*
X114380000Y-103890000D01*
X113737142Y-104747142D02*
X113880000Y-104818571D01*
X114237142Y-104818571D01*
X114380000Y-104747142D01*
X114451428Y-104604285D01*
X114451428Y-104461428D01*
X114380000Y-104318571D01*
X114237142Y-104247142D01*
X113880000Y-104247142D01*
X113737142Y-104175714D01*
X113022857Y-104818571D02*
X113022857Y-103818571D01*
X113022857Y-103961428D02*
X112951428Y-103890000D01*
X112808571Y-103818571D01*
X112594285Y-103818571D01*
X112451428Y-103890000D01*
X112380000Y-104032857D01*
X112380000Y-104818571D01*
X112380000Y-104032857D02*
X112308571Y-103890000D01*
X112165714Y-103818571D01*
X111951428Y-103818571D01*
X111808571Y-103890000D01*
X111737142Y-104032857D01*
X111737142Y-104818571D01*
X109880000Y-104818571D02*
X109880000Y-103318571D01*
X109022857Y-104818571D01*
X109022857Y-103318571D01*
X108308571Y-104818571D02*
X108308571Y-103318571D01*
X107451428Y-104818571D02*
X108094285Y-103961428D01*
X107451428Y-103318571D02*
X108308571Y-104175714D01*
X128094285Y-106447857D02*
X128594285Y-106447857D01*
X128594285Y-107233571D02*
X128594285Y-105733571D01*
X127880000Y-105733571D01*
X127094285Y-107233571D02*
X127237142Y-107162142D01*
X127308571Y-107090714D01*
X127380000Y-106947857D01*
X127380000Y-106519285D01*
X127308571Y-106376428D01*
X127237142Y-106305000D01*
X127094285Y-106233571D01*
X126880000Y-106233571D01*
X126737142Y-106305000D01*
X126665714Y-106376428D01*
X126594285Y-106519285D01*
X126594285Y-106947857D01*
X126665714Y-107090714D01*
X126737142Y-107162142D01*
X126880000Y-107233571D01*
X127094285Y-107233571D01*
X125951428Y-107233571D02*
X125951428Y-106233571D01*
X125951428Y-106519285D02*
X125880000Y-106376428D01*
X125808571Y-106305000D01*
X125665714Y-106233571D01*
X125522857Y-106233571D01*
X123880000Y-107233571D02*
X123880000Y-105733571D01*
X123522857Y-105733571D01*
X123308571Y-105805000D01*
X123165714Y-105947857D01*
X123094285Y-106090714D01*
X123022857Y-106376428D01*
X123022857Y-106590714D01*
X123094285Y-106876428D01*
X123165714Y-107019285D01*
X123308571Y-107162142D01*
X123522857Y-107233571D01*
X123880000Y-107233571D01*
X121737142Y-107233571D02*
X121737142Y-106447857D01*
X121808571Y-106305000D01*
X121951428Y-106233571D01*
X122237142Y-106233571D01*
X122380000Y-106305000D01*
X121737142Y-107162142D02*
X121880000Y-107233571D01*
X122237142Y-107233571D01*
X122380000Y-107162142D01*
X122451428Y-107019285D01*
X122451428Y-106876428D01*
X122380000Y-106733571D01*
X122237142Y-106662142D01*
X121880000Y-106662142D01*
X121737142Y-106590714D01*
X121022857Y-107233571D02*
X121022857Y-106233571D01*
X121022857Y-106519285D02*
X120951428Y-106376428D01*
X120880000Y-106305000D01*
X120737142Y-106233571D01*
X120594285Y-106233571D01*
X119451428Y-107233571D02*
X119451428Y-106447857D01*
X119522857Y-106305000D01*
X119665714Y-106233571D01*
X119951428Y-106233571D01*
X120094285Y-106305000D01*
X119451428Y-107162142D02*
X119594285Y-107233571D01*
X119951428Y-107233571D01*
X120094285Y-107162142D01*
X120165714Y-107019285D01*
X120165714Y-106876428D01*
X120094285Y-106733571D01*
X119951428Y-106662142D01*
X119594285Y-106662142D01*
X119451428Y-106590714D01*
X118094285Y-106233571D02*
X118094285Y-107233571D01*
X118737142Y-106233571D02*
X118737142Y-107019285D01*
X118665714Y-107162142D01*
X118522857Y-107233571D01*
X118308571Y-107233571D01*
X118165714Y-107162142D01*
X118094285Y-107090714D01*
X117451428Y-107162142D02*
X117308571Y-107233571D01*
X117022857Y-107233571D01*
X116880000Y-107162142D01*
X116808571Y-107019285D01*
X116808571Y-106947857D01*
X116880000Y-106805000D01*
X117022857Y-106733571D01*
X117237142Y-106733571D01*
X117380000Y-106662142D01*
X117451428Y-106519285D01*
X117451428Y-106447857D01*
X117380000Y-106305000D01*
X117237142Y-106233571D01*
X117022857Y-106233571D01*
X116880000Y-106305000D01*
X116237142Y-107162142D02*
X116094285Y-107233571D01*
X115808571Y-107233571D01*
X115665714Y-107162142D01*
X115594285Y-107019285D01*
X115594285Y-106947857D01*
X115665714Y-106805000D01*
X115808571Y-106733571D01*
X116022857Y-106733571D01*
X116165714Y-106662142D01*
X116237142Y-106519285D01*
X116237142Y-106447857D01*
X116165714Y-106305000D01*
X116022857Y-106233571D01*
X115808571Y-106233571D01*
X115665714Y-106305000D01*
X114308571Y-107233571D02*
X114308571Y-106447857D01*
X114380000Y-106305000D01*
X114522857Y-106233571D01*
X114808571Y-106233571D01*
X114951428Y-106305000D01*
X114308571Y-107162142D02*
X114451428Y-107233571D01*
X114808571Y-107233571D01*
X114951428Y-107162142D01*
X115022857Y-107019285D01*
X115022857Y-106876428D01*
X114951428Y-106733571D01*
X114808571Y-106662142D01*
X114451428Y-106662142D01*
X114308571Y-106590714D01*
X113380000Y-107233571D02*
X113522857Y-107162142D01*
X113594285Y-107019285D01*
X113594285Y-105733571D01*
X112165714Y-107233571D02*
X112165714Y-106447857D01*
X112237142Y-106305000D01*
X112380000Y-106233571D01*
X112665714Y-106233571D01*
X112808571Y-106305000D01*
X112165714Y-107162142D02*
X112308571Y-107233571D01*
X112665714Y-107233571D01*
X112808571Y-107162142D01*
X112880000Y-107019285D01*
X112880000Y-106876428D01*
X112808571Y-106733571D01*
X112665714Y-106662142D01*
X112308571Y-106662142D01*
X112165714Y-106590714D01*
X111451428Y-107233571D02*
X111451428Y-106233571D01*
X111451428Y-106376428D02*
X111380000Y-106305000D01*
X111237142Y-106233571D01*
X111022857Y-106233571D01*
X110880000Y-106305000D01*
X110808571Y-106447857D01*
X110808571Y-107233571D01*
X110808571Y-106447857D02*
X110737142Y-106305000D01*
X110594285Y-106233571D01*
X110380000Y-106233571D01*
X110237142Y-106305000D01*
X110165714Y-106447857D01*
X110165714Y-107233571D01*
D12*
%TO.C,Q3*%
X142335238Y-94667619D02*
X142430476Y-94620000D01*
X142525714Y-94524761D01*
X142668571Y-94381904D01*
X142763809Y-94334285D01*
X142859047Y-94334285D01*
X142811428Y-94572380D02*
X142906666Y-94524761D01*
X143001904Y-94429523D01*
X143049523Y-94239047D01*
X143049523Y-93905714D01*
X143001904Y-93715238D01*
X142906666Y-93620000D01*
X142811428Y-93572380D01*
X142620952Y-93572380D01*
X142525714Y-93620000D01*
X142430476Y-93715238D01*
X142382857Y-93905714D01*
X142382857Y-94239047D01*
X142430476Y-94429523D01*
X142525714Y-94524761D01*
X142620952Y-94572380D01*
X142811428Y-94572380D01*
X142049523Y-93572380D02*
X141430476Y-93572380D01*
X141763809Y-93953333D01*
X141620952Y-93953333D01*
X141525714Y-94000952D01*
X141478095Y-94048571D01*
X141430476Y-94143809D01*
X141430476Y-94381904D01*
X141478095Y-94477142D01*
X141525714Y-94524761D01*
X141620952Y-94572380D01*
X141906666Y-94572380D01*
X142001904Y-94524761D01*
X142049523Y-94477142D01*
%TO.C,D1*%
X135358095Y-84812380D02*
X135358095Y-83812380D01*
X135120000Y-83812380D01*
X134977142Y-83860000D01*
X134881904Y-83955238D01*
X134834285Y-84050476D01*
X134786666Y-84240952D01*
X134786666Y-84383809D01*
X134834285Y-84574285D01*
X134881904Y-84669523D01*
X134977142Y-84764761D01*
X135120000Y-84812380D01*
X135358095Y-84812380D01*
X133834285Y-84812380D02*
X134405714Y-84812380D01*
X134120000Y-84812380D02*
X134120000Y-83812380D01*
X134215238Y-83955238D01*
X134310476Y-84050476D01*
X134405714Y-84098095D01*
%TO.C,U1*%
X130301904Y-63532380D02*
X130301904Y-64341904D01*
X130254285Y-64437142D01*
X130206666Y-64484761D01*
X130111428Y-64532380D01*
X129920952Y-64532380D01*
X129825714Y-64484761D01*
X129778095Y-64437142D01*
X129730476Y-64341904D01*
X129730476Y-63532380D01*
X128730476Y-64532380D02*
X129301904Y-64532380D01*
X129016190Y-64532380D02*
X129016190Y-63532380D01*
X129111428Y-63675238D01*
X129206666Y-63770476D01*
X129301904Y-63818095D01*
%TO.C,Q4*%
X142335238Y-99747619D02*
X142430476Y-99700000D01*
X142525714Y-99604761D01*
X142668571Y-99461904D01*
X142763809Y-99414285D01*
X142859047Y-99414285D01*
X142811428Y-99652380D02*
X142906666Y-99604761D01*
X143001904Y-99509523D01*
X143049523Y-99319047D01*
X143049523Y-98985714D01*
X143001904Y-98795238D01*
X142906666Y-98700000D01*
X142811428Y-98652380D01*
X142620952Y-98652380D01*
X142525714Y-98700000D01*
X142430476Y-98795238D01*
X142382857Y-98985714D01*
X142382857Y-99319047D01*
X142430476Y-99509523D01*
X142525714Y-99604761D01*
X142620952Y-99652380D01*
X142811428Y-99652380D01*
X141525714Y-98985714D02*
X141525714Y-99652380D01*
X141763809Y-98604761D02*
X142001904Y-99319047D01*
X141382857Y-99319047D01*
%TO.C,Q2*%
X142335238Y-89587619D02*
X142430476Y-89540000D01*
X142525714Y-89444761D01*
X142668571Y-89301904D01*
X142763809Y-89254285D01*
X142859047Y-89254285D01*
X142811428Y-89492380D02*
X142906666Y-89444761D01*
X143001904Y-89349523D01*
X143049523Y-89159047D01*
X143049523Y-88825714D01*
X143001904Y-88635238D01*
X142906666Y-88540000D01*
X142811428Y-88492380D01*
X142620952Y-88492380D01*
X142525714Y-88540000D01*
X142430476Y-88635238D01*
X142382857Y-88825714D01*
X142382857Y-89159047D01*
X142430476Y-89349523D01*
X142525714Y-89444761D01*
X142620952Y-89492380D01*
X142811428Y-89492380D01*
X142001904Y-88587619D02*
X141954285Y-88540000D01*
X141859047Y-88492380D01*
X141620952Y-88492380D01*
X141525714Y-88540000D01*
X141478095Y-88587619D01*
X141430476Y-88682857D01*
X141430476Y-88778095D01*
X141478095Y-88920952D01*
X142049523Y-89492380D01*
X141430476Y-89492380D01*
%TO.C,D4*%
X135358095Y-100052380D02*
X135358095Y-99052380D01*
X135120000Y-99052380D01*
X134977142Y-99100000D01*
X134881904Y-99195238D01*
X134834285Y-99290476D01*
X134786666Y-99480952D01*
X134786666Y-99623809D01*
X134834285Y-99814285D01*
X134881904Y-99909523D01*
X134977142Y-100004761D01*
X135120000Y-100052380D01*
X135358095Y-100052380D01*
X133929523Y-99385714D02*
X133929523Y-100052380D01*
X134167619Y-99004761D02*
X134405714Y-99719047D01*
X133786666Y-99719047D01*
%TO.C,Q1*%
X142335238Y-84507619D02*
X142430476Y-84460000D01*
X142525714Y-84364761D01*
X142668571Y-84221904D01*
X142763809Y-84174285D01*
X142859047Y-84174285D01*
X142811428Y-84412380D02*
X142906666Y-84364761D01*
X143001904Y-84269523D01*
X143049523Y-84079047D01*
X143049523Y-83745714D01*
X143001904Y-83555238D01*
X142906666Y-83460000D01*
X142811428Y-83412380D01*
X142620952Y-83412380D01*
X142525714Y-83460000D01*
X142430476Y-83555238D01*
X142382857Y-83745714D01*
X142382857Y-84079047D01*
X142430476Y-84269523D01*
X142525714Y-84364761D01*
X142620952Y-84412380D01*
X142811428Y-84412380D01*
X141430476Y-84412380D02*
X142001904Y-84412380D01*
X141716190Y-84412380D02*
X141716190Y-83412380D01*
X141811428Y-83555238D01*
X141906666Y-83650476D01*
X142001904Y-83698095D01*
%TO.C,D3*%
X135358095Y-94972380D02*
X135358095Y-93972380D01*
X135120000Y-93972380D01*
X134977142Y-94020000D01*
X134881904Y-94115238D01*
X134834285Y-94210476D01*
X134786666Y-94400952D01*
X134786666Y-94543809D01*
X134834285Y-94734285D01*
X134881904Y-94829523D01*
X134977142Y-94924761D01*
X135120000Y-94972380D01*
X135358095Y-94972380D01*
X134453333Y-93972380D02*
X133834285Y-93972380D01*
X134167619Y-94353333D01*
X134024761Y-94353333D01*
X133929523Y-94400952D01*
X133881904Y-94448571D01*
X133834285Y-94543809D01*
X133834285Y-94781904D01*
X133881904Y-94877142D01*
X133929523Y-94924761D01*
X134024761Y-94972380D01*
X134310476Y-94972380D01*
X134405714Y-94924761D01*
X134453333Y-94877142D01*
%TO.C,R4*%
X135962380Y-60793333D02*
X135486190Y-60460000D01*
X135962380Y-60221904D02*
X134962380Y-60221904D01*
X134962380Y-60602857D01*
X135010000Y-60698095D01*
X135057619Y-60745714D01*
X135152857Y-60793333D01*
X135295714Y-60793333D01*
X135390952Y-60745714D01*
X135438571Y-60698095D01*
X135486190Y-60602857D01*
X135486190Y-60221904D01*
X135295714Y-61650476D02*
X135962380Y-61650476D01*
X134914761Y-61412380D02*
X135629047Y-61174285D01*
X135629047Y-61793333D01*
%TO.C,D2*%
X135358095Y-89892380D02*
X135358095Y-88892380D01*
X135120000Y-88892380D01*
X134977142Y-88940000D01*
X134881904Y-89035238D01*
X134834285Y-89130476D01*
X134786666Y-89320952D01*
X134786666Y-89463809D01*
X134834285Y-89654285D01*
X134881904Y-89749523D01*
X134977142Y-89844761D01*
X135120000Y-89892380D01*
X135358095Y-89892380D01*
X134405714Y-88987619D02*
X134358095Y-88940000D01*
X134262857Y-88892380D01*
X134024761Y-88892380D01*
X133929523Y-88940000D01*
X133881904Y-88987619D01*
X133834285Y-89082857D01*
X133834285Y-89178095D01*
X133881904Y-89320952D01*
X134453333Y-89892380D01*
X133834285Y-89892380D01*
%TO.C,C1*%
X122086666Y-79097142D02*
X122134285Y-79144761D01*
X122277142Y-79192380D01*
X122372380Y-79192380D01*
X122515238Y-79144761D01*
X122610476Y-79049523D01*
X122658095Y-78954285D01*
X122705714Y-78763809D01*
X122705714Y-78620952D01*
X122658095Y-78430476D01*
X122610476Y-78335238D01*
X122515238Y-78240000D01*
X122372380Y-78192380D01*
X122277142Y-78192380D01*
X122134285Y-78240000D01*
X122086666Y-78287619D01*
X121134285Y-79192380D02*
X121705714Y-79192380D01*
X121420000Y-79192380D02*
X121420000Y-78192380D01*
X121515238Y-78335238D01*
X121610476Y-78430476D01*
X121705714Y-78478095D01*
%TO.C,R3*%
X130882380Y-60793333D02*
X130406190Y-60460000D01*
X130882380Y-60221904D02*
X129882380Y-60221904D01*
X129882380Y-60602857D01*
X129930000Y-60698095D01*
X129977619Y-60745714D01*
X130072857Y-60793333D01*
X130215714Y-60793333D01*
X130310952Y-60745714D01*
X130358571Y-60698095D01*
X130406190Y-60602857D01*
X130406190Y-60221904D01*
X129882380Y-61126666D02*
X129882380Y-61745714D01*
X130263333Y-61412380D01*
X130263333Y-61555238D01*
X130310952Y-61650476D01*
X130358571Y-61698095D01*
X130453809Y-61745714D01*
X130691904Y-61745714D01*
X130787142Y-61698095D01*
X130834761Y-61650476D01*
X130882380Y-61555238D01*
X130882380Y-61269523D01*
X130834761Y-61174285D01*
X130787142Y-61126666D01*
%TO.C,R2*%
X125802380Y-60793333D02*
X125326190Y-60460000D01*
X125802380Y-60221904D02*
X124802380Y-60221904D01*
X124802380Y-60602857D01*
X124850000Y-60698095D01*
X124897619Y-60745714D01*
X124992857Y-60793333D01*
X125135714Y-60793333D01*
X125230952Y-60745714D01*
X125278571Y-60698095D01*
X125326190Y-60602857D01*
X125326190Y-60221904D01*
X124897619Y-61174285D02*
X124850000Y-61221904D01*
X124802380Y-61317142D01*
X124802380Y-61555238D01*
X124850000Y-61650476D01*
X124897619Y-61698095D01*
X124992857Y-61745714D01*
X125088095Y-61745714D01*
X125230952Y-61698095D01*
X125802380Y-61126666D01*
X125802380Y-61745714D01*
%TO.C,R1*%
X120722380Y-60793333D02*
X120246190Y-60460000D01*
X120722380Y-60221904D02*
X119722380Y-60221904D01*
X119722380Y-60602857D01*
X119770000Y-60698095D01*
X119817619Y-60745714D01*
X119912857Y-60793333D01*
X120055714Y-60793333D01*
X120150952Y-60745714D01*
X120198571Y-60698095D01*
X120246190Y-60602857D01*
X120246190Y-60221904D01*
X120722380Y-61745714D02*
X120722380Y-61174285D01*
X120722380Y-61460000D02*
X119722380Y-61460000D01*
X119865238Y-61364761D01*
X119960476Y-61269523D01*
X120008095Y-61174285D01*
%TO.C,C2*%
X122086666Y-81637142D02*
X122134285Y-81684761D01*
X122277142Y-81732380D01*
X122372380Y-81732380D01*
X122515238Y-81684761D01*
X122610476Y-81589523D01*
X122658095Y-81494285D01*
X122705714Y-81303809D01*
X122705714Y-81160952D01*
X122658095Y-80970476D01*
X122610476Y-80875238D01*
X122515238Y-80780000D01*
X122372380Y-80732380D01*
X122277142Y-80732380D01*
X122134285Y-80780000D01*
X122086666Y-80827619D01*
X121705714Y-80827619D02*
X121658095Y-80780000D01*
X121562857Y-80732380D01*
X121324761Y-80732380D01*
X121229523Y-80780000D01*
X121181904Y-80827619D01*
X121134285Y-80922857D01*
X121134285Y-81018095D01*
X121181904Y-81160952D01*
X121753333Y-81732380D01*
X121134285Y-81732380D01*
D13*
%TO.C,Q3*%
X142240000Y-98080000D02*
X142890000Y-98080000D01*
X142240000Y-98080000D02*
X141590000Y-98080000D01*
X142240000Y-94960000D02*
X143915000Y-94960000D01*
X142240000Y-94960000D02*
X141590000Y-94960000D01*
%TO.C,D1*%
X136870000Y-85360000D02*
X132970000Y-85360000D01*
X136870000Y-85360000D02*
X136870000Y-87360000D01*
X136870000Y-87360000D02*
X132970000Y-87360000D01*
%TO.C,U1*%
X127630000Y-71990000D02*
X127630000Y-70730000D01*
X133640000Y-65170000D02*
X127630000Y-65170000D01*
X131390000Y-71990000D02*
X127630000Y-71990000D01*
X127630000Y-65170000D02*
X127630000Y-66430000D01*
%TO.C,Q4*%
X142240000Y-103160000D02*
X141590000Y-103160000D01*
X142240000Y-100040000D02*
X143915000Y-100040000D01*
X142240000Y-103160000D02*
X142890000Y-103160000D01*
X142240000Y-100040000D02*
X141590000Y-100040000D01*
%TO.C,Q2*%
X142240000Y-93000000D02*
X142890000Y-93000000D01*
X142240000Y-93000000D02*
X141590000Y-93000000D01*
X142240000Y-89880000D02*
X143915000Y-89880000D01*
X142240000Y-89880000D02*
X141590000Y-89880000D01*
%TO.C,D4*%
X136870000Y-100600000D02*
X132970000Y-100600000D01*
X136870000Y-102600000D02*
X132970000Y-102600000D01*
X136870000Y-100600000D02*
X136870000Y-102600000D01*
%TO.C,Q1*%
X142240000Y-84800000D02*
X143915000Y-84800000D01*
X142240000Y-84800000D02*
X141590000Y-84800000D01*
X142240000Y-87920000D02*
X141590000Y-87920000D01*
X142240000Y-87920000D02*
X142890000Y-87920000D01*
%TO.C,D3*%
X136870000Y-95520000D02*
X136870000Y-97520000D01*
X136870000Y-97520000D02*
X132970000Y-97520000D01*
X136870000Y-95520000D02*
X132970000Y-95520000D01*
%TO.C,R4*%
X136425000Y-60732936D02*
X136425000Y-61187064D01*
X137895000Y-60732936D02*
X137895000Y-61187064D01*
%TO.C,D2*%
X136870000Y-90440000D02*
X132970000Y-90440000D01*
X136870000Y-92440000D02*
X132970000Y-92440000D01*
X136870000Y-90440000D02*
X136870000Y-92440000D01*
%TO.C,C1*%
X119641252Y-80545000D02*
X119118748Y-80545000D01*
X119641252Y-82015000D02*
X119118748Y-82015000D01*
%TO.C,R3*%
X131345000Y-60732936D02*
X131345000Y-61187064D01*
X132815000Y-60732936D02*
X132815000Y-61187064D01*
%TO.C,R2*%
X126265000Y-60732936D02*
X126265000Y-61187064D01*
X127735000Y-60732936D02*
X127735000Y-61187064D01*
%TO.C,R1*%
X121185000Y-60732936D02*
X121185000Y-61187064D01*
X122655000Y-60732936D02*
X122655000Y-61187064D01*
%TO.C,C2*%
X119118748Y-79475000D02*
X119641252Y-79475000D01*
X119118748Y-78005000D02*
X119641252Y-78005000D01*
%TD*%
M02*
