%TF.GenerationSoftware,KiCad,Pcbnew,(6.0.4)*%
%TF.CreationDate,2022-04-22T12:19:16+05:30*%
%TF.ProjectId,esp32 switch,65737033-3220-4737-9769-7463682e6b69,rev?*%
%TF.SameCoordinates,Original*%
%TF.FileFunction,Copper,L2,Bot*%
%TF.FilePolarity,Positive*%
%FSLAX46Y46*%
G04 Gerber Fmt 4.6, Leading zero omitted, Abs format (unit mm)*
G04 Created by KiCad (PCBNEW (6.0.4)) date 2022-04-22 12:19:16*
%MOMM*%
%LPD*%
G01*
G04 APERTURE LIST*
G04 Aperture macros list*
%AMRoundRect*
0 Rectangle with rounded corners*
0 $1 Rounding radius*
0 $2 $3 $4 $5 $6 $7 $8 $9 X,Y pos of 4 corners*
0 Add a 4 corners polygon primitive as box body*
4,1,4,$2,$3,$4,$5,$6,$7,$8,$9,$2,$3,0*
0 Add four circle primitives for the rounded corners*
1,1,$1+$1,$2,$3*
1,1,$1+$1,$4,$5*
1,1,$1+$1,$6,$7*
1,1,$1+$1,$8,$9*
0 Add four rect primitives between the rounded corners*
20,1,$1+$1,$2,$3,$4,$5,0*
20,1,$1+$1,$4,$5,$6,$7,0*
20,1,$1+$1,$6,$7,$8,$9,0*
20,1,$1+$1,$8,$9,$2,$3,0*%
G04 Aperture macros list end*
%TA.AperFunction,ComponentPad*%
%ADD10RoundRect,0.250000X-0.600000X-0.600000X0.600000X-0.600000X0.600000X0.600000X-0.600000X0.600000X0*%
%TD*%
%TA.AperFunction,ComponentPad*%
%ADD11C,1.700000*%
%TD*%
%TA.AperFunction,ComponentPad*%
%ADD12R,2.300000X2.000000*%
%TD*%
%TA.AperFunction,ComponentPad*%
%ADD13C,2.300000*%
%TD*%
%TA.AperFunction,ComponentPad*%
%ADD14R,1.700000X1.700000*%
%TD*%
%TA.AperFunction,ComponentPad*%
%ADD15O,1.700000X1.700000*%
%TD*%
%TA.AperFunction,ComponentPad*%
%ADD16R,1.980000X3.960000*%
%TD*%
%TA.AperFunction,ComponentPad*%
%ADD17O,1.980000X3.960000*%
%TD*%
%TA.AperFunction,ComponentPad*%
%ADD18R,1.980000X1.980000*%
%TD*%
%TA.AperFunction,ComponentPad*%
%ADD19C,1.980000*%
%TD*%
%TA.AperFunction,ComponentPad*%
%ADD20C,1.935000*%
%TD*%
%TA.AperFunction,ComponentPad*%
%ADD21RoundRect,0.250000X-0.725000X0.600000X-0.725000X-0.600000X0.725000X-0.600000X0.725000X0.600000X0*%
%TD*%
%TA.AperFunction,ComponentPad*%
%ADD22O,1.950000X1.700000*%
%TD*%
%TA.AperFunction,SMDPad,CuDef*%
%ADD23RoundRect,0.150000X0.587500X0.150000X-0.587500X0.150000X-0.587500X-0.150000X0.587500X-0.150000X0*%
%TD*%
%TA.AperFunction,SMDPad,CuDef*%
%ADD24R,0.900000X1.200000*%
%TD*%
%TA.AperFunction,SMDPad,CuDef*%
%ADD25R,2.000000X1.500000*%
%TD*%
%TA.AperFunction,SMDPad,CuDef*%
%ADD26R,2.000000X3.800000*%
%TD*%
%TA.AperFunction,SMDPad,CuDef*%
%ADD27RoundRect,0.250000X-0.450000X0.350000X-0.450000X-0.350000X0.450000X-0.350000X0.450000X0.350000X0*%
%TD*%
%TA.AperFunction,SMDPad,CuDef*%
%ADD28RoundRect,0.250000X0.337500X0.475000X-0.337500X0.475000X-0.337500X-0.475000X0.337500X-0.475000X0*%
%TD*%
%TA.AperFunction,SMDPad,CuDef*%
%ADD29RoundRect,0.250000X-0.337500X-0.475000X0.337500X-0.475000X0.337500X0.475000X-0.337500X0.475000X0*%
%TD*%
%TA.AperFunction,ViaPad*%
%ADD30C,0.800000*%
%TD*%
%TA.AperFunction,Conductor*%
%ADD31C,0.500000*%
%TD*%
%TA.AperFunction,Conductor*%
%ADD32C,0.250000*%
%TD*%
%TA.AperFunction,Conductor*%
%ADD33C,2.000000*%
%TD*%
G04 APERTURE END LIST*
D10*
%TO.P,J3,1,Pin_1*%
%TO.N,VCC*%
X144780000Y-63500000D03*
D11*
%TO.P,J3,2,Pin_2*%
%TO.N,GND*%
X147320000Y-63500000D03*
%TO.P,J3,3,Pin_3*%
%TO.N,Net-(U2-Pad26)*%
X144780000Y-66040000D03*
%TO.P,J3,4,Pin_4*%
%TO.N,Net-(U2-Pad7)*%
X147320000Y-66040000D03*
%TO.P,J3,5,Pin_5*%
%TO.N,Net-(U2-Pad16)*%
X144780000Y-68580000D03*
%TO.P,J3,6,Pin_6*%
%TO.N,Net-(U2-Pad6)*%
X147320000Y-68580000D03*
%TO.P,J3,7,Pin_7*%
%TO.N,Net-(U2-Pad13)*%
X144780000Y-71120000D03*
%TO.P,J3,8,Pin_8*%
%TO.N,Net-(U2-Pad9)*%
X147320000Y-71120000D03*
%TO.P,J3,9,Pin_9*%
%TO.N,Net-(U2-Pad12)*%
X144780000Y-73660000D03*
%TO.P,J3,10,Pin_10*%
%TO.N,Net-(U2-Pad8)*%
X147320000Y-73660000D03*
%TO.P,J3,11,Pin_11*%
%TO.N,Net-(U2-Pad14)*%
X144780000Y-76200000D03*
%TO.P,J3,12,Pin_12*%
%TO.N,Net-(U2-Pad28)*%
X147320000Y-76200000D03*
%TO.P,J3,13,Pin_13*%
%TO.N,Net-(U2-Pad23)*%
X144780000Y-78740000D03*
%TO.P,J3,14,Pin_14*%
%TO.N,Net-(U2-Pad27)*%
X147320000Y-78740000D03*
%TD*%
D12*
%TO.P,PS1,1,AC/L*%
%TO.N,Net-(J1-Pad1)*%
X146050000Y-100330000D03*
D13*
%TO.P,PS1,2,AC/N*%
%TO.N,Net-(J1-Pad2)*%
X146050000Y-95330000D03*
%TO.P,PS1,3,-Vout*%
%TO.N,GND*%
X119380000Y-96520000D03*
%TO.P,PS1,4,+Vout*%
%TO.N,VCC*%
X119380000Y-86320000D03*
%TD*%
D14*
%TO.P,J6,1,Pin_1*%
%TO.N,VCC*%
X124460000Y-81280000D03*
D15*
%TO.P,J6,2,Pin_2*%
%TO.N,Net-(J6-Pad2)*%
X127000000Y-81280000D03*
%TO.P,J6,3,Pin_3*%
%TO.N,Net-(J6-Pad3)*%
X129540000Y-81280000D03*
%TO.P,J6,4,Pin_4*%
%TO.N,Net-(J6-Pad4)*%
X132080000Y-81280000D03*
%TO.P,J6,5,Pin_5*%
%TO.N,Net-(J6-Pad5)*%
X134620000Y-81280000D03*
%TO.P,J6,6,Pin_6*%
%TO.N,Net-(J6-Pad6)*%
X137160000Y-81280000D03*
%TO.P,J6,7,Pin_7*%
%TO.N,GND*%
X139700000Y-81280000D03*
%TD*%
D16*
%TO.P,J1,1,Pin_1*%
%TO.N,Net-(J1-Pad1)*%
X109220000Y-99060000D03*
D17*
%TO.P,J1,2,Pin_2*%
%TO.N,Net-(J1-Pad2)*%
X104220000Y-99060000D03*
%TO.P,J1,3,Pin_3*%
%TO.N,Net-(J1-Pad3)*%
X99220000Y-99060000D03*
%TO.P,J1,4,Pin_4*%
%TO.N,Net-(J1-Pad4)*%
X94220000Y-99060000D03*
%TD*%
D18*
%TO.P,K3,A1*%
%TO.N,Net-(D3-Pad2)*%
X156460000Y-57500000D03*
D19*
%TO.P,K3,A2*%
%TO.N,VCC*%
X156460000Y-69500000D03*
D20*
%TO.P,K3,COM*%
%TO.N,Net-(J1-Pad2)*%
X154460000Y-63500000D03*
D19*
%TO.P,K3,NC*%
%TO.N,unconnected-(K3-PadNC)*%
X168660000Y-57500000D03*
%TO.P,K3,NO*%
%TO.N,Net-(J2-Pad1)*%
X168660000Y-69500000D03*
%TD*%
D16*
%TO.P,J2,1,Pin_1*%
%TO.N,Net-(J2-Pad1)*%
X170180000Y-99060000D03*
D17*
%TO.P,J2,2,Pin_2*%
%TO.N,Net-(J2-Pad2)*%
X165180000Y-99060000D03*
%TO.P,J2,3,Pin_3*%
%TO.N,Net-(J1-Pad2)*%
X160180000Y-99060000D03*
%TD*%
D18*
%TO.P,K1,A1*%
%TO.N,Net-(D1-Pad2)*%
X107700000Y-87280000D03*
D19*
%TO.P,K1,A2*%
%TO.N,VCC*%
X107700000Y-75280000D03*
D20*
%TO.P,K1,COM*%
%TO.N,Net-(J1-Pad2)*%
X109700000Y-81280000D03*
D19*
%TO.P,K1,NC*%
%TO.N,unconnected-(K1-PadNC)*%
X95500000Y-87280000D03*
%TO.P,K1,NO*%
%TO.N,Net-(J1-Pad4)*%
X95500000Y-75280000D03*
%TD*%
D21*
%TO.P,J5,1,Pin_1*%
%TO.N,VCC*%
X117140000Y-62330000D03*
D22*
%TO.P,J5,2,Pin_2*%
%TO.N,Net-(J5-Pad2)*%
X117140000Y-64830000D03*
%TO.P,J5,3,Pin_3*%
%TO.N,Net-(J5-Pad3)*%
X117140000Y-67330000D03*
%TO.P,J5,4,Pin_4*%
%TO.N,Net-(J5-Pad4)*%
X117140000Y-69830000D03*
%TO.P,J5,5,Pin_5*%
%TO.N,Net-(J5-Pad5)*%
X117140000Y-72330000D03*
%TO.P,J5,6,Pin_6*%
%TO.N,GND*%
X117140000Y-74830000D03*
%TD*%
D18*
%TO.P,K4,A1*%
%TO.N,Net-(D4-Pad2)*%
X156460000Y-75280000D03*
D19*
%TO.P,K4,A2*%
%TO.N,VCC*%
X156460000Y-87280000D03*
D20*
%TO.P,K4,COM*%
%TO.N,Net-(J1-Pad2)*%
X154460000Y-81280000D03*
D19*
%TO.P,K4,NC*%
%TO.N,unconnected-(K4-PadNC)*%
X168660000Y-75280000D03*
%TO.P,K4,NO*%
%TO.N,Net-(J2-Pad2)*%
X168660000Y-87280000D03*
%TD*%
D18*
%TO.P,K2,A1*%
%TO.N,Net-(D2-Pad2)*%
X107700000Y-69500000D03*
D19*
%TO.P,K2,A2*%
%TO.N,VCC*%
X107700000Y-57500000D03*
D20*
%TO.P,K2,COM*%
%TO.N,Net-(J1-Pad2)*%
X109700000Y-63500000D03*
D19*
%TO.P,K2,NC*%
%TO.N,unconnected-(K2-PadNC)*%
X95500000Y-69500000D03*
%TO.P,K2,NO*%
%TO.N,Net-(J1-Pad3)*%
X95500000Y-57500000D03*
%TD*%
D23*
%TO.P,Q3,1,B*%
%TO.N,Net-(Q3-Pad1)*%
X130477500Y-95570000D03*
%TO.P,Q3,2,E*%
%TO.N,GND*%
X130477500Y-97470000D03*
%TO.P,Q3,3,C*%
%TO.N,Net-(D3-Pad2)*%
X128602500Y-96520000D03*
%TD*%
D24*
%TO.P,D1,1,K*%
%TO.N,VCC*%
X126110000Y-86360000D03*
%TO.P,D1,2,A*%
%TO.N,Net-(D1-Pad2)*%
X122810000Y-86360000D03*
%TD*%
D25*
%TO.P,U1,1,ADJ*%
%TO.N,GND*%
X132690000Y-66280000D03*
%TO.P,U1,2,VO*%
%TO.N,Net-(U1-Pad2)*%
X132690000Y-68580000D03*
D26*
X126390000Y-68580000D03*
D25*
%TO.P,U1,3,VI*%
%TO.N,VCC*%
X132690000Y-70880000D03*
%TD*%
D23*
%TO.P,Q4,1,B*%
%TO.N,Net-(Q4-Pad1)*%
X135557500Y-85410000D03*
%TO.P,Q4,2,E*%
%TO.N,GND*%
X135557500Y-87310000D03*
%TO.P,Q4,3,C*%
%TO.N,Net-(D4-Pad2)*%
X133682500Y-86360000D03*
%TD*%
%TO.P,Q2,1,B*%
%TO.N,Net-(Q2-Pad1)*%
X130477500Y-90490000D03*
%TO.P,Q2,2,E*%
%TO.N,GND*%
X130477500Y-92390000D03*
%TO.P,Q2,3,C*%
%TO.N,Net-(D2-Pad2)*%
X128602500Y-91440000D03*
%TD*%
D24*
%TO.P,D4,1,K*%
%TO.N,VCC*%
X126110000Y-93980000D03*
%TO.P,D4,2,A*%
%TO.N,Net-(D4-Pad2)*%
X122810000Y-93980000D03*
%TD*%
D23*
%TO.P,Q1,1,B*%
%TO.N,Net-(Q1-Pad1)*%
X130477500Y-85410000D03*
%TO.P,Q1,2,E*%
%TO.N,GND*%
X130477500Y-87310000D03*
%TO.P,Q1,3,C*%
%TO.N,Net-(D1-Pad2)*%
X128602500Y-86360000D03*
%TD*%
D24*
%TO.P,D3,1,K*%
%TO.N,VCC*%
X126110000Y-91440000D03*
%TO.P,D3,2,A*%
%TO.N,Net-(D3-Pad2)*%
X122810000Y-91440000D03*
%TD*%
D27*
%TO.P,R4,1*%
%TO.N,Net-(Q4-Pad1)*%
X137160000Y-59960000D03*
%TO.P,R4,2*%
%TO.N,Net-(R4-Pad2)*%
X137160000Y-61960000D03*
%TD*%
D24*
%TO.P,D2,1,K*%
%TO.N,VCC*%
X126110000Y-88900000D03*
%TO.P,D2,2,A*%
%TO.N,Net-(D2-Pad2)*%
X122810000Y-88900000D03*
%TD*%
D28*
%TO.P,C1,1*%
%TO.N,VCC*%
X125497500Y-96520000D03*
%TO.P,C1,2*%
%TO.N,GND*%
X123422500Y-96520000D03*
%TD*%
D27*
%TO.P,R3,1*%
%TO.N,Net-(Q3-Pad1)*%
X132080000Y-59960000D03*
%TO.P,R3,2*%
%TO.N,Net-(R3-Pad2)*%
X132080000Y-61960000D03*
%TD*%
%TO.P,R2,1*%
%TO.N,Net-(Q2-Pad1)*%
X127000000Y-59960000D03*
%TO.P,R2,2*%
%TO.N,Net-(R2-Pad2)*%
X127000000Y-61960000D03*
%TD*%
%TO.P,R1,1*%
%TO.N,Net-(Q1-Pad1)*%
X121920000Y-59960000D03*
%TO.P,R1,2*%
%TO.N,Net-(R1-Pad2)*%
X121920000Y-61960000D03*
%TD*%
D29*
%TO.P,C2,1*%
%TO.N,GND*%
X123422500Y-99060000D03*
%TO.P,C2,2*%
%TO.N,Net-(J4-Pad1)*%
X125497500Y-99060000D03*
%TD*%
D30*
%TO.N,VCC*%
X126110000Y-87630000D03*
%TO.N,Net-(D2-Pad2)*%
X122359900Y-87689700D03*
X127591900Y-88487000D03*
%TO.N,Net-(D4-Pad2)*%
X133303800Y-84854600D03*
X146680300Y-84641700D03*
%TO.N,GND*%
X134391900Y-58700800D03*
%TO.N,Net-(U2-Pad7)*%
X117514300Y-57780000D03*
X143407400Y-59614700D03*
%TO.N,Net-(U2-Pad8)*%
X130442800Y-70368500D03*
X128992100Y-70017800D03*
X122681200Y-66845000D03*
%TO.N,Net-(J5-Pad2)*%
X120120300Y-78158500D03*
X133608400Y-78158500D03*
X142067800Y-77429400D03*
X118774700Y-71693100D03*
%TO.N,Net-(J5-Pad3)*%
X116381800Y-59354700D03*
X117382200Y-60428300D03*
X142223000Y-61319100D03*
%TO.N,Net-(J5-Pad4)*%
X125058700Y-58700800D03*
X118441400Y-66444400D03*
%TO.N,Net-(J5-Pad5)*%
X139652500Y-64305000D03*
%TO.N,Net-(Q2-Pad1)*%
X130477500Y-89270100D03*
X120355800Y-82388100D03*
%TO.N,Net-(Q3-Pad1)*%
X114623200Y-76675200D03*
X130477500Y-93619100D03*
%TO.N,Net-(Q4-Pad1)*%
X141855400Y-58410500D03*
X141442000Y-83791400D03*
X148799400Y-58410500D03*
X134186100Y-85456900D03*
%TO.N,Net-(R1-Pad2)*%
X123807200Y-70207100D03*
%TO.N,Net-(R2-Pad2)*%
X124550100Y-69535200D03*
%TO.N,Net-(R3-Pad2)*%
X135242200Y-60635700D03*
%TO.N,Net-(R4-Pad2)*%
X135877300Y-59225000D03*
%TO.N,Net-(U2-Pad9)*%
X142567900Y-72484600D03*
X124184200Y-73008700D03*
%TO.N,Net-(U2-Pad12)*%
X121318400Y-76135700D03*
%TO.N,Net-(U2-Pad13)*%
X122883600Y-73195000D03*
%TO.N,Net-(U2-Pad14)*%
X122640600Y-74465000D03*
X143300800Y-75963700D03*
%TO.N,Net-(U2-Pad16)*%
X135509600Y-72469700D03*
%TO.N,Net-(U2-Pad23)*%
X134583100Y-77089200D03*
%TO.N,Net-(J6-Pad2)*%
X125509300Y-72108200D03*
%TO.N,Net-(J6-Pad4)*%
X135985300Y-77883900D03*
%TO.N,Net-(U1-Pad2)*%
X125379599Y-63604999D03*
%TD*%
D31*
%TO.N,Net-(U1-Pad2)*%
X126390000Y-64615400D02*
X125379599Y-63604999D01*
X126390000Y-68580000D02*
X126390000Y-64615400D01*
D32*
%TO.N,Net-(R2-Pad2)*%
X126000000Y-61960000D02*
X127000000Y-61960000D01*
X124550100Y-63409900D02*
X126000000Y-61960000D01*
X124550100Y-69535200D02*
X124550100Y-63409900D01*
D31*
%TO.N,Net-(U1-Pad2)*%
X132690000Y-68580000D02*
X126390000Y-68580000D01*
%TO.N,VCC*%
X126110000Y-88900000D02*
X126110000Y-91440000D01*
X126110000Y-87630000D02*
X126110000Y-88900000D01*
X132690000Y-70880000D02*
X137400000Y-70880000D01*
X125497500Y-96520000D02*
X126110000Y-95907500D01*
X137400000Y-70880000D02*
X144780000Y-63500000D01*
X126110000Y-93980000D02*
X126110000Y-91440000D01*
X126110000Y-95907500D02*
X126110000Y-93980000D01*
X126110000Y-86360000D02*
X126110000Y-87630000D01*
%TO.N,Net-(D1-Pad2)*%
X123751600Y-87141600D02*
X122970000Y-86360000D01*
X107700000Y-87280000D02*
X109140300Y-87280000D01*
X123260200Y-86360000D02*
X122970000Y-86360000D01*
X123751600Y-89657800D02*
X123751600Y-87141600D01*
X123710300Y-85925000D02*
X123710300Y-86360000D01*
X123260200Y-86360000D02*
X123710300Y-86360000D01*
X109140300Y-87280000D02*
X111855200Y-89994900D01*
X123414500Y-89994900D02*
X123751600Y-89657800D01*
X125059500Y-84575800D02*
X123710300Y-85925000D01*
X111855200Y-89994900D02*
X123414500Y-89994900D01*
X128602500Y-86360000D02*
X128602500Y-86112400D01*
X128602500Y-86112400D02*
X127065900Y-84575800D01*
X122810000Y-86360000D02*
X122970000Y-86360000D01*
X127065900Y-84575800D02*
X125059500Y-84575800D01*
%TO.N,Net-(D2-Pad2)*%
X107700000Y-70940300D02*
X107700000Y-70954500D01*
X127591900Y-90429400D02*
X127591900Y-88487000D01*
X121909700Y-85164200D02*
X121909700Y-88900000D01*
X122359900Y-88900000D02*
X122359900Y-87689700D01*
X107700000Y-69500000D02*
X107700000Y-70940300D01*
X122810000Y-88900000D02*
X122359900Y-88900000D01*
X122359900Y-88900000D02*
X121909700Y-88900000D01*
X107700000Y-70954500D02*
X121909700Y-85164200D01*
X128602500Y-91440000D02*
X127591900Y-90429400D01*
%TO.N,Net-(D3-Pad2)*%
X131255100Y-96657300D02*
X149535800Y-78376600D01*
X122810000Y-91440000D02*
X121909700Y-91440000D01*
X131667100Y-97944100D02*
X129371300Y-100239900D01*
X149535800Y-78376600D02*
X149535800Y-66571000D01*
X117754700Y-97178800D02*
X117754700Y-95595000D01*
X131255100Y-96657300D02*
X131667100Y-97069300D01*
X149386800Y-63132900D02*
X155019700Y-57500000D01*
X128602500Y-96520000D02*
X131117800Y-96520000D01*
X149386800Y-66422000D02*
X149386800Y-63132900D01*
X149535800Y-66571000D02*
X149386800Y-66422000D01*
X129371300Y-100239900D02*
X120815800Y-100239900D01*
X120815800Y-100239900D02*
X117754700Y-97178800D01*
X117754700Y-95595000D02*
X121909700Y-91440000D01*
X156460000Y-57500000D02*
X155019700Y-57500000D01*
X131667100Y-97069300D02*
X131667100Y-97944100D01*
X131117800Y-96520000D02*
X131255100Y-96657300D01*
%TO.N,Net-(D4-Pad2)*%
X124701000Y-92989300D02*
X124701000Y-86000100D01*
X123710300Y-93980000D02*
X124701000Y-92989300D01*
X155019700Y-75280000D02*
X146680300Y-83619400D01*
X126748000Y-85276100D02*
X127023300Y-85551400D01*
X125425000Y-85276100D02*
X126748000Y-85276100D01*
X131562900Y-88100900D02*
X133303800Y-86360000D01*
X156460000Y-75280000D02*
X155019700Y-75280000D01*
X133303800Y-86360000D02*
X133682500Y-86360000D01*
X127023300Y-85551400D02*
X127023300Y-86377500D01*
X146680300Y-83619400D02*
X146680300Y-84641700D01*
X133303800Y-86360000D02*
X133303800Y-84854600D01*
X122810000Y-93980000D02*
X123710300Y-93980000D01*
X128746700Y-88100900D02*
X131562900Y-88100900D01*
X127023300Y-86377500D02*
X128746700Y-88100900D01*
X124701000Y-86000100D02*
X125425000Y-85276100D01*
D33*
%TO.N,Net-(J1-Pad4)*%
X92360000Y-75280000D02*
X91440000Y-76200000D01*
X91440000Y-76200000D02*
X91440000Y-96280000D01*
X91440000Y-96280000D02*
X94220000Y-99060000D01*
X95500000Y-75280000D02*
X92360000Y-75280000D01*
%TO.N,Net-(J2-Pad1)*%
X172720000Y-71120000D02*
X172720000Y-96520000D01*
X171100000Y-69500000D02*
X172720000Y-71120000D01*
X168660000Y-69500000D02*
X171100000Y-69500000D01*
X172720000Y-96520000D02*
X170180000Y-99060000D01*
D31*
%TO.N,GND*%
X136785200Y-84647200D02*
X136785200Y-86082300D01*
X138852100Y-82580300D02*
X136785200Y-84647200D01*
X139793700Y-62192900D02*
X138963500Y-63023100D01*
X129679800Y-82980200D02*
X131805300Y-85105700D01*
X117140000Y-76380700D02*
X123739500Y-82980200D01*
X134524500Y-63245200D02*
X134524500Y-63023100D01*
X117140000Y-74830000D02*
X117140000Y-76380700D01*
X139700000Y-81280000D02*
X139700000Y-82580300D01*
X136785200Y-84647200D02*
X136105800Y-83967800D01*
X123422500Y-96520000D02*
X119380000Y-96520000D01*
X146012900Y-62192900D02*
X139793700Y-62192900D01*
X127944900Y-97470000D02*
X130477500Y-97470000D01*
X123422500Y-99060000D02*
X123422500Y-97736400D01*
X132690000Y-65079700D02*
X134524500Y-63245200D01*
X132943200Y-83967800D02*
X131805300Y-85105700D01*
X123739500Y-82980200D02*
X129679800Y-82980200D01*
X126604700Y-97736400D02*
X123422500Y-97736400D01*
X127408000Y-95459500D02*
X127408000Y-96933100D01*
X132690000Y-66280000D02*
X132690000Y-65079700D01*
X147320000Y-63500000D02*
X146012900Y-62192900D01*
X134391900Y-62890500D02*
X134391900Y-58700800D01*
X138963500Y-63023100D02*
X134524500Y-63023100D01*
X127408000Y-96933100D02*
X127944900Y-97470000D01*
X130477500Y-92390000D02*
X127408000Y-95459500D01*
X135557500Y-87310000D02*
X130477500Y-92390000D01*
X136785200Y-86082300D02*
X135557500Y-87310000D01*
X136105800Y-83967800D02*
X132943200Y-83967800D01*
X123422500Y-97736400D02*
X123422500Y-96520000D01*
X139700000Y-82580300D02*
X138852100Y-82580300D01*
X131805300Y-85982200D02*
X130477500Y-87310000D01*
X131805300Y-85105700D02*
X131805300Y-85982200D01*
X134524500Y-63023100D02*
X134391900Y-62890500D01*
X127408000Y-96933100D02*
X126604700Y-97736400D01*
D33*
%TO.N,Net-(J1-Pad2)*%
X104220000Y-94060000D02*
X104220000Y-99060000D01*
X159153535Y-106108762D02*
X160180000Y-105082297D01*
X104140000Y-81280000D02*
X101600000Y-83820000D01*
X154460000Y-63500000D02*
X160020000Y-63500000D01*
X160020000Y-96520000D02*
X160180000Y-96680000D01*
X104140000Y-63500000D02*
X101600000Y-66040000D01*
D31*
X146050000Y-95330000D02*
X148670000Y-95330000D01*
D33*
X101600000Y-83820000D02*
X101600000Y-91440000D01*
X160180000Y-96680000D02*
X160180000Y-99060000D01*
X154460000Y-81280000D02*
X160020000Y-81280000D01*
X104220000Y-101060000D02*
X109268762Y-106108762D01*
X162560000Y-93980000D02*
X160020000Y-96520000D01*
X101600000Y-91440000D02*
X104220000Y-94060000D01*
X109268762Y-106108762D02*
X152971238Y-106108762D01*
X101600000Y-66040000D02*
X101600000Y-83820000D01*
X109700000Y-63500000D02*
X104140000Y-63500000D01*
X104220000Y-99060000D02*
X104220000Y-101060000D01*
X160020000Y-63500000D02*
X162560000Y-66040000D01*
X162560000Y-83820000D02*
X162560000Y-93980000D01*
X160180000Y-105082297D02*
X160180000Y-99060000D01*
D31*
X148670000Y-95330000D02*
X152971238Y-99631238D01*
D33*
X109700000Y-81280000D02*
X104140000Y-81280000D01*
X152971238Y-106108762D02*
X159153535Y-106108762D01*
X160020000Y-81280000D02*
X162560000Y-83820000D01*
X162560000Y-66040000D02*
X162560000Y-83820000D01*
D31*
X152971238Y-99631238D02*
X152971238Y-106108762D01*
D32*
%TO.N,Net-(U2-Pad7)*%
X142580700Y-58110000D02*
X142155900Y-57685200D01*
X141516500Y-57723700D02*
X140867500Y-57074800D01*
X142580700Y-58711000D02*
X142580700Y-58110000D01*
X142155900Y-57685200D02*
X141555000Y-57685200D01*
X118219500Y-57074800D02*
X117514300Y-57780000D01*
X143407400Y-59614700D02*
X142542200Y-58749500D01*
X141555000Y-57685200D02*
X141516500Y-57723700D01*
X142542200Y-58749500D02*
X142580700Y-58711000D01*
X140867500Y-57074800D02*
X118219500Y-57074800D01*
%TO.N,Net-(U2-Pad8)*%
X142325900Y-67397600D02*
X147882000Y-67397600D01*
X128077400Y-70932500D02*
X123482000Y-70932500D01*
X137993400Y-71730100D02*
X142325900Y-67397600D01*
X148495300Y-68010900D02*
X148495300Y-72484700D01*
X148495300Y-72484700D02*
X147320000Y-73660000D01*
X134784200Y-71955400D02*
X135009500Y-71730100D01*
X122681200Y-70131700D02*
X122681200Y-66845000D01*
X135009500Y-71730100D02*
X137993400Y-71730100D01*
X130442800Y-70846600D02*
X131551600Y-71955400D01*
X123482000Y-70932500D02*
X122681200Y-70131700D01*
X128992100Y-70017800D02*
X128077400Y-70932500D01*
X147882000Y-67397600D02*
X148495300Y-68010900D01*
X131551600Y-71955400D02*
X134784200Y-71955400D01*
X130442800Y-70368500D02*
X130442800Y-70846600D01*
%TO.N,Net-(J5-Pad2)*%
X118774700Y-71693100D02*
X118774700Y-76812900D01*
X118774700Y-76812900D02*
X120120300Y-78158500D01*
X142067800Y-77429400D02*
X141783900Y-77145500D01*
X135555700Y-77145500D02*
X134542700Y-78158500D01*
X134542700Y-78158500D02*
X133608400Y-78158500D01*
X141783900Y-77145500D02*
X135555700Y-77145500D01*
%TO.N,Net-(J5-Pad3)*%
X116381800Y-57817300D02*
X116381800Y-59354700D01*
X117574600Y-56624500D02*
X116381800Y-57817300D01*
X117140000Y-67330000D02*
X117140000Y-66154700D01*
X142759500Y-61319100D02*
X144160500Y-59918100D01*
X117655200Y-66154700D02*
X118441400Y-65368500D01*
X117140000Y-66154700D02*
X117655200Y-66154700D01*
X141732100Y-56624500D02*
X117574600Y-56624500D01*
X118441400Y-61487500D02*
X117382200Y-60428300D01*
X144160500Y-59052900D02*
X141732100Y-56624500D01*
X142223000Y-61319100D02*
X142759500Y-61319100D01*
X144160500Y-59918100D02*
X144160500Y-59052900D01*
X118441400Y-65368500D02*
X118441400Y-61487500D01*
%TO.N,Net-(J5-Pad4)*%
X118891700Y-65994100D02*
X118891700Y-60648700D01*
X118891700Y-60648700D02*
X120977200Y-58563200D01*
X118441400Y-66444400D02*
X118891700Y-65994100D01*
X120977200Y-58563200D02*
X124921100Y-58563200D01*
X124921100Y-58563200D02*
X125058700Y-58700800D01*
%TO.N,Net-(J5-Pad5)*%
X117140000Y-72302100D02*
X117140000Y-72330000D01*
X130824000Y-69723900D02*
X130743300Y-69643200D01*
X129717400Y-70061500D02*
X129717400Y-70318300D01*
X130743300Y-69643200D02*
X130135700Y-69643200D01*
X134233600Y-69723900D02*
X130824000Y-69723900D01*
X130135700Y-69643200D02*
X129717400Y-70061500D01*
X139652500Y-64305000D02*
X134233600Y-69723900D01*
X118474300Y-70967800D02*
X117140000Y-72302100D01*
X119490200Y-71382800D02*
X119075200Y-70967800D01*
X129717400Y-70318300D02*
X128652900Y-71382800D01*
X119075200Y-70967800D02*
X118474300Y-70967800D01*
X128652900Y-71382800D02*
X119490200Y-71382800D01*
%TO.N,Net-(Q1-Pad1)*%
X121920000Y-59960000D02*
X120066600Y-61813400D01*
X115835100Y-75889500D02*
X123564300Y-83618700D01*
X117688600Y-71080000D02*
X116600100Y-71080000D01*
X116600100Y-71080000D02*
X115835100Y-71845000D01*
X128686200Y-83618700D02*
X130477500Y-85410000D01*
X115835100Y-71845000D02*
X115835100Y-75889500D01*
X120066600Y-61813400D02*
X120066600Y-68702000D01*
X120066600Y-68702000D02*
X117688600Y-71080000D01*
X123564300Y-83618700D02*
X128686200Y-83618700D01*
%TO.N,Net-(Q2-Pad1)*%
X119616300Y-60639000D02*
X121239900Y-59015400D01*
X117706100Y-68580000D02*
X119616300Y-66669800D01*
X115348700Y-77381000D02*
X115348700Y-69777800D01*
X120355800Y-82388100D02*
X115348700Y-77381000D01*
X124758300Y-59426100D02*
X126466100Y-59426100D01*
X124347600Y-59015400D02*
X124758300Y-59426100D01*
X126466100Y-59426100D02*
X127000000Y-59960000D01*
X115348700Y-69777800D02*
X116546500Y-68580000D01*
X116546500Y-68580000D02*
X117706100Y-68580000D01*
X130477500Y-90490000D02*
X130477500Y-89270100D01*
X119616300Y-66669800D02*
X119616300Y-60639000D01*
X121239900Y-59015400D02*
X124347600Y-59015400D01*
%TO.N,Net-(Q3-Pad1)*%
X130477500Y-95570000D02*
X130477500Y-93619100D01*
X114623200Y-76675200D02*
X114898300Y-76400100D01*
X114898300Y-76400100D02*
X114898300Y-61886500D01*
X117627100Y-59703000D02*
X119354700Y-57975400D01*
X119354700Y-57975400D02*
X130095400Y-57975400D01*
X117081800Y-59703000D02*
X117627100Y-59703000D01*
X130095400Y-57975400D02*
X132080000Y-59960000D01*
X114898300Y-61886500D02*
X117081800Y-59703000D01*
%TO.N,Net-(Q4-Pad1)*%
X137160000Y-59960000D02*
X140305900Y-59960000D01*
X141442000Y-83791400D02*
X146050000Y-79183400D01*
X148799400Y-66937900D02*
X148799400Y-58410500D01*
X140305900Y-59960000D02*
X141855400Y-58410500D01*
X148960400Y-67098900D02*
X148799400Y-66937900D01*
X148960400Y-73687800D02*
X148960400Y-67098900D01*
X135557500Y-85410000D02*
X134233000Y-85410000D01*
X146050000Y-79183400D02*
X146050000Y-75713000D01*
X134233000Y-85410000D02*
X134186100Y-85456900D01*
X147623600Y-75024600D02*
X148960400Y-73687800D01*
X146738400Y-75024600D02*
X147623600Y-75024600D01*
X146050000Y-75713000D02*
X146738400Y-75024600D01*
%TO.N,Net-(R1-Pad2)*%
X123807200Y-63847200D02*
X121920000Y-61960000D01*
X123807200Y-70207100D02*
X123807200Y-63847200D01*
%TO.N,Net-(R3-Pad2)*%
X133293000Y-58726300D02*
X134043900Y-57975400D01*
X134703200Y-57975400D02*
X135131000Y-58403200D01*
X132080000Y-61960000D02*
X133293000Y-60747000D01*
X135131000Y-58403200D02*
X135131000Y-60524500D01*
X134043900Y-57975400D02*
X134703200Y-57975400D01*
X133293000Y-60747000D02*
X133293000Y-58726300D01*
X135131000Y-60524500D02*
X135242200Y-60635700D01*
%TO.N,Net-(R4-Pad2)*%
X135967500Y-59315200D02*
X135877300Y-59225000D01*
X135967500Y-60767500D02*
X135967500Y-59315200D01*
X137160000Y-61960000D02*
X135967500Y-60767500D01*
%TO.N,Net-(U2-Pad9)*%
X124865000Y-73689500D02*
X141363000Y-73689500D01*
X141363000Y-73689500D02*
X142567900Y-72484600D01*
X124184200Y-73008700D02*
X124865000Y-73689500D01*
%TO.N,Net-(U2-Pad12)*%
X124484700Y-72283400D02*
X125440500Y-73239200D01*
X121318400Y-76135700D02*
X121318400Y-73728000D01*
X144052300Y-69944600D02*
X145305600Y-69944600D01*
X145305600Y-69944600D02*
X145956900Y-70595900D01*
X145956900Y-72483100D02*
X144780000Y-73660000D01*
X145956900Y-70595900D02*
X145956900Y-72483100D01*
X122763000Y-72283400D02*
X124484700Y-72283400D01*
X125440500Y-73239200D02*
X140757700Y-73239200D01*
X121318400Y-73728000D02*
X122763000Y-72283400D01*
X140757700Y-73239200D02*
X144052300Y-69944600D01*
%TO.N,Net-(U2-Pad13)*%
X142000100Y-74139800D02*
X144780000Y-71359900D01*
X122883600Y-73195000D02*
X123828400Y-74139800D01*
X123828400Y-74139800D02*
X142000100Y-74139800D01*
X144780000Y-71359900D02*
X144780000Y-71120000D01*
%TO.N,Net-(U2-Pad14)*%
X124139300Y-75963700D02*
X143300800Y-75963700D01*
X122640600Y-74465000D02*
X124139300Y-75963700D01*
%TO.N,Net-(U2-Pad16)*%
X140890300Y-72469700D02*
X135509600Y-72469700D01*
X144780000Y-68580000D02*
X140890300Y-72469700D01*
%TO.N,Net-(U2-Pad23)*%
X134977100Y-76695200D02*
X134583100Y-77089200D01*
X144780000Y-78740000D02*
X142735200Y-76695200D01*
X142735200Y-76695200D02*
X134977100Y-76695200D01*
%TO.N,Net-(J6-Pad2)*%
X127000000Y-81280000D02*
X125824700Y-81280000D01*
X120563800Y-73779700D02*
X122510400Y-71833100D01*
X125824700Y-80471900D02*
X125457500Y-80104700D01*
X124182300Y-80104700D02*
X120563800Y-76486200D01*
X125824700Y-81280000D02*
X125824700Y-80471900D01*
X122510400Y-71833100D02*
X125234200Y-71833100D01*
X125234200Y-71833100D02*
X125509300Y-72108200D01*
X125457500Y-80104700D02*
X124182300Y-80104700D01*
X120563800Y-76486200D02*
X120563800Y-73779700D01*
%TO.N,Net-(J6-Pad4)*%
X133255300Y-80613900D02*
X135985300Y-77883900D01*
X132080000Y-81280000D02*
X133255300Y-81280000D01*
X133255300Y-81280000D02*
X133255300Y-80613900D01*
%TD*%
%TA.AperFunction,Conductor*%
%TO.N,GND*%
G36*
X123892123Y-92252247D02*
G01*
X123934605Y-92309131D01*
X123942500Y-92353030D01*
X123942500Y-92622929D01*
X123922498Y-92691050D01*
X123905595Y-92712024D01*
X123687713Y-92929906D01*
X123625401Y-92963932D01*
X123554586Y-92958867D01*
X123523054Y-92941638D01*
X123513891Y-92934770D01*
X123513888Y-92934768D01*
X123506705Y-92929385D01*
X123370316Y-92878255D01*
X123308134Y-92871500D01*
X122311866Y-92871500D01*
X122249684Y-92878255D01*
X122113295Y-92929385D01*
X121996739Y-93016739D01*
X121909385Y-93133295D01*
X121858255Y-93269684D01*
X121851500Y-93331866D01*
X121851500Y-94628134D01*
X121858255Y-94690316D01*
X121909385Y-94826705D01*
X121996739Y-94943261D01*
X122113295Y-95030615D01*
X122249684Y-95081745D01*
X122311866Y-95088500D01*
X122780986Y-95088500D01*
X122849107Y-95108502D01*
X122895600Y-95162158D01*
X122905704Y-95232432D01*
X122876210Y-95297012D01*
X122820862Y-95334024D01*
X122768216Y-95351588D01*
X122755038Y-95357761D01*
X122617193Y-95443063D01*
X122605792Y-95452099D01*
X122491261Y-95566829D01*
X122482249Y-95578240D01*
X122397184Y-95716243D01*
X122391037Y-95729424D01*
X122339862Y-95883710D01*
X122336995Y-95897086D01*
X122327328Y-95991438D01*
X122327000Y-95997855D01*
X122327000Y-96247885D01*
X122331475Y-96263124D01*
X122332865Y-96264329D01*
X122340548Y-96266000D01*
X123150385Y-96266000D01*
X123165624Y-96261525D01*
X123166829Y-96260135D01*
X123168500Y-96252452D01*
X123168500Y-95305116D01*
X123155487Y-95260798D01*
X123148548Y-95250001D01*
X123148546Y-95179004D01*
X123186929Y-95119277D01*
X123251509Y-95089783D01*
X123269443Y-95088500D01*
X123308134Y-95088500D01*
X123370316Y-95081745D01*
X123506705Y-95030615D01*
X123623261Y-94943261D01*
X123710615Y-94826705D01*
X123713767Y-94818297D01*
X123713769Y-94818294D01*
X123715684Y-94813185D01*
X123758324Y-94756420D01*
X123823450Y-94731828D01*
X123852639Y-94729454D01*
X123852642Y-94729453D01*
X123859937Y-94728860D01*
X123866901Y-94726604D01*
X123872860Y-94725413D01*
X123878715Y-94724029D01*
X123885981Y-94723182D01*
X123954627Y-94698265D01*
X123958755Y-94696848D01*
X124021236Y-94676607D01*
X124021238Y-94676606D01*
X124028199Y-94674351D01*
X124034454Y-94670555D01*
X124039928Y-94668049D01*
X124045358Y-94665330D01*
X124052237Y-94662833D01*
X124060153Y-94657643D01*
X124113276Y-94622814D01*
X124116980Y-94620477D01*
X124179407Y-94582595D01*
X124187784Y-94575197D01*
X124187808Y-94575224D01*
X124190800Y-94572571D01*
X124194033Y-94569868D01*
X124200152Y-94565856D01*
X124253428Y-94509617D01*
X124255806Y-94507175D01*
X124936405Y-93826576D01*
X124998717Y-93792550D01*
X125069532Y-93797615D01*
X125126368Y-93840162D01*
X125151179Y-93906682D01*
X125151500Y-93915671D01*
X125151500Y-94628134D01*
X125158255Y-94690316D01*
X125209385Y-94826705D01*
X125296739Y-94943261D01*
X125303919Y-94948642D01*
X125310269Y-94954992D01*
X125308634Y-94956627D01*
X125343579Y-95003359D01*
X125351500Y-95047329D01*
X125351500Y-95160500D01*
X125331498Y-95228621D01*
X125277842Y-95275114D01*
X125225500Y-95286500D01*
X125109600Y-95286500D01*
X125106354Y-95286837D01*
X125106350Y-95286837D01*
X125010692Y-95296762D01*
X125010688Y-95296763D01*
X125003834Y-95297474D01*
X124997298Y-95299655D01*
X124997296Y-95299655D01*
X124870910Y-95341821D01*
X124836054Y-95353450D01*
X124685652Y-95446522D01*
X124560695Y-95571697D01*
X124557898Y-95576235D01*
X124500647Y-95616824D01*
X124429724Y-95620054D01*
X124368313Y-95584428D01*
X124360938Y-95575932D01*
X124352902Y-95565793D01*
X124238171Y-95451261D01*
X124226760Y-95442249D01*
X124088757Y-95357184D01*
X124075576Y-95351037D01*
X123921290Y-95299862D01*
X123907914Y-95296995D01*
X123813562Y-95287328D01*
X123807145Y-95287000D01*
X123694615Y-95287000D01*
X123679376Y-95291475D01*
X123678171Y-95292865D01*
X123676500Y-95300548D01*
X123676500Y-97734882D01*
X123680643Y-97748992D01*
X123682868Y-97811273D01*
X123676500Y-97840547D01*
X123676500Y-99188000D01*
X123656498Y-99256121D01*
X123602842Y-99302614D01*
X123550500Y-99314000D01*
X122345116Y-99314000D01*
X122329877Y-99318475D01*
X122328672Y-99319865D01*
X122327001Y-99327548D01*
X122327001Y-99355400D01*
X122306999Y-99423521D01*
X122253343Y-99470014D01*
X122201001Y-99481400D01*
X121182171Y-99481400D01*
X121114050Y-99461398D01*
X121093076Y-99444495D01*
X120436466Y-98787885D01*
X122327000Y-98787885D01*
X122331475Y-98803124D01*
X122332865Y-98804329D01*
X122340548Y-98806000D01*
X123150385Y-98806000D01*
X123165624Y-98801525D01*
X123166829Y-98800135D01*
X123168500Y-98792452D01*
X123168500Y-97845118D01*
X123164357Y-97831008D01*
X123162132Y-97768727D01*
X123168500Y-97739453D01*
X123168500Y-96792115D01*
X123164025Y-96776876D01*
X123162635Y-96775671D01*
X123154952Y-96774000D01*
X122345116Y-96774000D01*
X122329877Y-96778475D01*
X122328672Y-96779865D01*
X122327001Y-96787548D01*
X122327001Y-97042095D01*
X122327338Y-97048614D01*
X122337257Y-97144206D01*
X122340149Y-97157600D01*
X122391588Y-97311784D01*
X122397761Y-97324962D01*
X122483063Y-97462807D01*
X122492099Y-97474208D01*
X122606829Y-97588739D01*
X122618240Y-97597751D01*
X122755983Y-97682657D01*
X122803476Y-97735429D01*
X122814900Y-97805501D01*
X122786626Y-97870625D01*
X122756170Y-97897061D01*
X122617193Y-97983063D01*
X122605792Y-97992099D01*
X122491261Y-98106829D01*
X122482249Y-98118240D01*
X122397184Y-98256243D01*
X122391037Y-98269424D01*
X122339862Y-98423710D01*
X122336995Y-98437086D01*
X122327328Y-98531438D01*
X122327000Y-98537855D01*
X122327000Y-98787885D01*
X120436466Y-98787885D01*
X119925717Y-98277136D01*
X119891691Y-98214824D01*
X119896756Y-98144009D01*
X119939303Y-98087173D01*
X119966593Y-98071632D01*
X120130474Y-98003750D01*
X120139264Y-97999271D01*
X120350875Y-97869596D01*
X120356922Y-97860330D01*
X120350915Y-97850125D01*
X119109885Y-96609095D01*
X119075859Y-96546783D01*
X119077694Y-96521132D01*
X119744408Y-96521132D01*
X119744539Y-96522965D01*
X119748790Y-96529580D01*
X120708666Y-97489456D01*
X120722204Y-97496849D01*
X120728735Y-97492280D01*
X120859271Y-97279264D01*
X120863752Y-97270470D01*
X120959834Y-97038508D01*
X120962883Y-97029123D01*
X121021496Y-96784983D01*
X121023039Y-96775236D01*
X121042739Y-96524930D01*
X121042739Y-96515070D01*
X121023039Y-96264764D01*
X121021496Y-96255017D01*
X120962883Y-96010877D01*
X120959834Y-96001492D01*
X120863752Y-95769530D01*
X120859271Y-95760736D01*
X120729596Y-95549125D01*
X120720330Y-95543078D01*
X120710125Y-95549085D01*
X119752022Y-96507188D01*
X119744408Y-96521132D01*
X119077694Y-96521132D01*
X119080924Y-96475968D01*
X119109885Y-96430905D01*
X120349456Y-95191334D01*
X120356849Y-95177796D01*
X120352280Y-95171265D01*
X120139264Y-95040729D01*
X120130470Y-95036248D01*
X119898508Y-94940166D01*
X119889120Y-94937116D01*
X119782224Y-94911453D01*
X119720654Y-94876101D01*
X119687971Y-94813075D01*
X119694551Y-94742384D01*
X119722542Y-94699839D01*
X121932287Y-92490094D01*
X121994599Y-92456068D01*
X122065414Y-92461133D01*
X122096946Y-92478362D01*
X122106109Y-92485230D01*
X122106112Y-92485232D01*
X122113295Y-92490615D01*
X122249684Y-92541745D01*
X122311866Y-92548500D01*
X123308134Y-92548500D01*
X123370316Y-92541745D01*
X123506705Y-92490615D01*
X123623261Y-92403261D01*
X123710615Y-92286705D01*
X123711297Y-92287216D01*
X123756240Y-92242374D01*
X123825631Y-92227361D01*
X123892123Y-92252247D01*
G37*
%TD.AperFunction*%
%TA.AperFunction,Conductor*%
G36*
X141215972Y-77799002D02*
G01*
X141256970Y-77842000D01*
X141328760Y-77966344D01*
X141333178Y-77971251D01*
X141333179Y-77971252D01*
X141452125Y-78103355D01*
X141456547Y-78108266D01*
X141611048Y-78220518D01*
X141617076Y-78223202D01*
X141617078Y-78223203D01*
X141779481Y-78295509D01*
X141785512Y-78298194D01*
X141878912Y-78318047D01*
X141965856Y-78336528D01*
X141965861Y-78336528D01*
X141972313Y-78337900D01*
X142163287Y-78337900D01*
X142169739Y-78336528D01*
X142169744Y-78336528D01*
X142256688Y-78318047D01*
X142350088Y-78298194D01*
X142356119Y-78295509D01*
X142518522Y-78223203D01*
X142518524Y-78223202D01*
X142524552Y-78220518D01*
X142679053Y-78108266D01*
X142683475Y-78103355D01*
X142802421Y-77971252D01*
X142802422Y-77971251D01*
X142806840Y-77966344D01*
X142835863Y-77916075D01*
X142887244Y-77867083D01*
X142956958Y-77853646D01*
X143022869Y-77880033D01*
X143034075Y-77889979D01*
X143235732Y-78091637D01*
X143429778Y-78285683D01*
X143463803Y-78347995D01*
X143462099Y-78408450D01*
X143440989Y-78484570D01*
X143417251Y-78706695D01*
X143417548Y-78711848D01*
X143417548Y-78711851D01*
X143422588Y-78799253D01*
X143430110Y-78929715D01*
X143431247Y-78934761D01*
X143431248Y-78934767D01*
X143451496Y-79024609D01*
X143479222Y-79147639D01*
X143563266Y-79354616D01*
X143565965Y-79359020D01*
X143654503Y-79503501D01*
X143679987Y-79545088D01*
X143826250Y-79713938D01*
X143998126Y-79856632D01*
X144034421Y-79877841D01*
X144161808Y-79952280D01*
X144210532Y-80003919D01*
X144223603Y-80073702D01*
X144196872Y-80139474D01*
X144187333Y-80150163D01*
X142836838Y-81500657D01*
X141491500Y-82845995D01*
X141429188Y-82880021D01*
X141402405Y-82882900D01*
X141346513Y-82882900D01*
X141340061Y-82884272D01*
X141340056Y-82884272D01*
X141253112Y-82902753D01*
X141159712Y-82922606D01*
X141153682Y-82925291D01*
X141153681Y-82925291D01*
X140991278Y-82997597D01*
X140991276Y-82997598D01*
X140985248Y-83000282D01*
X140830747Y-83112534D01*
X140826326Y-83117444D01*
X140826325Y-83117445D01*
X140735681Y-83218116D01*
X140702960Y-83254456D01*
X140607473Y-83419844D01*
X140548458Y-83601472D01*
X140528496Y-83791400D01*
X140529186Y-83797965D01*
X140544900Y-83947472D01*
X140548458Y-83981328D01*
X140607473Y-84162956D01*
X140610776Y-84168678D01*
X140610777Y-84168679D01*
X140614850Y-84175734D01*
X140702960Y-84328344D01*
X140707378Y-84333251D01*
X140707379Y-84333252D01*
X140823431Y-84462141D01*
X140830747Y-84470266D01*
X140985248Y-84582518D01*
X140991276Y-84585202D01*
X140991278Y-84585203D01*
X141151999Y-84656760D01*
X141159712Y-84660194D01*
X141253112Y-84680047D01*
X141340056Y-84698528D01*
X141340061Y-84698528D01*
X141346513Y-84699900D01*
X141537487Y-84699900D01*
X141543939Y-84698528D01*
X141543944Y-84698528D01*
X141630888Y-84680047D01*
X141724288Y-84660194D01*
X141732001Y-84656760D01*
X141892722Y-84585203D01*
X141892724Y-84585202D01*
X141898752Y-84582518D01*
X141914338Y-84571194D01*
X141981205Y-84547336D01*
X142050357Y-84563416D01*
X142099837Y-84614329D01*
X142113937Y-84683912D01*
X142088179Y-84750071D01*
X142077494Y-84762225D01*
X131792415Y-95047304D01*
X131730103Y-95081330D01*
X131659288Y-95076265D01*
X131602452Y-95033718D01*
X131594875Y-95022360D01*
X131589453Y-95013193D01*
X131471807Y-94895547D01*
X131464983Y-94891511D01*
X131464980Y-94891509D01*
X131335427Y-94814892D01*
X131335428Y-94814892D01*
X131328601Y-94810855D01*
X131320991Y-94808644D01*
X131320986Y-94808642D01*
X131201848Y-94774030D01*
X131142012Y-94735817D01*
X131112334Y-94671321D01*
X131111000Y-94653033D01*
X131111000Y-94321624D01*
X131131002Y-94253503D01*
X131143358Y-94237321D01*
X131216540Y-94156044D01*
X131312027Y-93990656D01*
X131371042Y-93809028D01*
X131374145Y-93779511D01*
X131390314Y-93625665D01*
X131391004Y-93619100D01*
X131387136Y-93582294D01*
X131371732Y-93435735D01*
X131371732Y-93435733D01*
X131371042Y-93429172D01*
X131318915Y-93268743D01*
X131316887Y-93197777D01*
X131353550Y-93136979D01*
X131374610Y-93121354D01*
X131464674Y-93068091D01*
X131477104Y-93058449D01*
X131583449Y-92952104D01*
X131593089Y-92939678D01*
X131669648Y-92810221D01*
X131675893Y-92795790D01*
X131714939Y-92661395D01*
X131714899Y-92647294D01*
X131707630Y-92644000D01*
X129253122Y-92644000D01*
X129239591Y-92647973D01*
X129238456Y-92655871D01*
X129279107Y-92795790D01*
X129285352Y-92810221D01*
X129361911Y-92939678D01*
X129371551Y-92952104D01*
X129477896Y-93058449D01*
X129490326Y-93068091D01*
X129580390Y-93121354D01*
X129628843Y-93173247D01*
X129641549Y-93243097D01*
X129636086Y-93268739D01*
X129583958Y-93429172D01*
X129583268Y-93435733D01*
X129583268Y-93435735D01*
X129567864Y-93582294D01*
X129563996Y-93619100D01*
X129564686Y-93625665D01*
X129580856Y-93779511D01*
X129583958Y-93809028D01*
X129642973Y-93990656D01*
X129738460Y-94156044D01*
X129811637Y-94237315D01*
X129842353Y-94301321D01*
X129844000Y-94321624D01*
X129844000Y-94653033D01*
X129823998Y-94721154D01*
X129770342Y-94767647D01*
X129753152Y-94774030D01*
X129634014Y-94808642D01*
X129634009Y-94808644D01*
X129626399Y-94810855D01*
X129619572Y-94814892D01*
X129619573Y-94814892D01*
X129490020Y-94891509D01*
X129490017Y-94891511D01*
X129483193Y-94895547D01*
X129365547Y-95013193D01*
X129361511Y-95020017D01*
X129361509Y-95020020D01*
X129321010Y-95088500D01*
X129280855Y-95156399D01*
X129278644Y-95164010D01*
X129278643Y-95164012D01*
X129263472Y-95216231D01*
X129234438Y-95316169D01*
X129233934Y-95322574D01*
X129233933Y-95322579D01*
X129231693Y-95351042D01*
X129231500Y-95353498D01*
X129231500Y-95585500D01*
X129211498Y-95653621D01*
X129157842Y-95700114D01*
X129105500Y-95711500D01*
X127948498Y-95711500D01*
X127946050Y-95711693D01*
X127946042Y-95711693D01*
X127917579Y-95713933D01*
X127917574Y-95713934D01*
X127911169Y-95714438D01*
X127811231Y-95743472D01*
X127759012Y-95758643D01*
X127759010Y-95758644D01*
X127751399Y-95760855D01*
X127722589Y-95777893D01*
X127615020Y-95841509D01*
X127615017Y-95841511D01*
X127608193Y-95845547D01*
X127490547Y-95963193D01*
X127486511Y-95970017D01*
X127486509Y-95970020D01*
X127428902Y-96067429D01*
X127405855Y-96106399D01*
X127359438Y-96266169D01*
X127356500Y-96303498D01*
X127356500Y-96736502D01*
X127356693Y-96738950D01*
X127356693Y-96738958D01*
X127358221Y-96758367D01*
X127359438Y-96773831D01*
X127385814Y-96864619D01*
X127401806Y-96919663D01*
X127405855Y-96933601D01*
X127409892Y-96940427D01*
X127486509Y-97069980D01*
X127486511Y-97069983D01*
X127490547Y-97076807D01*
X127608193Y-97194453D01*
X127615017Y-97198489D01*
X127615020Y-97198491D01*
X127656620Y-97223093D01*
X127751399Y-97279145D01*
X127759010Y-97281356D01*
X127759012Y-97281357D01*
X127766399Y-97283503D01*
X127911169Y-97325562D01*
X127917574Y-97326066D01*
X127917579Y-97326067D01*
X127946042Y-97328307D01*
X127946050Y-97328307D01*
X127948498Y-97328500D01*
X129256502Y-97328500D01*
X129258950Y-97328307D01*
X129258958Y-97328307D01*
X129287421Y-97326067D01*
X129287426Y-97326066D01*
X129293831Y-97325562D01*
X129300007Y-97323768D01*
X129300011Y-97323767D01*
X129438602Y-97283503D01*
X129473754Y-97278500D01*
X130605500Y-97278500D01*
X130673621Y-97298502D01*
X130720114Y-97352158D01*
X130731500Y-97404500D01*
X130731500Y-97598000D01*
X130711498Y-97666121D01*
X130657842Y-97712614D01*
X130605500Y-97724000D01*
X129253122Y-97724000D01*
X129239591Y-97727973D01*
X129238456Y-97735871D01*
X129279107Y-97875790D01*
X129285352Y-97890221D01*
X129361911Y-98019678D01*
X129371551Y-98032104D01*
X129477896Y-98138449D01*
X129490322Y-98148089D01*
X129619779Y-98224648D01*
X129634210Y-98230893D01*
X129780065Y-98273269D01*
X129792667Y-98275570D01*
X129821084Y-98277807D01*
X129826014Y-98278000D01*
X129956329Y-98278000D01*
X130024450Y-98298002D01*
X130070943Y-98351658D01*
X130081047Y-98421932D01*
X130051553Y-98486512D01*
X130045424Y-98493095D01*
X129094024Y-99444495D01*
X129031712Y-99478521D01*
X129004929Y-99481400D01*
X126719500Y-99481400D01*
X126651379Y-99461398D01*
X126604886Y-99407742D01*
X126593500Y-99355400D01*
X126593500Y-98534600D01*
X126585222Y-98454816D01*
X126583238Y-98435692D01*
X126583237Y-98435688D01*
X126582526Y-98428834D01*
X126580224Y-98421932D01*
X126528868Y-98268002D01*
X126526550Y-98261054D01*
X126433478Y-98110652D01*
X126308303Y-97985695D01*
X126302072Y-97981854D01*
X126164969Y-97897342D01*
X126117475Y-97844569D01*
X126106052Y-97774498D01*
X126134326Y-97709374D01*
X126164781Y-97682939D01*
X126309348Y-97593478D01*
X126434305Y-97468303D01*
X126527115Y-97317738D01*
X126558507Y-97223093D01*
X126580632Y-97156389D01*
X126580632Y-97156387D01*
X126582797Y-97149861D01*
X126584180Y-97136370D01*
X126590753Y-97072208D01*
X126593500Y-97045400D01*
X126593500Y-96554435D01*
X126613502Y-96486314D01*
X126629886Y-96466694D01*
X126630818Y-96466008D01*
X126665035Y-96425732D01*
X126671965Y-96418216D01*
X126677661Y-96412520D01*
X126679924Y-96409659D01*
X126679929Y-96409654D01*
X126695293Y-96390234D01*
X126698082Y-96386833D01*
X126699743Y-96384878D01*
X126745333Y-96331215D01*
X126748659Y-96324702D01*
X126752020Y-96319663D01*
X126755196Y-96314521D01*
X126759734Y-96308784D01*
X126790655Y-96242625D01*
X126792561Y-96238725D01*
X126806477Y-96211472D01*
X126825769Y-96173692D01*
X126827508Y-96166583D01*
X126829604Y-96160949D01*
X126831523Y-96155179D01*
X126834622Y-96148550D01*
X126849491Y-96077065D01*
X126850461Y-96072782D01*
X126866473Y-96007344D01*
X126867808Y-96001890D01*
X126868500Y-95990736D01*
X126868535Y-95990738D01*
X126868775Y-95986766D01*
X126869152Y-95982545D01*
X126870641Y-95975385D01*
X126868546Y-95897958D01*
X126868500Y-95894550D01*
X126868500Y-95047329D01*
X126888502Y-94979208D01*
X126910407Y-94955668D01*
X126909731Y-94954992D01*
X126916081Y-94948642D01*
X126923261Y-94943261D01*
X127010615Y-94826705D01*
X127061745Y-94690316D01*
X127068500Y-94628134D01*
X127068500Y-93331866D01*
X127061745Y-93269684D01*
X127010615Y-93133295D01*
X126923261Y-93016739D01*
X126916081Y-93011358D01*
X126909731Y-93005008D01*
X126911366Y-93003373D01*
X126876421Y-92956641D01*
X126868500Y-92912671D01*
X126868500Y-92507329D01*
X126888502Y-92439208D01*
X126910407Y-92415668D01*
X126909731Y-92414992D01*
X126916081Y-92408642D01*
X126923261Y-92403261D01*
X127010615Y-92286705D01*
X127061745Y-92150316D01*
X127068500Y-92088134D01*
X127068500Y-91282871D01*
X127088502Y-91214750D01*
X127142158Y-91168257D01*
X127212432Y-91158153D01*
X127277012Y-91187647D01*
X127283595Y-91193776D01*
X127319595Y-91229776D01*
X127353621Y-91292088D01*
X127356500Y-91318871D01*
X127356500Y-91656502D01*
X127359438Y-91693831D01*
X127405855Y-91853601D01*
X127409892Y-91860427D01*
X127486509Y-91989980D01*
X127486511Y-91989983D01*
X127490547Y-91996807D01*
X127608193Y-92114453D01*
X127615017Y-92118489D01*
X127615020Y-92118491D01*
X127674297Y-92153547D01*
X127751399Y-92199145D01*
X127759010Y-92201356D01*
X127759012Y-92201357D01*
X127790098Y-92210388D01*
X127911169Y-92245562D01*
X127917574Y-92246066D01*
X127917579Y-92246067D01*
X127946042Y-92248307D01*
X127946050Y-92248307D01*
X127948498Y-92248500D01*
X129256502Y-92248500D01*
X129258950Y-92248307D01*
X129258958Y-92248307D01*
X129287421Y-92246067D01*
X129287426Y-92246066D01*
X129293831Y-92245562D01*
X129414902Y-92210388D01*
X129445988Y-92201357D01*
X129445990Y-92201356D01*
X129453601Y-92199145D01*
X129530703Y-92153547D01*
X129594842Y-92136000D01*
X130205385Y-92136000D01*
X130220624Y-92131525D01*
X130221829Y-92130135D01*
X130223500Y-92122452D01*
X130223500Y-92117885D01*
X130731500Y-92117885D01*
X130735975Y-92133124D01*
X130737365Y-92134329D01*
X130745048Y-92136000D01*
X131701878Y-92136000D01*
X131715409Y-92132027D01*
X131716544Y-92124129D01*
X131675893Y-91984210D01*
X131669648Y-91969779D01*
X131593089Y-91840322D01*
X131583449Y-91827896D01*
X131477104Y-91721551D01*
X131464678Y-91711911D01*
X131335221Y-91635352D01*
X131320790Y-91629107D01*
X131174935Y-91586731D01*
X131162333Y-91584430D01*
X131133916Y-91582193D01*
X131128986Y-91582000D01*
X130749615Y-91582000D01*
X130734376Y-91586475D01*
X130733171Y-91587865D01*
X130731500Y-91595548D01*
X130731500Y-92117885D01*
X130223500Y-92117885D01*
X130223500Y-91600116D01*
X130219025Y-91584877D01*
X130217635Y-91583672D01*
X130209952Y-91582001D01*
X129974500Y-91582001D01*
X129906379Y-91561999D01*
X129859886Y-91508343D01*
X129848500Y-91456001D01*
X129848500Y-91424500D01*
X129868502Y-91356379D01*
X129922158Y-91309886D01*
X129974500Y-91298500D01*
X131131502Y-91298500D01*
X131133950Y-91298307D01*
X131133958Y-91298307D01*
X131162421Y-91296067D01*
X131162426Y-91296066D01*
X131168831Y-91295562D01*
X131268769Y-91266528D01*
X131320988Y-91251357D01*
X131320990Y-91251356D01*
X131328601Y-91249145D01*
X131422225Y-91193776D01*
X131464980Y-91168491D01*
X131464983Y-91168489D01*
X131471807Y-91164453D01*
X131589453Y-91046807D01*
X131593489Y-91039983D01*
X131593491Y-91039980D01*
X131657107Y-90932411D01*
X131674145Y-90903601D01*
X131720562Y-90743831D01*
X131721271Y-90734831D01*
X131723307Y-90708958D01*
X131723307Y-90708950D01*
X131723500Y-90706502D01*
X131723500Y-90273498D01*
X131723307Y-90271042D01*
X131721067Y-90242579D01*
X131721066Y-90242574D01*
X131720562Y-90236169D01*
X131674145Y-90076399D01*
X131657107Y-90047589D01*
X131593491Y-89940020D01*
X131593489Y-89940017D01*
X131589453Y-89933193D01*
X131471807Y-89815547D01*
X131377272Y-89759639D01*
X131328822Y-89707749D01*
X131316117Y-89637898D01*
X131321581Y-89612252D01*
X131369002Y-89466306D01*
X131371042Y-89460028D01*
X131391004Y-89270100D01*
X131371042Y-89080172D01*
X131352900Y-89024336D01*
X131350873Y-88953368D01*
X131387535Y-88892570D01*
X131451248Y-88861245D01*
X131472733Y-88859400D01*
X131495830Y-88859400D01*
X131514780Y-88860833D01*
X131529015Y-88862999D01*
X131529019Y-88862999D01*
X131536249Y-88864099D01*
X131543541Y-88863506D01*
X131543544Y-88863506D01*
X131588918Y-88859815D01*
X131599133Y-88859400D01*
X131607193Y-88859400D01*
X131624580Y-88857373D01*
X131635407Y-88856111D01*
X131639782Y-88855678D01*
X131705239Y-88850354D01*
X131705242Y-88850353D01*
X131712537Y-88849760D01*
X131719501Y-88847504D01*
X131725460Y-88846313D01*
X131731315Y-88844929D01*
X131738581Y-88844082D01*
X131807227Y-88819165D01*
X131811355Y-88817748D01*
X131873836Y-88797507D01*
X131873838Y-88797506D01*
X131880799Y-88795251D01*
X131887054Y-88791455D01*
X131892528Y-88788949D01*
X131897958Y-88786230D01*
X131904837Y-88783733D01*
X131912819Y-88778500D01*
X131965876Y-88743714D01*
X131969580Y-88741377D01*
X132032007Y-88703495D01*
X132040384Y-88696097D01*
X132040408Y-88696124D01*
X132043400Y-88693471D01*
X132046633Y-88690768D01*
X132052752Y-88686756D01*
X132106028Y-88630517D01*
X132108406Y-88628075D01*
X133160610Y-87575871D01*
X134318456Y-87575871D01*
X134359107Y-87715790D01*
X134365352Y-87730221D01*
X134441911Y-87859678D01*
X134451551Y-87872104D01*
X134557896Y-87978449D01*
X134570322Y-87988089D01*
X134699779Y-88064648D01*
X134714210Y-88070893D01*
X134860065Y-88113269D01*
X134872667Y-88115570D01*
X134901084Y-88117807D01*
X134906014Y-88118000D01*
X135285385Y-88118000D01*
X135300624Y-88113525D01*
X135301829Y-88112135D01*
X135303500Y-88104452D01*
X135303500Y-88099884D01*
X135811500Y-88099884D01*
X135815975Y-88115123D01*
X135817365Y-88116328D01*
X135825048Y-88117999D01*
X136208984Y-88117999D01*
X136213920Y-88117805D01*
X136242336Y-88115570D01*
X136254931Y-88113270D01*
X136400790Y-88070893D01*
X136415221Y-88064648D01*
X136544678Y-87988089D01*
X136557104Y-87978449D01*
X136663449Y-87872104D01*
X136673089Y-87859678D01*
X136749648Y-87730221D01*
X136755893Y-87715790D01*
X136794939Y-87581395D01*
X136794899Y-87567294D01*
X136787630Y-87564000D01*
X135829615Y-87564000D01*
X135814376Y-87568475D01*
X135813171Y-87569865D01*
X135811500Y-87577548D01*
X135811500Y-88099884D01*
X135303500Y-88099884D01*
X135303500Y-87582115D01*
X135299025Y-87566876D01*
X135297635Y-87565671D01*
X135289952Y-87564000D01*
X134333122Y-87564000D01*
X134319591Y-87567973D01*
X134318456Y-87575871D01*
X133160610Y-87575871D01*
X133531076Y-87205405D01*
X133593388Y-87171379D01*
X133620171Y-87168500D01*
X134336502Y-87168500D01*
X134338950Y-87168307D01*
X134338958Y-87168307D01*
X134367421Y-87166067D01*
X134367426Y-87166066D01*
X134373831Y-87165562D01*
X134473769Y-87136528D01*
X134525988Y-87121357D01*
X134525990Y-87121356D01*
X134533601Y-87119145D01*
X134610703Y-87073547D01*
X134674842Y-87056000D01*
X135285385Y-87056000D01*
X135300624Y-87051525D01*
X135301829Y-87050135D01*
X135303500Y-87042452D01*
X135303500Y-87037885D01*
X135811500Y-87037885D01*
X135815975Y-87053124D01*
X135817365Y-87054329D01*
X135825048Y-87056000D01*
X136781878Y-87056000D01*
X136795409Y-87052027D01*
X136796544Y-87044129D01*
X136755893Y-86904210D01*
X136749648Y-86889779D01*
X136673089Y-86760322D01*
X136663449Y-86747896D01*
X136557104Y-86641551D01*
X136544678Y-86631911D01*
X136415221Y-86555352D01*
X136400790Y-86549107D01*
X136254935Y-86506731D01*
X136242333Y-86504430D01*
X136213916Y-86502193D01*
X136208986Y-86502000D01*
X135829615Y-86502000D01*
X135814376Y-86506475D01*
X135813171Y-86507865D01*
X135811500Y-86515548D01*
X135811500Y-87037885D01*
X135303500Y-87037885D01*
X135303500Y-86520116D01*
X135299025Y-86504877D01*
X135297635Y-86503672D01*
X135289952Y-86502001D01*
X135054500Y-86502001D01*
X134986379Y-86481999D01*
X134939886Y-86428343D01*
X134928500Y-86376001D01*
X134928500Y-86344500D01*
X134948502Y-86276379D01*
X135002158Y-86229886D01*
X135054500Y-86218500D01*
X136211502Y-86218500D01*
X136213950Y-86218307D01*
X136213958Y-86218307D01*
X136242421Y-86216067D01*
X136242426Y-86216066D01*
X136248831Y-86215562D01*
X136348769Y-86186528D01*
X136400988Y-86171357D01*
X136400990Y-86171356D01*
X136408601Y-86169145D01*
X136451968Y-86143498D01*
X136544980Y-86088491D01*
X136544983Y-86088489D01*
X136551807Y-86084453D01*
X136669453Y-85966807D01*
X136673489Y-85959983D01*
X136673491Y-85959980D01*
X136750108Y-85830427D01*
X136754145Y-85823601D01*
X136757887Y-85810723D01*
X136798767Y-85670008D01*
X136800562Y-85663831D01*
X136803500Y-85626502D01*
X136803500Y-85193498D01*
X136803292Y-85190851D01*
X136801067Y-85162579D01*
X136801066Y-85162574D01*
X136800562Y-85156169D01*
X136759422Y-85014563D01*
X136756357Y-85004012D01*
X136756356Y-85004010D01*
X136754145Y-84996399D01*
X136714761Y-84929804D01*
X136673491Y-84860020D01*
X136673489Y-84860017D01*
X136669453Y-84853193D01*
X136551807Y-84735547D01*
X136544983Y-84731511D01*
X136544980Y-84731509D01*
X136415427Y-84654892D01*
X136415428Y-84654892D01*
X136408601Y-84650855D01*
X136400990Y-84648644D01*
X136400988Y-84648643D01*
X136302124Y-84619921D01*
X136248831Y-84604438D01*
X136242426Y-84603934D01*
X136242421Y-84603933D01*
X136213958Y-84601693D01*
X136213950Y-84601693D01*
X136211502Y-84601500D01*
X134903498Y-84601500D01*
X134901050Y-84601693D01*
X134901042Y-84601693D01*
X134872579Y-84603933D01*
X134872574Y-84603934D01*
X134866169Y-84604438D01*
X134812876Y-84619921D01*
X134714012Y-84648643D01*
X134714010Y-84648644D01*
X134706399Y-84650855D01*
X134705913Y-84651142D01*
X134638702Y-84659437D01*
X134607878Y-84650210D01*
X134509102Y-84606233D01*
X134474419Y-84590791D01*
X134474418Y-84590791D01*
X134468388Y-84588106D01*
X134374987Y-84568253D01*
X134288044Y-84549772D01*
X134288039Y-84549772D01*
X134281587Y-84548400D01*
X134248495Y-84548400D01*
X134180374Y-84528398D01*
X134140416Y-84481838D01*
X134138327Y-84483044D01*
X134088148Y-84396132D01*
X134042840Y-84317656D01*
X134009912Y-84281085D01*
X133919475Y-84180645D01*
X133919474Y-84180644D01*
X133915053Y-84175734D01*
X133776561Y-84075113D01*
X133765894Y-84067363D01*
X133765893Y-84067362D01*
X133760552Y-84063482D01*
X133754524Y-84060798D01*
X133754522Y-84060797D01*
X133592119Y-83988491D01*
X133592118Y-83988491D01*
X133586088Y-83985806D01*
X133492687Y-83965953D01*
X133405744Y-83947472D01*
X133405739Y-83947472D01*
X133399287Y-83946100D01*
X133208313Y-83946100D01*
X133201861Y-83947472D01*
X133201856Y-83947472D01*
X133114913Y-83965953D01*
X133021512Y-83985806D01*
X133015482Y-83988491D01*
X133015481Y-83988491D01*
X132853078Y-84060797D01*
X132853076Y-84060798D01*
X132847048Y-84063482D01*
X132841707Y-84067362D01*
X132841706Y-84067363D01*
X132831039Y-84075113D01*
X132692547Y-84175734D01*
X132688126Y-84180644D01*
X132688125Y-84180645D01*
X132597689Y-84281085D01*
X132564760Y-84317656D01*
X132519452Y-84396132D01*
X132474409Y-84474149D01*
X132469273Y-84483044D01*
X132410258Y-84664672D01*
X132409568Y-84671233D01*
X132409568Y-84671235D01*
X132406556Y-84699893D01*
X132390296Y-84854600D01*
X132390986Y-84861165D01*
X132407876Y-85021861D01*
X132410258Y-85044528D01*
X132469273Y-85226156D01*
X132472576Y-85231878D01*
X132472577Y-85231879D01*
X132528419Y-85328599D01*
X132545300Y-85391599D01*
X132545300Y-85811414D01*
X132527755Y-85875551D01*
X132485855Y-85946399D01*
X132439438Y-86106169D01*
X132438933Y-86112581D01*
X132437775Y-86118922D01*
X132435651Y-86118534D01*
X132413909Y-86175574D01*
X132402680Y-86188439D01*
X131796287Y-86794832D01*
X131733975Y-86828858D01*
X131663160Y-86823793D01*
X131606324Y-86781246D01*
X131598737Y-86769873D01*
X131593091Y-86760326D01*
X131583449Y-86747896D01*
X131477104Y-86641551D01*
X131464678Y-86631911D01*
X131335221Y-86555352D01*
X131320790Y-86549107D01*
X131174935Y-86506731D01*
X131162333Y-86504430D01*
X131133916Y-86502193D01*
X131128986Y-86502000D01*
X130749615Y-86502000D01*
X130734376Y-86506475D01*
X130733171Y-86507865D01*
X130731500Y-86515548D01*
X130731500Y-87216400D01*
X130711498Y-87284521D01*
X130657842Y-87331014D01*
X130605500Y-87342400D01*
X130349500Y-87342400D01*
X130281379Y-87322398D01*
X130234886Y-87268742D01*
X130223500Y-87216400D01*
X130223500Y-86520116D01*
X130219025Y-86504877D01*
X130217635Y-86503672D01*
X130209952Y-86502001D01*
X129974500Y-86502001D01*
X129906379Y-86481999D01*
X129859886Y-86428343D01*
X129848500Y-86376001D01*
X129848500Y-86344500D01*
X129868502Y-86276379D01*
X129922158Y-86229886D01*
X129974500Y-86218500D01*
X131131502Y-86218500D01*
X131133950Y-86218307D01*
X131133958Y-86218307D01*
X131162421Y-86216067D01*
X131162426Y-86216066D01*
X131168831Y-86215562D01*
X131268769Y-86186528D01*
X131320988Y-86171357D01*
X131320990Y-86171356D01*
X131328601Y-86169145D01*
X131371968Y-86143498D01*
X131464980Y-86088491D01*
X131464983Y-86088489D01*
X131471807Y-86084453D01*
X131589453Y-85966807D01*
X131593489Y-85959983D01*
X131593491Y-85959980D01*
X131670108Y-85830427D01*
X131674145Y-85823601D01*
X131677887Y-85810723D01*
X131718767Y-85670008D01*
X131720562Y-85663831D01*
X131723500Y-85626502D01*
X131723500Y-85193498D01*
X131723292Y-85190851D01*
X131721067Y-85162579D01*
X131721066Y-85162574D01*
X131720562Y-85156169D01*
X131679422Y-85014563D01*
X131676357Y-85004012D01*
X131676356Y-85004010D01*
X131674145Y-84996399D01*
X131634761Y-84929804D01*
X131593491Y-84860020D01*
X131593489Y-84860017D01*
X131589453Y-84853193D01*
X131471807Y-84735547D01*
X131464983Y-84731511D01*
X131464980Y-84731509D01*
X131335427Y-84654892D01*
X131335428Y-84654892D01*
X131328601Y-84650855D01*
X131320990Y-84648644D01*
X131320988Y-84648643D01*
X131222124Y-84619921D01*
X131168831Y-84604438D01*
X131162426Y-84603934D01*
X131162421Y-84603933D01*
X131133958Y-84601693D01*
X131133950Y-84601693D01*
X131131502Y-84601500D01*
X130617094Y-84601500D01*
X130548973Y-84581498D01*
X130527999Y-84564595D01*
X129860081Y-83896676D01*
X129189852Y-83226447D01*
X129182312Y-83218161D01*
X129178200Y-83211682D01*
X129167690Y-83201812D01*
X129128549Y-83165057D01*
X129125707Y-83162302D01*
X129105970Y-83142565D01*
X129102773Y-83140085D01*
X129093751Y-83132380D01*
X129067300Y-83107541D01*
X129061521Y-83102114D01*
X129054575Y-83098295D01*
X129054572Y-83098293D01*
X129043766Y-83092352D01*
X129027247Y-83081501D01*
X129026783Y-83081141D01*
X129011241Y-83069086D01*
X129003972Y-83065941D01*
X129003968Y-83065938D01*
X128970663Y-83051526D01*
X128960013Y-83046309D01*
X128921260Y-83025005D01*
X128901637Y-83019967D01*
X128882934Y-83013563D01*
X128871620Y-83008667D01*
X128871619Y-83008667D01*
X128864345Y-83005519D01*
X128856522Y-83004280D01*
X128856512Y-83004277D01*
X128820676Y-82998601D01*
X128809056Y-82996195D01*
X128773911Y-82987172D01*
X128773910Y-82987172D01*
X128766230Y-82985200D01*
X128745976Y-82985200D01*
X128726265Y-82983649D01*
X128714086Y-82981720D01*
X128706257Y-82980480D01*
X128698365Y-82981226D01*
X128662239Y-82984641D01*
X128650381Y-82985200D01*
X123878895Y-82985200D01*
X123810774Y-82965198D01*
X123789800Y-82948295D01*
X123695100Y-82853595D01*
X123661074Y-82791283D01*
X123666139Y-82720468D01*
X123708686Y-82663632D01*
X123775206Y-82638821D01*
X123784195Y-82638500D01*
X125358134Y-82638500D01*
X125420316Y-82631745D01*
X125556705Y-82580615D01*
X125673261Y-82493261D01*
X125760615Y-82376705D01*
X125782799Y-82317529D01*
X125804598Y-82259382D01*
X125847240Y-82202618D01*
X125913802Y-82177918D01*
X125983150Y-82193126D01*
X126017817Y-82221114D01*
X126046250Y-82253938D01*
X126218126Y-82396632D01*
X126411000Y-82509338D01*
X126619692Y-82589030D01*
X126624760Y-82590061D01*
X126624763Y-82590062D01*
X126719862Y-82609410D01*
X126838597Y-82633567D01*
X126843772Y-82633757D01*
X126843774Y-82633757D01*
X127056673Y-82641564D01*
X127056677Y-82641564D01*
X127061837Y-82641753D01*
X127066957Y-82641097D01*
X127066959Y-82641097D01*
X127278288Y-82614025D01*
X127278289Y-82614025D01*
X127283416Y-82613368D01*
X127288366Y-82611883D01*
X127492429Y-82550661D01*
X127492434Y-82550659D01*
X127497384Y-82549174D01*
X127697994Y-82450896D01*
X127879860Y-82321173D01*
X128038096Y-82163489D01*
X128168453Y-81982077D01*
X128169776Y-81983028D01*
X128216645Y-81939857D01*
X128286580Y-81927625D01*
X128352026Y-81955144D01*
X128379875Y-81986994D01*
X128439987Y-82085088D01*
X128586250Y-82253938D01*
X128758126Y-82396632D01*
X128951000Y-82509338D01*
X129159692Y-82589030D01*
X129164760Y-82590061D01*
X129164763Y-82590062D01*
X129259862Y-82609410D01*
X129378597Y-82633567D01*
X129383772Y-82633757D01*
X129383774Y-82633757D01*
X129596673Y-82641564D01*
X129596677Y-82641564D01*
X129601837Y-82641753D01*
X129606957Y-82641097D01*
X129606959Y-82641097D01*
X129818288Y-82614025D01*
X129818289Y-82614025D01*
X129823416Y-82613368D01*
X129828366Y-82611883D01*
X130032429Y-82550661D01*
X130032434Y-82550659D01*
X130037384Y-82549174D01*
X130237994Y-82450896D01*
X130419860Y-82321173D01*
X130578096Y-82163489D01*
X130708453Y-81982077D01*
X130709776Y-81983028D01*
X130756645Y-81939857D01*
X130826580Y-81927625D01*
X130892026Y-81955144D01*
X130919875Y-81986994D01*
X130979987Y-82085088D01*
X131126250Y-82253938D01*
X131298126Y-82396632D01*
X131491000Y-82509338D01*
X131699692Y-82589030D01*
X131704760Y-82590061D01*
X131704763Y-82590062D01*
X131799862Y-82609410D01*
X131918597Y-82633567D01*
X131923772Y-82633757D01*
X131923774Y-82633757D01*
X132136673Y-82641564D01*
X132136677Y-82641564D01*
X132141837Y-82641753D01*
X132146957Y-82641097D01*
X132146959Y-82641097D01*
X132358288Y-82614025D01*
X132358289Y-82614025D01*
X132363416Y-82613368D01*
X132368366Y-82611883D01*
X132572429Y-82550661D01*
X132572434Y-82550659D01*
X132577384Y-82549174D01*
X132777994Y-82450896D01*
X132959860Y-82321173D01*
X133118096Y-82163489D01*
X133248453Y-81982077D01*
X133249776Y-81983028D01*
X133296645Y-81939857D01*
X133366580Y-81927625D01*
X133432026Y-81955144D01*
X133459875Y-81986994D01*
X133519987Y-82085088D01*
X133666250Y-82253938D01*
X133838126Y-82396632D01*
X134031000Y-82509338D01*
X134239692Y-82589030D01*
X134244760Y-82590061D01*
X134244763Y-82590062D01*
X134339862Y-82609410D01*
X134458597Y-82633567D01*
X134463772Y-82633757D01*
X134463774Y-82633757D01*
X134676673Y-82641564D01*
X134676677Y-82641564D01*
X134681837Y-82641753D01*
X134686957Y-82641097D01*
X134686959Y-82641097D01*
X134898288Y-82614025D01*
X134898289Y-82614025D01*
X134903416Y-82613368D01*
X134908366Y-82611883D01*
X135112429Y-82550661D01*
X135112434Y-82550659D01*
X135117384Y-82549174D01*
X135317994Y-82450896D01*
X135499860Y-82321173D01*
X135658096Y-82163489D01*
X135788453Y-81982077D01*
X135789776Y-81983028D01*
X135836645Y-81939857D01*
X135906580Y-81927625D01*
X135972026Y-81955144D01*
X135999875Y-81986994D01*
X136059987Y-82085088D01*
X136206250Y-82253938D01*
X136378126Y-82396632D01*
X136571000Y-82509338D01*
X136779692Y-82589030D01*
X136784760Y-82590061D01*
X136784763Y-82590062D01*
X136879862Y-82609410D01*
X136998597Y-82633567D01*
X137003772Y-82633757D01*
X137003774Y-82633757D01*
X137216673Y-82641564D01*
X137216677Y-82641564D01*
X137221837Y-82641753D01*
X137226957Y-82641097D01*
X137226959Y-82641097D01*
X137438288Y-82614025D01*
X137438289Y-82614025D01*
X137443416Y-82613368D01*
X137448366Y-82611883D01*
X137652429Y-82550661D01*
X137652434Y-82550659D01*
X137657384Y-82549174D01*
X137857994Y-82450896D01*
X138039860Y-82321173D01*
X138198096Y-82163489D01*
X138328453Y-81982077D01*
X138329640Y-81982930D01*
X138376960Y-81939362D01*
X138446897Y-81927145D01*
X138512338Y-81954678D01*
X138540166Y-81986511D01*
X138597694Y-82080388D01*
X138603777Y-82088699D01*
X138743213Y-82249667D01*
X138750580Y-82256883D01*
X138914434Y-82392916D01*
X138922881Y-82398831D01*
X139106756Y-82506279D01*
X139116042Y-82510729D01*
X139315001Y-82586703D01*
X139324899Y-82589579D01*
X139428250Y-82610606D01*
X139442299Y-82609410D01*
X139446000Y-82599065D01*
X139446000Y-82598517D01*
X139954000Y-82598517D01*
X139958064Y-82612359D01*
X139971478Y-82614393D01*
X139978184Y-82613534D01*
X139988262Y-82611392D01*
X140192255Y-82550191D01*
X140201842Y-82546433D01*
X140393095Y-82452739D01*
X140401945Y-82447464D01*
X140575328Y-82323792D01*
X140583200Y-82317139D01*
X140734052Y-82166812D01*
X140740730Y-82158965D01*
X140865003Y-81986020D01*
X140870313Y-81977183D01*
X140964670Y-81786267D01*
X140968469Y-81776672D01*
X141030377Y-81572910D01*
X141032555Y-81562837D01*
X141033986Y-81551962D01*
X141031775Y-81537778D01*
X141018617Y-81534000D01*
X139972115Y-81534000D01*
X139956876Y-81538475D01*
X139955671Y-81539865D01*
X139954000Y-81547548D01*
X139954000Y-82598517D01*
X139446000Y-82598517D01*
X139446000Y-81007885D01*
X139954000Y-81007885D01*
X139958475Y-81023124D01*
X139959865Y-81024329D01*
X139967548Y-81026000D01*
X141018344Y-81026000D01*
X141031875Y-81022027D01*
X141033180Y-81012947D01*
X140991214Y-80845875D01*
X140987894Y-80836124D01*
X140902972Y-80640814D01*
X140898105Y-80631739D01*
X140782426Y-80452926D01*
X140776136Y-80444757D01*
X140632806Y-80287240D01*
X140625273Y-80280215D01*
X140458139Y-80148222D01*
X140449552Y-80142517D01*
X140263117Y-80039599D01*
X140253705Y-80035369D01*
X140052959Y-79964280D01*
X140042988Y-79961646D01*
X139971837Y-79948972D01*
X139958540Y-79950432D01*
X139954000Y-79964989D01*
X139954000Y-81007885D01*
X139446000Y-81007885D01*
X139446000Y-79963102D01*
X139442082Y-79949758D01*
X139427806Y-79947771D01*
X139389324Y-79953660D01*
X139379288Y-79956051D01*
X139176868Y-80022212D01*
X139167359Y-80026209D01*
X138978463Y-80124542D01*
X138969738Y-80130036D01*
X138799433Y-80257905D01*
X138791726Y-80264748D01*
X138644590Y-80418717D01*
X138638109Y-80426722D01*
X138533498Y-80580074D01*
X138478587Y-80625076D01*
X138408062Y-80633247D01*
X138344315Y-80601993D01*
X138323618Y-80577509D01*
X138242822Y-80452617D01*
X138242820Y-80452614D01*
X138240014Y-80448277D01*
X138089670Y-80283051D01*
X138085619Y-80279852D01*
X138085615Y-80279848D01*
X137918414Y-80147800D01*
X137918410Y-80147798D01*
X137914359Y-80144598D01*
X137909492Y-80141911D01*
X137798312Y-80080537D01*
X137718789Y-80036638D01*
X137713920Y-80034914D01*
X137713916Y-80034912D01*
X137513087Y-79963795D01*
X137513083Y-79963794D01*
X137508212Y-79962069D01*
X137503119Y-79961162D01*
X137503116Y-79961161D01*
X137293373Y-79923800D01*
X137293367Y-79923799D01*
X137288284Y-79922894D01*
X137214452Y-79921992D01*
X137070081Y-79920228D01*
X137070079Y-79920228D01*
X137064911Y-79920165D01*
X136844091Y-79953955D01*
X136631756Y-80023357D01*
X136553455Y-80064118D01*
X136452844Y-80116493D01*
X136433607Y-80126507D01*
X136429474Y-80129610D01*
X136429471Y-80129612D01*
X136297501Y-80228698D01*
X136254965Y-80260635D01*
X136100629Y-80422138D01*
X135993201Y-80579621D01*
X135938293Y-80624621D01*
X135867768Y-80632792D01*
X135804021Y-80601538D01*
X135783324Y-80577054D01*
X135702822Y-80452617D01*
X135702820Y-80452614D01*
X135700014Y-80448277D01*
X135549670Y-80283051D01*
X135545619Y-80279852D01*
X135545615Y-80279848D01*
X135378414Y-80147800D01*
X135378410Y-80147798D01*
X135374359Y-80144598D01*
X135369492Y-80141911D01*
X135258312Y-80080537D01*
X135178789Y-80036638D01*
X135173920Y-80034914D01*
X135173916Y-80034912D01*
X135034474Y-79985533D01*
X134976938Y-79943939D01*
X134951022Y-79877841D01*
X134964956Y-79808225D01*
X134987436Y-79777668D01*
X135935802Y-78829303D01*
X135998112Y-78795279D01*
X136024895Y-78792400D01*
X136080787Y-78792400D01*
X136087239Y-78791028D01*
X136087244Y-78791028D01*
X136174188Y-78772547D01*
X136267588Y-78752694D01*
X136273619Y-78750009D01*
X136436022Y-78677703D01*
X136436024Y-78677702D01*
X136442052Y-78675018D01*
X136596553Y-78562766D01*
X136674278Y-78476444D01*
X136719921Y-78425752D01*
X136719922Y-78425751D01*
X136724340Y-78420844D01*
X136796702Y-78295509D01*
X136816523Y-78261179D01*
X136816524Y-78261178D01*
X136819827Y-78255456D01*
X136878842Y-78073828D01*
X136883355Y-78030891D01*
X136897971Y-77891829D01*
X136924984Y-77826172D01*
X136983206Y-77785543D01*
X137023281Y-77779000D01*
X141147851Y-77779000D01*
X141215972Y-77799002D01*
G37*
%TD.AperFunction*%
%TA.AperFunction,Conductor*%
G36*
X118081045Y-76006521D02*
G01*
X118128672Y-76059173D01*
X118141200Y-76113947D01*
X118141200Y-76734133D01*
X118140673Y-76745316D01*
X118138998Y-76752809D01*
X118139247Y-76760735D01*
X118139247Y-76760736D01*
X118141138Y-76820886D01*
X118141200Y-76824845D01*
X118141200Y-76852756D01*
X118141697Y-76856690D01*
X118141697Y-76856691D01*
X118141705Y-76856756D01*
X118142638Y-76868593D01*
X118144027Y-76912789D01*
X118147083Y-76923307D01*
X118149678Y-76932239D01*
X118153687Y-76951600D01*
X118156226Y-76971697D01*
X118159144Y-76979067D01*
X118161116Y-76986748D01*
X118158324Y-76987465D01*
X118163558Y-77044539D01*
X118130789Y-77107521D01*
X118069172Y-77142789D01*
X117998269Y-77139145D01*
X117950830Y-77109325D01*
X117244160Y-76402655D01*
X117210134Y-76340343D01*
X117215199Y-76269528D01*
X117257746Y-76212692D01*
X117322990Y-76189457D01*
X117322866Y-76188000D01*
X117489325Y-76173876D01*
X117499797Y-76172086D01*
X117712535Y-76116870D01*
X117722575Y-76113335D01*
X117922970Y-76023063D01*
X117932260Y-76017892D01*
X117944835Y-76009426D01*
X118012513Y-75987976D01*
X118081045Y-76006521D01*
G37*
%TD.AperFunction*%
%TA.AperFunction,Conductor*%
G36*
X159962121Y-51328502D02*
G01*
X160008614Y-51382158D01*
X160020000Y-51434500D01*
X160020000Y-58294000D01*
X159999998Y-58362121D01*
X159946342Y-58408614D01*
X159894000Y-58420000D01*
X158084500Y-58420000D01*
X158016379Y-58399998D01*
X157969886Y-58346342D01*
X157958500Y-58294000D01*
X157958500Y-56461866D01*
X157951745Y-56399684D01*
X157900615Y-56263295D01*
X157813261Y-56146739D01*
X157696705Y-56059385D01*
X157560316Y-56008255D01*
X157498134Y-56001500D01*
X155421866Y-56001500D01*
X155359684Y-56008255D01*
X155223295Y-56059385D01*
X155106739Y-56146739D01*
X155019385Y-56263295D01*
X154968255Y-56399684D01*
X154961500Y-56461866D01*
X154961500Y-56630420D01*
X154941498Y-56698541D01*
X154887842Y-56745034D01*
X154870029Y-56750795D01*
X154870133Y-56751117D01*
X154869255Y-56751402D01*
X154865871Y-56752140D01*
X154860188Y-56753978D01*
X154857156Y-56754584D01*
X154851289Y-56755971D01*
X154844019Y-56756818D01*
X154837143Y-56759314D01*
X154837134Y-56759316D01*
X154775402Y-56781725D01*
X154771298Y-56783135D01*
X154701801Y-56805648D01*
X154695546Y-56809444D01*
X154690087Y-56811943D01*
X154684639Y-56814671D01*
X154677763Y-56817167D01*
X154616710Y-56857195D01*
X154613037Y-56859513D01*
X154550593Y-56897405D01*
X154542217Y-56904802D01*
X154542193Y-56904775D01*
X154539199Y-56907430D01*
X154535968Y-56910132D01*
X154529848Y-56914144D01*
X154524816Y-56919456D01*
X154476572Y-56970383D01*
X154474194Y-56972825D01*
X149647995Y-61799024D01*
X149585683Y-61833050D01*
X149514868Y-61827985D01*
X149458032Y-61785438D01*
X149433221Y-61718918D01*
X149432900Y-61709929D01*
X149432900Y-59113024D01*
X149452902Y-59044903D01*
X149465258Y-59028721D01*
X149538440Y-58947444D01*
X149596714Y-58846510D01*
X149630623Y-58787779D01*
X149630624Y-58787778D01*
X149633927Y-58782056D01*
X149692942Y-58600428D01*
X149693847Y-58591824D01*
X149712214Y-58417065D01*
X149712904Y-58410500D01*
X149705767Y-58342596D01*
X149693632Y-58227135D01*
X149693632Y-58227133D01*
X149692942Y-58220572D01*
X149633927Y-58038944D01*
X149538440Y-57873556D01*
X149520039Y-57853119D01*
X149415075Y-57736545D01*
X149415074Y-57736544D01*
X149410653Y-57731634D01*
X149256152Y-57619382D01*
X149250124Y-57616698D01*
X149250122Y-57616697D01*
X149087719Y-57544391D01*
X149087718Y-57544391D01*
X149081688Y-57541706D01*
X148988288Y-57521853D01*
X148901344Y-57503372D01*
X148901339Y-57503372D01*
X148894887Y-57502000D01*
X148703913Y-57502000D01*
X148697461Y-57503372D01*
X148697456Y-57503372D01*
X148610512Y-57521853D01*
X148517112Y-57541706D01*
X148511082Y-57544391D01*
X148511081Y-57544391D01*
X148348678Y-57616697D01*
X148348676Y-57616698D01*
X148342648Y-57619382D01*
X148188147Y-57731634D01*
X148183726Y-57736544D01*
X148183725Y-57736545D01*
X148078762Y-57853119D01*
X148060360Y-57873556D01*
X147964873Y-58038944D01*
X147905858Y-58220572D01*
X147905168Y-58227133D01*
X147905168Y-58227135D01*
X147893033Y-58342596D01*
X147885896Y-58410500D01*
X147886586Y-58417065D01*
X147904954Y-58591824D01*
X147905858Y-58600428D01*
X147964873Y-58782056D01*
X147968176Y-58787778D01*
X147968177Y-58787779D01*
X148002086Y-58846510D01*
X148060360Y-58947444D01*
X148133537Y-59028715D01*
X148164253Y-59092721D01*
X148165900Y-59113024D01*
X148165900Y-62202225D01*
X148145898Y-62270346D01*
X148092242Y-62316839D01*
X148021968Y-62326943D01*
X147979006Y-62312533D01*
X147883116Y-62259599D01*
X147873705Y-62255369D01*
X147672959Y-62184280D01*
X147662989Y-62181646D01*
X147453327Y-62144301D01*
X147443073Y-62143331D01*
X147230116Y-62140728D01*
X147219832Y-62141448D01*
X147009321Y-62173661D01*
X146999293Y-62176050D01*
X146796868Y-62242212D01*
X146787359Y-62246209D01*
X146598466Y-62344540D01*
X146589734Y-62350039D01*
X146569677Y-62365099D01*
X146561223Y-62376427D01*
X146567968Y-62388758D01*
X147590115Y-63410905D01*
X147624141Y-63473217D01*
X147619076Y-63544032D01*
X147590115Y-63589095D01*
X146566737Y-64612473D01*
X146559977Y-64624853D01*
X146565258Y-64631907D01*
X146611969Y-64659203D01*
X146660693Y-64710841D01*
X146673764Y-64780624D01*
X146647033Y-64846396D01*
X146606584Y-64879752D01*
X146593607Y-64886507D01*
X146589474Y-64889610D01*
X146589471Y-64889612D01*
X146420520Y-65016464D01*
X146414965Y-65020635D01*
X146411393Y-65024373D01*
X146267292Y-65175166D01*
X146260629Y-65182138D01*
X146153201Y-65339621D01*
X146098293Y-65384621D01*
X146027768Y-65392792D01*
X145964021Y-65361538D01*
X145943324Y-65337054D01*
X145862822Y-65212617D01*
X145862820Y-65212614D01*
X145860014Y-65208277D01*
X145709670Y-65043051D01*
X145667006Y-65009357D01*
X145625944Y-64951441D01*
X145622712Y-64880518D01*
X145658337Y-64819107D01*
X145691647Y-64796376D01*
X145697007Y-64793865D01*
X145703946Y-64791550D01*
X145854348Y-64698478D01*
X145979305Y-64573303D01*
X146018868Y-64509121D01*
X146068275Y-64428968D01*
X146068276Y-64428966D01*
X146072115Y-64422738D01*
X146096913Y-64347975D01*
X146137342Y-64289616D01*
X146166630Y-64271934D01*
X146205694Y-64255096D01*
X146947978Y-63512812D01*
X146955592Y-63498868D01*
X146955461Y-63497035D01*
X146951210Y-63490420D01*
X146209849Y-62749059D01*
X146169510Y-62727031D01*
X146156523Y-62724206D01*
X146106322Y-62674003D01*
X146097388Y-62653497D01*
X146073870Y-62583007D01*
X146073869Y-62583005D01*
X146071550Y-62576054D01*
X145978478Y-62425652D01*
X145853303Y-62300695D01*
X145804068Y-62270346D01*
X145708968Y-62211725D01*
X145708966Y-62211724D01*
X145702738Y-62207885D01*
X145542254Y-62154655D01*
X145541389Y-62154368D01*
X145541387Y-62154368D01*
X145534861Y-62152203D01*
X145528025Y-62151503D01*
X145528022Y-62151502D01*
X145481923Y-62146779D01*
X145430400Y-62141500D01*
X144129600Y-62141500D01*
X144126354Y-62141837D01*
X144126350Y-62141837D01*
X144030692Y-62151762D01*
X144030688Y-62151763D01*
X144023834Y-62152474D01*
X144017298Y-62154655D01*
X144017296Y-62154655D01*
X143913771Y-62189194D01*
X143856054Y-62208450D01*
X143705652Y-62301522D01*
X143580695Y-62426697D01*
X143487885Y-62577262D01*
X143432203Y-62745139D01*
X143421500Y-62849600D01*
X143421500Y-63733629D01*
X143401498Y-63801750D01*
X143384595Y-63822724D01*
X137122724Y-70084595D01*
X137060412Y-70118621D01*
X137033629Y-70121500D01*
X135036094Y-70121500D01*
X134967973Y-70101498D01*
X134921480Y-70047842D01*
X134911376Y-69977568D01*
X134940870Y-69912988D01*
X134946999Y-69906405D01*
X137261702Y-67591703D01*
X139603000Y-65250405D01*
X139665312Y-65216379D01*
X139692095Y-65213500D01*
X139747987Y-65213500D01*
X139754439Y-65212128D01*
X139754444Y-65212128D01*
X139841387Y-65193647D01*
X139934788Y-65173794D01*
X139961918Y-65161715D01*
X140103222Y-65098803D01*
X140103224Y-65098802D01*
X140109252Y-65096118D01*
X140263753Y-64983866D01*
X140292949Y-64951441D01*
X140387121Y-64846852D01*
X140387122Y-64846851D01*
X140391540Y-64841944D01*
X140487027Y-64676556D01*
X140546042Y-64494928D01*
X140548341Y-64473060D01*
X140565314Y-64311565D01*
X140566004Y-64305000D01*
X140549755Y-64150400D01*
X140546732Y-64121635D01*
X140546732Y-64121633D01*
X140546042Y-64115072D01*
X140487027Y-63933444D01*
X140391540Y-63768056D01*
X140263753Y-63626134D01*
X140109252Y-63513882D01*
X140103224Y-63511198D01*
X140103222Y-63511197D01*
X139940819Y-63438891D01*
X139940818Y-63438891D01*
X139934788Y-63436206D01*
X139809246Y-63409521D01*
X139754444Y-63397872D01*
X139754439Y-63397872D01*
X139747987Y-63396500D01*
X139557013Y-63396500D01*
X139550561Y-63397872D01*
X139550556Y-63397872D01*
X139495754Y-63409521D01*
X139370212Y-63436206D01*
X139364182Y-63438891D01*
X139364181Y-63438891D01*
X139201778Y-63511197D01*
X139201776Y-63511198D01*
X139195748Y-63513882D01*
X139041247Y-63626134D01*
X138913460Y-63768056D01*
X138817973Y-63933444D01*
X138758958Y-64115072D01*
X138758268Y-64121633D01*
X138758268Y-64121635D01*
X138755245Y-64150400D01*
X138742472Y-64271934D01*
X138741593Y-64280293D01*
X138714580Y-64345950D01*
X138705378Y-64356218D01*
X134413595Y-68648000D01*
X134351283Y-68682026D01*
X134280467Y-68676961D01*
X134223632Y-68634414D01*
X134198821Y-68567894D01*
X134198500Y-68558905D01*
X134198500Y-67781866D01*
X134191745Y-67719684D01*
X134140615Y-67583295D01*
X134082047Y-67505148D01*
X134057199Y-67438642D01*
X134072252Y-67369259D01*
X134082047Y-67354018D01*
X134134786Y-67283648D01*
X134143324Y-67268054D01*
X134188478Y-67147606D01*
X134192105Y-67132351D01*
X134197631Y-67081486D01*
X134198000Y-67074672D01*
X134198000Y-66552115D01*
X134193525Y-66536876D01*
X134192135Y-66535671D01*
X134184452Y-66534000D01*
X131200116Y-66534000D01*
X131184877Y-66538475D01*
X131183672Y-66539865D01*
X131182001Y-66547548D01*
X131182001Y-67074669D01*
X131182371Y-67081490D01*
X131187895Y-67132352D01*
X131191521Y-67147604D01*
X131236676Y-67268054D01*
X131245214Y-67283648D01*
X131297953Y-67354018D01*
X131322801Y-67420524D01*
X131307748Y-67489907D01*
X131297953Y-67505148D01*
X131239385Y-67583295D01*
X131236233Y-67591703D01*
X131191029Y-67712285D01*
X131188255Y-67719684D01*
X131187628Y-67725453D01*
X131152874Y-67786291D01*
X131089919Y-67819113D01*
X131065507Y-67821500D01*
X128024500Y-67821500D01*
X127956379Y-67801498D01*
X127909886Y-67747842D01*
X127898500Y-67695500D01*
X127898500Y-66631866D01*
X127891745Y-66569684D01*
X127840615Y-66433295D01*
X127753261Y-66316739D01*
X127636705Y-66229385D01*
X127500316Y-66178255D01*
X127438134Y-66171500D01*
X127274500Y-66171500D01*
X127206379Y-66151498D01*
X127159886Y-66097842D01*
X127148500Y-66045500D01*
X127148500Y-66007885D01*
X131182000Y-66007885D01*
X131186475Y-66023124D01*
X131187865Y-66024329D01*
X131195548Y-66026000D01*
X132417885Y-66026000D01*
X132433124Y-66021525D01*
X132434329Y-66020135D01*
X132436000Y-66012452D01*
X132436000Y-66007885D01*
X132944000Y-66007885D01*
X132948475Y-66023124D01*
X132949865Y-66024329D01*
X132957548Y-66026000D01*
X134179884Y-66026000D01*
X134195123Y-66021525D01*
X134196328Y-66020135D01*
X134197999Y-66012452D01*
X134197999Y-65485331D01*
X134197629Y-65478510D01*
X134192105Y-65427648D01*
X134188479Y-65412396D01*
X134143324Y-65291946D01*
X134134786Y-65276351D01*
X134058285Y-65174276D01*
X134045724Y-65161715D01*
X133943649Y-65085214D01*
X133928054Y-65076676D01*
X133807606Y-65031522D01*
X133792351Y-65027895D01*
X133741486Y-65022369D01*
X133734672Y-65022000D01*
X132962115Y-65022000D01*
X132946876Y-65026475D01*
X132945671Y-65027865D01*
X132944000Y-65035548D01*
X132944000Y-66007885D01*
X132436000Y-66007885D01*
X132436000Y-65040116D01*
X132431525Y-65024877D01*
X132430135Y-65023672D01*
X132422452Y-65022001D01*
X131645331Y-65022001D01*
X131638510Y-65022371D01*
X131587648Y-65027895D01*
X131572396Y-65031521D01*
X131451946Y-65076676D01*
X131436351Y-65085214D01*
X131334276Y-65161715D01*
X131321715Y-65174276D01*
X131245214Y-65276351D01*
X131236676Y-65291946D01*
X131191522Y-65412394D01*
X131187895Y-65427649D01*
X131182369Y-65478514D01*
X131182000Y-65485328D01*
X131182000Y-66007885D01*
X127148500Y-66007885D01*
X127148500Y-64682470D01*
X127149933Y-64663520D01*
X127152099Y-64649285D01*
X127152099Y-64649281D01*
X127153199Y-64642051D01*
X127148915Y-64589382D01*
X127148500Y-64579167D01*
X127148500Y-64571107D01*
X127145209Y-64542880D01*
X127144778Y-64538521D01*
X127144591Y-64536224D01*
X127138860Y-64465764D01*
X127136605Y-64458803D01*
X127135418Y-64452863D01*
X127134029Y-64446988D01*
X127133182Y-64439719D01*
X127108264Y-64371070D01*
X127106847Y-64366942D01*
X127086607Y-64304464D01*
X127086606Y-64304462D01*
X127084351Y-64297501D01*
X127080555Y-64291246D01*
X127078049Y-64285772D01*
X127075330Y-64280342D01*
X127072833Y-64273463D01*
X127060637Y-64254861D01*
X127032814Y-64212424D01*
X127030467Y-64208705D01*
X126992595Y-64146293D01*
X126985197Y-64137916D01*
X126985224Y-64137892D01*
X126982571Y-64134900D01*
X126979868Y-64131667D01*
X126975856Y-64125548D01*
X126919617Y-64072272D01*
X126917175Y-64069894D01*
X126299724Y-63452443D01*
X126268986Y-63402284D01*
X126267553Y-63397872D01*
X126214126Y-63233443D01*
X126210822Y-63227720D01*
X126208138Y-63221692D01*
X126209569Y-63221055D01*
X126194716Y-63159807D01*
X126217943Y-63092718D01*
X126273754Y-63048835D01*
X126344430Y-63042093D01*
X126360224Y-63046216D01*
X126395139Y-63057797D01*
X126401975Y-63058497D01*
X126401978Y-63058498D01*
X126445031Y-63062909D01*
X126499600Y-63068500D01*
X127500400Y-63068500D01*
X127503646Y-63068163D01*
X127503650Y-63068163D01*
X127599308Y-63058238D01*
X127599312Y-63058237D01*
X127606166Y-63057526D01*
X127612702Y-63055345D01*
X127612704Y-63055345D01*
X127744806Y-63011272D01*
X127773946Y-63001550D01*
X127924348Y-62908478D01*
X128049305Y-62783303D01*
X128068614Y-62751978D01*
X128138275Y-62638968D01*
X128138276Y-62638966D01*
X128142115Y-62632738D01*
X128197797Y-62464861D01*
X128208500Y-62360400D01*
X128208500Y-61559600D01*
X128208163Y-61556350D01*
X128198238Y-61460692D01*
X128198237Y-61460688D01*
X128197526Y-61453834D01*
X128194296Y-61444151D01*
X128149424Y-61309655D01*
X128141550Y-61286054D01*
X128048478Y-61135652D01*
X127961891Y-61049216D01*
X127927812Y-60986934D01*
X127932815Y-60916114D01*
X127961736Y-60871025D01*
X128044134Y-60788483D01*
X128049305Y-60783303D01*
X128064184Y-60759165D01*
X128138275Y-60638968D01*
X128138276Y-60638966D01*
X128142115Y-60632738D01*
X128178689Y-60522469D01*
X128195632Y-60471389D01*
X128195632Y-60471387D01*
X128197797Y-60464861D01*
X128199081Y-60452335D01*
X128208172Y-60363598D01*
X128208500Y-60360400D01*
X128208500Y-59559600D01*
X128197526Y-59453834D01*
X128166643Y-59361265D01*
X128143868Y-59293002D01*
X128141550Y-59286054D01*
X128048478Y-59135652D01*
X127923303Y-59010695D01*
X127909340Y-59002088D01*
X127778968Y-58921725D01*
X127778966Y-58921724D01*
X127772738Y-58917885D01*
X127678814Y-58886732D01*
X127611389Y-58864368D01*
X127611387Y-58864368D01*
X127604861Y-58862203D01*
X127598023Y-58861502D01*
X127598021Y-58861502D01*
X127585742Y-58860244D01*
X127520014Y-58833403D01*
X127479232Y-58775288D01*
X127476344Y-58704350D01*
X127512266Y-58643112D01*
X127575593Y-58611015D01*
X127598584Y-58608900D01*
X129780806Y-58608900D01*
X129848927Y-58628902D01*
X129869901Y-58645805D01*
X130834595Y-59610499D01*
X130868621Y-59672811D01*
X130871500Y-59699594D01*
X130871500Y-60360400D01*
X130871837Y-60363646D01*
X130871837Y-60363650D01*
X130880820Y-60450221D01*
X130882474Y-60466166D01*
X130884655Y-60472702D01*
X130884655Y-60472704D01*
X130904392Y-60531863D01*
X130938450Y-60633946D01*
X131031522Y-60784348D01*
X131074279Y-60827030D01*
X131118109Y-60870784D01*
X131152188Y-60933066D01*
X131147185Y-61003886D01*
X131118264Y-61048975D01*
X131102499Y-61064768D01*
X131030695Y-61136697D01*
X131026855Y-61142927D01*
X131026854Y-61142928D01*
X130941728Y-61281028D01*
X130937885Y-61287262D01*
X130928829Y-61314566D01*
X130885848Y-61444151D01*
X130882203Y-61455139D01*
X130881503Y-61461975D01*
X130881502Y-61461978D01*
X130879763Y-61478949D01*
X130871500Y-61559600D01*
X130871500Y-62360400D01*
X130871837Y-62363646D01*
X130871837Y-62363650D01*
X130880662Y-62448698D01*
X130882474Y-62466166D01*
X130938450Y-62633946D01*
X131031522Y-62784348D01*
X131156697Y-62909305D01*
X131162927Y-62913145D01*
X131162928Y-62913146D01*
X131300619Y-62998020D01*
X131307262Y-63002115D01*
X131387005Y-63028564D01*
X131468611Y-63055632D01*
X131468613Y-63055632D01*
X131475139Y-63057797D01*
X131481975Y-63058497D01*
X131481978Y-63058498D01*
X131525031Y-63062909D01*
X131579600Y-63068500D01*
X132580400Y-63068500D01*
X132583646Y-63068163D01*
X132583650Y-63068163D01*
X132679308Y-63058238D01*
X132679312Y-63058237D01*
X132686166Y-63057526D01*
X132692702Y-63055345D01*
X132692704Y-63055345D01*
X132824806Y-63011272D01*
X132853946Y-63001550D01*
X133004348Y-62908478D01*
X133129305Y-62783303D01*
X133148614Y-62751978D01*
X133218275Y-62638968D01*
X133218276Y-62638966D01*
X133222115Y-62632738D01*
X133277797Y-62464861D01*
X133288500Y-62360400D01*
X133288500Y-61699594D01*
X133308502Y-61631474D01*
X133325405Y-61610500D01*
X133685253Y-61250652D01*
X133693539Y-61243112D01*
X133700018Y-61239000D01*
X133746644Y-61189348D01*
X133749398Y-61186507D01*
X133769135Y-61166770D01*
X133771615Y-61163573D01*
X133779320Y-61154551D01*
X133801925Y-61130479D01*
X133809586Y-61122321D01*
X133813405Y-61115375D01*
X133813407Y-61115372D01*
X133819348Y-61104566D01*
X133830199Y-61088047D01*
X133837758Y-61078301D01*
X133842614Y-61072041D01*
X133845759Y-61064772D01*
X133845762Y-61064768D01*
X133860174Y-61031463D01*
X133865391Y-61020813D01*
X133886695Y-60982060D01*
X133891733Y-60962437D01*
X133898137Y-60943734D01*
X133903033Y-60932420D01*
X133903033Y-60932419D01*
X133906181Y-60925145D01*
X133907420Y-60917322D01*
X133907423Y-60917312D01*
X133913101Y-60881465D01*
X133915507Y-60869844D01*
X133916146Y-60867357D01*
X133926500Y-60827030D01*
X133926500Y-60806776D01*
X133928051Y-60787065D01*
X133929980Y-60774886D01*
X133931220Y-60767057D01*
X133927059Y-60723038D01*
X133926500Y-60711181D01*
X133926500Y-59040895D01*
X133946502Y-58972774D01*
X133963405Y-58951799D01*
X134269401Y-58645804D01*
X134331713Y-58611779D01*
X134358496Y-58608900D01*
X134371500Y-58608900D01*
X134439621Y-58628902D01*
X134486114Y-58682558D01*
X134497500Y-58734900D01*
X134497500Y-60074798D01*
X134480619Y-60137798D01*
X134423449Y-60236820D01*
X134407673Y-60264144D01*
X134348658Y-60445772D01*
X134347968Y-60452333D01*
X134347968Y-60452335D01*
X134338546Y-60541983D01*
X134328696Y-60635700D01*
X134329386Y-60642265D01*
X134346677Y-60806776D01*
X134348658Y-60825628D01*
X134407673Y-61007256D01*
X134410976Y-61012978D01*
X134410977Y-61012979D01*
X134431899Y-61049216D01*
X134503160Y-61172644D01*
X134507578Y-61177551D01*
X134507579Y-61177552D01*
X134599665Y-61279824D01*
X134630947Y-61314566D01*
X134668880Y-61342126D01*
X134748918Y-61400277D01*
X134785448Y-61426818D01*
X134791476Y-61429502D01*
X134791478Y-61429503D01*
X134951249Y-61500637D01*
X134959912Y-61504494D01*
X135024055Y-61518128D01*
X135140256Y-61542828D01*
X135140261Y-61542828D01*
X135146713Y-61544200D01*
X135337687Y-61544200D01*
X135344139Y-61542828D01*
X135344144Y-61542828D01*
X135460345Y-61518128D01*
X135524488Y-61504494D01*
X135641959Y-61452193D01*
X135712324Y-61442759D01*
X135776621Y-61472865D01*
X135782301Y-61478205D01*
X135914595Y-61610499D01*
X135948621Y-61672811D01*
X135951500Y-61699594D01*
X135951500Y-62360400D01*
X135951837Y-62363646D01*
X135951837Y-62363650D01*
X135960662Y-62448698D01*
X135962474Y-62466166D01*
X136018450Y-62633946D01*
X136111522Y-62784348D01*
X136236697Y-62909305D01*
X136242927Y-62913145D01*
X136242928Y-62913146D01*
X136380619Y-62998020D01*
X136387262Y-63002115D01*
X136467005Y-63028564D01*
X136548611Y-63055632D01*
X136548613Y-63055632D01*
X136555139Y-63057797D01*
X136561975Y-63058497D01*
X136561978Y-63058498D01*
X136605031Y-63062909D01*
X136659600Y-63068500D01*
X137660400Y-63068500D01*
X137663646Y-63068163D01*
X137663650Y-63068163D01*
X137759308Y-63058238D01*
X137759312Y-63058237D01*
X137766166Y-63057526D01*
X137772702Y-63055345D01*
X137772704Y-63055345D01*
X137904806Y-63011272D01*
X137933946Y-63001550D01*
X138084348Y-62908478D01*
X138209305Y-62783303D01*
X138228614Y-62751978D01*
X138298275Y-62638968D01*
X138298276Y-62638966D01*
X138302115Y-62632738D01*
X138357797Y-62464861D01*
X138368500Y-62360400D01*
X138368500Y-61559600D01*
X138368163Y-61556350D01*
X138358238Y-61460692D01*
X138358237Y-61460688D01*
X138357526Y-61453834D01*
X138354296Y-61444151D01*
X138309424Y-61309655D01*
X138301550Y-61286054D01*
X138208478Y-61135652D01*
X138121891Y-61049216D01*
X138087812Y-60986934D01*
X138092815Y-60916114D01*
X138121736Y-60871025D01*
X138204134Y-60788483D01*
X138209305Y-60783303D01*
X138224184Y-60759165D01*
X138289389Y-60653384D01*
X138342162Y-60605890D01*
X138396649Y-60593500D01*
X140227133Y-60593500D01*
X140238316Y-60594027D01*
X140245809Y-60595702D01*
X140253735Y-60595453D01*
X140253736Y-60595453D01*
X140313886Y-60593562D01*
X140317845Y-60593500D01*
X140345756Y-60593500D01*
X140349691Y-60593003D01*
X140349756Y-60592995D01*
X140361593Y-60592062D01*
X140393851Y-60591048D01*
X140397870Y-60590922D01*
X140405789Y-60590673D01*
X140425243Y-60585021D01*
X140444600Y-60581013D01*
X140456830Y-60579468D01*
X140456831Y-60579468D01*
X140464697Y-60578474D01*
X140472068Y-60575555D01*
X140472070Y-60575555D01*
X140505812Y-60562196D01*
X140517042Y-60558351D01*
X140551883Y-60548229D01*
X140551884Y-60548229D01*
X140559493Y-60546018D01*
X140566312Y-60541985D01*
X140566317Y-60541983D01*
X140576928Y-60535707D01*
X140594676Y-60527012D01*
X140613517Y-60519552D01*
X140649287Y-60493564D01*
X140659207Y-60487048D01*
X140690435Y-60468580D01*
X140690438Y-60468578D01*
X140697262Y-60464542D01*
X140711583Y-60450221D01*
X140726617Y-60437380D01*
X140736594Y-60430131D01*
X140743007Y-60425472D01*
X140771198Y-60391395D01*
X140779188Y-60382616D01*
X141805900Y-59355905D01*
X141868212Y-59321879D01*
X141894995Y-59319000D01*
X141950887Y-59319000D01*
X141957339Y-59317628D01*
X141957344Y-59317628D01*
X142102442Y-59286786D01*
X142173233Y-59292188D01*
X142217734Y-59320938D01*
X142460278Y-59563482D01*
X142494304Y-59625794D01*
X142496492Y-59639403D01*
X142513858Y-59804628D01*
X142572873Y-59986256D01*
X142576176Y-59991978D01*
X142576177Y-59991979D01*
X142579728Y-59998130D01*
X142668360Y-60151644D01*
X142750744Y-60243141D01*
X142760195Y-60253637D01*
X142790912Y-60317645D01*
X142782147Y-60388098D01*
X142755653Y-60427042D01*
X142723660Y-60459035D01*
X142661348Y-60493061D01*
X142590533Y-60487996D01*
X142583346Y-60485059D01*
X142505288Y-60450306D01*
X142454422Y-60439494D01*
X142324944Y-60411972D01*
X142324939Y-60411972D01*
X142318487Y-60410600D01*
X142127513Y-60410600D01*
X142121061Y-60411972D01*
X142121056Y-60411972D01*
X142035627Y-60430131D01*
X141940712Y-60450306D01*
X141934682Y-60452991D01*
X141934681Y-60452991D01*
X141772278Y-60525297D01*
X141772276Y-60525298D01*
X141766248Y-60527982D01*
X141760907Y-60531862D01*
X141760906Y-60531863D01*
X141724449Y-60558351D01*
X141611747Y-60640234D01*
X141607326Y-60645144D01*
X141607325Y-60645145D01*
X141488538Y-60777072D01*
X141483960Y-60782156D01*
X141388473Y-60947544D01*
X141329458Y-61129172D01*
X141328768Y-61135733D01*
X141328768Y-61135735D01*
X141324889Y-61172644D01*
X141309496Y-61319100D01*
X141310186Y-61325665D01*
X141326297Y-61478949D01*
X141329458Y-61509028D01*
X141388473Y-61690656D01*
X141391776Y-61696378D01*
X141391777Y-61696379D01*
X141399600Y-61709929D01*
X141483960Y-61856044D01*
X141488378Y-61860951D01*
X141488379Y-61860952D01*
X141556570Y-61936686D01*
X141611747Y-61997966D01*
X141675702Y-62044432D01*
X141739705Y-62090933D01*
X141766248Y-62110218D01*
X141772276Y-62112902D01*
X141772278Y-62112903D01*
X141934681Y-62185209D01*
X141940712Y-62187894D01*
X142026515Y-62206132D01*
X142121056Y-62226228D01*
X142121061Y-62226228D01*
X142127513Y-62227600D01*
X142318487Y-62227600D01*
X142324939Y-62226228D01*
X142324944Y-62226228D01*
X142419485Y-62206132D01*
X142505288Y-62187894D01*
X142511319Y-62185209D01*
X142673722Y-62112903D01*
X142673724Y-62112902D01*
X142679752Y-62110218D01*
X142706296Y-62090933D01*
X142828611Y-62002065D01*
X142834253Y-61997966D01*
X142838665Y-61993067D01*
X142838674Y-61993058D01*
X142855458Y-61974417D01*
X142915766Y-61937894D01*
X142918297Y-61937574D01*
X142925668Y-61934655D01*
X142925670Y-61934655D01*
X142959412Y-61921296D01*
X142970642Y-61917451D01*
X143005483Y-61907329D01*
X143005484Y-61907329D01*
X143013093Y-61905118D01*
X143019912Y-61901085D01*
X143019917Y-61901083D01*
X143030528Y-61894807D01*
X143048276Y-61886112D01*
X143067117Y-61878652D01*
X143102887Y-61852664D01*
X143112807Y-61846148D01*
X143144035Y-61827680D01*
X143144038Y-61827678D01*
X143150862Y-61823642D01*
X143165183Y-61809321D01*
X143180217Y-61796480D01*
X143190194Y-61789231D01*
X143196607Y-61784572D01*
X143224798Y-61750495D01*
X143232788Y-61741716D01*
X144552747Y-60421757D01*
X144561037Y-60414213D01*
X144567518Y-60410100D01*
X144614159Y-60360432D01*
X144616913Y-60357591D01*
X144636634Y-60337870D01*
X144639112Y-60334675D01*
X144646818Y-60325653D01*
X144671658Y-60299201D01*
X144677086Y-60293421D01*
X144686846Y-60275668D01*
X144697699Y-60259145D01*
X144705253Y-60249406D01*
X144710113Y-60243141D01*
X144727676Y-60202557D01*
X144732883Y-60191927D01*
X144754195Y-60153160D01*
X144756166Y-60145483D01*
X144756168Y-60145478D01*
X144759232Y-60133542D01*
X144765638Y-60114830D01*
X144770533Y-60103519D01*
X144773681Y-60096245D01*
X144774921Y-60088417D01*
X144774923Y-60088410D01*
X144780599Y-60052576D01*
X144783005Y-60040956D01*
X144792028Y-60005811D01*
X144792028Y-60005810D01*
X144794000Y-59998130D01*
X144794000Y-59977876D01*
X144795551Y-59958165D01*
X144797480Y-59945986D01*
X144798720Y-59938157D01*
X144794559Y-59894138D01*
X144794000Y-59882281D01*
X144794000Y-59131667D01*
X144794527Y-59120484D01*
X144796202Y-59112991D01*
X144794062Y-59044903D01*
X144794000Y-59040955D01*
X144794000Y-59013044D01*
X144793495Y-59009044D01*
X144792562Y-58997201D01*
X144792400Y-58992026D01*
X144791173Y-58953010D01*
X144785522Y-58933558D01*
X144781514Y-58914206D01*
X144779967Y-58901963D01*
X144778974Y-58894103D01*
X144776056Y-58886732D01*
X144762700Y-58852997D01*
X144758855Y-58841770D01*
X144756134Y-58832405D01*
X144746518Y-58799307D01*
X144742484Y-58792485D01*
X144742481Y-58792479D01*
X144736206Y-58781868D01*
X144727510Y-58764118D01*
X144722972Y-58752656D01*
X144722969Y-58752651D01*
X144720052Y-58745283D01*
X144694073Y-58709525D01*
X144687557Y-58699607D01*
X144669075Y-58668357D01*
X144665042Y-58661537D01*
X144650718Y-58647213D01*
X144637876Y-58632178D01*
X144635496Y-58628902D01*
X144625972Y-58615793D01*
X144591906Y-58587611D01*
X144583127Y-58579622D01*
X142458600Y-56455095D01*
X142424574Y-56392783D01*
X142429639Y-56321968D01*
X142472186Y-56265132D01*
X142538706Y-56240321D01*
X142547695Y-56240000D01*
X143540000Y-56240000D01*
X143540000Y-51434500D01*
X143560002Y-51366379D01*
X143613658Y-51319886D01*
X143666000Y-51308500D01*
X159894000Y-51308500D01*
X159962121Y-51328502D01*
G37*
%TD.AperFunction*%
%TD*%
M02*
