%TF.GenerationSoftware,KiCad,Pcbnew,(6.0.4)*%
%TF.CreationDate,2022-04-22T12:19:17+05:30*%
%TF.ProjectId,esp32 switch,65737033-3220-4737-9769-7463682e6b69,rev?*%
%TF.SameCoordinates,Original*%
%TF.FileFunction,Legend,Bot*%
%TF.FilePolarity,Positive*%
%FSLAX46Y46*%
G04 Gerber Fmt 4.6, Leading zero omitted, Abs format (unit mm)*
G04 Created by KiCad (PCBNEW (6.0.4)) date 2022-04-22 12:19:17*
%MOMM*%
%LPD*%
G01*
G04 APERTURE LIST*
%ADD10C,0.750000*%
%ADD11C,0.300000*%
%ADD12C,0.150000*%
%ADD13C,0.120000*%
G04 APERTURE END LIST*
D10*
X115697142Y-91225714D02*
X117982857Y-91225714D01*
X116840000Y-90082857D02*
X116840000Y-92368571D01*
D11*
X125880000Y-102403571D02*
X125880000Y-100903571D01*
X125522857Y-100903571D01*
X125308571Y-100975000D01*
X125165714Y-101117857D01*
X125094285Y-101260714D01*
X125022857Y-101546428D01*
X125022857Y-101760714D01*
X125094285Y-102046428D01*
X125165714Y-102189285D01*
X125308571Y-102332142D01*
X125522857Y-102403571D01*
X125880000Y-102403571D01*
X123808571Y-102332142D02*
X123951428Y-102403571D01*
X124237142Y-102403571D01*
X124380000Y-102332142D01*
X124451428Y-102189285D01*
X124451428Y-101617857D01*
X124380000Y-101475000D01*
X124237142Y-101403571D01*
X123951428Y-101403571D01*
X123808571Y-101475000D01*
X123737142Y-101617857D01*
X123737142Y-101760714D01*
X124451428Y-101903571D01*
X123165714Y-102332142D02*
X123022857Y-102403571D01*
X122737142Y-102403571D01*
X122594285Y-102332142D01*
X122522857Y-102189285D01*
X122522857Y-102117857D01*
X122594285Y-101975000D01*
X122737142Y-101903571D01*
X122951428Y-101903571D01*
X123094285Y-101832142D01*
X123165714Y-101689285D01*
X123165714Y-101617857D01*
X123094285Y-101475000D01*
X122951428Y-101403571D01*
X122737142Y-101403571D01*
X122594285Y-101475000D01*
X121880000Y-102403571D02*
X121880000Y-101403571D01*
X121880000Y-100903571D02*
X121951428Y-100975000D01*
X121880000Y-101046428D01*
X121808571Y-100975000D01*
X121880000Y-100903571D01*
X121880000Y-101046428D01*
X120522857Y-101403571D02*
X120522857Y-102617857D01*
X120594285Y-102760714D01*
X120665714Y-102832142D01*
X120808571Y-102903571D01*
X121022857Y-102903571D01*
X121165714Y-102832142D01*
X120522857Y-102332142D02*
X120665714Y-102403571D01*
X120951428Y-102403571D01*
X121094285Y-102332142D01*
X121165714Y-102260714D01*
X121237142Y-102117857D01*
X121237142Y-101689285D01*
X121165714Y-101546428D01*
X121094285Y-101475000D01*
X120951428Y-101403571D01*
X120665714Y-101403571D01*
X120522857Y-101475000D01*
X119808571Y-101403571D02*
X119808571Y-102403571D01*
X119808571Y-101546428D02*
X119737142Y-101475000D01*
X119594285Y-101403571D01*
X119380000Y-101403571D01*
X119237142Y-101475000D01*
X119165714Y-101617857D01*
X119165714Y-102403571D01*
X117880000Y-102332142D02*
X118022857Y-102403571D01*
X118308571Y-102403571D01*
X118451428Y-102332142D01*
X118522857Y-102189285D01*
X118522857Y-101617857D01*
X118451428Y-101475000D01*
X118308571Y-101403571D01*
X118022857Y-101403571D01*
X117880000Y-101475000D01*
X117808571Y-101617857D01*
X117808571Y-101760714D01*
X118522857Y-101903571D01*
X116522857Y-102403571D02*
X116522857Y-100903571D01*
X116522857Y-102332142D02*
X116665714Y-102403571D01*
X116951428Y-102403571D01*
X117094285Y-102332142D01*
X117165714Y-102260714D01*
X117237142Y-102117857D01*
X117237142Y-101689285D01*
X117165714Y-101546428D01*
X117094285Y-101475000D01*
X116951428Y-101403571D01*
X116665714Y-101403571D01*
X116522857Y-101475000D01*
X114665714Y-102403571D02*
X114665714Y-100903571D01*
X114665714Y-101475000D02*
X114522857Y-101403571D01*
X114237142Y-101403571D01*
X114094285Y-101475000D01*
X114022857Y-101546428D01*
X113951428Y-101689285D01*
X113951428Y-102117857D01*
X114022857Y-102260714D01*
X114094285Y-102332142D01*
X114237142Y-102403571D01*
X114522857Y-102403571D01*
X114665714Y-102332142D01*
X113451428Y-101403571D02*
X113094285Y-102403571D01*
X112737142Y-101403571D02*
X113094285Y-102403571D01*
X113237142Y-102760714D01*
X113308571Y-102832142D01*
X113451428Y-102903571D01*
X131237142Y-104818571D02*
X131237142Y-103318571D01*
X130737142Y-104390000D01*
X130237142Y-103318571D01*
X130237142Y-104818571D01*
X129308571Y-104818571D02*
X129451428Y-104747142D01*
X129522857Y-104675714D01*
X129594285Y-104532857D01*
X129594285Y-104104285D01*
X129522857Y-103961428D01*
X129451428Y-103890000D01*
X129308571Y-103818571D01*
X129094285Y-103818571D01*
X128951428Y-103890000D01*
X128880000Y-103961428D01*
X128808571Y-104104285D01*
X128808571Y-104532857D01*
X128880000Y-104675714D01*
X128951428Y-104747142D01*
X129094285Y-104818571D01*
X129308571Y-104818571D01*
X128165714Y-104818571D02*
X128165714Y-103318571D01*
X127522857Y-104818571D02*
X127522857Y-104032857D01*
X127594285Y-103890000D01*
X127737142Y-103818571D01*
X127951428Y-103818571D01*
X128094285Y-103890000D01*
X128165714Y-103961428D01*
X126165714Y-104818571D02*
X126165714Y-104032857D01*
X126237142Y-103890000D01*
X126380000Y-103818571D01*
X126665714Y-103818571D01*
X126808571Y-103890000D01*
X126165714Y-104747142D02*
X126308571Y-104818571D01*
X126665714Y-104818571D01*
X126808571Y-104747142D01*
X126880000Y-104604285D01*
X126880000Y-104461428D01*
X126808571Y-104318571D01*
X126665714Y-104247142D01*
X126308571Y-104247142D01*
X126165714Y-104175714D01*
X125451428Y-104818571D02*
X125451428Y-103818571D01*
X125451428Y-103961428D02*
X125380000Y-103890000D01*
X125237142Y-103818571D01*
X125022857Y-103818571D01*
X124880000Y-103890000D01*
X124808571Y-104032857D01*
X124808571Y-104818571D01*
X124808571Y-104032857D02*
X124737142Y-103890000D01*
X124594285Y-103818571D01*
X124380000Y-103818571D01*
X124237142Y-103890000D01*
X124165714Y-104032857D01*
X124165714Y-104818571D01*
X123451428Y-104818571D02*
X123451428Y-103818571D01*
X123451428Y-103961428D02*
X123380000Y-103890000D01*
X123237142Y-103818571D01*
X123022857Y-103818571D01*
X122880000Y-103890000D01*
X122808571Y-104032857D01*
X122808571Y-104818571D01*
X122808571Y-104032857D02*
X122737142Y-103890000D01*
X122594285Y-103818571D01*
X122380000Y-103818571D01*
X122237142Y-103890000D01*
X122165714Y-104032857D01*
X122165714Y-104818571D01*
X120880000Y-104747142D02*
X121022857Y-104818571D01*
X121308571Y-104818571D01*
X121451428Y-104747142D01*
X121522857Y-104604285D01*
X121522857Y-104032857D01*
X121451428Y-103890000D01*
X121308571Y-103818571D01*
X121022857Y-103818571D01*
X120880000Y-103890000D01*
X120808571Y-104032857D01*
X120808571Y-104175714D01*
X121522857Y-104318571D01*
X119522857Y-104818571D02*
X119522857Y-103318571D01*
X119522857Y-104747142D02*
X119665714Y-104818571D01*
X119951428Y-104818571D01*
X120094285Y-104747142D01*
X120165714Y-104675714D01*
X120237142Y-104532857D01*
X120237142Y-104104285D01*
X120165714Y-103961428D01*
X120094285Y-103890000D01*
X119951428Y-103818571D01*
X119665714Y-103818571D01*
X119522857Y-103890000D01*
X117737142Y-104390000D02*
X117022857Y-104390000D01*
X117880000Y-104818571D02*
X117380000Y-103318571D01*
X116880000Y-104818571D01*
X116451428Y-104747142D02*
X116308571Y-104818571D01*
X116022857Y-104818571D01*
X115880000Y-104747142D01*
X115808571Y-104604285D01*
X115808571Y-104532857D01*
X115880000Y-104390000D01*
X116022857Y-104318571D01*
X116237142Y-104318571D01*
X116380000Y-104247142D01*
X116451428Y-104104285D01*
X116451428Y-104032857D01*
X116380000Y-103890000D01*
X116237142Y-103818571D01*
X116022857Y-103818571D01*
X115880000Y-103890000D01*
X114951428Y-104818571D02*
X115094285Y-104747142D01*
X115165714Y-104604285D01*
X115165714Y-103318571D01*
X113737142Y-104818571D02*
X113737142Y-104032857D01*
X113808571Y-103890000D01*
X113951428Y-103818571D01*
X114237142Y-103818571D01*
X114380000Y-103890000D01*
X113737142Y-104747142D02*
X113880000Y-104818571D01*
X114237142Y-104818571D01*
X114380000Y-104747142D01*
X114451428Y-104604285D01*
X114451428Y-104461428D01*
X114380000Y-104318571D01*
X114237142Y-104247142D01*
X113880000Y-104247142D01*
X113737142Y-104175714D01*
X113022857Y-104818571D02*
X113022857Y-103818571D01*
X113022857Y-103961428D02*
X112951428Y-103890000D01*
X112808571Y-103818571D01*
X112594285Y-103818571D01*
X112451428Y-103890000D01*
X112380000Y-104032857D01*
X112380000Y-104818571D01*
X112380000Y-104032857D02*
X112308571Y-103890000D01*
X112165714Y-103818571D01*
X111951428Y-103818571D01*
X111808571Y-103890000D01*
X111737142Y-104032857D01*
X111737142Y-104818571D01*
X109880000Y-104818571D02*
X109880000Y-103318571D01*
X109022857Y-104818571D01*
X109022857Y-103318571D01*
X108308571Y-104818571D02*
X108308571Y-103318571D01*
X107451428Y-104818571D02*
X108094285Y-103961428D01*
X107451428Y-103318571D02*
X108308571Y-104175714D01*
X128094285Y-106447857D02*
X128594285Y-106447857D01*
X128594285Y-107233571D02*
X128594285Y-105733571D01*
X127880000Y-105733571D01*
X127094285Y-107233571D02*
X127237142Y-107162142D01*
X127308571Y-107090714D01*
X127380000Y-106947857D01*
X127380000Y-106519285D01*
X127308571Y-106376428D01*
X127237142Y-106305000D01*
X127094285Y-106233571D01*
X126880000Y-106233571D01*
X126737142Y-106305000D01*
X126665714Y-106376428D01*
X126594285Y-106519285D01*
X126594285Y-106947857D01*
X126665714Y-107090714D01*
X126737142Y-107162142D01*
X126880000Y-107233571D01*
X127094285Y-107233571D01*
X125951428Y-107233571D02*
X125951428Y-106233571D01*
X125951428Y-106519285D02*
X125880000Y-106376428D01*
X125808571Y-106305000D01*
X125665714Y-106233571D01*
X125522857Y-106233571D01*
X123880000Y-107233571D02*
X123880000Y-105733571D01*
X123522857Y-105733571D01*
X123308571Y-105805000D01*
X123165714Y-105947857D01*
X123094285Y-106090714D01*
X123022857Y-106376428D01*
X123022857Y-106590714D01*
X123094285Y-106876428D01*
X123165714Y-107019285D01*
X123308571Y-107162142D01*
X123522857Y-107233571D01*
X123880000Y-107233571D01*
X121737142Y-107233571D02*
X121737142Y-106447857D01*
X121808571Y-106305000D01*
X121951428Y-106233571D01*
X122237142Y-106233571D01*
X122380000Y-106305000D01*
X121737142Y-107162142D02*
X121880000Y-107233571D01*
X122237142Y-107233571D01*
X122380000Y-107162142D01*
X122451428Y-107019285D01*
X122451428Y-106876428D01*
X122380000Y-106733571D01*
X122237142Y-106662142D01*
X121880000Y-106662142D01*
X121737142Y-106590714D01*
X121022857Y-107233571D02*
X121022857Y-106233571D01*
X121022857Y-106519285D02*
X120951428Y-106376428D01*
X120880000Y-106305000D01*
X120737142Y-106233571D01*
X120594285Y-106233571D01*
X119451428Y-107233571D02*
X119451428Y-106447857D01*
X119522857Y-106305000D01*
X119665714Y-106233571D01*
X119951428Y-106233571D01*
X120094285Y-106305000D01*
X119451428Y-107162142D02*
X119594285Y-107233571D01*
X119951428Y-107233571D01*
X120094285Y-107162142D01*
X120165714Y-107019285D01*
X120165714Y-106876428D01*
X120094285Y-106733571D01*
X119951428Y-106662142D01*
X119594285Y-106662142D01*
X119451428Y-106590714D01*
X118094285Y-106233571D02*
X118094285Y-107233571D01*
X118737142Y-106233571D02*
X118737142Y-107019285D01*
X118665714Y-107162142D01*
X118522857Y-107233571D01*
X118308571Y-107233571D01*
X118165714Y-107162142D01*
X118094285Y-107090714D01*
X117451428Y-107162142D02*
X117308571Y-107233571D01*
X117022857Y-107233571D01*
X116880000Y-107162142D01*
X116808571Y-107019285D01*
X116808571Y-106947857D01*
X116880000Y-106805000D01*
X117022857Y-106733571D01*
X117237142Y-106733571D01*
X117380000Y-106662142D01*
X117451428Y-106519285D01*
X117451428Y-106447857D01*
X117380000Y-106305000D01*
X117237142Y-106233571D01*
X117022857Y-106233571D01*
X116880000Y-106305000D01*
X116237142Y-107162142D02*
X116094285Y-107233571D01*
X115808571Y-107233571D01*
X115665714Y-107162142D01*
X115594285Y-107019285D01*
X115594285Y-106947857D01*
X115665714Y-106805000D01*
X115808571Y-106733571D01*
X116022857Y-106733571D01*
X116165714Y-106662142D01*
X116237142Y-106519285D01*
X116237142Y-106447857D01*
X116165714Y-106305000D01*
X116022857Y-106233571D01*
X115808571Y-106233571D01*
X115665714Y-106305000D01*
X114308571Y-107233571D02*
X114308571Y-106447857D01*
X114380000Y-106305000D01*
X114522857Y-106233571D01*
X114808571Y-106233571D01*
X114951428Y-106305000D01*
X114308571Y-107162142D02*
X114451428Y-107233571D01*
X114808571Y-107233571D01*
X114951428Y-107162142D01*
X115022857Y-107019285D01*
X115022857Y-106876428D01*
X114951428Y-106733571D01*
X114808571Y-106662142D01*
X114451428Y-106662142D01*
X114308571Y-106590714D01*
X113380000Y-107233571D02*
X113522857Y-107162142D01*
X113594285Y-107019285D01*
X113594285Y-105733571D01*
X112165714Y-107233571D02*
X112165714Y-106447857D01*
X112237142Y-106305000D01*
X112380000Y-106233571D01*
X112665714Y-106233571D01*
X112808571Y-106305000D01*
X112165714Y-107162142D02*
X112308571Y-107233571D01*
X112665714Y-107233571D01*
X112808571Y-107162142D01*
X112880000Y-107019285D01*
X112880000Y-106876428D01*
X112808571Y-106733571D01*
X112665714Y-106662142D01*
X112308571Y-106662142D01*
X112165714Y-106590714D01*
X111451428Y-107233571D02*
X111451428Y-106233571D01*
X111451428Y-106376428D02*
X111380000Y-106305000D01*
X111237142Y-106233571D01*
X111022857Y-106233571D01*
X110880000Y-106305000D01*
X110808571Y-106447857D01*
X110808571Y-107233571D01*
X110808571Y-106447857D02*
X110737142Y-106305000D01*
X110594285Y-106233571D01*
X110380000Y-106233571D01*
X110237142Y-106305000D01*
X110165714Y-106447857D01*
X110165714Y-107233571D01*
D12*
%TO.C,Q3*%
X129635238Y-94667619D02*
X129730476Y-94620000D01*
X129825714Y-94524761D01*
X129968571Y-94381904D01*
X130063809Y-94334285D01*
X130159047Y-94334285D01*
X130111428Y-94572380D02*
X130206666Y-94524761D01*
X130301904Y-94429523D01*
X130349523Y-94239047D01*
X130349523Y-93905714D01*
X130301904Y-93715238D01*
X130206666Y-93620000D01*
X130111428Y-93572380D01*
X129920952Y-93572380D01*
X129825714Y-93620000D01*
X129730476Y-93715238D01*
X129682857Y-93905714D01*
X129682857Y-94239047D01*
X129730476Y-94429523D01*
X129825714Y-94524761D01*
X129920952Y-94572380D01*
X130111428Y-94572380D01*
X129349523Y-93572380D02*
X128730476Y-93572380D01*
X129063809Y-93953333D01*
X128920952Y-93953333D01*
X128825714Y-94000952D01*
X128778095Y-94048571D01*
X128730476Y-94143809D01*
X128730476Y-94381904D01*
X128778095Y-94477142D01*
X128825714Y-94524761D01*
X128920952Y-94572380D01*
X129206666Y-94572380D01*
X129301904Y-94524761D01*
X129349523Y-94477142D01*
%TO.C,D1*%
X125198095Y-84812380D02*
X125198095Y-83812380D01*
X124960000Y-83812380D01*
X124817142Y-83860000D01*
X124721904Y-83955238D01*
X124674285Y-84050476D01*
X124626666Y-84240952D01*
X124626666Y-84383809D01*
X124674285Y-84574285D01*
X124721904Y-84669523D01*
X124817142Y-84764761D01*
X124960000Y-84812380D01*
X125198095Y-84812380D01*
X123674285Y-84812380D02*
X124245714Y-84812380D01*
X123960000Y-84812380D02*
X123960000Y-83812380D01*
X124055238Y-83955238D01*
X124150476Y-84050476D01*
X124245714Y-84098095D01*
%TO.C,U1*%
X130301904Y-63532380D02*
X130301904Y-64341904D01*
X130254285Y-64437142D01*
X130206666Y-64484761D01*
X130111428Y-64532380D01*
X129920952Y-64532380D01*
X129825714Y-64484761D01*
X129778095Y-64437142D01*
X129730476Y-64341904D01*
X129730476Y-63532380D01*
X128730476Y-64532380D02*
X129301904Y-64532380D01*
X129016190Y-64532380D02*
X129016190Y-63532380D01*
X129111428Y-63675238D01*
X129206666Y-63770476D01*
X129301904Y-63818095D01*
%TO.C,Q4*%
X134715238Y-84507619D02*
X134810476Y-84460000D01*
X134905714Y-84364761D01*
X135048571Y-84221904D01*
X135143809Y-84174285D01*
X135239047Y-84174285D01*
X135191428Y-84412380D02*
X135286666Y-84364761D01*
X135381904Y-84269523D01*
X135429523Y-84079047D01*
X135429523Y-83745714D01*
X135381904Y-83555238D01*
X135286666Y-83460000D01*
X135191428Y-83412380D01*
X135000952Y-83412380D01*
X134905714Y-83460000D01*
X134810476Y-83555238D01*
X134762857Y-83745714D01*
X134762857Y-84079047D01*
X134810476Y-84269523D01*
X134905714Y-84364761D01*
X135000952Y-84412380D01*
X135191428Y-84412380D01*
X133905714Y-83745714D02*
X133905714Y-84412380D01*
X134143809Y-83364761D02*
X134381904Y-84079047D01*
X133762857Y-84079047D01*
%TO.C,Q2*%
X129635238Y-89587619D02*
X129730476Y-89540000D01*
X129825714Y-89444761D01*
X129968571Y-89301904D01*
X130063809Y-89254285D01*
X130159047Y-89254285D01*
X130111428Y-89492380D02*
X130206666Y-89444761D01*
X130301904Y-89349523D01*
X130349523Y-89159047D01*
X130349523Y-88825714D01*
X130301904Y-88635238D01*
X130206666Y-88540000D01*
X130111428Y-88492380D01*
X129920952Y-88492380D01*
X129825714Y-88540000D01*
X129730476Y-88635238D01*
X129682857Y-88825714D01*
X129682857Y-89159047D01*
X129730476Y-89349523D01*
X129825714Y-89444761D01*
X129920952Y-89492380D01*
X130111428Y-89492380D01*
X129301904Y-88587619D02*
X129254285Y-88540000D01*
X129159047Y-88492380D01*
X128920952Y-88492380D01*
X128825714Y-88540000D01*
X128778095Y-88587619D01*
X128730476Y-88682857D01*
X128730476Y-88778095D01*
X128778095Y-88920952D01*
X129349523Y-89492380D01*
X128730476Y-89492380D01*
%TO.C,D4*%
X125198095Y-92432380D02*
X125198095Y-91432380D01*
X124960000Y-91432380D01*
X124817142Y-91480000D01*
X124721904Y-91575238D01*
X124674285Y-91670476D01*
X124626666Y-91860952D01*
X124626666Y-92003809D01*
X124674285Y-92194285D01*
X124721904Y-92289523D01*
X124817142Y-92384761D01*
X124960000Y-92432380D01*
X125198095Y-92432380D01*
X123769523Y-91765714D02*
X123769523Y-92432380D01*
X124007619Y-91384761D02*
X124245714Y-92099047D01*
X123626666Y-92099047D01*
%TO.C,Q1*%
X129635238Y-84507619D02*
X129730476Y-84460000D01*
X129825714Y-84364761D01*
X129968571Y-84221904D01*
X130063809Y-84174285D01*
X130159047Y-84174285D01*
X130111428Y-84412380D02*
X130206666Y-84364761D01*
X130301904Y-84269523D01*
X130349523Y-84079047D01*
X130349523Y-83745714D01*
X130301904Y-83555238D01*
X130206666Y-83460000D01*
X130111428Y-83412380D01*
X129920952Y-83412380D01*
X129825714Y-83460000D01*
X129730476Y-83555238D01*
X129682857Y-83745714D01*
X129682857Y-84079047D01*
X129730476Y-84269523D01*
X129825714Y-84364761D01*
X129920952Y-84412380D01*
X130111428Y-84412380D01*
X128730476Y-84412380D02*
X129301904Y-84412380D01*
X129016190Y-84412380D02*
X129016190Y-83412380D01*
X129111428Y-83555238D01*
X129206666Y-83650476D01*
X129301904Y-83698095D01*
%TO.C,D3*%
X125198095Y-89892380D02*
X125198095Y-88892380D01*
X124960000Y-88892380D01*
X124817142Y-88940000D01*
X124721904Y-89035238D01*
X124674285Y-89130476D01*
X124626666Y-89320952D01*
X124626666Y-89463809D01*
X124674285Y-89654285D01*
X124721904Y-89749523D01*
X124817142Y-89844761D01*
X124960000Y-89892380D01*
X125198095Y-89892380D01*
X124293333Y-88892380D02*
X123674285Y-88892380D01*
X124007619Y-89273333D01*
X123864761Y-89273333D01*
X123769523Y-89320952D01*
X123721904Y-89368571D01*
X123674285Y-89463809D01*
X123674285Y-89701904D01*
X123721904Y-89797142D01*
X123769523Y-89844761D01*
X123864761Y-89892380D01*
X124150476Y-89892380D01*
X124245714Y-89844761D01*
X124293333Y-89797142D01*
%TO.C,R4*%
X135962380Y-60793333D02*
X135486190Y-60460000D01*
X135962380Y-60221904D02*
X134962380Y-60221904D01*
X134962380Y-60602857D01*
X135010000Y-60698095D01*
X135057619Y-60745714D01*
X135152857Y-60793333D01*
X135295714Y-60793333D01*
X135390952Y-60745714D01*
X135438571Y-60698095D01*
X135486190Y-60602857D01*
X135486190Y-60221904D01*
X135295714Y-61650476D02*
X135962380Y-61650476D01*
X134914761Y-61412380D02*
X135629047Y-61174285D01*
X135629047Y-61793333D01*
%TO.C,D2*%
X125198095Y-87352380D02*
X125198095Y-86352380D01*
X124960000Y-86352380D01*
X124817142Y-86400000D01*
X124721904Y-86495238D01*
X124674285Y-86590476D01*
X124626666Y-86780952D01*
X124626666Y-86923809D01*
X124674285Y-87114285D01*
X124721904Y-87209523D01*
X124817142Y-87304761D01*
X124960000Y-87352380D01*
X125198095Y-87352380D01*
X124245714Y-86447619D02*
X124198095Y-86400000D01*
X124102857Y-86352380D01*
X123864761Y-86352380D01*
X123769523Y-86400000D01*
X123721904Y-86447619D01*
X123674285Y-86542857D01*
X123674285Y-86638095D01*
X123721904Y-86780952D01*
X124293333Y-87352380D01*
X123674285Y-87352380D01*
%TO.C,C1*%
X127166666Y-94337142D02*
X127214285Y-94384761D01*
X127357142Y-94432380D01*
X127452380Y-94432380D01*
X127595238Y-94384761D01*
X127690476Y-94289523D01*
X127738095Y-94194285D01*
X127785714Y-94003809D01*
X127785714Y-93860952D01*
X127738095Y-93670476D01*
X127690476Y-93575238D01*
X127595238Y-93480000D01*
X127452380Y-93432380D01*
X127357142Y-93432380D01*
X127214285Y-93480000D01*
X127166666Y-93527619D01*
X126214285Y-94432380D02*
X126785714Y-94432380D01*
X126500000Y-94432380D02*
X126500000Y-93432380D01*
X126595238Y-93575238D01*
X126690476Y-93670476D01*
X126785714Y-93718095D01*
%TO.C,R3*%
X130882380Y-60793333D02*
X130406190Y-60460000D01*
X130882380Y-60221904D02*
X129882380Y-60221904D01*
X129882380Y-60602857D01*
X129930000Y-60698095D01*
X129977619Y-60745714D01*
X130072857Y-60793333D01*
X130215714Y-60793333D01*
X130310952Y-60745714D01*
X130358571Y-60698095D01*
X130406190Y-60602857D01*
X130406190Y-60221904D01*
X129882380Y-61126666D02*
X129882380Y-61745714D01*
X130263333Y-61412380D01*
X130263333Y-61555238D01*
X130310952Y-61650476D01*
X130358571Y-61698095D01*
X130453809Y-61745714D01*
X130691904Y-61745714D01*
X130787142Y-61698095D01*
X130834761Y-61650476D01*
X130882380Y-61555238D01*
X130882380Y-61269523D01*
X130834761Y-61174285D01*
X130787142Y-61126666D01*
%TO.C,R2*%
X125802380Y-60793333D02*
X125326190Y-60460000D01*
X125802380Y-60221904D02*
X124802380Y-60221904D01*
X124802380Y-60602857D01*
X124850000Y-60698095D01*
X124897619Y-60745714D01*
X124992857Y-60793333D01*
X125135714Y-60793333D01*
X125230952Y-60745714D01*
X125278571Y-60698095D01*
X125326190Y-60602857D01*
X125326190Y-60221904D01*
X124897619Y-61174285D02*
X124850000Y-61221904D01*
X124802380Y-61317142D01*
X124802380Y-61555238D01*
X124850000Y-61650476D01*
X124897619Y-61698095D01*
X124992857Y-61745714D01*
X125088095Y-61745714D01*
X125230952Y-61698095D01*
X125802380Y-61126666D01*
X125802380Y-61745714D01*
%TO.C,R1*%
X120722380Y-60793333D02*
X120246190Y-60460000D01*
X120722380Y-60221904D02*
X119722380Y-60221904D01*
X119722380Y-60602857D01*
X119770000Y-60698095D01*
X119817619Y-60745714D01*
X119912857Y-60793333D01*
X120055714Y-60793333D01*
X120150952Y-60745714D01*
X120198571Y-60698095D01*
X120246190Y-60602857D01*
X120246190Y-60221904D01*
X120722380Y-61745714D02*
X120722380Y-61174285D01*
X120722380Y-61460000D02*
X119722380Y-61460000D01*
X119865238Y-61364761D01*
X119960476Y-61269523D01*
X120008095Y-61174285D01*
%TO.C,C2*%
X127166666Y-101957142D02*
X127214285Y-102004761D01*
X127357142Y-102052380D01*
X127452380Y-102052380D01*
X127595238Y-102004761D01*
X127690476Y-101909523D01*
X127738095Y-101814285D01*
X127785714Y-101623809D01*
X127785714Y-101480952D01*
X127738095Y-101290476D01*
X127690476Y-101195238D01*
X127595238Y-101100000D01*
X127452380Y-101052380D01*
X127357142Y-101052380D01*
X127214285Y-101100000D01*
X127166666Y-101147619D01*
X126785714Y-101147619D02*
X126738095Y-101100000D01*
X126642857Y-101052380D01*
X126404761Y-101052380D01*
X126309523Y-101100000D01*
X126261904Y-101147619D01*
X126214285Y-101242857D01*
X126214285Y-101338095D01*
X126261904Y-101480952D01*
X126833333Y-102052380D01*
X126214285Y-102052380D01*
D13*
%TO.C,Q3*%
X129540000Y-98080000D02*
X130190000Y-98080000D01*
X129540000Y-98080000D02*
X128890000Y-98080000D01*
X129540000Y-94960000D02*
X131215000Y-94960000D01*
X129540000Y-94960000D02*
X128890000Y-94960000D01*
%TO.C,D1*%
X126710000Y-85360000D02*
X122810000Y-85360000D01*
X126710000Y-85360000D02*
X126710000Y-87360000D01*
X126710000Y-87360000D02*
X122810000Y-87360000D01*
%TO.C,U1*%
X127630000Y-71990000D02*
X127630000Y-70730000D01*
X133640000Y-65170000D02*
X127630000Y-65170000D01*
X131390000Y-71990000D02*
X127630000Y-71990000D01*
X127630000Y-65170000D02*
X127630000Y-66430000D01*
%TO.C,Q4*%
X134620000Y-87920000D02*
X133970000Y-87920000D01*
X134620000Y-84800000D02*
X136295000Y-84800000D01*
X134620000Y-87920000D02*
X135270000Y-87920000D01*
X134620000Y-84800000D02*
X133970000Y-84800000D01*
%TO.C,Q2*%
X129540000Y-93000000D02*
X130190000Y-93000000D01*
X129540000Y-93000000D02*
X128890000Y-93000000D01*
X129540000Y-89880000D02*
X131215000Y-89880000D01*
X129540000Y-89880000D02*
X128890000Y-89880000D01*
%TO.C,D4*%
X126710000Y-92980000D02*
X122810000Y-92980000D01*
X126710000Y-94980000D02*
X122810000Y-94980000D01*
X126710000Y-92980000D02*
X126710000Y-94980000D01*
%TO.C,Q1*%
X129540000Y-84800000D02*
X131215000Y-84800000D01*
X129540000Y-84800000D02*
X128890000Y-84800000D01*
X129540000Y-87920000D02*
X128890000Y-87920000D01*
X129540000Y-87920000D02*
X130190000Y-87920000D01*
%TO.C,D3*%
X126710000Y-90440000D02*
X126710000Y-92440000D01*
X126710000Y-92440000D02*
X122810000Y-92440000D01*
X126710000Y-90440000D02*
X122810000Y-90440000D01*
%TO.C,R4*%
X136425000Y-60732936D02*
X136425000Y-61187064D01*
X137895000Y-60732936D02*
X137895000Y-61187064D01*
%TO.C,D2*%
X126710000Y-87900000D02*
X122810000Y-87900000D01*
X126710000Y-89900000D02*
X122810000Y-89900000D01*
X126710000Y-87900000D02*
X126710000Y-89900000D01*
%TO.C,C1*%
X124721252Y-95785000D02*
X124198748Y-95785000D01*
X124721252Y-97255000D02*
X124198748Y-97255000D01*
%TO.C,R3*%
X131345000Y-60732936D02*
X131345000Y-61187064D01*
X132815000Y-60732936D02*
X132815000Y-61187064D01*
%TO.C,R2*%
X126265000Y-60732936D02*
X126265000Y-61187064D01*
X127735000Y-60732936D02*
X127735000Y-61187064D01*
%TO.C,R1*%
X121185000Y-60732936D02*
X121185000Y-61187064D01*
X122655000Y-60732936D02*
X122655000Y-61187064D01*
%TO.C,C2*%
X124198748Y-99795000D02*
X124721252Y-99795000D01*
X124198748Y-98325000D02*
X124721252Y-98325000D01*
%TD*%
M02*
