M48
; DRILL file {KiCad (6.0.4)} date Fri Apr 22 12:19:13 2022
; FORMAT={-:-/ absolute / inch / decimal}
; #@! TF.CreationDate,2022-04-22T12:19:13+05:30
; #@! TF.GenerationSoftware,Kicad,Pcbnew,(6.0.4)
; #@! TF.FileFunction,Plated,1,2,PTH
FMAT,2
INCH
; #@! TA.AperFunction,Plated,PTH,ViaDrill
T1C0.0157
; #@! TA.AperFunction,Plated,PTH,ComponentDrill
T2C0.0374
; #@! TA.AperFunction,Plated,PTH,ComponentDrill
T3C0.0394
; #@! TA.AperFunction,Plated,PTH,ComponentDrill
T4C0.0508
; #@! TA.AperFunction,Plated,PTH,ComponentDrill
T5C0.0520
%
G90
G05
T1
X4.5127Y-3.0187
X4.582Y-2.3368
X4.6213Y-2.3791
X4.6265Y-2.2748
X4.663Y-2.6159
X4.6762Y-2.8226
X4.7291Y-3.0771
X4.7384Y-3.2436
X4.7763Y-2.9975
X4.8173Y-3.4524
X4.8284Y-2.9317
X4.83Y-2.6317
X4.8379Y-2.8817
X4.8743Y-2.7641
X4.8891Y-2.8744
X4.9035Y-2.7376
X4.9236Y-2.3111
X4.9362Y-2.5041
X4.9413Y-2.8389
X4.965Y-3.45
X5.0233Y-3.4837
X5.0784Y-2.7566
X5.1355Y-2.7704
X5.1369Y-3.5146
X5.1369Y-3.6858
X5.2482Y-3.3407
X5.2602Y-3.0771
X5.2829Y-3.3644
X5.291Y-2.3111
X5.2985Y-3.035
X5.3245Y-2.3872
X5.335Y-2.8531
X5.3495Y-2.3317
X5.3538Y-3.0663
X5.4981Y-2.5317
X5.5686Y-3.2989
X5.5849Y-2.2996
X5.5932Y-3.0484
X5.5993Y-2.4141
X5.6129Y-2.8537
X5.6418Y-2.9907
X5.646Y-2.347
X5.7748Y-3.3324
X5.8582Y-2.2996
T2
X4.6118Y-2.4539
X4.6118Y-2.5524
X4.6118Y-2.6508
X4.6118Y-2.7492
X4.6118Y-2.8476
X4.6118Y-2.9461
T3
X4.7Y-3.3984
X4.7Y-3.8
X4.9Y-3.2
X5.0Y-3.2
X5.1Y-3.2
X5.2Y-3.2
X5.3Y-3.2
X5.4Y-3.2
X5.5Y-3.2
X5.7Y-2.5
X5.7Y-2.6
X5.7Y-2.7
X5.7Y-2.8
X5.7Y-2.9
X5.7Y-3.0
X5.7Y-3.1
X5.75Y-3.7531
X5.75Y-3.95
X5.8Y-2.5
X5.8Y-2.6
X5.8Y-2.7
X5.8Y-2.8
X5.8Y-2.9
X5.8Y-3.0
X5.8Y-3.1
T4
X4.3189Y-2.5
X4.3189Y-3.2
X6.0811Y-2.5
X6.0811Y-3.2
T5
X3.7094Y-3.9
X3.7598Y-2.2638
X3.7598Y-2.7362
X3.7598Y-2.9638
X3.7598Y-3.4362
X3.9063Y-3.9
X4.1031Y-3.9
X4.2402Y-2.2638
X4.2402Y-2.7362
X4.2402Y-2.9638
X4.2402Y-3.4362
X4.3Y-3.9
X6.1598Y-2.2638
X6.1598Y-2.7362
X6.1598Y-2.9638
X6.1598Y-3.4362
X6.3063Y-3.9
X6.5031Y-3.9
X6.6402Y-2.2638
X6.6402Y-2.7362
X6.6402Y-2.9638
X6.6402Y-3.4362
X6.7Y-3.9
T0
M30
