%TF.GenerationSoftware,KiCad,Pcbnew,(6.0.4)*%
%TF.CreationDate,2022-04-23T22:51:50+05:30*%
%TF.ProjectId,esp32 switch,65737033-3220-4737-9769-7463682e6b69,rev?*%
%TF.SameCoordinates,Original*%
%TF.FileFunction,Soldermask,Top*%
%TF.FilePolarity,Negative*%
%FSLAX46Y46*%
G04 Gerber Fmt 4.6, Leading zero omitted, Abs format (unit mm)*
G04 Created by KiCad (PCBNEW (6.0.4)) date 2022-04-23 22:51:50*
%MOMM*%
%LPD*%
G01*
G04 APERTURE LIST*
G04 Aperture macros list*
%AMRoundRect*
0 Rectangle with rounded corners*
0 $1 Rounding radius*
0 $2 $3 $4 $5 $6 $7 $8 $9 X,Y pos of 4 corners*
0 Add a 4 corners polygon primitive as box body*
4,1,4,$2,$3,$4,$5,$6,$7,$8,$9,$2,$3,0*
0 Add four circle primitives for the rounded corners*
1,1,$1+$1,$2,$3*
1,1,$1+$1,$4,$5*
1,1,$1+$1,$6,$7*
1,1,$1+$1,$8,$9*
0 Add four rect primitives between the rounded corners*
20,1,$1+$1,$2,$3,$4,$5,0*
20,1,$1+$1,$4,$5,$6,$7,0*
20,1,$1+$1,$6,$7,$8,$9,0*
20,1,$1+$1,$8,$9,$2,$3,0*%
G04 Aperture macros list end*
%ADD10RoundRect,0.250000X-0.600000X-0.600000X0.600000X-0.600000X0.600000X0.600000X-0.600000X0.600000X0*%
%ADD11C,1.700000*%
%ADD12R,2.300000X2.000000*%
%ADD13C,2.300000*%
%ADD14R,1.980000X1.980000*%
%ADD15C,1.980000*%
%ADD16C,1.935000*%
%ADD17R,1.700000X1.700000*%
%ADD18O,1.700000X1.700000*%
%ADD19R,2.000000X0.900000*%
%ADD20R,0.900000X2.000000*%
%ADD21R,5.000000X5.000000*%
%ADD22R,1.980000X3.960000*%
%ADD23O,1.980000X3.960000*%
%ADD24RoundRect,0.250000X-0.725000X0.600000X-0.725000X-0.600000X0.725000X-0.600000X0.725000X0.600000X0*%
%ADD25O,1.950000X1.700000*%
G04 APERTURE END LIST*
D10*
%TO.C,J3*%
X147320000Y-63500000D03*
D11*
X149860000Y-63500000D03*
X147320000Y-66040000D03*
X149860000Y-66040000D03*
X147320000Y-68580000D03*
X149860000Y-68580000D03*
X147320000Y-71120000D03*
X149860000Y-71120000D03*
X147320000Y-73660000D03*
X149860000Y-73660000D03*
X147320000Y-76200000D03*
X149860000Y-76200000D03*
X147320000Y-78740000D03*
X149860000Y-78740000D03*
%TD*%
D12*
%TO.C,PS1*%
X146050000Y-102830000D03*
D13*
X146050000Y-97830000D03*
X119380000Y-99020000D03*
X119380000Y-88820000D03*
%TD*%
D14*
%TO.C,K3*%
X105160000Y-69500000D03*
D15*
X105160000Y-57500000D03*
D16*
X107160000Y-63500000D03*
D15*
X92960000Y-69500000D03*
X92960000Y-57500000D03*
%TD*%
D17*
%TO.C,J6*%
X124460000Y-81280000D03*
D18*
X127000000Y-81280000D03*
X129540000Y-81280000D03*
X132080000Y-81280000D03*
X134620000Y-81280000D03*
X137160000Y-81280000D03*
X139700000Y-81280000D03*
%TD*%
D14*
%TO.C,K4*%
X105160000Y-87280000D03*
D15*
X105160000Y-75280000D03*
D16*
X107160000Y-81280000D03*
D15*
X92960000Y-87280000D03*
X92960000Y-75280000D03*
%TD*%
D14*
%TO.C,K1*%
X159140000Y-75280000D03*
D15*
X159140000Y-87280000D03*
D16*
X157140000Y-81280000D03*
D15*
X171340000Y-75280000D03*
X171340000Y-87280000D03*
%TD*%
D19*
%TO.C,U2*%
X121040000Y-57955000D03*
X121040000Y-59225000D03*
X121040000Y-60495000D03*
X121040000Y-61765000D03*
X121040000Y-63035000D03*
X121040000Y-64305000D03*
X121040000Y-65575000D03*
X121040000Y-66845000D03*
X121040000Y-68115000D03*
X121040000Y-69385000D03*
X121040000Y-70655000D03*
X121040000Y-71925000D03*
X121040000Y-73195000D03*
X121040000Y-74465000D03*
D20*
X123825000Y-75465000D03*
X125095000Y-75465000D03*
X126365000Y-75465000D03*
X127635000Y-75465000D03*
X128905000Y-75465000D03*
X130175000Y-75465000D03*
X131445000Y-75465000D03*
X132715000Y-75465000D03*
X133985000Y-75465000D03*
X135255000Y-75465000D03*
D19*
X138040000Y-74465000D03*
X138040000Y-73195000D03*
X138040000Y-71925000D03*
X138040000Y-70655000D03*
X138040000Y-69385000D03*
X138040000Y-68115000D03*
X138040000Y-66845000D03*
X138040000Y-65575000D03*
X138040000Y-64305000D03*
X138040000Y-63035000D03*
X138040000Y-61765000D03*
X138040000Y-60495000D03*
X138040000Y-59225000D03*
X138040000Y-57955000D03*
D21*
X128540000Y-65455000D03*
%TD*%
D14*
%TO.C,K2*%
X159000000Y-57500000D03*
D15*
X159000000Y-69500000D03*
D16*
X157000000Y-63500000D03*
D15*
X171200000Y-57500000D03*
X171200000Y-69500000D03*
%TD*%
D22*
%TO.C,J1*%
X170180000Y-99060000D03*
D23*
X165180000Y-99060000D03*
X160180000Y-99060000D03*
X155180000Y-99060000D03*
%TD*%
D22*
%TO.C,J2*%
X104140000Y-99060000D03*
D23*
X99140000Y-99060000D03*
X94140000Y-99060000D03*
%TD*%
D24*
%TO.C,J5*%
X116840000Y-62330000D03*
D25*
X116840000Y-64830000D03*
X116840000Y-67330000D03*
X116840000Y-69830000D03*
X116840000Y-72330000D03*
X116840000Y-74830000D03*
%TD*%
M02*
