%TF.GenerationSoftware,KiCad,Pcbnew,(6.0.4)*%
%TF.CreationDate,2022-04-23T22:51:50+05:30*%
%TF.ProjectId,esp32 switch,65737033-3220-4737-9769-7463682e6b69,rev?*%
%TF.SameCoordinates,Original*%
%TF.FileFunction,Legend,Top*%
%TF.FilePolarity,Positive*%
%FSLAX46Y46*%
G04 Gerber Fmt 4.6, Leading zero omitted, Abs format (unit mm)*
G04 Created by KiCad (PCBNEW (6.0.4)) date 2022-04-23 22:51:50*
%MOMM*%
%LPD*%
G01*
G04 APERTURE LIST*
%ADD10C,0.150000*%
%ADD11C,0.375000*%
%ADD12C,0.500000*%
%ADD13C,0.125000*%
%ADD14C,0.237500*%
%ADD15C,0.120000*%
%ADD16C,0.127000*%
%ADD17C,0.300000*%
G04 APERTURE END LIST*
D10*
X95305714Y-63952380D02*
X94972380Y-63476190D01*
X94734285Y-63952380D02*
X94734285Y-62952380D01*
X95115238Y-62952380D01*
X95210476Y-63000000D01*
X95258095Y-63047619D01*
X95305714Y-63142857D01*
X95305714Y-63285714D01*
X95258095Y-63380952D01*
X95210476Y-63428571D01*
X95115238Y-63476190D01*
X94734285Y-63476190D01*
X96115238Y-63904761D02*
X96020000Y-63952380D01*
X95829523Y-63952380D01*
X95734285Y-63904761D01*
X95686666Y-63809523D01*
X95686666Y-63428571D01*
X95734285Y-63333333D01*
X95829523Y-63285714D01*
X96020000Y-63285714D01*
X96115238Y-63333333D01*
X96162857Y-63428571D01*
X96162857Y-63523809D01*
X95686666Y-63619047D01*
X96734285Y-63952380D02*
X96639047Y-63904761D01*
X96591428Y-63809523D01*
X96591428Y-62952380D01*
X97543809Y-63952380D02*
X97543809Y-63428571D01*
X97496190Y-63333333D01*
X97400952Y-63285714D01*
X97210476Y-63285714D01*
X97115238Y-63333333D01*
X97543809Y-63904761D02*
X97448571Y-63952380D01*
X97210476Y-63952380D01*
X97115238Y-63904761D01*
X97067619Y-63809523D01*
X97067619Y-63714285D01*
X97115238Y-63619047D01*
X97210476Y-63571428D01*
X97448571Y-63571428D01*
X97543809Y-63523809D01*
X97924761Y-63285714D02*
X98162857Y-63952380D01*
X98400952Y-63285714D02*
X98162857Y-63952380D01*
X98067619Y-64190476D01*
X98020000Y-64238095D01*
X97924761Y-64285714D01*
X166565714Y-81732380D02*
X166232380Y-81256190D01*
X165994285Y-81732380D02*
X165994285Y-80732380D01*
X166375238Y-80732380D01*
X166470476Y-80780000D01*
X166518095Y-80827619D01*
X166565714Y-80922857D01*
X166565714Y-81065714D01*
X166518095Y-81160952D01*
X166470476Y-81208571D01*
X166375238Y-81256190D01*
X165994285Y-81256190D01*
X167375238Y-81684761D02*
X167280000Y-81732380D01*
X167089523Y-81732380D01*
X166994285Y-81684761D01*
X166946666Y-81589523D01*
X166946666Y-81208571D01*
X166994285Y-81113333D01*
X167089523Y-81065714D01*
X167280000Y-81065714D01*
X167375238Y-81113333D01*
X167422857Y-81208571D01*
X167422857Y-81303809D01*
X166946666Y-81399047D01*
X167994285Y-81732380D02*
X167899047Y-81684761D01*
X167851428Y-81589523D01*
X167851428Y-80732380D01*
X168803809Y-81732380D02*
X168803809Y-81208571D01*
X168756190Y-81113333D01*
X168660952Y-81065714D01*
X168470476Y-81065714D01*
X168375238Y-81113333D01*
X168803809Y-81684761D02*
X168708571Y-81732380D01*
X168470476Y-81732380D01*
X168375238Y-81684761D01*
X168327619Y-81589523D01*
X168327619Y-81494285D01*
X168375238Y-81399047D01*
X168470476Y-81351428D01*
X168708571Y-81351428D01*
X168803809Y-81303809D01*
X169184761Y-81065714D02*
X169422857Y-81732380D01*
X169660952Y-81065714D02*
X169422857Y-81732380D01*
X169327619Y-81970476D01*
X169280000Y-82018095D01*
X169184761Y-82065714D01*
X95305714Y-81732380D02*
X94972380Y-81256190D01*
X94734285Y-81732380D02*
X94734285Y-80732380D01*
X95115238Y-80732380D01*
X95210476Y-80780000D01*
X95258095Y-80827619D01*
X95305714Y-80922857D01*
X95305714Y-81065714D01*
X95258095Y-81160952D01*
X95210476Y-81208571D01*
X95115238Y-81256190D01*
X94734285Y-81256190D01*
X96115238Y-81684761D02*
X96020000Y-81732380D01*
X95829523Y-81732380D01*
X95734285Y-81684761D01*
X95686666Y-81589523D01*
X95686666Y-81208571D01*
X95734285Y-81113333D01*
X95829523Y-81065714D01*
X96020000Y-81065714D01*
X96115238Y-81113333D01*
X96162857Y-81208571D01*
X96162857Y-81303809D01*
X95686666Y-81399047D01*
X96734285Y-81732380D02*
X96639047Y-81684761D01*
X96591428Y-81589523D01*
X96591428Y-80732380D01*
X97543809Y-81732380D02*
X97543809Y-81208571D01*
X97496190Y-81113333D01*
X97400952Y-81065714D01*
X97210476Y-81065714D01*
X97115238Y-81113333D01*
X97543809Y-81684761D02*
X97448571Y-81732380D01*
X97210476Y-81732380D01*
X97115238Y-81684761D01*
X97067619Y-81589523D01*
X97067619Y-81494285D01*
X97115238Y-81399047D01*
X97210476Y-81351428D01*
X97448571Y-81351428D01*
X97543809Y-81303809D01*
X97924761Y-81065714D02*
X98162857Y-81732380D01*
X98400952Y-81065714D02*
X98162857Y-81732380D01*
X98067619Y-81970476D01*
X98020000Y-82018095D01*
X97924761Y-82065714D01*
D11*
X92952857Y-92118571D02*
X92452857Y-91404285D01*
X92095714Y-92118571D02*
X92095714Y-90618571D01*
X92667142Y-90618571D01*
X92810000Y-90690000D01*
X92881428Y-90761428D01*
X92952857Y-90904285D01*
X92952857Y-91118571D01*
X92881428Y-91261428D01*
X92810000Y-91332857D01*
X92667142Y-91404285D01*
X92095714Y-91404285D01*
X94310000Y-92118571D02*
X93595714Y-92118571D01*
X93595714Y-90618571D01*
X95095714Y-91404285D02*
X95095714Y-92118571D01*
X94595714Y-90618571D02*
X95095714Y-91404285D01*
X95595714Y-90618571D01*
X95952857Y-90618571D02*
X96881428Y-90618571D01*
X96381428Y-91190000D01*
X96595714Y-91190000D01*
X96738571Y-91261428D01*
X96810000Y-91332857D01*
X96881428Y-91475714D01*
X96881428Y-91832857D01*
X96810000Y-91975714D01*
X96738571Y-92047142D01*
X96595714Y-92118571D01*
X96167142Y-92118571D01*
X96024285Y-92047142D01*
X95952857Y-91975714D01*
X99524285Y-92118571D02*
X99024285Y-91404285D01*
X98667142Y-92118571D02*
X98667142Y-90618571D01*
X99238571Y-90618571D01*
X99381428Y-90690000D01*
X99452857Y-90761428D01*
X99524285Y-90904285D01*
X99524285Y-91118571D01*
X99452857Y-91261428D01*
X99381428Y-91332857D01*
X99238571Y-91404285D01*
X98667142Y-91404285D01*
X100881428Y-92118571D02*
X100167142Y-92118571D01*
X100167142Y-90618571D01*
X101667142Y-91404285D02*
X101667142Y-92118571D01*
X101167142Y-90618571D02*
X101667142Y-91404285D01*
X102167142Y-90618571D01*
X103310000Y-91118571D02*
X103310000Y-92118571D01*
X102952857Y-90547142D02*
X102595714Y-91618571D01*
X103524285Y-91618571D01*
X105238571Y-92118571D02*
X105238571Y-90618571D01*
X105810000Y-90618571D01*
X105952857Y-90690000D01*
X106024285Y-90761428D01*
X106095714Y-90904285D01*
X106095714Y-91118571D01*
X106024285Y-91261428D01*
X105952857Y-91332857D01*
X105810000Y-91404285D01*
X105238571Y-91404285D01*
D10*
X166565714Y-63952380D02*
X166232380Y-63476190D01*
X165994285Y-63952380D02*
X165994285Y-62952380D01*
X166375238Y-62952380D01*
X166470476Y-63000000D01*
X166518095Y-63047619D01*
X166565714Y-63142857D01*
X166565714Y-63285714D01*
X166518095Y-63380952D01*
X166470476Y-63428571D01*
X166375238Y-63476190D01*
X165994285Y-63476190D01*
X167375238Y-63904761D02*
X167280000Y-63952380D01*
X167089523Y-63952380D01*
X166994285Y-63904761D01*
X166946666Y-63809523D01*
X166946666Y-63428571D01*
X166994285Y-63333333D01*
X167089523Y-63285714D01*
X167280000Y-63285714D01*
X167375238Y-63333333D01*
X167422857Y-63428571D01*
X167422857Y-63523809D01*
X166946666Y-63619047D01*
X167994285Y-63952380D02*
X167899047Y-63904761D01*
X167851428Y-63809523D01*
X167851428Y-62952380D01*
X168803809Y-63952380D02*
X168803809Y-63428571D01*
X168756190Y-63333333D01*
X168660952Y-63285714D01*
X168470476Y-63285714D01*
X168375238Y-63333333D01*
X168803809Y-63904761D02*
X168708571Y-63952380D01*
X168470476Y-63952380D01*
X168375238Y-63904761D01*
X168327619Y-63809523D01*
X168327619Y-63714285D01*
X168375238Y-63619047D01*
X168470476Y-63571428D01*
X168708571Y-63571428D01*
X168803809Y-63523809D01*
X169184761Y-63285714D02*
X169422857Y-63952380D01*
X169660952Y-63285714D02*
X169422857Y-63952380D01*
X169327619Y-64190476D01*
X169280000Y-64238095D01*
X169184761Y-64285714D01*
D12*
X118746666Y-93075238D02*
X118841904Y-92980000D01*
X119032380Y-92884761D01*
X119508571Y-92884761D01*
X119699047Y-92980000D01*
X119794285Y-93075238D01*
X119889523Y-93265714D01*
X119889523Y-93456190D01*
X119794285Y-93741904D01*
X118651428Y-94884761D01*
X119889523Y-94884761D01*
X120651428Y-93075238D02*
X120746666Y-92980000D01*
X120937142Y-92884761D01*
X121413333Y-92884761D01*
X121603809Y-92980000D01*
X121699047Y-93075238D01*
X121794285Y-93265714D01*
X121794285Y-93456190D01*
X121699047Y-93741904D01*
X120556190Y-94884761D01*
X121794285Y-94884761D01*
X123032380Y-92884761D02*
X123222857Y-92884761D01*
X123413333Y-92980000D01*
X123508571Y-93075238D01*
X123603809Y-93265714D01*
X123699047Y-93646666D01*
X123699047Y-94122857D01*
X123603809Y-94503809D01*
X123508571Y-94694285D01*
X123413333Y-94789523D01*
X123222857Y-94884761D01*
X123032380Y-94884761D01*
X122841904Y-94789523D01*
X122746666Y-94694285D01*
X122651428Y-94503809D01*
X122556190Y-94122857D01*
X122556190Y-93646666D01*
X122651428Y-93265714D01*
X122746666Y-93075238D01*
X122841904Y-92980000D01*
X123032380Y-92884761D01*
X124270476Y-92884761D02*
X124937142Y-94884761D01*
X125603809Y-92884761D01*
X126175238Y-94313333D02*
X127127619Y-94313333D01*
X125984761Y-94884761D02*
X126651428Y-92884761D01*
X127318095Y-94884761D01*
X129127619Y-94694285D02*
X129032380Y-94789523D01*
X128746666Y-94884761D01*
X128556190Y-94884761D01*
X128270476Y-94789523D01*
X128080000Y-94599047D01*
X127984761Y-94408571D01*
X127889523Y-94027619D01*
X127889523Y-93741904D01*
X127984761Y-93360952D01*
X128080000Y-93170476D01*
X128270476Y-92980000D01*
X128556190Y-92884761D01*
X128746666Y-92884761D01*
X129032380Y-92980000D01*
X129127619Y-93075238D01*
X131222857Y-92884761D02*
X132365714Y-92884761D01*
X131794285Y-94884761D02*
X131794285Y-92884761D01*
X133413333Y-92884761D02*
X133794285Y-92884761D01*
X133984761Y-92980000D01*
X134175238Y-93170476D01*
X134270476Y-93551428D01*
X134270476Y-94218095D01*
X134175238Y-94599047D01*
X133984761Y-94789523D01*
X133794285Y-94884761D01*
X133413333Y-94884761D01*
X133222857Y-94789523D01*
X133032380Y-94599047D01*
X132937142Y-94218095D01*
X132937142Y-93551428D01*
X133032380Y-93170476D01*
X133222857Y-92980000D01*
X133413333Y-92884761D01*
X137603809Y-92884761D02*
X136651428Y-92884761D01*
X136556190Y-93837142D01*
X136651428Y-93741904D01*
X136841904Y-93646666D01*
X137318095Y-93646666D01*
X137508571Y-93741904D01*
X137603809Y-93837142D01*
X137699047Y-94027619D01*
X137699047Y-94503809D01*
X137603809Y-94694285D01*
X137508571Y-94789523D01*
X137318095Y-94884761D01*
X136841904Y-94884761D01*
X136651428Y-94789523D01*
X136556190Y-94694285D01*
X138270476Y-92884761D02*
X138937142Y-94884761D01*
X139603809Y-92884761D01*
X140270476Y-94884761D02*
X140270476Y-92884761D01*
X140746666Y-92884761D01*
X141032380Y-92980000D01*
X141222857Y-93170476D01*
X141318095Y-93360952D01*
X141413333Y-93741904D01*
X141413333Y-94027619D01*
X141318095Y-94408571D01*
X141222857Y-94599047D01*
X141032380Y-94789523D01*
X140746666Y-94884761D01*
X140270476Y-94884761D01*
X143413333Y-94694285D02*
X143318095Y-94789523D01*
X143032380Y-94884761D01*
X142841904Y-94884761D01*
X142556190Y-94789523D01*
X142365714Y-94599047D01*
X142270476Y-94408571D01*
X142175238Y-94027619D01*
X142175238Y-93741904D01*
X142270476Y-93360952D01*
X142365714Y-93170476D01*
X142556190Y-92980000D01*
X142841904Y-92884761D01*
X143032380Y-92884761D01*
X143318095Y-92980000D01*
X143413333Y-93075238D01*
X145413333Y-94694285D02*
X145318095Y-94789523D01*
X145032380Y-94884761D01*
X144841904Y-94884761D01*
X144556190Y-94789523D01*
X144365714Y-94599047D01*
X144270476Y-94408571D01*
X144175238Y-94027619D01*
X144175238Y-93741904D01*
X144270476Y-93360952D01*
X144365714Y-93170476D01*
X144556190Y-92980000D01*
X144841904Y-92884761D01*
X145032380Y-92884761D01*
X145318095Y-92980000D01*
X145413333Y-93075238D01*
D10*
X142692380Y-79631904D02*
X141692380Y-79631904D01*
X141692380Y-79198571D02*
X141692380Y-79074761D01*
X141740000Y-79012857D01*
X141835238Y-78950952D01*
X142025714Y-78920000D01*
X142359047Y-78920000D01*
X142549523Y-78950952D01*
X142644761Y-79012857D01*
X142692380Y-79074761D01*
X142692380Y-79198571D01*
X142644761Y-79260476D01*
X142549523Y-79322380D01*
X142359047Y-79353333D01*
X142025714Y-79353333D01*
X141835238Y-79322380D01*
X141740000Y-79260476D01*
X141692380Y-79198571D01*
X142692380Y-78300952D02*
X142692380Y-78672380D01*
X142692380Y-78486666D02*
X141692380Y-78486666D01*
X141835238Y-78548571D01*
X141930476Y-78610476D01*
X141978095Y-78672380D01*
X141692380Y-77712857D02*
X141692380Y-78022380D01*
X142168571Y-78053333D01*
X142120952Y-78022380D01*
X142073333Y-77960476D01*
X142073333Y-77805714D01*
X142120952Y-77743809D01*
X142168571Y-77712857D01*
X142263809Y-77681904D01*
X142501904Y-77681904D01*
X142597142Y-77712857D01*
X142644761Y-77743809D01*
X142692380Y-77805714D01*
X142692380Y-77960476D01*
X142644761Y-78022380D01*
X142597142Y-78053333D01*
X142692380Y-76908095D02*
X141692380Y-76908095D01*
X141692380Y-76474761D02*
X141692380Y-76350952D01*
X141740000Y-76289047D01*
X141835238Y-76227142D01*
X142025714Y-76196190D01*
X142359047Y-76196190D01*
X142549523Y-76227142D01*
X142644761Y-76289047D01*
X142692380Y-76350952D01*
X142692380Y-76474761D01*
X142644761Y-76536666D01*
X142549523Y-76598571D01*
X142359047Y-76629523D01*
X142025714Y-76629523D01*
X141835238Y-76598571D01*
X141740000Y-76536666D01*
X141692380Y-76474761D01*
X142692380Y-75577142D02*
X142692380Y-75948571D01*
X142692380Y-75762857D02*
X141692380Y-75762857D01*
X141835238Y-75824761D01*
X141930476Y-75886666D01*
X141978095Y-75948571D01*
X141787619Y-75329523D02*
X141740000Y-75298571D01*
X141692380Y-75236666D01*
X141692380Y-75081904D01*
X141740000Y-75020000D01*
X141787619Y-74989047D01*
X141882857Y-74958095D01*
X141978095Y-74958095D01*
X142120952Y-74989047D01*
X142692380Y-75360476D01*
X142692380Y-74958095D01*
X142692380Y-74184285D02*
X141692380Y-74184285D01*
X141692380Y-73750952D02*
X141692380Y-73627142D01*
X141740000Y-73565238D01*
X141835238Y-73503333D01*
X142025714Y-73472380D01*
X142359047Y-73472380D01*
X142549523Y-73503333D01*
X142644761Y-73565238D01*
X142692380Y-73627142D01*
X142692380Y-73750952D01*
X142644761Y-73812857D01*
X142549523Y-73874761D01*
X142359047Y-73905714D01*
X142025714Y-73905714D01*
X141835238Y-73874761D01*
X141740000Y-73812857D01*
X141692380Y-73750952D01*
X141787619Y-73224761D02*
X141740000Y-73193809D01*
X141692380Y-73131904D01*
X141692380Y-72977142D01*
X141740000Y-72915238D01*
X141787619Y-72884285D01*
X141882857Y-72853333D01*
X141978095Y-72853333D01*
X142120952Y-72884285D01*
X142692380Y-73255714D01*
X142692380Y-72853333D01*
X141692380Y-72636666D02*
X141692380Y-72203333D01*
X142692380Y-72481904D01*
X142692380Y-71460476D02*
X141692380Y-71460476D01*
X141692380Y-71027142D02*
X141692380Y-70903333D01*
X141740000Y-70841428D01*
X141835238Y-70779523D01*
X142025714Y-70748571D01*
X142359047Y-70748571D01*
X142549523Y-70779523D01*
X142644761Y-70841428D01*
X142692380Y-70903333D01*
X142692380Y-71027142D01*
X142644761Y-71089047D01*
X142549523Y-71150952D01*
X142359047Y-71181904D01*
X142025714Y-71181904D01*
X141835238Y-71150952D01*
X141740000Y-71089047D01*
X141692380Y-71027142D01*
X142692380Y-70129523D02*
X142692380Y-70500952D01*
X142692380Y-70315238D02*
X141692380Y-70315238D01*
X141835238Y-70377142D01*
X141930476Y-70439047D01*
X141978095Y-70500952D01*
X142025714Y-69572380D02*
X142692380Y-69572380D01*
X141644761Y-69727142D02*
X142359047Y-69881904D01*
X142359047Y-69479523D01*
X142692380Y-68736666D02*
X141692380Y-68736666D01*
X141692380Y-68303333D02*
X141692380Y-68179523D01*
X141740000Y-68117619D01*
X141835238Y-68055714D01*
X142025714Y-68024761D01*
X142359047Y-68024761D01*
X142549523Y-68055714D01*
X142644761Y-68117619D01*
X142692380Y-68179523D01*
X142692380Y-68303333D01*
X142644761Y-68365238D01*
X142549523Y-68427142D01*
X142359047Y-68458095D01*
X142025714Y-68458095D01*
X141835238Y-68427142D01*
X141740000Y-68365238D01*
X141692380Y-68303333D01*
X142692380Y-67405714D02*
X142692380Y-67777142D01*
X142692380Y-67591428D02*
X141692380Y-67591428D01*
X141835238Y-67653333D01*
X141930476Y-67715238D01*
X141978095Y-67777142D01*
X141692380Y-67189047D02*
X141692380Y-66786666D01*
X142073333Y-67003333D01*
X142073333Y-66910476D01*
X142120952Y-66848571D01*
X142168571Y-66817619D01*
X142263809Y-66786666D01*
X142501904Y-66786666D01*
X142597142Y-66817619D01*
X142644761Y-66848571D01*
X142692380Y-66910476D01*
X142692380Y-67096190D01*
X142644761Y-67158095D01*
X142597142Y-67189047D01*
X142692380Y-66012857D02*
X141692380Y-66012857D01*
X141692380Y-65579523D02*
X141692380Y-65455714D01*
X141740000Y-65393809D01*
X141835238Y-65331904D01*
X142025714Y-65300952D01*
X142359047Y-65300952D01*
X142549523Y-65331904D01*
X142644761Y-65393809D01*
X142692380Y-65455714D01*
X142692380Y-65579523D01*
X142644761Y-65641428D01*
X142549523Y-65703333D01*
X142359047Y-65734285D01*
X142025714Y-65734285D01*
X141835238Y-65703333D01*
X141740000Y-65641428D01*
X141692380Y-65579523D01*
X142025714Y-64743809D02*
X142692380Y-64743809D01*
X141644761Y-64898571D02*
X142359047Y-65053333D01*
X142359047Y-64650952D01*
X142025714Y-63970000D02*
X142692380Y-63815238D01*
X142025714Y-63660476D01*
X142644761Y-63134285D02*
X142692380Y-63196190D01*
X142692380Y-63320000D01*
X142644761Y-63381904D01*
X142597142Y-63412857D01*
X142501904Y-63443809D01*
X142216190Y-63443809D01*
X142120952Y-63412857D01*
X142073333Y-63381904D01*
X142025714Y-63320000D01*
X142025714Y-63196190D01*
X142073333Y-63134285D01*
X142644761Y-62577142D02*
X142692380Y-62639047D01*
X142692380Y-62762857D01*
X142644761Y-62824761D01*
X142597142Y-62855714D01*
X142501904Y-62886666D01*
X142216190Y-62886666D01*
X142120952Y-62855714D01*
X142073333Y-62824761D01*
X142025714Y-62762857D01*
X142025714Y-62639047D01*
X142073333Y-62577142D01*
X155392380Y-80018809D02*
X154392380Y-80018809D01*
X154392380Y-79585476D02*
X154392380Y-79461666D01*
X154440000Y-79399761D01*
X154535238Y-79337857D01*
X154725714Y-79306904D01*
X155059047Y-79306904D01*
X155249523Y-79337857D01*
X155344761Y-79399761D01*
X155392380Y-79461666D01*
X155392380Y-79585476D01*
X155344761Y-79647380D01*
X155249523Y-79709285D01*
X155059047Y-79740238D01*
X154725714Y-79740238D01*
X154535238Y-79709285D01*
X154440000Y-79647380D01*
X154392380Y-79585476D01*
X155392380Y-78687857D02*
X155392380Y-79059285D01*
X155392380Y-78873571D02*
X154392380Y-78873571D01*
X154535238Y-78935476D01*
X154630476Y-78997380D01*
X154678095Y-79059285D01*
X154392380Y-78130714D02*
X154392380Y-78254523D01*
X154440000Y-78316428D01*
X154487619Y-78347380D01*
X154630476Y-78409285D01*
X154820952Y-78440238D01*
X155201904Y-78440238D01*
X155297142Y-78409285D01*
X155344761Y-78378333D01*
X155392380Y-78316428D01*
X155392380Y-78192619D01*
X155344761Y-78130714D01*
X155297142Y-78099761D01*
X155201904Y-78068809D01*
X154963809Y-78068809D01*
X154868571Y-78099761D01*
X154820952Y-78130714D01*
X154773333Y-78192619D01*
X154773333Y-78316428D01*
X154820952Y-78378333D01*
X154868571Y-78409285D01*
X154963809Y-78440238D01*
X155392380Y-77295000D02*
X154392380Y-77295000D01*
X154392380Y-76861666D02*
X154392380Y-76737857D01*
X154440000Y-76675952D01*
X154535238Y-76614047D01*
X154725714Y-76583095D01*
X155059047Y-76583095D01*
X155249523Y-76614047D01*
X155344761Y-76675952D01*
X155392380Y-76737857D01*
X155392380Y-76861666D01*
X155344761Y-76923571D01*
X155249523Y-76985476D01*
X155059047Y-77016428D01*
X154725714Y-77016428D01*
X154535238Y-76985476D01*
X154440000Y-76923571D01*
X154392380Y-76861666D01*
X155392380Y-75964047D02*
X155392380Y-76335476D01*
X155392380Y-76149761D02*
X154392380Y-76149761D01*
X154535238Y-76211666D01*
X154630476Y-76273571D01*
X154678095Y-76335476D01*
X154392380Y-75747380D02*
X154392380Y-75314047D01*
X155392380Y-75592619D01*
X155392380Y-74571190D02*
X154392380Y-74571190D01*
X154392380Y-74137857D02*
X154392380Y-74014047D01*
X154440000Y-73952142D01*
X154535238Y-73890238D01*
X154725714Y-73859285D01*
X155059047Y-73859285D01*
X155249523Y-73890238D01*
X155344761Y-73952142D01*
X155392380Y-74014047D01*
X155392380Y-74137857D01*
X155344761Y-74199761D01*
X155249523Y-74261666D01*
X155059047Y-74292619D01*
X154725714Y-74292619D01*
X154535238Y-74261666D01*
X154440000Y-74199761D01*
X154392380Y-74137857D01*
X154392380Y-73642619D02*
X154392380Y-73240238D01*
X154773333Y-73456904D01*
X154773333Y-73364047D01*
X154820952Y-73302142D01*
X154868571Y-73271190D01*
X154963809Y-73240238D01*
X155201904Y-73240238D01*
X155297142Y-73271190D01*
X155344761Y-73302142D01*
X155392380Y-73364047D01*
X155392380Y-73549761D01*
X155344761Y-73611666D01*
X155297142Y-73642619D01*
X154487619Y-72992619D02*
X154440000Y-72961666D01*
X154392380Y-72899761D01*
X154392380Y-72745000D01*
X154440000Y-72683095D01*
X154487619Y-72652142D01*
X154582857Y-72621190D01*
X154678095Y-72621190D01*
X154820952Y-72652142D01*
X155392380Y-73023571D01*
X155392380Y-72621190D01*
X155392380Y-71847380D02*
X154392380Y-71847380D01*
X154392380Y-71414047D02*
X154392380Y-71290238D01*
X154440000Y-71228333D01*
X154535238Y-71166428D01*
X154725714Y-71135476D01*
X155059047Y-71135476D01*
X155249523Y-71166428D01*
X155344761Y-71228333D01*
X155392380Y-71290238D01*
X155392380Y-71414047D01*
X155344761Y-71475952D01*
X155249523Y-71537857D01*
X155059047Y-71568809D01*
X154725714Y-71568809D01*
X154535238Y-71537857D01*
X154440000Y-71475952D01*
X154392380Y-71414047D01*
X154392380Y-70918809D02*
X154392380Y-70516428D01*
X154773333Y-70733095D01*
X154773333Y-70640238D01*
X154820952Y-70578333D01*
X154868571Y-70547380D01*
X154963809Y-70516428D01*
X155201904Y-70516428D01*
X155297142Y-70547380D01*
X155344761Y-70578333D01*
X155392380Y-70640238D01*
X155392380Y-70825952D01*
X155344761Y-70887857D01*
X155297142Y-70918809D01*
X154392380Y-70299761D02*
X154392380Y-69897380D01*
X154773333Y-70114047D01*
X154773333Y-70021190D01*
X154820952Y-69959285D01*
X154868571Y-69928333D01*
X154963809Y-69897380D01*
X155201904Y-69897380D01*
X155297142Y-69928333D01*
X155344761Y-69959285D01*
X155392380Y-70021190D01*
X155392380Y-70206904D01*
X155344761Y-70268809D01*
X155297142Y-70299761D01*
X155392380Y-69123571D02*
X154392380Y-69123571D01*
X154392380Y-68690238D02*
X154392380Y-68566428D01*
X154440000Y-68504523D01*
X154535238Y-68442619D01*
X154725714Y-68411666D01*
X155059047Y-68411666D01*
X155249523Y-68442619D01*
X155344761Y-68504523D01*
X155392380Y-68566428D01*
X155392380Y-68690238D01*
X155344761Y-68752142D01*
X155249523Y-68814047D01*
X155059047Y-68845000D01*
X154725714Y-68845000D01*
X154535238Y-68814047D01*
X154440000Y-68752142D01*
X154392380Y-68690238D01*
X154392380Y-68195000D02*
X154392380Y-67792619D01*
X154773333Y-68009285D01*
X154773333Y-67916428D01*
X154820952Y-67854523D01*
X154868571Y-67823571D01*
X154963809Y-67792619D01*
X155201904Y-67792619D01*
X155297142Y-67823571D01*
X155344761Y-67854523D01*
X155392380Y-67916428D01*
X155392380Y-68102142D01*
X155344761Y-68164047D01*
X155297142Y-68195000D01*
X154725714Y-67235476D02*
X155392380Y-67235476D01*
X154344761Y-67390238D02*
X155059047Y-67545000D01*
X155059047Y-67142619D01*
X155392380Y-66399761D02*
X154392380Y-66399761D01*
X154392380Y-65966428D02*
X154392380Y-65842619D01*
X154440000Y-65780714D01*
X154535238Y-65718809D01*
X154725714Y-65687857D01*
X155059047Y-65687857D01*
X155249523Y-65718809D01*
X155344761Y-65780714D01*
X155392380Y-65842619D01*
X155392380Y-65966428D01*
X155344761Y-66028333D01*
X155249523Y-66090238D01*
X155059047Y-66121190D01*
X154725714Y-66121190D01*
X154535238Y-66090238D01*
X154440000Y-66028333D01*
X154392380Y-65966428D01*
X154392380Y-65471190D02*
X154392380Y-65068809D01*
X154773333Y-65285476D01*
X154773333Y-65192619D01*
X154820952Y-65130714D01*
X154868571Y-65099761D01*
X154963809Y-65068809D01*
X155201904Y-65068809D01*
X155297142Y-65099761D01*
X155344761Y-65130714D01*
X155392380Y-65192619D01*
X155392380Y-65378333D01*
X155344761Y-65440238D01*
X155297142Y-65471190D01*
X154392380Y-64480714D02*
X154392380Y-64790238D01*
X154868571Y-64821190D01*
X154820952Y-64790238D01*
X154773333Y-64728333D01*
X154773333Y-64573571D01*
X154820952Y-64511666D01*
X154868571Y-64480714D01*
X154963809Y-64449761D01*
X155201904Y-64449761D01*
X155297142Y-64480714D01*
X155344761Y-64511666D01*
X155392380Y-64573571D01*
X155392380Y-64728333D01*
X155344761Y-64790238D01*
X155297142Y-64821190D01*
X154725714Y-63397380D02*
X155535238Y-63397380D01*
X155630476Y-63428333D01*
X155678095Y-63459285D01*
X155725714Y-63521190D01*
X155725714Y-63614047D01*
X155678095Y-63675952D01*
X155344761Y-63397380D02*
X155392380Y-63459285D01*
X155392380Y-63583095D01*
X155344761Y-63645000D01*
X155297142Y-63675952D01*
X155201904Y-63706904D01*
X154916190Y-63706904D01*
X154820952Y-63675952D01*
X154773333Y-63645000D01*
X154725714Y-63583095D01*
X154725714Y-63459285D01*
X154773333Y-63397380D01*
X154725714Y-63087857D02*
X155392380Y-63087857D01*
X154820952Y-63087857D02*
X154773333Y-63056904D01*
X154725714Y-62995000D01*
X154725714Y-62902142D01*
X154773333Y-62840238D01*
X154868571Y-62809285D01*
X155392380Y-62809285D01*
X155392380Y-62221190D02*
X154392380Y-62221190D01*
X155344761Y-62221190D02*
X155392380Y-62283095D01*
X155392380Y-62406904D01*
X155344761Y-62468809D01*
X155297142Y-62499761D01*
X155201904Y-62530714D01*
X154916190Y-62530714D01*
X154820952Y-62499761D01*
X154773333Y-62468809D01*
X154725714Y-62406904D01*
X154725714Y-62283095D01*
X154773333Y-62221190D01*
D13*
X111588571Y-75033571D02*
X112236190Y-75033571D01*
X112312380Y-75064523D01*
X112350476Y-75095476D01*
X112388571Y-75157380D01*
X112388571Y-75250238D01*
X112350476Y-75312142D01*
X112083809Y-75033571D02*
X112121904Y-75095476D01*
X112121904Y-75219285D01*
X112083809Y-75281190D01*
X112045714Y-75312142D01*
X111969523Y-75343095D01*
X111740952Y-75343095D01*
X111664761Y-75312142D01*
X111626666Y-75281190D01*
X111588571Y-75219285D01*
X111588571Y-75095476D01*
X111626666Y-75033571D01*
X111588571Y-74724047D02*
X112121904Y-74724047D01*
X111664761Y-74724047D02*
X111626666Y-74693095D01*
X111588571Y-74631190D01*
X111588571Y-74538333D01*
X111626666Y-74476428D01*
X111702857Y-74445476D01*
X112121904Y-74445476D01*
X112121904Y-73857380D02*
X111321904Y-73857380D01*
X112083809Y-73857380D02*
X112121904Y-73919285D01*
X112121904Y-74043095D01*
X112083809Y-74105000D01*
X112045714Y-74135952D01*
X111969523Y-74166904D01*
X111740952Y-74166904D01*
X111664761Y-74135952D01*
X111626666Y-74105000D01*
X111588571Y-74043095D01*
X111588571Y-73919285D01*
X111626666Y-73857380D01*
X112121904Y-73052619D02*
X111588571Y-73052619D01*
X111321904Y-73052619D02*
X111360000Y-73083571D01*
X111398095Y-73052619D01*
X111360000Y-73021666D01*
X111321904Y-73052619D01*
X111398095Y-73052619D01*
X112121904Y-72650238D02*
X112083809Y-72712142D01*
X112045714Y-72743095D01*
X111969523Y-72774047D01*
X111740952Y-72774047D01*
X111664761Y-72743095D01*
X111626666Y-72712142D01*
X111588571Y-72650238D01*
X111588571Y-72557380D01*
X111626666Y-72495476D01*
X111664761Y-72464523D01*
X111740952Y-72433571D01*
X111969523Y-72433571D01*
X112045714Y-72464523D01*
X112083809Y-72495476D01*
X112121904Y-72557380D01*
X112121904Y-72650238D01*
X111398095Y-72185952D02*
X111360000Y-72155000D01*
X111321904Y-72093095D01*
X111321904Y-71938333D01*
X111360000Y-71876428D01*
X111398095Y-71845476D01*
X111474285Y-71814523D01*
X111550476Y-71814523D01*
X111664761Y-71845476D01*
X112121904Y-72216904D01*
X112121904Y-71814523D01*
X112121904Y-71195476D02*
X112121904Y-71566904D01*
X112121904Y-71381190D02*
X111321904Y-71381190D01*
X111436190Y-71443095D01*
X111512380Y-71505000D01*
X111550476Y-71566904D01*
X112121904Y-70421666D02*
X111588571Y-70421666D01*
X111321904Y-70421666D02*
X111360000Y-70452619D01*
X111398095Y-70421666D01*
X111360000Y-70390714D01*
X111321904Y-70421666D01*
X111398095Y-70421666D01*
X112121904Y-70019285D02*
X112083809Y-70081190D01*
X112045714Y-70112142D01*
X111969523Y-70143095D01*
X111740952Y-70143095D01*
X111664761Y-70112142D01*
X111626666Y-70081190D01*
X111588571Y-70019285D01*
X111588571Y-69926428D01*
X111626666Y-69864523D01*
X111664761Y-69833571D01*
X111740952Y-69802619D01*
X111969523Y-69802619D01*
X112045714Y-69833571D01*
X112083809Y-69864523D01*
X112121904Y-69926428D01*
X112121904Y-70019285D01*
X112121904Y-69183571D02*
X112121904Y-69555000D01*
X112121904Y-69369285D02*
X111321904Y-69369285D01*
X111436190Y-69431190D01*
X111512380Y-69493095D01*
X111550476Y-69555000D01*
X112121904Y-68874047D02*
X112121904Y-68750238D01*
X112083809Y-68688333D01*
X112045714Y-68657380D01*
X111931428Y-68595476D01*
X111779047Y-68564523D01*
X111474285Y-68564523D01*
X111398095Y-68595476D01*
X111360000Y-68626428D01*
X111321904Y-68688333D01*
X111321904Y-68812142D01*
X111360000Y-68874047D01*
X111398095Y-68905000D01*
X111474285Y-68935952D01*
X111664761Y-68935952D01*
X111740952Y-68905000D01*
X111779047Y-68874047D01*
X111817142Y-68812142D01*
X111817142Y-68688333D01*
X111779047Y-68626428D01*
X111740952Y-68595476D01*
X111664761Y-68564523D01*
X112121904Y-67790714D02*
X111588571Y-67790714D01*
X111321904Y-67790714D02*
X111360000Y-67821666D01*
X111398095Y-67790714D01*
X111360000Y-67759761D01*
X111321904Y-67790714D01*
X111398095Y-67790714D01*
X112121904Y-67388333D02*
X112083809Y-67450238D01*
X112045714Y-67481190D01*
X111969523Y-67512142D01*
X111740952Y-67512142D01*
X111664761Y-67481190D01*
X111626666Y-67450238D01*
X111588571Y-67388333D01*
X111588571Y-67295476D01*
X111626666Y-67233571D01*
X111664761Y-67202619D01*
X111740952Y-67171666D01*
X111969523Y-67171666D01*
X112045714Y-67202619D01*
X112083809Y-67233571D01*
X112121904Y-67295476D01*
X112121904Y-67388333D01*
X112121904Y-66552619D02*
X112121904Y-66924047D01*
X112121904Y-66738333D02*
X111321904Y-66738333D01*
X111436190Y-66800238D01*
X111512380Y-66862142D01*
X111550476Y-66924047D01*
X111664761Y-66181190D02*
X111626666Y-66243095D01*
X111588571Y-66274047D01*
X111512380Y-66305000D01*
X111474285Y-66305000D01*
X111398095Y-66274047D01*
X111360000Y-66243095D01*
X111321904Y-66181190D01*
X111321904Y-66057380D01*
X111360000Y-65995476D01*
X111398095Y-65964523D01*
X111474285Y-65933571D01*
X111512380Y-65933571D01*
X111588571Y-65964523D01*
X111626666Y-65995476D01*
X111664761Y-66057380D01*
X111664761Y-66181190D01*
X111702857Y-66243095D01*
X111740952Y-66274047D01*
X111817142Y-66305000D01*
X111969523Y-66305000D01*
X112045714Y-66274047D01*
X112083809Y-66243095D01*
X112121904Y-66181190D01*
X112121904Y-66057380D01*
X112083809Y-65995476D01*
X112045714Y-65964523D01*
X111969523Y-65933571D01*
X111817142Y-65933571D01*
X111740952Y-65964523D01*
X111702857Y-65995476D01*
X111664761Y-66057380D01*
X112121904Y-65159761D02*
X111588571Y-65159761D01*
X111321904Y-65159761D02*
X111360000Y-65190714D01*
X111398095Y-65159761D01*
X111360000Y-65128809D01*
X111321904Y-65159761D01*
X111398095Y-65159761D01*
X112121904Y-64757380D02*
X112083809Y-64819285D01*
X112045714Y-64850238D01*
X111969523Y-64881190D01*
X111740952Y-64881190D01*
X111664761Y-64850238D01*
X111626666Y-64819285D01*
X111588571Y-64757380D01*
X111588571Y-64664523D01*
X111626666Y-64602619D01*
X111664761Y-64571666D01*
X111740952Y-64540714D01*
X111969523Y-64540714D01*
X112045714Y-64571666D01*
X112083809Y-64602619D01*
X112121904Y-64664523D01*
X112121904Y-64757380D01*
X111321904Y-63952619D02*
X111321904Y-64262142D01*
X111702857Y-64293095D01*
X111664761Y-64262142D01*
X111626666Y-64200238D01*
X111626666Y-64045476D01*
X111664761Y-63983571D01*
X111702857Y-63952619D01*
X111779047Y-63921666D01*
X111969523Y-63921666D01*
X112045714Y-63952619D01*
X112083809Y-63983571D01*
X112121904Y-64045476D01*
X112121904Y-64200238D01*
X112083809Y-64262142D01*
X112045714Y-64293095D01*
X111588571Y-63209761D02*
X112121904Y-63055000D01*
X111588571Y-62900238D01*
X112083809Y-62374047D02*
X112121904Y-62435952D01*
X112121904Y-62559761D01*
X112083809Y-62621666D01*
X112045714Y-62652619D01*
X111969523Y-62683571D01*
X111740952Y-62683571D01*
X111664761Y-62652619D01*
X111626666Y-62621666D01*
X111588571Y-62559761D01*
X111588571Y-62435952D01*
X111626666Y-62374047D01*
X112083809Y-61816904D02*
X112121904Y-61878809D01*
X112121904Y-62002619D01*
X112083809Y-62064523D01*
X112045714Y-62095476D01*
X111969523Y-62126428D01*
X111740952Y-62126428D01*
X111664761Y-62095476D01*
X111626666Y-62064523D01*
X111588571Y-62002619D01*
X111588571Y-61878809D01*
X111626666Y-61816904D01*
D14*
X122822142Y-78525714D02*
X123048333Y-79192380D01*
X123274523Y-78525714D01*
X124043571Y-79144761D02*
X123953095Y-79192380D01*
X123772142Y-79192380D01*
X123681666Y-79144761D01*
X123636428Y-79097142D01*
X123591190Y-79001904D01*
X123591190Y-78716190D01*
X123636428Y-78620952D01*
X123681666Y-78573333D01*
X123772142Y-78525714D01*
X123953095Y-78525714D01*
X124043571Y-78573333D01*
X124857857Y-79144761D02*
X124767380Y-79192380D01*
X124586428Y-79192380D01*
X124495952Y-79144761D01*
X124450714Y-79097142D01*
X124405476Y-79001904D01*
X124405476Y-78716190D01*
X124450714Y-78620952D01*
X124495952Y-78573333D01*
X124586428Y-78525714D01*
X124767380Y-78525714D01*
X124857857Y-78573333D01*
X126350714Y-79144761D02*
X126260238Y-79192380D01*
X126079285Y-79192380D01*
X125988809Y-79144761D01*
X125943571Y-79049523D01*
X125943571Y-78668571D01*
X125988809Y-78573333D01*
X126079285Y-78525714D01*
X126260238Y-78525714D01*
X126350714Y-78573333D01*
X126395952Y-78668571D01*
X126395952Y-78763809D01*
X125943571Y-78859047D01*
X126803095Y-78525714D02*
X126803095Y-79192380D01*
X126803095Y-78620952D02*
X126848333Y-78573333D01*
X126938809Y-78525714D01*
X127074523Y-78525714D01*
X127165000Y-78573333D01*
X127210238Y-78668571D01*
X127210238Y-79192380D01*
X128386428Y-79192380D02*
X128386428Y-78525714D01*
X128386428Y-78192380D02*
X128341190Y-78240000D01*
X128386428Y-78287619D01*
X128431666Y-78240000D01*
X128386428Y-78192380D01*
X128386428Y-78287619D01*
X128974523Y-79192380D02*
X128884047Y-79144761D01*
X128838809Y-79097142D01*
X128793571Y-79001904D01*
X128793571Y-78716190D01*
X128838809Y-78620952D01*
X128884047Y-78573333D01*
X128974523Y-78525714D01*
X129110238Y-78525714D01*
X129200714Y-78573333D01*
X129245952Y-78620952D01*
X129291190Y-78716190D01*
X129291190Y-79001904D01*
X129245952Y-79097142D01*
X129200714Y-79144761D01*
X129110238Y-79192380D01*
X128974523Y-79192380D01*
X129879285Y-78192380D02*
X129969761Y-78192380D01*
X130060238Y-78240000D01*
X130105476Y-78287619D01*
X130150714Y-78382857D01*
X130195952Y-78573333D01*
X130195952Y-78811428D01*
X130150714Y-79001904D01*
X130105476Y-79097142D01*
X130060238Y-79144761D01*
X129969761Y-79192380D01*
X129879285Y-79192380D01*
X129788809Y-79144761D01*
X129743571Y-79097142D01*
X129698333Y-79001904D01*
X129653095Y-78811428D01*
X129653095Y-78573333D01*
X129698333Y-78382857D01*
X129743571Y-78287619D01*
X129788809Y-78240000D01*
X129879285Y-78192380D01*
X131191190Y-78525714D02*
X131553095Y-78525714D01*
X131326904Y-78192380D02*
X131326904Y-79049523D01*
X131372142Y-79144761D01*
X131462619Y-79192380D01*
X131553095Y-79192380D01*
X131779285Y-79192380D02*
X132276904Y-78525714D01*
X131779285Y-78525714D02*
X132276904Y-79192380D01*
X133362619Y-79192380D02*
X133362619Y-78525714D01*
X133362619Y-78716190D02*
X133407857Y-78620952D01*
X133453095Y-78573333D01*
X133543571Y-78525714D01*
X133634047Y-78525714D01*
X133860238Y-79192380D02*
X134357857Y-78525714D01*
X133860238Y-78525714D02*
X134357857Y-79192380D01*
X135443571Y-79192380D02*
X135443571Y-78525714D01*
X135443571Y-78192380D02*
X135398333Y-78240000D01*
X135443571Y-78287619D01*
X135488809Y-78240000D01*
X135443571Y-78192380D01*
X135443571Y-78287619D01*
X136031666Y-79192380D02*
X135941190Y-79144761D01*
X135895952Y-79097142D01*
X135850714Y-79001904D01*
X135850714Y-78716190D01*
X135895952Y-78620952D01*
X135941190Y-78573333D01*
X136031666Y-78525714D01*
X136167380Y-78525714D01*
X136257857Y-78573333D01*
X136303095Y-78620952D01*
X136348333Y-78716190D01*
X136348333Y-79001904D01*
X136303095Y-79097142D01*
X136257857Y-79144761D01*
X136167380Y-79192380D01*
X136031666Y-79192380D01*
X136710238Y-78287619D02*
X136755476Y-78240000D01*
X136845952Y-78192380D01*
X137072142Y-78192380D01*
X137162619Y-78240000D01*
X137207857Y-78287619D01*
X137253095Y-78382857D01*
X137253095Y-78478095D01*
X137207857Y-78620952D01*
X136665000Y-79192380D01*
X137253095Y-79192380D01*
X138791190Y-78525714D02*
X138791190Y-79335238D01*
X138745952Y-79430476D01*
X138700714Y-79478095D01*
X138610238Y-79525714D01*
X138474523Y-79525714D01*
X138384047Y-79478095D01*
X138791190Y-79144761D02*
X138700714Y-79192380D01*
X138519761Y-79192380D01*
X138429285Y-79144761D01*
X138384047Y-79097142D01*
X138338809Y-79001904D01*
X138338809Y-78716190D01*
X138384047Y-78620952D01*
X138429285Y-78573333D01*
X138519761Y-78525714D01*
X138700714Y-78525714D01*
X138791190Y-78573333D01*
X139243571Y-78525714D02*
X139243571Y-79192380D01*
X139243571Y-78620952D02*
X139288809Y-78573333D01*
X139379285Y-78525714D01*
X139515000Y-78525714D01*
X139605476Y-78573333D01*
X139650714Y-78668571D01*
X139650714Y-79192380D01*
X140510238Y-79192380D02*
X140510238Y-78192380D01*
X140510238Y-79144761D02*
X140419761Y-79192380D01*
X140238809Y-79192380D01*
X140148333Y-79144761D01*
X140103095Y-79097142D01*
X140057857Y-79001904D01*
X140057857Y-78716190D01*
X140103095Y-78620952D01*
X140148333Y-78573333D01*
X140238809Y-78525714D01*
X140419761Y-78525714D01*
X140510238Y-78573333D01*
D11*
X157775714Y-92118571D02*
X157275714Y-91404285D01*
X156918571Y-92118571D02*
X156918571Y-90618571D01*
X157490000Y-90618571D01*
X157632857Y-90690000D01*
X157704285Y-90761428D01*
X157775714Y-90904285D01*
X157775714Y-91118571D01*
X157704285Y-91261428D01*
X157632857Y-91332857D01*
X157490000Y-91404285D01*
X156918571Y-91404285D01*
X159132857Y-92118571D02*
X158418571Y-92118571D01*
X158418571Y-90618571D01*
X159918571Y-91404285D02*
X159918571Y-92118571D01*
X159418571Y-90618571D02*
X159918571Y-91404285D01*
X160418571Y-90618571D01*
X161704285Y-92118571D02*
X160847142Y-92118571D01*
X161275714Y-92118571D02*
X161275714Y-90618571D01*
X161132857Y-90832857D01*
X160990000Y-90975714D01*
X160847142Y-91047142D01*
X164347142Y-92118571D02*
X163847142Y-91404285D01*
X163490000Y-92118571D02*
X163490000Y-90618571D01*
X164061428Y-90618571D01*
X164204285Y-90690000D01*
X164275714Y-90761428D01*
X164347142Y-90904285D01*
X164347142Y-91118571D01*
X164275714Y-91261428D01*
X164204285Y-91332857D01*
X164061428Y-91404285D01*
X163490000Y-91404285D01*
X165704285Y-92118571D02*
X164990000Y-92118571D01*
X164990000Y-90618571D01*
X166490000Y-91404285D02*
X166490000Y-92118571D01*
X165990000Y-90618571D02*
X166490000Y-91404285D01*
X166990000Y-90618571D01*
X167418571Y-90761428D02*
X167490000Y-90690000D01*
X167632857Y-90618571D01*
X167990000Y-90618571D01*
X168132857Y-90690000D01*
X168204285Y-90761428D01*
X168275714Y-90904285D01*
X168275714Y-91047142D01*
X168204285Y-91261428D01*
X167347142Y-92118571D01*
X168275714Y-92118571D01*
X170061428Y-92118571D02*
X170061428Y-90618571D01*
X170632857Y-90618571D01*
X170775714Y-90690000D01*
X170847142Y-90761428D01*
X170918571Y-90904285D01*
X170918571Y-91118571D01*
X170847142Y-91261428D01*
X170775714Y-91332857D01*
X170632857Y-91404285D01*
X170061428Y-91404285D01*
X172704285Y-92118571D02*
X172704285Y-90618571D01*
X173561428Y-92118571D01*
X173561428Y-90618571D01*
D10*
%TO.C,J3*%
X148256666Y-56852380D02*
X148256666Y-57566666D01*
X148209047Y-57709523D01*
X148113809Y-57804761D01*
X147970952Y-57852380D01*
X147875714Y-57852380D01*
X148637619Y-56852380D02*
X149256666Y-56852380D01*
X148923333Y-57233333D01*
X149066190Y-57233333D01*
X149161428Y-57280952D01*
X149209047Y-57328571D01*
X149256666Y-57423809D01*
X149256666Y-57661904D01*
X149209047Y-57757142D01*
X149161428Y-57804761D01*
X149066190Y-57852380D01*
X148780476Y-57852380D01*
X148685238Y-57804761D01*
X148637619Y-57757142D01*
%TO.C,PS1*%
X154252380Y-100784285D02*
X153252380Y-100784285D01*
X153252380Y-100403333D01*
X153300000Y-100308095D01*
X153347619Y-100260476D01*
X153442857Y-100212857D01*
X153585714Y-100212857D01*
X153680952Y-100260476D01*
X153728571Y-100308095D01*
X153776190Y-100403333D01*
X153776190Y-100784285D01*
X154204761Y-99831904D02*
X154252380Y-99689047D01*
X154252380Y-99450952D01*
X154204761Y-99355714D01*
X154157142Y-99308095D01*
X154061904Y-99260476D01*
X153966666Y-99260476D01*
X153871428Y-99308095D01*
X153823809Y-99355714D01*
X153776190Y-99450952D01*
X153728571Y-99641428D01*
X153680952Y-99736666D01*
X153633333Y-99784285D01*
X153538095Y-99831904D01*
X153442857Y-99831904D01*
X153347619Y-99784285D01*
X153300000Y-99736666D01*
X153252380Y-99641428D01*
X153252380Y-99403333D01*
X153300000Y-99260476D01*
X154252380Y-98308095D02*
X154252380Y-98879523D01*
X154252380Y-98593809D02*
X153252380Y-98593809D01*
X153395238Y-98689047D01*
X153490476Y-98784285D01*
X153538095Y-98879523D01*
%TO.C,K3*%
X106267465Y-72548263D02*
X106267465Y-71548169D01*
X106838947Y-72548263D02*
X106410335Y-71976781D01*
X106838947Y-71548169D02*
X106267465Y-72119651D01*
X107172312Y-71548169D02*
X107791418Y-71548169D01*
X107458053Y-71929157D01*
X107600924Y-71929157D01*
X107696171Y-71976781D01*
X107743794Y-72024404D01*
X107791418Y-72119651D01*
X107791418Y-72357769D01*
X107743794Y-72453016D01*
X107696171Y-72500639D01*
X107600924Y-72548263D01*
X107315182Y-72548263D01*
X107219935Y-72500639D01*
X107172312Y-72453016D01*
%TO.C,J6*%
X121582380Y-81613333D02*
X122296666Y-81613333D01*
X122439523Y-81660952D01*
X122534761Y-81756190D01*
X122582380Y-81899047D01*
X122582380Y-81994285D01*
X121582380Y-80708571D02*
X121582380Y-80899047D01*
X121630000Y-80994285D01*
X121677619Y-81041904D01*
X121820476Y-81137142D01*
X122010952Y-81184761D01*
X122391904Y-81184761D01*
X122487142Y-81137142D01*
X122534761Y-81089523D01*
X122582380Y-80994285D01*
X122582380Y-80803809D01*
X122534761Y-80708571D01*
X122487142Y-80660952D01*
X122391904Y-80613333D01*
X122153809Y-80613333D01*
X122058571Y-80660952D01*
X122010952Y-80708571D01*
X121963333Y-80803809D01*
X121963333Y-80994285D01*
X122010952Y-81089523D01*
X122058571Y-81137142D01*
X122153809Y-81184761D01*
%TO.C,K4*%
X106267465Y-90328263D02*
X106267465Y-89328169D01*
X106838947Y-90328263D02*
X106410335Y-89756781D01*
X106838947Y-89328169D02*
X106267465Y-89899651D01*
X107696171Y-89661534D02*
X107696171Y-90328263D01*
X107458053Y-89280545D02*
X107219935Y-89994898D01*
X107839041Y-89994898D01*
%TO.C,K1*%
X157876205Y-72896583D02*
X157876205Y-71896489D01*
X158447687Y-72896583D02*
X158019075Y-72325101D01*
X158447687Y-71896489D02*
X157876205Y-72467971D01*
X159400158Y-72896583D02*
X158828675Y-72896583D01*
X159114417Y-72896583D02*
X159114417Y-71896489D01*
X159019169Y-72039360D01*
X158923922Y-72134607D01*
X158828675Y-72182230D01*
%TO.C,U2*%
X120872380Y-76851904D02*
X121681904Y-76851904D01*
X121777142Y-76804285D01*
X121824761Y-76756666D01*
X121872380Y-76661428D01*
X121872380Y-76470952D01*
X121824761Y-76375714D01*
X121777142Y-76328095D01*
X121681904Y-76280476D01*
X120872380Y-76280476D01*
X120967619Y-75851904D02*
X120920000Y-75804285D01*
X120872380Y-75709047D01*
X120872380Y-75470952D01*
X120920000Y-75375714D01*
X120967619Y-75328095D01*
X121062857Y-75280476D01*
X121158095Y-75280476D01*
X121300952Y-75328095D01*
X121872380Y-75899523D01*
X121872380Y-75280476D01*
%TO.C,K2*%
X157736205Y-55116583D02*
X157736205Y-54116489D01*
X158307687Y-55116583D02*
X157879075Y-54545101D01*
X158307687Y-54116489D02*
X157736205Y-54687971D01*
X158688675Y-54211736D02*
X158736299Y-54164113D01*
X158831546Y-54116489D01*
X159069664Y-54116489D01*
X159164911Y-54164113D01*
X159212534Y-54211736D01*
X159260158Y-54306983D01*
X159260158Y-54402230D01*
X159212534Y-54545101D01*
X158641052Y-55116583D01*
X159260158Y-55116583D01*
%TO.C,J1*%
X174786666Y-101052380D02*
X174786666Y-101766666D01*
X174739047Y-101909523D01*
X174643809Y-102004761D01*
X174500952Y-102052380D01*
X174405714Y-102052380D01*
X175786666Y-102052380D02*
X175215238Y-102052380D01*
X175500952Y-102052380D02*
X175500952Y-101052380D01*
X175405714Y-101195238D01*
X175310476Y-101290476D01*
X175215238Y-101338095D01*
%TO.C,J2*%
X98806666Y-105612380D02*
X98806666Y-106326666D01*
X98759047Y-106469523D01*
X98663809Y-106564761D01*
X98520952Y-106612380D01*
X98425714Y-106612380D01*
X99235238Y-105707619D02*
X99282857Y-105660000D01*
X99378095Y-105612380D01*
X99616190Y-105612380D01*
X99711428Y-105660000D01*
X99759047Y-105707619D01*
X99806666Y-105802857D01*
X99806666Y-105898095D01*
X99759047Y-106040952D01*
X99187619Y-106612380D01*
X99806666Y-106612380D01*
%TO.C,J5*%
X115992380Y-79073333D02*
X116706666Y-79073333D01*
X116849523Y-79120952D01*
X116944761Y-79216190D01*
X116992380Y-79359047D01*
X116992380Y-79454285D01*
X115992380Y-78120952D02*
X115992380Y-78597142D01*
X116468571Y-78644761D01*
X116420952Y-78597142D01*
X116373333Y-78501904D01*
X116373333Y-78263809D01*
X116420952Y-78168571D01*
X116468571Y-78120952D01*
X116563809Y-78073333D01*
X116801904Y-78073333D01*
X116897142Y-78120952D01*
X116944761Y-78168571D01*
X116992380Y-78263809D01*
X116992380Y-78501904D01*
X116944761Y-78597142D01*
X116897142Y-78644761D01*
D15*
%TO.C,J3*%
X145340000Y-69070000D02*
X145340000Y-59590000D01*
X151840000Y-59590000D02*
X151840000Y-82650000D01*
X142640000Y-63000000D02*
X142640000Y-64000000D01*
X151840000Y-82650000D02*
X145340000Y-82650000D01*
X144030000Y-69070000D02*
X145340000Y-69070000D01*
X145340000Y-59590000D02*
X151840000Y-59590000D01*
X144030000Y-58290000D02*
X153150000Y-58290000D01*
X144030000Y-83950000D02*
X144030000Y-58290000D01*
X145340000Y-73170000D02*
X145340000Y-73170000D01*
X145340000Y-82650000D02*
X145340000Y-73170000D01*
X145340000Y-73170000D02*
X144030000Y-73170000D01*
X142640000Y-64000000D02*
X143640000Y-63500000D01*
X153150000Y-58290000D02*
X153150000Y-83950000D01*
X153150000Y-83950000D02*
X144030000Y-83950000D01*
X143640000Y-63500000D02*
X142640000Y-63000000D01*
%TO.C,PS1*%
X148640000Y-86420000D02*
X148640000Y-106620000D01*
X118060000Y-86420000D02*
X118060000Y-106620000D01*
X118060000Y-106620000D02*
X148640000Y-106620000D01*
X148590000Y-86420000D02*
X118060000Y-86420000D01*
D16*
%TO.C,K3*%
X108610000Y-71250000D02*
X89510000Y-71250000D01*
X89510000Y-55750000D02*
X108610000Y-55750000D01*
X89510000Y-71250000D02*
X89510000Y-55750000D01*
X108610000Y-55750000D02*
X108610000Y-71250000D01*
D17*
X109360000Y-69619000D02*
G75*
G03*
X109360000Y-69619000I-100000J0D01*
G01*
D15*
%TO.C,J6*%
X125730000Y-79950000D02*
X141030000Y-79950000D01*
X125730000Y-82610000D02*
X125730000Y-79950000D01*
X125730000Y-82610000D02*
X141030000Y-82610000D01*
X141030000Y-82610000D02*
X141030000Y-79950000D01*
X124460000Y-82610000D02*
X123130000Y-82610000D01*
X123130000Y-82610000D02*
X123130000Y-81280000D01*
D16*
%TO.C,K4*%
X108610000Y-89030000D02*
X89510000Y-89030000D01*
X108610000Y-73530000D02*
X108610000Y-89030000D01*
X89510000Y-73530000D02*
X108610000Y-73530000D01*
X89510000Y-89030000D02*
X89510000Y-73530000D01*
D17*
X109360000Y-87399000D02*
G75*
G03*
X109360000Y-87399000I-100000J0D01*
G01*
D16*
%TO.C,K1*%
X174790000Y-73530000D02*
X174790000Y-89030000D01*
X155690000Y-89030000D02*
X155690000Y-73530000D01*
X174790000Y-89030000D02*
X155690000Y-89030000D01*
X155690000Y-73530000D02*
X174790000Y-73530000D01*
D17*
X155140000Y-75161000D02*
G75*
G03*
X155140000Y-75161000I-100000J0D01*
G01*
D15*
%TO.C,U2*%
X138660000Y-50345000D02*
X138660000Y-56765000D01*
X120420000Y-50345000D02*
X138660000Y-50345000D01*
X120420000Y-75310000D02*
X120420000Y-76090000D01*
X138660000Y-76090000D02*
X137660000Y-76090000D01*
X120420000Y-50345000D02*
X120420000Y-56765000D01*
X138660000Y-75310000D02*
X138660000Y-76090000D01*
X120420000Y-56765000D02*
X120040000Y-56765000D01*
X120420000Y-76090000D02*
X121420000Y-76090000D01*
D16*
%TO.C,K2*%
X174650000Y-71250000D02*
X155550000Y-71250000D01*
X174650000Y-55750000D02*
X174650000Y-71250000D01*
X155550000Y-71250000D02*
X155550000Y-55750000D01*
X155550000Y-55750000D02*
X174650000Y-55750000D01*
D17*
X155000000Y-57381000D02*
G75*
G03*
X155000000Y-57381000I-100000J0D01*
G01*
D15*
%TO.C,J1*%
X152030000Y-105360000D02*
X152030000Y-100310000D01*
X152030000Y-100310000D02*
X152530000Y-100560000D01*
X152530000Y-95160000D02*
X151980000Y-95460000D01*
X172830000Y-105360000D02*
X152030000Y-105360000D01*
X151980000Y-95460000D02*
X151980000Y-93410000D01*
X152530000Y-93710000D02*
X152530000Y-92760000D01*
X172830000Y-92760000D02*
X172830000Y-105360000D01*
X152530000Y-92760000D02*
X172830000Y-92760000D01*
X152530000Y-100560000D02*
X152530000Y-95160000D01*
X151980000Y-93410000D02*
X152530000Y-93710000D01*
%TO.C,J2*%
X106790000Y-105360000D02*
X106790000Y-92760000D01*
X91390000Y-92760000D02*
X91390000Y-93710000D01*
X90890000Y-95410000D02*
X91390000Y-95160000D01*
X90890000Y-105360000D02*
X106790000Y-105360000D01*
X91390000Y-100560000D02*
X90890000Y-100310000D01*
X91390000Y-93710000D02*
X90890000Y-93410000D01*
X90890000Y-100310000D02*
X90890000Y-105360000D01*
X90890000Y-93410000D02*
X90890000Y-95410000D01*
X106790000Y-92760000D02*
X91390000Y-92760000D01*
X91390000Y-95160000D02*
X91390000Y-100560000D01*
%TO.C,J5*%
X114530000Y-77440000D02*
X118550000Y-77440000D01*
X116030000Y-60720000D02*
X114530000Y-60720000D01*
X116840000Y-76940000D02*
X116840000Y-77440000D01*
X116030000Y-77440000D02*
X116030000Y-76440000D01*
X114530000Y-59720000D02*
X114530000Y-77440000D01*
X118050000Y-60220000D02*
X118050000Y-76940000D01*
X116030000Y-59720000D02*
X116030000Y-60720000D01*
X116030000Y-76440000D02*
X114530000Y-76440000D01*
X114230000Y-59420000D02*
X114230000Y-61920000D01*
X118050000Y-76940000D02*
X116840000Y-76940000D01*
X118550000Y-59720000D02*
X114530000Y-59720000D01*
X116730000Y-59420000D02*
X114230000Y-59420000D01*
X118550000Y-77440000D02*
X118550000Y-59720000D01*
X116840000Y-60220000D02*
X118050000Y-60220000D01*
X116840000Y-59720000D02*
X116840000Y-60220000D01*
%TD*%
M02*
