M48
; DRILL file {KiCad (6.0.4)} date Sat Apr 23 22:51:47 2022
; FORMAT={-:-/ absolute / inch / decimal}
; #@! TF.CreationDate,2022-04-23T22:51:47+05:30
; #@! TF.GenerationSoftware,Kicad,Pcbnew,(6.0.4)
; #@! TF.FileFunction,Plated,1,2,PTH
FMAT,2
INCH
; #@! TA.AperFunction,Plated,PTH,ViaDrill
T1C0.0157
; #@! TA.AperFunction,Plated,PTH,ComponentDrill
T2C0.0374
; #@! TA.AperFunction,Plated,PTH,ComponentDrill
T3C0.0394
; #@! TA.AperFunction,Plated,PTH,ComponentDrill
T4C0.0508
; #@! TA.AperFunction,Plated,PTH,ComponentDrill
T5C0.0520
%
G90
G05
T1
X4.5468Y-3.2669
X4.6Y-3.6
X4.6443Y-3.1327
X4.7477Y-2.9847
X4.7477Y-3.302
X4.7981Y-3.2516
X4.8315Y-2.985
X4.8389Y-2.3192
X4.8527Y-2.7852
X4.868Y-2.3817
X4.9Y-3.4486
X4.9464Y-2.4593
X5.0394Y-3.4365
X5.0435Y-2.8519
X5.0631Y-3.519
X5.0765Y-2.802
X5.1157Y-2.9073
X5.1157Y-3.0459
X5.1158Y-3.4
X5.1369Y-3.6
X5.2002Y-2.6384
X5.2397Y-2.6237
X5.2455Y-3.4793
X5.2536Y-3.128
X5.2558Y-2.3817
X5.2587Y-2.4866
X5.2608Y-2.4473
X5.282Y-2.6651
X5.3241Y-2.6373
X5.337Y-3.1476
X5.3469Y-2.3317
X5.39Y-3.3536
X5.4977Y-2.9051
X5.5649Y-2.5613
X5.5774Y-2.7812
X5.6006Y-2.8997
X5.6006Y-3.3155
X5.631Y-2.7246
X5.7035Y-2.3161
X5.7334Y-2.2377
T2
X4.6Y-2.4539
X4.6Y-2.5524
X4.6Y-2.6508
X4.6Y-2.7492
X4.6Y-2.8476
X4.6Y-2.9461
T3
X4.7Y-3.4969
X4.7Y-3.8984
X4.9Y-3.2
X5.0Y-3.2
X5.1Y-3.2
X5.2Y-3.2
X5.3Y-3.2
X5.4Y-3.2
X5.5Y-3.2
X5.75Y-3.8516
X5.75Y-4.0484
X5.8Y-2.5
X5.8Y-2.6
X5.8Y-2.7
X5.8Y-2.8
X5.8Y-2.9
X5.8Y-3.0
X5.8Y-3.1
X5.9Y-2.5
X5.9Y-2.6
X5.9Y-2.7
X5.9Y-2.8
X5.9Y-2.9
X5.9Y-3.0
X5.9Y-3.1
T4
X4.2189Y-2.5
X4.2189Y-3.2
X6.1811Y-2.5
X6.1866Y-3.2
T5
X3.6598Y-2.2638
X3.6598Y-2.7362
X3.6598Y-2.9638
X3.6598Y-3.4362
X3.7063Y-3.9
X3.9031Y-3.9
X4.1Y-3.9
X4.1402Y-2.2638
X4.1402Y-2.7362
X4.1402Y-2.9638
X4.1402Y-3.4362
X6.1094Y-3.9
X6.2598Y-2.2638
X6.2598Y-2.7362
X6.2654Y-2.9638
X6.2654Y-3.4362
X6.3063Y-3.9
X6.5031Y-3.9
X6.7Y-3.9
X6.7402Y-2.2638
X6.7402Y-2.7362
X6.7457Y-2.9638
X6.7457Y-3.4362
T0
M30
