%TF.GenerationSoftware,KiCad,Pcbnew,(6.0.4)*%
%TF.CreationDate,2022-04-23T22:51:50+05:30*%
%TF.ProjectId,esp32 switch,65737033-3220-4737-9769-7463682e6b69,rev?*%
%TF.SameCoordinates,Original*%
%TF.FileFunction,Copper,L1,Top*%
%TF.FilePolarity,Positive*%
%FSLAX46Y46*%
G04 Gerber Fmt 4.6, Leading zero omitted, Abs format (unit mm)*
G04 Created by KiCad (PCBNEW (6.0.4)) date 2022-04-23 22:51:50*
%MOMM*%
%LPD*%
G01*
G04 APERTURE LIST*
G04 Aperture macros list*
%AMRoundRect*
0 Rectangle with rounded corners*
0 $1 Rounding radius*
0 $2 $3 $4 $5 $6 $7 $8 $9 X,Y pos of 4 corners*
0 Add a 4 corners polygon primitive as box body*
4,1,4,$2,$3,$4,$5,$6,$7,$8,$9,$2,$3,0*
0 Add four circle primitives for the rounded corners*
1,1,$1+$1,$2,$3*
1,1,$1+$1,$4,$5*
1,1,$1+$1,$6,$7*
1,1,$1+$1,$8,$9*
0 Add four rect primitives between the rounded corners*
20,1,$1+$1,$2,$3,$4,$5,0*
20,1,$1+$1,$4,$5,$6,$7,0*
20,1,$1+$1,$6,$7,$8,$9,0*
20,1,$1+$1,$8,$9,$2,$3,0*%
G04 Aperture macros list end*
%TA.AperFunction,ComponentPad*%
%ADD10RoundRect,0.250000X-0.600000X-0.600000X0.600000X-0.600000X0.600000X0.600000X-0.600000X0.600000X0*%
%TD*%
%TA.AperFunction,ComponentPad*%
%ADD11C,1.700000*%
%TD*%
%TA.AperFunction,ComponentPad*%
%ADD12R,2.300000X2.000000*%
%TD*%
%TA.AperFunction,ComponentPad*%
%ADD13C,2.300000*%
%TD*%
%TA.AperFunction,ComponentPad*%
%ADD14R,1.980000X1.980000*%
%TD*%
%TA.AperFunction,ComponentPad*%
%ADD15C,1.980000*%
%TD*%
%TA.AperFunction,ComponentPad*%
%ADD16C,1.935000*%
%TD*%
%TA.AperFunction,ComponentPad*%
%ADD17R,1.700000X1.700000*%
%TD*%
%TA.AperFunction,ComponentPad*%
%ADD18O,1.700000X1.700000*%
%TD*%
%TA.AperFunction,SMDPad,CuDef*%
%ADD19R,2.000000X0.900000*%
%TD*%
%TA.AperFunction,SMDPad,CuDef*%
%ADD20R,0.900000X2.000000*%
%TD*%
%TA.AperFunction,SMDPad,CuDef*%
%ADD21R,5.000000X5.000000*%
%TD*%
%TA.AperFunction,ComponentPad*%
%ADD22R,1.980000X3.960000*%
%TD*%
%TA.AperFunction,ComponentPad*%
%ADD23O,1.980000X3.960000*%
%TD*%
%TA.AperFunction,ComponentPad*%
%ADD24RoundRect,0.250000X-0.725000X0.600000X-0.725000X-0.600000X0.725000X-0.600000X0.725000X0.600000X0*%
%TD*%
%TA.AperFunction,ComponentPad*%
%ADD25O,1.950000X1.700000*%
%TD*%
%TA.AperFunction,ViaPad*%
%ADD26C,0.800000*%
%TD*%
%TA.AperFunction,Conductor*%
%ADD27C,2.000000*%
%TD*%
%TA.AperFunction,Conductor*%
%ADD28C,0.500000*%
%TD*%
%TA.AperFunction,Conductor*%
%ADD29C,0.250000*%
%TD*%
G04 APERTURE END LIST*
D10*
%TO.P,J3,1,Pin_1*%
%TO.N,VCC*%
X147320000Y-63500000D03*
D11*
%TO.P,J3,2,Pin_2*%
%TO.N,GND*%
X149860000Y-63500000D03*
%TO.P,J3,3,Pin_3*%
%TO.N,Net-(J3-Pad3)*%
X147320000Y-66040000D03*
%TO.P,J3,4,Pin_4*%
%TO.N,Net-(J3-Pad4)*%
X149860000Y-66040000D03*
%TO.P,J3,5,Pin_5*%
%TO.N,Net-(J3-Pad5)*%
X147320000Y-68580000D03*
%TO.P,J3,6,Pin_6*%
%TO.N,Net-(J3-Pad6)*%
X149860000Y-68580000D03*
%TO.P,J3,7,Pin_7*%
%TO.N,Net-(J3-Pad7)*%
X147320000Y-71120000D03*
%TO.P,J3,8,Pin_8*%
%TO.N,Net-(J3-Pad8)*%
X149860000Y-71120000D03*
%TO.P,J3,9,Pin_9*%
%TO.N,Net-(J3-Pad9)*%
X147320000Y-73660000D03*
%TO.P,J3,10,Pin_10*%
%TO.N,Net-(J3-Pad10)*%
X149860000Y-73660000D03*
%TO.P,J3,11,Pin_11*%
%TO.N,Net-(J3-Pad11)*%
X147320000Y-76200000D03*
%TO.P,J3,12,Pin_12*%
%TO.N,Net-(J3-Pad12)*%
X149860000Y-76200000D03*
%TO.P,J3,13,Pin_13*%
%TO.N,Net-(J3-Pad13)*%
X147320000Y-78740000D03*
%TO.P,J3,14,Pin_14*%
%TO.N,Net-(J3-Pad14)*%
X149860000Y-78740000D03*
%TD*%
D12*
%TO.P,PS1,1,AC/L*%
%TO.N,AC*%
X146050000Y-102830000D03*
D13*
%TO.P,PS1,2,AC/N*%
%TO.N,Earth*%
X146050000Y-97830000D03*
%TO.P,PS1,3,-Vout*%
%TO.N,GND*%
X119380000Y-99020000D03*
%TO.P,PS1,4,+Vout*%
%TO.N,VCC*%
X119380000Y-88820000D03*
%TD*%
D14*
%TO.P,K3,A1*%
%TO.N,Net-(D3-Pad2)*%
X105160000Y-69500000D03*
D15*
%TO.P,K3,A2*%
%TO.N,VCC*%
X105160000Y-57500000D03*
D16*
%TO.P,K3,COM*%
%TO.N,Earth*%
X107160000Y-63500000D03*
D15*
%TO.P,K3,NC*%
%TO.N,unconnected-(K3-PadNC)*%
X92960000Y-69500000D03*
%TO.P,K3,NO*%
%TO.N,Net-(J2-Pad3)*%
X92960000Y-57500000D03*
%TD*%
D17*
%TO.P,J6,1,Pin_1*%
%TO.N,VCC*%
X124460000Y-81280000D03*
D18*
%TO.P,J6,2,Pin_2*%
%TO.N,Net-(J6-Pad2)*%
X127000000Y-81280000D03*
%TO.P,J6,3,Pin_3*%
%TO.N,Net-(J6-Pad3)*%
X129540000Y-81280000D03*
%TO.P,J6,4,Pin_4*%
%TO.N,Net-(J6-Pad4)*%
X132080000Y-81280000D03*
%TO.P,J6,5,Pin_5*%
%TO.N,Net-(J6-Pad5)*%
X134620000Y-81280000D03*
%TO.P,J6,6,Pin_6*%
%TO.N,Net-(J6-Pad6)*%
X137160000Y-81280000D03*
%TO.P,J6,7,Pin_7*%
%TO.N,GND*%
X139700000Y-81280000D03*
%TD*%
D14*
%TO.P,K4,A1*%
%TO.N,Net-(D4-Pad2)*%
X105160000Y-87280000D03*
D15*
%TO.P,K4,A2*%
%TO.N,VCC*%
X105160000Y-75280000D03*
D16*
%TO.P,K4,COM*%
%TO.N,Earth*%
X107160000Y-81280000D03*
D15*
%TO.P,K4,NC*%
%TO.N,unconnected-(K4-PadNC)*%
X92960000Y-87280000D03*
%TO.P,K4,NO*%
%TO.N,Net-(J2-Pad2)*%
X92960000Y-75280000D03*
%TD*%
D14*
%TO.P,K1,A1*%
%TO.N,VCC*%
X159140000Y-75280000D03*
D15*
%TO.P,K1,A2*%
%TO.N,Net-(D1-Pad2)*%
X159140000Y-87280000D03*
D16*
%TO.P,K1,COM*%
%TO.N,Earth*%
X157140000Y-81280000D03*
D15*
%TO.P,K1,NC*%
%TO.N,unconnected-(K1-PadNC)*%
X171340000Y-75280000D03*
%TO.P,K1,NO*%
%TO.N,Net-(J1-Pad1)*%
X171340000Y-87280000D03*
%TD*%
D19*
%TO.P,U2,1,GND*%
%TO.N,GND*%
X121040000Y-57955000D03*
%TO.P,U2,2,VDD*%
%TO.N,Net-(C1-Pad1)*%
X121040000Y-59225000D03*
%TO.P,U2,3,EN*%
%TO.N,Net-(J6-Pad2)*%
X121040000Y-60495000D03*
%TO.P,U2,4,SENSOR_VP*%
%TO.N,unconnected-(U2-Pad4)*%
X121040000Y-61765000D03*
%TO.P,U2,5,SENSOR_VN*%
%TO.N,unconnected-(U2-Pad5)*%
X121040000Y-63035000D03*
%TO.P,U2,6,IO34*%
%TO.N,Net-(J3-Pad6)*%
X121040000Y-64305000D03*
%TO.P,U2,7,IO35*%
%TO.N,Net-(J3-Pad4)*%
X121040000Y-65575000D03*
%TO.P,U2,8,IO32*%
%TO.N,Net-(J3-Pad10)*%
X121040000Y-66845000D03*
%TO.P,U2,9,IO33*%
%TO.N,Net-(J3-Pad8)*%
X121040000Y-68115000D03*
%TO.P,U2,10,IO25*%
%TO.N,Net-(R2-Pad2)*%
X121040000Y-69385000D03*
%TO.P,U2,11,IO26*%
%TO.N,Net-(R1-Pad2)*%
X121040000Y-70655000D03*
%TO.P,U2,12,IO27*%
%TO.N,Net-(J3-Pad9)*%
X121040000Y-71925000D03*
%TO.P,U2,13,IO14*%
%TO.N,Net-(J3-Pad7)*%
X121040000Y-73195000D03*
%TO.P,U2,14,IO12*%
%TO.N,Net-(J3-Pad11)*%
X121040000Y-74465000D03*
D20*
%TO.P,U2,15,GND*%
%TO.N,GND*%
X123825000Y-75465000D03*
%TO.P,U2,16,IO13*%
%TO.N,Net-(J3-Pad5)*%
X125095000Y-75465000D03*
%TO.P,U2,17,SHD/SD2*%
%TO.N,unconnected-(U2-Pad17)*%
X126365000Y-75465000D03*
%TO.P,U2,18,SWP/SD3*%
%TO.N,unconnected-(U2-Pad18)*%
X127635000Y-75465000D03*
%TO.P,U2,19,SCS/CMD*%
%TO.N,unconnected-(U2-Pad19)*%
X128905000Y-75465000D03*
%TO.P,U2,20,SCK/CLK*%
%TO.N,unconnected-(U2-Pad20)*%
X130175000Y-75465000D03*
%TO.P,U2,21,SDO/SD0*%
%TO.N,unconnected-(U2-Pad21)*%
X131445000Y-75465000D03*
%TO.P,U2,22,SDI/SD1*%
%TO.N,unconnected-(U2-Pad22)*%
X132715000Y-75465000D03*
%TO.P,U2,23,IO15*%
%TO.N,Net-(J3-Pad13)*%
X133985000Y-75465000D03*
%TO.P,U2,24,IO2*%
%TO.N,Net-(J6-Pad6)*%
X135255000Y-75465000D03*
D19*
%TO.P,U2,25,IO0*%
%TO.N,Net-(J6-Pad3)*%
X138040000Y-74465000D03*
%TO.P,U2,26,IO4*%
%TO.N,Net-(J3-Pad3)*%
X138040000Y-73195000D03*
%TO.P,U2,27,IO16*%
%TO.N,Net-(J3-Pad14)*%
X138040000Y-71925000D03*
%TO.P,U2,28,IO17*%
%TO.N,Net-(J3-Pad12)*%
X138040000Y-70655000D03*
%TO.P,U2,29,IO5*%
%TO.N,Net-(J5-Pad2)*%
X138040000Y-69385000D03*
%TO.P,U2,30,IO18*%
%TO.N,Net-(J5-Pad3)*%
X138040000Y-68115000D03*
%TO.P,U2,31,IO19*%
%TO.N,Net-(J5-Pad4)*%
X138040000Y-66845000D03*
%TO.P,U2,32,NC*%
%TO.N,unconnected-(U2-Pad32)*%
X138040000Y-65575000D03*
%TO.P,U2,33,IO21*%
%TO.N,Net-(J5-Pad5)*%
X138040000Y-64305000D03*
%TO.P,U2,34,RXD0/IO3*%
%TO.N,Net-(J6-Pad5)*%
X138040000Y-63035000D03*
%TO.P,U2,35,TXD0/IO1*%
%TO.N,Net-(J6-Pad4)*%
X138040000Y-61765000D03*
%TO.P,U2,36,IO22*%
%TO.N,Net-(R3-Pad2)*%
X138040000Y-60495000D03*
%TO.P,U2,37,IO23*%
%TO.N,Net-(R4-Pad2)*%
X138040000Y-59225000D03*
%TO.P,U2,38,GND*%
%TO.N,GND*%
X138040000Y-57955000D03*
D21*
%TO.P,U2,39,GND*%
X128540000Y-65455000D03*
%TD*%
D14*
%TO.P,K2,A1*%
%TO.N,VCC*%
X159000000Y-57500000D03*
D15*
%TO.P,K2,A2*%
%TO.N,Net-(D2-Pad2)*%
X159000000Y-69500000D03*
D16*
%TO.P,K2,COM*%
%TO.N,Earth*%
X157000000Y-63500000D03*
D15*
%TO.P,K2,NC*%
%TO.N,unconnected-(K2-PadNC)*%
X171200000Y-57500000D03*
%TO.P,K2,NO*%
%TO.N,Net-(J1-Pad2)*%
X171200000Y-69500000D03*
%TD*%
D22*
%TO.P,J1,1,Pin_1*%
%TO.N,Net-(J1-Pad1)*%
X170180000Y-99060000D03*
D23*
%TO.P,J1,2,Pin_2*%
%TO.N,Net-(J1-Pad2)*%
X165180000Y-99060000D03*
%TO.P,J1,3,Pin_3*%
%TO.N,Earth*%
X160180000Y-99060000D03*
%TO.P,J1,4,Pin_4*%
%TO.N,AC*%
X155180000Y-99060000D03*
%TD*%
D22*
%TO.P,J2,1,Pin_1*%
%TO.N,Earth*%
X104140000Y-99060000D03*
D23*
%TO.P,J2,2,Pin_2*%
%TO.N,Net-(J2-Pad2)*%
X99140000Y-99060000D03*
%TO.P,J2,3,Pin_3*%
%TO.N,Net-(J2-Pad3)*%
X94140000Y-99060000D03*
%TD*%
D24*
%TO.P,J5,1,Pin_1*%
%TO.N,VCC*%
X116840000Y-62330000D03*
D25*
%TO.P,J5,2,Pin_2*%
%TO.N,Net-(J5-Pad2)*%
X116840000Y-64830000D03*
%TO.P,J5,3,Pin_3*%
%TO.N,Net-(J5-Pad3)*%
X116840000Y-67330000D03*
%TO.P,J5,4,Pin_4*%
%TO.N,Net-(J5-Pad4)*%
X116840000Y-69830000D03*
%TO.P,J5,5,Pin_5*%
%TO.N,Net-(J5-Pad5)*%
X116840000Y-72330000D03*
%TO.P,J5,6,Pin_6*%
%TO.N,GND*%
X116840000Y-74830000D03*
%TD*%
D26*
%TO.N,Net-(D1-Pad2)*%
X129941500Y-86360000D03*
%TO.N,Net-(D2-Pad2)*%
X124460000Y-87594200D03*
X128602500Y-89382200D03*
%TO.N,Net-(D3-Pad2)*%
X117964400Y-79570100D03*
%TO.N,Net-(D4-Pad2)*%
X133236400Y-88373700D03*
X116840000Y-91440000D03*
%TO.N,Net-(C1-Pad1)*%
X122909000Y-58908700D03*
%TO.N,GND*%
X144869500Y-58828700D03*
X130477500Y-91440000D03*
%TO.N,Net-(J5-Pad4)*%
X133571000Y-63160700D03*
%TO.N,Net-(J5-Pad5)*%
X133625400Y-62160300D03*
%TO.N,Net-(Q2-Pad1)*%
X115489600Y-82978100D03*
X128000300Y-87286200D03*
X125637500Y-62466900D03*
X132085500Y-67014300D03*
%TO.N,Net-(R1-Pad2)*%
X123258500Y-70744000D03*
%TO.N,Net-(R2-Pad2)*%
X128104500Y-72437800D03*
%TO.N,Net-(R3-Pad2)*%
X133498400Y-60495000D03*
%TO.N,Net-(R4-Pad2)*%
X135812200Y-59225000D03*
%TO.N,Net-(J3-Pad4)*%
X135231000Y-66987100D03*
%TO.N,Net-(J3-Pad6)*%
X133088000Y-66642700D03*
X145629100Y-56838800D03*
%TO.N,Net-(J3-Pad7)*%
X121872300Y-82590600D03*
X122719600Y-75817800D03*
X142255500Y-84214200D03*
X142255500Y-73652200D03*
%TO.N,Net-(J3-Pad9)*%
X129939700Y-73844400D03*
X129939700Y-77364900D03*
X135560700Y-79948700D03*
%TO.N,Net-(J3-Pad10)*%
X134162800Y-67693400D03*
%TO.N,Net-(J6-Pad2)*%
X123647200Y-60495000D03*
%TO.N,Net-(J6-Pad3)*%
X133440400Y-79450700D03*
X139641700Y-73789700D03*
%TO.N,Net-(J6-Pad4)*%
X128944000Y-71170100D03*
%TO.N,Net-(J6-Pad5)*%
X141348500Y-65057200D03*
%TO.N,Net-(J3-Pad11)*%
X120591400Y-75810800D03*
X120591400Y-83870800D03*
X136906800Y-85181600D03*
%TO.N,Net-(J3-Pad12)*%
X143027100Y-69204900D03*
%TO.N,Net-(J3-Pad14)*%
X141664700Y-70642400D03*
%TD*%
D27*
%TO.N,Earth*%
X160180000Y-103980000D02*
X160180000Y-99060000D01*
X157480000Y-106680000D02*
X160180000Y-103980000D01*
X106680000Y-106680000D02*
X157480000Y-106680000D01*
X104140000Y-99060000D02*
X104140000Y-104140000D01*
X104140000Y-104140000D02*
X106680000Y-106680000D01*
X157800000Y-93980000D02*
X160180000Y-96360000D01*
X147320000Y-96520000D02*
X149860000Y-93980000D01*
X147320000Y-96560000D02*
X147320000Y-96520000D01*
X146050000Y-97830000D02*
X147320000Y-96560000D01*
X149860000Y-93980000D02*
X157800000Y-93980000D01*
X160180000Y-96360000D02*
X160180000Y-99060000D01*
X165100000Y-91440000D02*
X160180000Y-96360000D01*
X165100000Y-83820000D02*
X165100000Y-91440000D01*
D28*
%TO.N,VCC*%
X148895200Y-62127800D02*
X150547400Y-62127800D01*
X112010000Y-57500000D02*
X105160000Y-57500000D01*
X147113100Y-83363900D02*
X141000000Y-83363900D01*
X159140000Y-57500000D02*
X155175300Y-57500000D01*
X111829800Y-75280000D02*
X117829800Y-81280000D01*
X151160400Y-76745600D02*
X151160400Y-79316600D01*
X152626000Y-75280000D02*
X151160400Y-76745600D01*
X148414700Y-62405300D02*
X148617700Y-62405300D01*
X126734000Y-83554000D02*
X124460000Y-81280000D01*
X157699700Y-74533800D02*
X151803500Y-68637600D01*
X117829800Y-81280000D02*
X124460000Y-81280000D01*
X150547400Y-62127800D02*
X150547500Y-62127800D01*
X147320000Y-63500000D02*
X148414700Y-62405300D01*
X159140000Y-75280000D02*
X157699700Y-75280000D01*
X157699700Y-75280000D02*
X152626000Y-75280000D01*
X148617700Y-62405300D02*
X148895200Y-62127800D01*
X155175300Y-57500000D02*
X150547500Y-62127800D01*
X105160000Y-75280000D02*
X111829800Y-75280000D01*
X151803500Y-68637600D02*
X151803500Y-63383900D01*
X140809900Y-83554000D02*
X126734000Y-83554000D01*
X116840000Y-62330000D02*
X112010000Y-57500000D01*
X151160400Y-79316600D02*
X147113100Y-83363900D01*
X157699700Y-75280000D02*
X157699700Y-74533800D01*
X151803500Y-63383900D02*
X150547500Y-62127800D01*
X141000000Y-83363900D02*
X140809900Y-83554000D01*
%TO.N,Net-(D1-Pad2)*%
X159140000Y-87280000D02*
X158220000Y-86360000D01*
X158220000Y-86360000D02*
X129941500Y-86360000D01*
%TO.N,Net-(D2-Pad2)*%
X124460000Y-87594200D02*
X126248000Y-89382200D01*
X126248000Y-89382200D02*
X128602500Y-89382200D01*
%TO.N,Net-(D3-Pad2)*%
X107894300Y-69500000D02*
X117964400Y-79570100D01*
X105160000Y-69500000D02*
X107894300Y-69500000D01*
%TO.N,Net-(D4-Pad2)*%
X122769511Y-90590489D02*
X131019611Y-90590489D01*
X131019611Y-90590489D02*
X133236400Y-88373700D01*
X116840000Y-91440000D02*
X112680000Y-87280000D01*
X119380000Y-93980000D02*
X122769511Y-90590489D01*
X112680000Y-87280000D02*
X105160000Y-87280000D01*
X116840000Y-91440000D02*
X119380000Y-93980000D01*
%TO.N,Net-(C1-Pad1)*%
X122806600Y-58908700D02*
X122909000Y-58908700D01*
X121040000Y-59225000D02*
X122490300Y-59225000D01*
X122490300Y-59225000D02*
X122806600Y-58908700D01*
%TO.N,GND*%
X123825000Y-76190100D02*
X123825000Y-75465000D01*
X125397500Y-96520000D02*
X130477500Y-91440000D01*
X116840000Y-76130300D02*
X117625000Y-76915300D01*
X143995800Y-57955000D02*
X144869500Y-58828700D01*
X121880000Y-96520000D02*
X125397500Y-96520000D01*
X119589700Y-72730400D02*
X119589700Y-57955000D01*
X123990300Y-57955000D02*
X121040000Y-57955000D01*
X133089700Y-57955000D02*
X128540000Y-62504700D01*
X138040000Y-57955000D02*
X133089700Y-57955000D01*
X138040000Y-57955000D02*
X143995800Y-57955000D01*
X117625000Y-76915300D02*
X123825000Y-76915300D01*
X128540000Y-62504700D02*
X123990300Y-57955000D01*
X123825000Y-76190100D02*
X123825000Y-76915300D01*
X128540000Y-65239900D02*
X128540000Y-62504700D01*
X116840000Y-74830000D02*
X116840000Y-75480100D01*
X116840000Y-75480100D02*
X116840000Y-76130300D01*
X119380000Y-99020000D02*
X121880000Y-96520000D01*
X116840000Y-75480100D02*
X119589700Y-72730400D01*
X128540000Y-65239900D02*
X128540000Y-65455000D01*
X121040000Y-57955000D02*
X119589700Y-57955000D01*
D27*
%TO.N,Earth*%
X165100000Y-83820000D02*
X165100000Y-66040000D01*
X165100000Y-66040000D02*
X162560000Y-63500000D01*
X162560000Y-63500000D02*
X157000000Y-63500000D01*
X162560000Y-81280000D02*
X165100000Y-83820000D01*
X157140000Y-81280000D02*
X162560000Y-81280000D01*
%TO.N,Net-(J1-Pad1)*%
X172860000Y-89040000D02*
X172860000Y-99060000D01*
X172720000Y-88660000D02*
X172720000Y-88900000D01*
X171340000Y-87280000D02*
X172720000Y-88660000D01*
X172720000Y-88900000D02*
X172860000Y-89040000D01*
D29*
%TO.N,Net-(J3-Pad3)*%
X138170600Y-73064400D02*
X138040000Y-73195000D01*
X140295600Y-73064400D02*
X138170600Y-73064400D01*
X147320000Y-66040000D02*
X140295600Y-73064400D01*
%TO.N,Net-(J5-Pad2)*%
X118285600Y-57750200D02*
X118285600Y-63090600D01*
X146045200Y-59515600D02*
X146045200Y-58313400D01*
X145594900Y-59965900D02*
X146045200Y-59515600D01*
X117721500Y-63654700D02*
X116840000Y-63654700D01*
X144420000Y-56688200D02*
X119347600Y-56688200D01*
X116840000Y-64830000D02*
X116840000Y-63654700D01*
X119347600Y-56688200D02*
X118285600Y-57750200D01*
X138040000Y-69385000D02*
X139365300Y-69385000D01*
X139365300Y-69385000D02*
X145594900Y-63155400D01*
X146045200Y-58313400D02*
X144420000Y-56688200D01*
X145594900Y-63155400D02*
X145594900Y-59965900D01*
X118285600Y-63090600D02*
X117721500Y-63654700D01*
%TO.N,Net-(J5-Pad3)*%
X145594900Y-58500000D02*
X145594900Y-59216200D01*
X116840000Y-67330000D02*
X116840000Y-66154700D01*
X143993700Y-63486600D02*
X139365300Y-68115000D01*
X118960800Y-64548100D02*
X118960800Y-57711900D01*
X117354200Y-66154700D02*
X118960800Y-64548100D01*
X143993700Y-60817400D02*
X143993700Y-63486600D01*
X144233400Y-57138500D02*
X145594900Y-58500000D01*
X119534200Y-57138500D02*
X144233400Y-57138500D01*
X145594900Y-59216200D02*
X143993700Y-60817400D01*
X138040000Y-68115000D02*
X139365300Y-68115000D01*
X118960800Y-57711900D02*
X119534200Y-57138500D01*
X116840000Y-66154700D02*
X117354200Y-66154700D01*
%TO.N,Net-(J5-Pad4)*%
X138040000Y-66845000D02*
X136714700Y-66845000D01*
X136714700Y-66304400D02*
X133571000Y-63160700D01*
X136714700Y-66845000D02*
X136714700Y-66304400D01*
%TO.N,Net-(J5-Pad5)*%
X138040000Y-64305000D02*
X135770100Y-64305000D01*
X135770100Y-64305000D02*
X133625400Y-62160300D01*
%TO.N,Net-(Q2-Pad1)*%
X132085500Y-67014300D02*
X132085500Y-67406400D01*
X118246000Y-82978100D02*
X115489600Y-82978100D01*
X125895700Y-85181600D02*
X120449500Y-85181600D01*
X120449500Y-85181600D02*
X118246000Y-82978100D01*
X125905200Y-68280300D02*
X125637500Y-68012600D01*
X132085500Y-67406400D02*
X131211600Y-68280300D01*
X128000300Y-87286200D02*
X125895700Y-85181600D01*
X131211600Y-68280300D02*
X125905200Y-68280300D01*
X125637500Y-68012600D02*
X125637500Y-62466900D01*
%TO.N,Net-(R1-Pad2)*%
X122454300Y-70744000D02*
X123258500Y-70744000D01*
X121040000Y-70655000D02*
X122365300Y-70655000D01*
X122365300Y-70655000D02*
X122454300Y-70744000D01*
%TO.N,Net-(R2-Pad2)*%
X123825400Y-69385000D02*
X126878200Y-72437800D01*
X121040000Y-69385000D02*
X123825400Y-69385000D01*
X126878200Y-72437800D02*
X128104500Y-72437800D01*
%TO.N,Net-(R3-Pad2)*%
X138040000Y-60495000D02*
X133498400Y-60495000D01*
%TO.N,Net-(R4-Pad2)*%
X138040000Y-59225000D02*
X135812200Y-59225000D01*
%TO.N,Net-(J3-Pad4)*%
X121040000Y-65575000D02*
X121926100Y-65575000D01*
X133825600Y-66940100D02*
X135184000Y-66940100D01*
X125532000Y-69180900D02*
X131584800Y-69180900D01*
X135184000Y-66940100D02*
X135231000Y-66987100D01*
X121926100Y-65575000D02*
X125532000Y-69180900D01*
X131584800Y-69180900D02*
X133825600Y-66940100D01*
%TO.N,Net-(J3-Pad5)*%
X144983300Y-82788600D02*
X140761600Y-82788600D01*
X125095000Y-77680000D02*
X125095000Y-75465000D01*
X140761600Y-82788600D02*
X140636400Y-82913800D01*
X147320000Y-68580000D02*
X148540000Y-69800000D01*
X148540000Y-69800000D02*
X148540000Y-79231900D01*
X148540000Y-79231900D02*
X144983300Y-82788600D01*
X140636400Y-82913800D02*
X129423200Y-82913800D01*
X128270000Y-80855000D02*
X125095000Y-77680000D01*
X128270000Y-81760600D02*
X128270000Y-80855000D01*
X129423200Y-82913800D02*
X128270000Y-81760600D01*
%TO.N,Net-(J3-Pad6)*%
X147784900Y-64770500D02*
X146555100Y-64770500D01*
X131398200Y-68730600D02*
X133088000Y-67040800D01*
X146143600Y-60054100D02*
X146495500Y-59702200D01*
X146495500Y-59702200D02*
X146495500Y-57705200D01*
X121040000Y-64305000D02*
X122365300Y-64305000D01*
X149860000Y-68580000D02*
X148590000Y-67310000D01*
X133088000Y-67040800D02*
X133088000Y-66642700D01*
X148590000Y-67310000D02*
X148590000Y-65575600D01*
X146555100Y-64770500D02*
X146143600Y-64359000D01*
X146495500Y-57705200D02*
X145629100Y-56838800D01*
X146143600Y-64359000D02*
X146143600Y-60054100D01*
X122365300Y-65377300D02*
X125718600Y-68730600D01*
X122365300Y-64305000D02*
X122365300Y-65377300D01*
X125718600Y-68730600D02*
X131398200Y-68730600D01*
X148590000Y-65575600D02*
X147784900Y-64770500D01*
%TO.N,Net-(J3-Pad7)*%
X122815700Y-75721700D02*
X122719600Y-75817800D01*
X144787700Y-71120000D02*
X142255500Y-73652200D01*
X123495900Y-84214200D02*
X142255500Y-84214200D01*
X122815700Y-73645400D02*
X122815700Y-75721700D01*
X121040000Y-73195000D02*
X122365300Y-73195000D01*
X121872300Y-82590600D02*
X123495900Y-84214200D01*
X122365300Y-73195000D02*
X122815700Y-73645400D01*
X147320000Y-71120000D02*
X144787700Y-71120000D01*
%TO.N,Net-(J3-Pad8)*%
X146857800Y-67364700D02*
X147771100Y-67364700D01*
X136399100Y-74688200D02*
X136399100Y-74774400D01*
X121040000Y-68115000D02*
X123192300Y-68115000D01*
X149860000Y-70362600D02*
X149860000Y-71120000D01*
X133606400Y-71895500D02*
X136399100Y-74688200D01*
X148590000Y-69092600D02*
X149860000Y-70362600D01*
X140557800Y-73954700D02*
X140557800Y-73664700D01*
X147771100Y-67364700D02*
X148590000Y-68183600D01*
X140557800Y-73664700D02*
X146857800Y-67364700D01*
X125158800Y-70081500D02*
X126774100Y-70081500D01*
X128588100Y-71895500D02*
X133606400Y-71895500D01*
X139272200Y-75240300D02*
X140557800Y-73954700D01*
X123192300Y-68115000D02*
X125158800Y-70081500D01*
X148590000Y-68183600D02*
X148590000Y-69092600D01*
X136865000Y-75240300D02*
X139272200Y-75240300D01*
X136399100Y-74774400D02*
X136865000Y-75240300D01*
X126774100Y-70081500D02*
X128588100Y-71895500D01*
%TO.N,Net-(J3-Pad9)*%
X124284700Y-73844400D02*
X129939700Y-73844400D01*
X132976900Y-77364900D02*
X129939700Y-77364900D01*
X135560700Y-79948700D02*
X132976900Y-77364900D01*
X122365300Y-71925000D02*
X124284700Y-73844400D01*
X121040000Y-71925000D02*
X122365300Y-71925000D01*
%TO.N,Net-(J3-Pad10)*%
X121040000Y-66845000D02*
X122559200Y-66845000D01*
X132225000Y-69631200D02*
X134162800Y-67693400D01*
X122559200Y-66845000D02*
X125345400Y-69631200D01*
X125345400Y-69631200D02*
X132225000Y-69631200D01*
%TO.N,Net-(J6-Pad2)*%
X121040000Y-60495000D02*
X123647200Y-60495000D01*
%TO.N,Net-(J6-Pad3)*%
X139365300Y-74465000D02*
X139365300Y-74066100D01*
X132177300Y-79450700D02*
X133440400Y-79450700D01*
X129540000Y-81280000D02*
X130715300Y-81280000D01*
X130715300Y-81280000D02*
X130715300Y-80912700D01*
X138040000Y-74465000D02*
X139365300Y-74465000D01*
X139365300Y-74066100D02*
X139641700Y-73789700D01*
X130715300Y-80912700D02*
X132177300Y-79450700D01*
%TO.N,Net-(J6-Pad4)*%
X135984800Y-66687000D02*
X135984800Y-67271200D01*
X132793600Y-61966400D02*
X132793600Y-63495800D01*
X138040000Y-61765000D02*
X136714700Y-61765000D01*
X136714700Y-61765000D02*
X136384700Y-61435000D01*
X132793600Y-63495800D02*
X135984800Y-66687000D01*
X135984800Y-67271200D02*
X132085900Y-71170100D01*
X132085900Y-71170100D02*
X128944000Y-71170100D01*
X136384700Y-61435000D02*
X133325000Y-61435000D01*
X133325000Y-61435000D02*
X132793600Y-61966400D01*
%TO.N,Net-(J6-Pad5)*%
X141348500Y-65018200D02*
X141348500Y-65057200D01*
X138040000Y-63035000D02*
X139365300Y-63035000D01*
X139365300Y-63035000D02*
X141348500Y-65018200D01*
%TO.N,Net-(J6-Pad6)*%
X137160000Y-80104700D02*
X137160000Y-78695300D01*
X137160000Y-81280000D02*
X137160000Y-80104700D01*
X137160000Y-78695300D02*
X135255000Y-76790300D01*
X135255000Y-75465000D02*
X135255000Y-76790300D01*
%TO.N,Net-(J3-Pad11)*%
X121040000Y-74465000D02*
X122365300Y-74465000D01*
X122365300Y-75108100D02*
X121662600Y-75810800D01*
X136456500Y-84731300D02*
X121451900Y-84731300D01*
X121451900Y-84731300D02*
X120591400Y-83870800D01*
X136906800Y-85181600D02*
X136456500Y-84731300D01*
X121662600Y-75810800D02*
X120591400Y-75810800D01*
X122365300Y-74465000D02*
X122365300Y-75108100D01*
%TO.N,Net-(J3-Pad12)*%
X141302200Y-69204900D02*
X139852100Y-70655000D01*
X139852100Y-70655000D02*
X138040000Y-70655000D01*
X143027100Y-69204900D02*
X141302200Y-69204900D01*
%TO.N,Net-(J3-Pad13)*%
X147320000Y-78740000D02*
X144173300Y-78740000D01*
X136286000Y-79091300D02*
X133985000Y-76790300D01*
X144173300Y-78740000D02*
X140453700Y-82459600D01*
X136286000Y-80249200D02*
X136286000Y-79091300D01*
X133985000Y-75465000D02*
X133985000Y-76790300D01*
X136612100Y-82459600D02*
X135984600Y-81832100D01*
X140453700Y-82459600D02*
X136612100Y-82459600D01*
X135984600Y-81832100D02*
X135984600Y-80550600D01*
X135984600Y-80550600D02*
X136286000Y-80249200D01*
%TO.N,Net-(J3-Pad14)*%
X138040000Y-71925000D02*
X140382100Y-71925000D01*
X140382100Y-71925000D02*
X141664700Y-70642400D01*
D27*
%TO.N,Net-(J2-Pad2)*%
X96520000Y-78740000D02*
X96420000Y-78740000D01*
X96420000Y-78740000D02*
X92960000Y-75280000D01*
X99140000Y-94060000D02*
X96520000Y-91440000D01*
X99140000Y-94060000D02*
X99140000Y-99060000D01*
X96520000Y-91440000D02*
X96520000Y-78740000D01*
%TD*%
%TA.AperFunction,Conductor*%
%TO.N,GND*%
G36*
X111531550Y-76058502D02*
G01*
X111552524Y-76075405D01*
X117246030Y-81768911D01*
X117258416Y-81783323D01*
X117266949Y-81794918D01*
X117266954Y-81794923D01*
X117271292Y-81800818D01*
X117276870Y-81805557D01*
X117276873Y-81805560D01*
X117311568Y-81835035D01*
X117319084Y-81841965D01*
X117324779Y-81847660D01*
X117327661Y-81849940D01*
X117347051Y-81865281D01*
X117350455Y-81868072D01*
X117389213Y-81900999D01*
X117406085Y-81915333D01*
X117412601Y-81918661D01*
X117417650Y-81922028D01*
X117422779Y-81925195D01*
X117428516Y-81929734D01*
X117494675Y-81960655D01*
X117498569Y-81962558D01*
X117563608Y-81995769D01*
X117570716Y-81997508D01*
X117576359Y-81999607D01*
X117582122Y-82001524D01*
X117588750Y-82004622D01*
X117595912Y-82006112D01*
X117595913Y-82006112D01*
X117660212Y-82019486D01*
X117664496Y-82020456D01*
X117735410Y-82037808D01*
X117741012Y-82038156D01*
X117741015Y-82038156D01*
X117746564Y-82038500D01*
X117746562Y-82038536D01*
X117750555Y-82038775D01*
X117754747Y-82039149D01*
X117761915Y-82040640D01*
X117839320Y-82038546D01*
X117842728Y-82038500D01*
X120924889Y-82038500D01*
X120993010Y-82058502D01*
X121039503Y-82112158D01*
X121049607Y-82182432D01*
X121040316Y-82214640D01*
X121037773Y-82219044D01*
X121035733Y-82225324D01*
X121035732Y-82225325D01*
X121013478Y-82293816D01*
X120978758Y-82400672D01*
X120978068Y-82407233D01*
X120978068Y-82407235D01*
X120968112Y-82501965D01*
X120958796Y-82590600D01*
X120959486Y-82597165D01*
X120978066Y-82773940D01*
X120978758Y-82780528D01*
X120983519Y-82795179D01*
X120996415Y-82834869D01*
X120998443Y-82905837D01*
X120961780Y-82966635D01*
X120898068Y-82997961D01*
X120850386Y-82997053D01*
X120799418Y-82986219D01*
X120693344Y-82963672D01*
X120693339Y-82963672D01*
X120686887Y-82962300D01*
X120495913Y-82962300D01*
X120489461Y-82963672D01*
X120489456Y-82963672D01*
X120421580Y-82978100D01*
X120309112Y-83002006D01*
X120303082Y-83004691D01*
X120303081Y-83004691D01*
X120140678Y-83076997D01*
X120140676Y-83076998D01*
X120134648Y-83079682D01*
X119980147Y-83191934D01*
X119852360Y-83333856D01*
X119849059Y-83339574D01*
X119804634Y-83416520D01*
X119753252Y-83465513D01*
X119683538Y-83478949D01*
X119617627Y-83452563D01*
X119606420Y-83442615D01*
X118749652Y-82585847D01*
X118742112Y-82577561D01*
X118738000Y-82571082D01*
X118688348Y-82524456D01*
X118685507Y-82521702D01*
X118665770Y-82501965D01*
X118662573Y-82499485D01*
X118653551Y-82491780D01*
X118627100Y-82466941D01*
X118621321Y-82461514D01*
X118614375Y-82457695D01*
X118614372Y-82457693D01*
X118603566Y-82451752D01*
X118587047Y-82440901D01*
X118581048Y-82436248D01*
X118571041Y-82428486D01*
X118563772Y-82425341D01*
X118563768Y-82425338D01*
X118530463Y-82410926D01*
X118519813Y-82405709D01*
X118481060Y-82384405D01*
X118461437Y-82379367D01*
X118442734Y-82372963D01*
X118431420Y-82368067D01*
X118431419Y-82368067D01*
X118424145Y-82364919D01*
X118416322Y-82363680D01*
X118416312Y-82363677D01*
X118380476Y-82358001D01*
X118368856Y-82355595D01*
X118333711Y-82346572D01*
X118333710Y-82346572D01*
X118326030Y-82344600D01*
X118305776Y-82344600D01*
X118286065Y-82343049D01*
X118273886Y-82341120D01*
X118266057Y-82339880D01*
X118258165Y-82340626D01*
X118222039Y-82344041D01*
X118210181Y-82344600D01*
X116197800Y-82344600D01*
X116129679Y-82324598D01*
X116110453Y-82308257D01*
X116110180Y-82308560D01*
X116105268Y-82304137D01*
X116100853Y-82299234D01*
X116038509Y-82253938D01*
X115951694Y-82190863D01*
X115951693Y-82190862D01*
X115946352Y-82186982D01*
X115940324Y-82184298D01*
X115940322Y-82184297D01*
X115777919Y-82111991D01*
X115777918Y-82111991D01*
X115771888Y-82109306D01*
X115678488Y-82089453D01*
X115591544Y-82070972D01*
X115591539Y-82070972D01*
X115585087Y-82069600D01*
X115394113Y-82069600D01*
X115387661Y-82070972D01*
X115387656Y-82070972D01*
X115300712Y-82089453D01*
X115207312Y-82109306D01*
X115201282Y-82111991D01*
X115201281Y-82111991D01*
X115038878Y-82184297D01*
X115038876Y-82184298D01*
X115032848Y-82186982D01*
X114878347Y-82299234D01*
X114873926Y-82304144D01*
X114873925Y-82304145D01*
X114764803Y-82425338D01*
X114750560Y-82441156D01*
X114716880Y-82499492D01*
X114668069Y-82584035D01*
X114655073Y-82606544D01*
X114596058Y-82788172D01*
X114595368Y-82794733D01*
X114595368Y-82794735D01*
X114595288Y-82795500D01*
X114576096Y-82978100D01*
X114576786Y-82984665D01*
X114586773Y-83079682D01*
X114596058Y-83168028D01*
X114655073Y-83349656D01*
X114750560Y-83515044D01*
X114878347Y-83656966D01*
X115032848Y-83769218D01*
X115038876Y-83771902D01*
X115038878Y-83771903D01*
X115201281Y-83844209D01*
X115207312Y-83846894D01*
X115300713Y-83866747D01*
X115387656Y-83885228D01*
X115387661Y-83885228D01*
X115394113Y-83886600D01*
X115585087Y-83886600D01*
X115591539Y-83885228D01*
X115591544Y-83885228D01*
X115678487Y-83866747D01*
X115771888Y-83846894D01*
X115777919Y-83844209D01*
X115940322Y-83771903D01*
X115940324Y-83771902D01*
X115946352Y-83769218D01*
X116100853Y-83656966D01*
X116105268Y-83652063D01*
X116110180Y-83647640D01*
X116111305Y-83648889D01*
X116164614Y-83616049D01*
X116197800Y-83611600D01*
X117931406Y-83611600D01*
X117999527Y-83631602D01*
X118020501Y-83648505D01*
X119945843Y-85573847D01*
X119953387Y-85582137D01*
X119957500Y-85588618D01*
X119963277Y-85594043D01*
X120007167Y-85635258D01*
X120010009Y-85638013D01*
X120029731Y-85657735D01*
X120032855Y-85660158D01*
X120032859Y-85660162D01*
X120032924Y-85660212D01*
X120041945Y-85667917D01*
X120074179Y-85698186D01*
X120081127Y-85702005D01*
X120081129Y-85702007D01*
X120091932Y-85707946D01*
X120108459Y-85718802D01*
X120118198Y-85726357D01*
X120118200Y-85726358D01*
X120124460Y-85731214D01*
X120165040Y-85748774D01*
X120175688Y-85753991D01*
X120214440Y-85775295D01*
X120222116Y-85777266D01*
X120222119Y-85777267D01*
X120234062Y-85780333D01*
X120252767Y-85786737D01*
X120271355Y-85794781D01*
X120279178Y-85796020D01*
X120279188Y-85796023D01*
X120315024Y-85801699D01*
X120326644Y-85804105D01*
X120361789Y-85813128D01*
X120369470Y-85815100D01*
X120389724Y-85815100D01*
X120409434Y-85816651D01*
X120429443Y-85819820D01*
X120437335Y-85819074D01*
X120473461Y-85815659D01*
X120485319Y-85815100D01*
X125581106Y-85815100D01*
X125649227Y-85835102D01*
X125670201Y-85852005D01*
X126368123Y-86549928D01*
X127053178Y-87234983D01*
X127087204Y-87297295D01*
X127089393Y-87310906D01*
X127092480Y-87340283D01*
X127105754Y-87466572D01*
X127106758Y-87476128D01*
X127165773Y-87657756D01*
X127261260Y-87823144D01*
X127265678Y-87828051D01*
X127265679Y-87828052D01*
X127378335Y-87953169D01*
X127389047Y-87965066D01*
X127543548Y-88077318D01*
X127549576Y-88080002D01*
X127549578Y-88080003D01*
X127675467Y-88136052D01*
X127718012Y-88154994D01*
X127797849Y-88171964D01*
X127898356Y-88193328D01*
X127898361Y-88193328D01*
X127904813Y-88194700D01*
X128095787Y-88194700D01*
X128102239Y-88193328D01*
X128102244Y-88193328D01*
X128202751Y-88171964D01*
X128282588Y-88154994D01*
X128325133Y-88136052D01*
X128451022Y-88080003D01*
X128451024Y-88080002D01*
X128457052Y-88077318D01*
X128611553Y-87965066D01*
X128622265Y-87953169D01*
X128734921Y-87828052D01*
X128734922Y-87828051D01*
X128739340Y-87823144D01*
X128834827Y-87657756D01*
X128893842Y-87476128D01*
X128894847Y-87466572D01*
X128913114Y-87292765D01*
X128913804Y-87286200D01*
X128907785Y-87228929D01*
X128894532Y-87102835D01*
X128894532Y-87102833D01*
X128893842Y-87096272D01*
X128834827Y-86914644D01*
X128739340Y-86749256D01*
X128717866Y-86725406D01*
X128615975Y-86612245D01*
X128615974Y-86612244D01*
X128611553Y-86607334D01*
X128457052Y-86495082D01*
X128451024Y-86492398D01*
X128451022Y-86492397D01*
X128288619Y-86420091D01*
X128288618Y-86420091D01*
X128282588Y-86417406D01*
X128179529Y-86395500D01*
X128102244Y-86379072D01*
X128102239Y-86379072D01*
X128095787Y-86377700D01*
X128039894Y-86377700D01*
X127971773Y-86357698D01*
X127950803Y-86340799D01*
X127189898Y-85579893D01*
X127155874Y-85517583D01*
X127160939Y-85446767D01*
X127203486Y-85389932D01*
X127270006Y-85365121D01*
X127278995Y-85364800D01*
X129377855Y-85364800D01*
X129445976Y-85384802D01*
X129492469Y-85438458D01*
X129502573Y-85508732D01*
X129473079Y-85573312D01*
X129451916Y-85592736D01*
X129330247Y-85681134D01*
X129325826Y-85686044D01*
X129325825Y-85686045D01*
X129207644Y-85817299D01*
X129202460Y-85823056D01*
X129106973Y-85988444D01*
X129047958Y-86170072D01*
X129047268Y-86176633D01*
X129047268Y-86176635D01*
X129028686Y-86353435D01*
X129027996Y-86360000D01*
X129028686Y-86366565D01*
X129046969Y-86540514D01*
X129047958Y-86549928D01*
X129106973Y-86731556D01*
X129202460Y-86896944D01*
X129330247Y-87038866D01*
X129409259Y-87096272D01*
X129479404Y-87147235D01*
X129484748Y-87151118D01*
X129490776Y-87153802D01*
X129490778Y-87153803D01*
X129653181Y-87226109D01*
X129659212Y-87228794D01*
X129745372Y-87247108D01*
X129839556Y-87267128D01*
X129839561Y-87267128D01*
X129846013Y-87268500D01*
X130036987Y-87268500D01*
X130043439Y-87267128D01*
X130043444Y-87267128D01*
X130137628Y-87247108D01*
X130223788Y-87228794D01*
X130229819Y-87226109D01*
X130392222Y-87153803D01*
X130392224Y-87153802D01*
X130398252Y-87151118D01*
X130403591Y-87147239D01*
X130403598Y-87147235D01*
X130410028Y-87142563D01*
X130484087Y-87118500D01*
X157511169Y-87118500D01*
X157579290Y-87138502D01*
X157625783Y-87192158D01*
X157636254Y-87243295D01*
X157636813Y-87243263D01*
X157637110Y-87248416D01*
X157637110Y-87248421D01*
X157649861Y-87469565D01*
X157650997Y-87489266D01*
X157652134Y-87494312D01*
X157652135Y-87494318D01*
X157685062Y-87640424D01*
X157705170Y-87729649D01*
X157707112Y-87734431D01*
X157707113Y-87734435D01*
X157752562Y-87846361D01*
X157797876Y-87957956D01*
X157926625Y-88168056D01*
X157930009Y-88171962D01*
X157930010Y-88171964D01*
X157945924Y-88190335D01*
X158087961Y-88354307D01*
X158091936Y-88357607D01*
X158091940Y-88357611D01*
X158128201Y-88387715D01*
X158277550Y-88511707D01*
X158490300Y-88636028D01*
X158495120Y-88637868D01*
X158495125Y-88637871D01*
X158607827Y-88680907D01*
X158720499Y-88723932D01*
X158725567Y-88724963D01*
X158725570Y-88724964D01*
X158794417Y-88738971D01*
X158961964Y-88773059D01*
X158967137Y-88773249D01*
X158967140Y-88773249D01*
X159029838Y-88775548D01*
X159104308Y-88778278D01*
X159171649Y-88800762D01*
X159216145Y-88856085D01*
X159223667Y-88926682D01*
X159191827Y-88990139D01*
X159130735Y-89026309D01*
X159117509Y-89028927D01*
X146032964Y-90898148D01*
X142240000Y-91440000D01*
X142234431Y-91451138D01*
X137194826Y-101530349D01*
X137146471Y-101582333D01*
X137082128Y-101600000D01*
X116917872Y-101600000D01*
X116849751Y-101579998D01*
X116805174Y-101530349D01*
X116221102Y-100362204D01*
X118403151Y-100362204D01*
X118407720Y-100368735D01*
X118620736Y-100499271D01*
X118629530Y-100503752D01*
X118861492Y-100599834D01*
X118870877Y-100602883D01*
X119115017Y-100661496D01*
X119124764Y-100663039D01*
X119375070Y-100682739D01*
X119384930Y-100682739D01*
X119635236Y-100663039D01*
X119644983Y-100661496D01*
X119889123Y-100602883D01*
X119898508Y-100599834D01*
X120130470Y-100503752D01*
X120139264Y-100499271D01*
X120350875Y-100369596D01*
X120356922Y-100360330D01*
X120350915Y-100350125D01*
X119392812Y-99392022D01*
X119378868Y-99384408D01*
X119377035Y-99384539D01*
X119370420Y-99388790D01*
X118410544Y-100348666D01*
X118403151Y-100362204D01*
X116221102Y-100362204D01*
X115552465Y-99024930D01*
X117717261Y-99024930D01*
X117736961Y-99275236D01*
X117738504Y-99284983D01*
X117797117Y-99529123D01*
X117800166Y-99538508D01*
X117896248Y-99770470D01*
X117900729Y-99779264D01*
X118030404Y-99990875D01*
X118039670Y-99996922D01*
X118049875Y-99990915D01*
X119007978Y-99032812D01*
X119014356Y-99021132D01*
X119744408Y-99021132D01*
X119744539Y-99022965D01*
X119748790Y-99029580D01*
X120708666Y-99989456D01*
X120722204Y-99996849D01*
X120728735Y-99992280D01*
X120859271Y-99779264D01*
X120863752Y-99770470D01*
X120959834Y-99538508D01*
X120962883Y-99529123D01*
X121021496Y-99284983D01*
X121023039Y-99275236D01*
X121042739Y-99024930D01*
X121042739Y-99015070D01*
X121023039Y-98764764D01*
X121021496Y-98755017D01*
X120962883Y-98510877D01*
X120959834Y-98501492D01*
X120863752Y-98269530D01*
X120859271Y-98260736D01*
X120729596Y-98049125D01*
X120720330Y-98043078D01*
X120710125Y-98049085D01*
X119752022Y-99007188D01*
X119744408Y-99021132D01*
X119014356Y-99021132D01*
X119015592Y-99018868D01*
X119015461Y-99017035D01*
X119011210Y-99010420D01*
X118051334Y-98050544D01*
X118037796Y-98043151D01*
X118031265Y-98047720D01*
X117900729Y-98260736D01*
X117896248Y-98269530D01*
X117800166Y-98501492D01*
X117797117Y-98510877D01*
X117738504Y-98755017D01*
X117736961Y-98764764D01*
X117717261Y-99015070D01*
X117717261Y-99024930D01*
X115552465Y-99024930D01*
X114879835Y-97679670D01*
X118403078Y-97679670D01*
X118409085Y-97689875D01*
X119367188Y-98647978D01*
X119381132Y-98655592D01*
X119382965Y-98655461D01*
X119389580Y-98651210D01*
X120349456Y-97691334D01*
X120356849Y-97677796D01*
X120352280Y-97671265D01*
X120139264Y-97540729D01*
X120130470Y-97536248D01*
X119898508Y-97440166D01*
X119889123Y-97437117D01*
X119644983Y-97378504D01*
X119635236Y-97376961D01*
X119384930Y-97357261D01*
X119375070Y-97357261D01*
X119124764Y-97376961D01*
X119115017Y-97378504D01*
X118870877Y-97437117D01*
X118861492Y-97440166D01*
X118629530Y-97536248D01*
X118620736Y-97540729D01*
X118409125Y-97670404D01*
X118403078Y-97679670D01*
X114879835Y-97679670D01*
X111768101Y-91456202D01*
X111760000Y-91440000D01*
X104512102Y-89024034D01*
X104453802Y-88983517D01*
X104426663Y-88917912D01*
X104439300Y-88848049D01*
X104487702Y-88796109D01*
X104551947Y-88778500D01*
X106198134Y-88778500D01*
X106260316Y-88771745D01*
X106396705Y-88720615D01*
X106513261Y-88633261D01*
X106600615Y-88516705D01*
X106651745Y-88380316D01*
X106658500Y-88318134D01*
X106658500Y-88164500D01*
X106678502Y-88096379D01*
X106732158Y-88049886D01*
X106784500Y-88038500D01*
X112313629Y-88038500D01*
X112381750Y-88058502D01*
X112402724Y-88075405D01*
X115919875Y-91592556D01*
X115950613Y-91642714D01*
X116005473Y-91811556D01*
X116100960Y-91976944D01*
X116228747Y-92118866D01*
X116383248Y-92231118D01*
X116389276Y-92233802D01*
X116389278Y-92233803D01*
X116551681Y-92306109D01*
X116557712Y-92308794D01*
X116564167Y-92310166D01*
X116564176Y-92310169D01*
X116620772Y-92322199D01*
X116683669Y-92356350D01*
X118823969Y-94496650D01*
X118829315Y-94502337D01*
X118870000Y-94548404D01*
X118922677Y-94585632D01*
X118928132Y-94589713D01*
X118978716Y-94629734D01*
X118987321Y-94633756D01*
X119006682Y-94645001D01*
X119014440Y-94650484D01*
X119074305Y-94674610D01*
X119080523Y-94677315D01*
X119132311Y-94701519D01*
X119132317Y-94701521D01*
X119138950Y-94704621D01*
X119148236Y-94706552D01*
X119169675Y-94713046D01*
X119178489Y-94716598D01*
X119185719Y-94717698D01*
X119185723Y-94717699D01*
X119242277Y-94726302D01*
X119248986Y-94727509D01*
X119263563Y-94730541D01*
X119312115Y-94740640D01*
X119321599Y-94740383D01*
X119343962Y-94741771D01*
X119344638Y-94741874D01*
X119346117Y-94742099D01*
X119346120Y-94742099D01*
X119353349Y-94743199D01*
X119360640Y-94742606D01*
X119360643Y-94742606D01*
X119417632Y-94737970D01*
X119424441Y-94737601D01*
X119466921Y-94736452D01*
X119488920Y-94735857D01*
X119498103Y-94733422D01*
X119520171Y-94729630D01*
X119529637Y-94728860D01*
X119591009Y-94708979D01*
X119597537Y-94707058D01*
X119652805Y-94692403D01*
X119659884Y-94690526D01*
X119668248Y-94686051D01*
X119688865Y-94677278D01*
X119690933Y-94676608D01*
X119690936Y-94676607D01*
X119697899Y-94674351D01*
X119704152Y-94670557D01*
X119704162Y-94670552D01*
X119753050Y-94640885D01*
X119758972Y-94637507D01*
X119809379Y-94610536D01*
X119809383Y-94610533D01*
X119815833Y-94607082D01*
X119822951Y-94600796D01*
X119840989Y-94587522D01*
X119844311Y-94585506D01*
X119844315Y-94585503D01*
X119849107Y-94582595D01*
X119857484Y-94575197D01*
X119896652Y-94536029D01*
X119902340Y-94530682D01*
X119942918Y-94494845D01*
X119948404Y-94490000D01*
X119955995Y-94479259D01*
X119969797Y-94462884D01*
X123046787Y-91385894D01*
X123109099Y-91351868D01*
X123135882Y-91348989D01*
X130952541Y-91348989D01*
X130971491Y-91350422D01*
X130985726Y-91352588D01*
X130985730Y-91352588D01*
X130992960Y-91353688D01*
X131000252Y-91353095D01*
X131000255Y-91353095D01*
X131045629Y-91349404D01*
X131055844Y-91348989D01*
X131063904Y-91348989D01*
X131077194Y-91347440D01*
X131092118Y-91345700D01*
X131096493Y-91345267D01*
X131161950Y-91339943D01*
X131161953Y-91339942D01*
X131169248Y-91339349D01*
X131176212Y-91337093D01*
X131182171Y-91335902D01*
X131188026Y-91334518D01*
X131195292Y-91333671D01*
X131263938Y-91308754D01*
X131268066Y-91307337D01*
X131330547Y-91287096D01*
X131330549Y-91287095D01*
X131337510Y-91284840D01*
X131343765Y-91281044D01*
X131349239Y-91278538D01*
X131354669Y-91275819D01*
X131361548Y-91273322D01*
X131422587Y-91233303D01*
X131426291Y-91230966D01*
X131488718Y-91193084D01*
X131497095Y-91185686D01*
X131497119Y-91185713D01*
X131500111Y-91183060D01*
X131503344Y-91180357D01*
X131509463Y-91176345D01*
X131562739Y-91120106D01*
X131565117Y-91117664D01*
X133392731Y-89290050D01*
X133455628Y-89255899D01*
X133512224Y-89243869D01*
X133512233Y-89243866D01*
X133518688Y-89242494D01*
X133524719Y-89239809D01*
X133687122Y-89167503D01*
X133687124Y-89167502D01*
X133693152Y-89164818D01*
X133847653Y-89052566D01*
X133890553Y-89004921D01*
X133971021Y-88915552D01*
X133971022Y-88915551D01*
X133975440Y-88910644D01*
X134070927Y-88745256D01*
X134129942Y-88563628D01*
X134130856Y-88554938D01*
X134149214Y-88380265D01*
X134149904Y-88373700D01*
X134131091Y-88194700D01*
X134130632Y-88190335D01*
X134130632Y-88190333D01*
X134129942Y-88183772D01*
X134070927Y-88002144D01*
X133975440Y-87836756D01*
X133847653Y-87694834D01*
X133693152Y-87582582D01*
X133687124Y-87579898D01*
X133687122Y-87579897D01*
X133524719Y-87507591D01*
X133524718Y-87507591D01*
X133518688Y-87504906D01*
X133420795Y-87484098D01*
X133338344Y-87466572D01*
X133338339Y-87466572D01*
X133331887Y-87465200D01*
X133140913Y-87465200D01*
X133134461Y-87466572D01*
X133134456Y-87466572D01*
X133052005Y-87484098D01*
X132954112Y-87504906D01*
X132948082Y-87507591D01*
X132948081Y-87507591D01*
X132785678Y-87579897D01*
X132785676Y-87579898D01*
X132779648Y-87582582D01*
X132625147Y-87694834D01*
X132497360Y-87836756D01*
X132401873Y-88002144D01*
X132347965Y-88168056D01*
X132347013Y-88170985D01*
X132316275Y-88221144D01*
X130742335Y-89795084D01*
X130680023Y-89829110D01*
X130653240Y-89831989D01*
X129585032Y-89831989D01*
X129516911Y-89811987D01*
X129470418Y-89758331D01*
X129460314Y-89688057D01*
X129465199Y-89667053D01*
X129483940Y-89609374D01*
X129496042Y-89572128D01*
X129516004Y-89382200D01*
X129503545Y-89263657D01*
X129496732Y-89198835D01*
X129496732Y-89198833D01*
X129496042Y-89192272D01*
X129437027Y-89010644D01*
X129425189Y-88990139D01*
X129376226Y-88905334D01*
X129341540Y-88845256D01*
X129323239Y-88824930D01*
X129218175Y-88708245D01*
X129218174Y-88708244D01*
X129213753Y-88703334D01*
X129080502Y-88606521D01*
X129064594Y-88594963D01*
X129064593Y-88594962D01*
X129059252Y-88591082D01*
X129053224Y-88588398D01*
X129053222Y-88588397D01*
X128890819Y-88516091D01*
X128890818Y-88516091D01*
X128884788Y-88513406D01*
X128791388Y-88493553D01*
X128704444Y-88475072D01*
X128704439Y-88475072D01*
X128697987Y-88473700D01*
X128507013Y-88473700D01*
X128500561Y-88475072D01*
X128500556Y-88475072D01*
X128413612Y-88493553D01*
X128320212Y-88513406D01*
X128314182Y-88516091D01*
X128314181Y-88516091D01*
X128151778Y-88588397D01*
X128151776Y-88588398D01*
X128145748Y-88591082D01*
X128140409Y-88594961D01*
X128140402Y-88594965D01*
X128133972Y-88599637D01*
X128059913Y-88623700D01*
X126614371Y-88623700D01*
X126546250Y-88603698D01*
X126525276Y-88586795D01*
X125380125Y-87441644D01*
X125349387Y-87391485D01*
X125332751Y-87340283D01*
X125294527Y-87222644D01*
X125199040Y-87057256D01*
X125071253Y-86915334D01*
X124916752Y-86803082D01*
X124910724Y-86800398D01*
X124910722Y-86800397D01*
X124748319Y-86728091D01*
X124748318Y-86728091D01*
X124742288Y-86725406D01*
X124648887Y-86705553D01*
X124561944Y-86687072D01*
X124561939Y-86687072D01*
X124555487Y-86685700D01*
X124364513Y-86685700D01*
X124358061Y-86687072D01*
X124358056Y-86687072D01*
X124271113Y-86705553D01*
X124177712Y-86725406D01*
X124171682Y-86728091D01*
X124171681Y-86728091D01*
X124009278Y-86800397D01*
X124009276Y-86800398D01*
X124003248Y-86803082D01*
X123848747Y-86915334D01*
X123720960Y-87057256D01*
X123625473Y-87222644D01*
X123566458Y-87404272D01*
X123565768Y-87410833D01*
X123565768Y-87410835D01*
X123559391Y-87471513D01*
X123546496Y-87594200D01*
X123566458Y-87784128D01*
X123625473Y-87965756D01*
X123720960Y-88131144D01*
X123725378Y-88136051D01*
X123725379Y-88136052D01*
X123844325Y-88268155D01*
X123848747Y-88273066D01*
X123910778Y-88318134D01*
X123985551Y-88372460D01*
X124003248Y-88385318D01*
X124009276Y-88388002D01*
X124009278Y-88388003D01*
X124171681Y-88460309D01*
X124177712Y-88462994D01*
X124184167Y-88464366D01*
X124184176Y-88464369D01*
X124240772Y-88476399D01*
X124303669Y-88510550D01*
X125410013Y-89616894D01*
X125444039Y-89679206D01*
X125438974Y-89750021D01*
X125396427Y-89806857D01*
X125329907Y-89831668D01*
X125320918Y-89831989D01*
X122836574Y-89831989D01*
X122817625Y-89830556D01*
X122817418Y-89830525D01*
X122796162Y-89827291D01*
X122788870Y-89827884D01*
X122788867Y-89827884D01*
X122743502Y-89831574D01*
X122733288Y-89831989D01*
X122725218Y-89831989D01*
X122721598Y-89832411D01*
X122721580Y-89832412D01*
X122696972Y-89835281D01*
X122692611Y-89835713D01*
X122667492Y-89837756D01*
X122627172Y-89841035D01*
X122627169Y-89841036D01*
X122619874Y-89841629D01*
X122612910Y-89843885D01*
X122606951Y-89845076D01*
X122601096Y-89846460D01*
X122593830Y-89847307D01*
X122525184Y-89872224D01*
X122521056Y-89873641D01*
X122458575Y-89893882D01*
X122458573Y-89893883D01*
X122451612Y-89896138D01*
X122445357Y-89899934D01*
X122439883Y-89902440D01*
X122434453Y-89905159D01*
X122427574Y-89907656D01*
X122366527Y-89947680D01*
X122362838Y-89950007D01*
X122345100Y-89960771D01*
X122305204Y-89984980D01*
X122305199Y-89984984D01*
X122300403Y-89987894D01*
X122296196Y-89991610D01*
X122296193Y-89991612D01*
X122292056Y-89995266D01*
X122292027Y-89995292D01*
X122292004Y-89995266D01*
X122289014Y-89997915D01*
X122285775Y-90000623D01*
X122279659Y-90004633D01*
X122274632Y-90009940D01*
X122274628Y-90009943D01*
X122226383Y-90060872D01*
X122224005Y-90063314D01*
X119469095Y-92818224D01*
X119406783Y-92852250D01*
X119335968Y-92847185D01*
X119290905Y-92818224D01*
X117760125Y-91287444D01*
X117729387Y-91237285D01*
X117713818Y-91189367D01*
X117674527Y-91068444D01*
X117579040Y-90903056D01*
X117451253Y-90761134D01*
X117296752Y-90648882D01*
X117290724Y-90646198D01*
X117290722Y-90646197D01*
X117128319Y-90573891D01*
X117128318Y-90573891D01*
X117122288Y-90571206D01*
X117115833Y-90569834D01*
X117115824Y-90569831D01*
X117059228Y-90557801D01*
X116996331Y-90523650D01*
X115292681Y-88820000D01*
X117716372Y-88820000D01*
X117736854Y-89080249D01*
X117738008Y-89085056D01*
X117738009Y-89085062D01*
X117765324Y-89198835D01*
X117797796Y-89334089D01*
X117799689Y-89338660D01*
X117799690Y-89338662D01*
X117893677Y-89565565D01*
X117897697Y-89575271D01*
X118034097Y-89797856D01*
X118203637Y-89996363D01*
X118402144Y-90165903D01*
X118624729Y-90302303D01*
X118629299Y-90304196D01*
X118629303Y-90304198D01*
X118861338Y-90400310D01*
X118865911Y-90402204D01*
X118954931Y-90423576D01*
X119114938Y-90461991D01*
X119114944Y-90461992D01*
X119119751Y-90463146D01*
X119380000Y-90483628D01*
X119640249Y-90463146D01*
X119645056Y-90461992D01*
X119645062Y-90461991D01*
X119805069Y-90423576D01*
X119894089Y-90402204D01*
X119898662Y-90400310D01*
X120130697Y-90304198D01*
X120130701Y-90304196D01*
X120135271Y-90302303D01*
X120357856Y-90165903D01*
X120556363Y-89996363D01*
X120725903Y-89797856D01*
X120862303Y-89575271D01*
X120866324Y-89565565D01*
X120960310Y-89338662D01*
X120960311Y-89338660D01*
X120962204Y-89334089D01*
X120994676Y-89198835D01*
X121021991Y-89085062D01*
X121021992Y-89085056D01*
X121023146Y-89080249D01*
X121043628Y-88820000D01*
X121023146Y-88559751D01*
X121021992Y-88554944D01*
X121021991Y-88554938D01*
X120965954Y-88321531D01*
X120962204Y-88305911D01*
X120940924Y-88254536D01*
X120864198Y-88069303D01*
X120864196Y-88069299D01*
X120862303Y-88064729D01*
X120725903Y-87842144D01*
X120556363Y-87643637D01*
X120357856Y-87474097D01*
X120135271Y-87337697D01*
X120130701Y-87335804D01*
X120130697Y-87335802D01*
X119898662Y-87239690D01*
X119898660Y-87239689D01*
X119894089Y-87237796D01*
X119805069Y-87216424D01*
X119645062Y-87178009D01*
X119645056Y-87178008D01*
X119640249Y-87176854D01*
X119380000Y-87156372D01*
X119119751Y-87176854D01*
X119114944Y-87178008D01*
X119114938Y-87178009D01*
X118954931Y-87216424D01*
X118865911Y-87237796D01*
X118861340Y-87239689D01*
X118861338Y-87239690D01*
X118629303Y-87335802D01*
X118629299Y-87335804D01*
X118624729Y-87337697D01*
X118402144Y-87474097D01*
X118203637Y-87643637D01*
X118034097Y-87842144D01*
X117897697Y-88064729D01*
X117895804Y-88069299D01*
X117895802Y-88069303D01*
X117819076Y-88254536D01*
X117797796Y-88305911D01*
X117794046Y-88321531D01*
X117738009Y-88554938D01*
X117738008Y-88554944D01*
X117736854Y-88559751D01*
X117716372Y-88820000D01*
X115292681Y-88820000D01*
X113263770Y-86791089D01*
X113251384Y-86776677D01*
X113242851Y-86765082D01*
X113242846Y-86765077D01*
X113238508Y-86759182D01*
X113232930Y-86754443D01*
X113232927Y-86754440D01*
X113198232Y-86724965D01*
X113190716Y-86718035D01*
X113185021Y-86712340D01*
X113178880Y-86707482D01*
X113162749Y-86694719D01*
X113159345Y-86691928D01*
X113109297Y-86649409D01*
X113109295Y-86649408D01*
X113103715Y-86644667D01*
X113097199Y-86641339D01*
X113092150Y-86637972D01*
X113087021Y-86634805D01*
X113081284Y-86630266D01*
X113015125Y-86599345D01*
X113011225Y-86597439D01*
X112946192Y-86564231D01*
X112939084Y-86562492D01*
X112933441Y-86560393D01*
X112927678Y-86558476D01*
X112921050Y-86555378D01*
X112849583Y-86540513D01*
X112845299Y-86539543D01*
X112774390Y-86522192D01*
X112768788Y-86521844D01*
X112768785Y-86521844D01*
X112763236Y-86521500D01*
X112763238Y-86521464D01*
X112759245Y-86521225D01*
X112755053Y-86520851D01*
X112747885Y-86519360D01*
X112681675Y-86521151D01*
X112670479Y-86521454D01*
X112667072Y-86521500D01*
X106784500Y-86521500D01*
X106716379Y-86501498D01*
X106669886Y-86447842D01*
X106658500Y-86395500D01*
X106658500Y-86241866D01*
X106651745Y-86179684D01*
X106600615Y-86043295D01*
X106513261Y-85926739D01*
X106396705Y-85839385D01*
X106388304Y-85836235D01*
X106385459Y-85834678D01*
X106335313Y-85784419D01*
X106320300Y-85715028D01*
X106345186Y-85648536D01*
X106406123Y-85604626D01*
X110027302Y-84397566D01*
X111742814Y-83825729D01*
X111742815Y-83825728D01*
X111760000Y-83820000D01*
X111760000Y-78740000D01*
X105948106Y-76802702D01*
X105889806Y-76762185D01*
X105862667Y-76696580D01*
X105875304Y-76626717D01*
X105923437Y-76574937D01*
X105925274Y-76573842D01*
X105929926Y-76571563D01*
X105977343Y-76537740D01*
X106126321Y-76431476D01*
X106126326Y-76431472D01*
X106130533Y-76428471D01*
X106167674Y-76391460D01*
X106301420Y-76258179D01*
X106305076Y-76254536D01*
X106422609Y-76090973D01*
X106478604Y-76047326D01*
X106524931Y-76038500D01*
X111463429Y-76038500D01*
X111531550Y-76058502D01*
G37*
%TD.AperFunction*%
%TA.AperFunction,Conductor*%
G36*
X146112395Y-71773502D02*
G01*
X146151707Y-71813665D01*
X146219987Y-71925088D01*
X146366250Y-72093938D01*
X146538126Y-72236632D01*
X146578953Y-72260489D01*
X146611445Y-72279476D01*
X146660169Y-72331114D01*
X146673240Y-72400897D01*
X146646509Y-72466669D01*
X146606055Y-72500027D01*
X146593607Y-72506507D01*
X146589474Y-72509610D01*
X146589471Y-72509612D01*
X146423790Y-72634009D01*
X146414965Y-72640635D01*
X146260629Y-72802138D01*
X146257715Y-72806410D01*
X146257714Y-72806411D01*
X146235602Y-72838826D01*
X146134743Y-72986680D01*
X146108274Y-73043703D01*
X146047093Y-73175507D01*
X146040688Y-73189305D01*
X145980989Y-73404570D01*
X145957251Y-73626695D01*
X145957548Y-73631848D01*
X145957548Y-73631851D01*
X145966137Y-73780810D01*
X145970110Y-73849715D01*
X145971247Y-73854761D01*
X145971248Y-73854767D01*
X145989668Y-73936498D01*
X146019222Y-74067639D01*
X146064973Y-74180310D01*
X146090386Y-74242895D01*
X146103266Y-74274616D01*
X146154019Y-74357438D01*
X146215387Y-74457581D01*
X146219987Y-74465088D01*
X146366250Y-74633938D01*
X146538126Y-74776632D01*
X146608595Y-74817811D01*
X146611445Y-74819476D01*
X146660169Y-74871114D01*
X146673240Y-74940897D01*
X146646509Y-75006669D01*
X146606055Y-75040027D01*
X146593607Y-75046507D01*
X146589474Y-75049610D01*
X146589471Y-75049612D01*
X146419100Y-75177530D01*
X146414965Y-75180635D01*
X146411393Y-75184373D01*
X146264904Y-75337665D01*
X146260629Y-75342138D01*
X146134743Y-75526680D01*
X146098000Y-75605836D01*
X146047964Y-75713631D01*
X146040688Y-75729305D01*
X145980989Y-75944570D01*
X145957251Y-76166695D01*
X145957548Y-76171848D01*
X145957548Y-76171851D01*
X145962074Y-76250344D01*
X145970110Y-76389715D01*
X145971247Y-76394761D01*
X145971248Y-76394767D01*
X145990815Y-76481589D01*
X146019222Y-76607639D01*
X146103266Y-76814616D01*
X146152109Y-76894320D01*
X146207197Y-76984216D01*
X146219987Y-77005088D01*
X146366250Y-77173938D01*
X146538126Y-77316632D01*
X146608595Y-77357811D01*
X146611445Y-77359476D01*
X146660169Y-77411114D01*
X146673240Y-77480897D01*
X146646509Y-77546669D01*
X146606055Y-77580027D01*
X146593607Y-77586507D01*
X146589474Y-77589610D01*
X146589471Y-77589612D01*
X146421282Y-77715892D01*
X146414965Y-77720635D01*
X146399846Y-77736456D01*
X146309565Y-77830930D01*
X146260629Y-77882138D01*
X146257715Y-77886410D01*
X146257714Y-77886411D01*
X146145095Y-78051504D01*
X146090184Y-78096507D01*
X146041007Y-78106500D01*
X144252068Y-78106500D01*
X144240885Y-78105973D01*
X144233392Y-78104298D01*
X144225466Y-78104547D01*
X144225465Y-78104547D01*
X144165302Y-78106438D01*
X144161344Y-78106500D01*
X144133444Y-78106500D01*
X144129454Y-78107004D01*
X144117620Y-78107936D01*
X144073411Y-78109326D01*
X144065797Y-78111538D01*
X144065792Y-78111539D01*
X144053959Y-78114977D01*
X144034596Y-78118988D01*
X144014503Y-78121526D01*
X144007136Y-78124443D01*
X144007131Y-78124444D01*
X143973392Y-78137802D01*
X143962165Y-78141646D01*
X143919707Y-78153982D01*
X143912881Y-78158019D01*
X143902272Y-78164293D01*
X143884524Y-78172988D01*
X143865683Y-78180448D01*
X143859267Y-78185110D01*
X143859266Y-78185110D01*
X143829913Y-78206436D01*
X143819993Y-78212952D01*
X143788765Y-78231420D01*
X143788762Y-78231422D01*
X143781938Y-78235458D01*
X143767617Y-78249779D01*
X143752584Y-78262619D01*
X143736193Y-78274528D01*
X143731142Y-78280634D01*
X143708002Y-78308605D01*
X143700012Y-78317384D01*
X141177350Y-80840045D01*
X141115038Y-80874071D01*
X141044222Y-80869006D01*
X140987387Y-80826459D01*
X140972705Y-80801192D01*
X140902971Y-80640814D01*
X140898105Y-80631739D01*
X140782426Y-80452926D01*
X140776136Y-80444757D01*
X140632806Y-80287240D01*
X140625273Y-80280215D01*
X140458139Y-80148222D01*
X140449552Y-80142517D01*
X140263117Y-80039599D01*
X140253705Y-80035369D01*
X140052959Y-79964280D01*
X140042988Y-79961646D01*
X139971837Y-79948972D01*
X139958540Y-79950432D01*
X139954000Y-79964989D01*
X139954000Y-81408000D01*
X139933998Y-81476121D01*
X139880342Y-81522614D01*
X139828000Y-81534000D01*
X139572000Y-81534000D01*
X139503879Y-81513998D01*
X139457386Y-81460342D01*
X139446000Y-81408000D01*
X139446000Y-79963102D01*
X139442082Y-79949758D01*
X139427806Y-79947771D01*
X139389324Y-79953660D01*
X139379288Y-79956051D01*
X139176868Y-80022212D01*
X139167359Y-80026209D01*
X138978463Y-80124542D01*
X138969738Y-80130036D01*
X138799433Y-80257905D01*
X138791726Y-80264748D01*
X138644590Y-80418717D01*
X138638109Y-80426722D01*
X138533498Y-80580074D01*
X138478587Y-80625076D01*
X138408062Y-80633247D01*
X138344315Y-80601993D01*
X138323618Y-80577509D01*
X138242822Y-80452617D01*
X138242820Y-80452614D01*
X138240014Y-80448277D01*
X138089670Y-80283051D01*
X138085619Y-80279852D01*
X138085615Y-80279848D01*
X137918414Y-80147800D01*
X137918410Y-80147798D01*
X137914359Y-80144598D01*
X137909835Y-80142101D01*
X137909831Y-80142098D01*
X137858608Y-80113822D01*
X137808636Y-80063390D01*
X137793500Y-80003513D01*
X137793500Y-78774067D01*
X137794027Y-78762884D01*
X137795702Y-78755391D01*
X137793562Y-78687300D01*
X137793500Y-78683343D01*
X137793500Y-78655444D01*
X137792996Y-78651453D01*
X137792063Y-78639611D01*
X137790923Y-78603336D01*
X137790674Y-78595411D01*
X137788462Y-78587797D01*
X137788461Y-78587792D01*
X137785023Y-78575959D01*
X137781012Y-78556595D01*
X137779467Y-78544364D01*
X137778474Y-78536503D01*
X137775557Y-78529136D01*
X137775556Y-78529131D01*
X137762198Y-78495392D01*
X137758354Y-78484165D01*
X137748230Y-78449322D01*
X137746018Y-78441707D01*
X137735707Y-78424272D01*
X137727012Y-78406524D01*
X137719552Y-78387683D01*
X137693564Y-78351913D01*
X137687048Y-78341993D01*
X137668580Y-78310765D01*
X137668578Y-78310762D01*
X137664542Y-78303938D01*
X137650221Y-78289617D01*
X137637380Y-78274583D01*
X137637340Y-78274528D01*
X137625472Y-78258193D01*
X137591395Y-78230002D01*
X137582616Y-78222012D01*
X136190264Y-76829660D01*
X136156238Y-76767348D01*
X136161377Y-76696336D01*
X136203971Y-76582718D01*
X136203973Y-76582712D01*
X136206745Y-76575316D01*
X136213500Y-76513134D01*
X136213500Y-75788895D01*
X136233502Y-75720774D01*
X136287158Y-75674281D01*
X136357432Y-75664177D01*
X136422012Y-75693671D01*
X136428595Y-75699800D01*
X136445230Y-75716435D01*
X136448427Y-75718915D01*
X136457447Y-75726618D01*
X136489679Y-75756886D01*
X136496625Y-75760705D01*
X136496628Y-75760707D01*
X136507434Y-75766648D01*
X136523953Y-75777499D01*
X136539959Y-75789914D01*
X136547228Y-75793059D01*
X136547232Y-75793062D01*
X136580537Y-75807474D01*
X136591187Y-75812691D01*
X136629940Y-75833995D01*
X136637615Y-75835966D01*
X136637616Y-75835966D01*
X136649562Y-75839033D01*
X136668267Y-75845437D01*
X136686855Y-75853481D01*
X136694678Y-75854720D01*
X136694688Y-75854723D01*
X136730524Y-75860399D01*
X136742144Y-75862805D01*
X136773959Y-75870973D01*
X136784970Y-75873800D01*
X136805224Y-75873800D01*
X136824934Y-75875351D01*
X136844943Y-75878520D01*
X136852835Y-75877774D01*
X136871580Y-75876002D01*
X136888962Y-75874359D01*
X136900819Y-75873800D01*
X139193433Y-75873800D01*
X139204616Y-75874327D01*
X139212109Y-75876002D01*
X139220035Y-75875753D01*
X139220036Y-75875753D01*
X139280186Y-75873862D01*
X139284145Y-75873800D01*
X139312056Y-75873800D01*
X139315991Y-75873303D01*
X139316056Y-75873295D01*
X139327893Y-75872362D01*
X139360151Y-75871348D01*
X139364170Y-75871222D01*
X139372089Y-75870973D01*
X139391543Y-75865321D01*
X139410900Y-75861313D01*
X139423130Y-75859768D01*
X139423131Y-75859768D01*
X139430997Y-75858774D01*
X139438368Y-75855855D01*
X139438370Y-75855855D01*
X139472112Y-75842496D01*
X139483342Y-75838651D01*
X139518183Y-75828529D01*
X139518184Y-75828529D01*
X139525793Y-75826318D01*
X139532612Y-75822285D01*
X139532617Y-75822283D01*
X139543228Y-75816007D01*
X139560976Y-75807312D01*
X139579817Y-75799852D01*
X139615587Y-75773864D01*
X139625507Y-75767348D01*
X139656735Y-75748880D01*
X139656738Y-75748878D01*
X139663562Y-75744842D01*
X139677883Y-75730521D01*
X139692917Y-75717680D01*
X139702894Y-75710431D01*
X139709307Y-75705772D01*
X139737498Y-75671695D01*
X139745488Y-75662916D01*
X140950053Y-74458352D01*
X140958339Y-74450812D01*
X140964818Y-74446700D01*
X141011444Y-74397048D01*
X141014198Y-74394207D01*
X141033935Y-74374470D01*
X141036415Y-74371273D01*
X141044120Y-74362251D01*
X141074386Y-74330021D01*
X141078205Y-74323075D01*
X141078207Y-74323072D01*
X141084148Y-74312266D01*
X141094999Y-74295747D01*
X141102558Y-74286001D01*
X141107414Y-74279741D01*
X141110559Y-74272472D01*
X141110562Y-74272468D01*
X141124974Y-74239163D01*
X141130191Y-74228513D01*
X141151495Y-74189760D01*
X141156533Y-74170137D01*
X141162937Y-74151434D01*
X141167833Y-74140120D01*
X141167833Y-74140119D01*
X141170981Y-74132845D01*
X141172220Y-74125022D01*
X141172223Y-74125012D01*
X141177899Y-74089176D01*
X141180305Y-74077557D01*
X141187386Y-74049976D01*
X141223699Y-73988969D01*
X141287231Y-73957279D01*
X141357810Y-73964967D01*
X141413028Y-74009593D01*
X141420948Y-74023679D01*
X141420973Y-74023756D01*
X141421673Y-74024969D01*
X141421693Y-74025004D01*
X141433454Y-74045374D01*
X141516460Y-74189144D01*
X141520878Y-74194051D01*
X141520879Y-74194052D01*
X141637049Y-74323072D01*
X141644247Y-74331066D01*
X141687600Y-74362564D01*
X141785074Y-74433383D01*
X141798748Y-74443318D01*
X141804776Y-74446002D01*
X141804778Y-74446003D01*
X141965128Y-74517395D01*
X141973212Y-74520994D01*
X142047658Y-74536818D01*
X142153556Y-74559328D01*
X142153561Y-74559328D01*
X142160013Y-74560700D01*
X142350987Y-74560700D01*
X142357439Y-74559328D01*
X142357444Y-74559328D01*
X142463342Y-74536818D01*
X142537788Y-74520994D01*
X142545872Y-74517395D01*
X142706222Y-74446003D01*
X142706224Y-74446002D01*
X142712252Y-74443318D01*
X142725927Y-74433383D01*
X142823400Y-74362564D01*
X142866753Y-74331066D01*
X142873951Y-74323072D01*
X142990121Y-74194052D01*
X142990122Y-74194051D01*
X142994540Y-74189144D01*
X143090027Y-74023756D01*
X143149042Y-73842128D01*
X143150530Y-73827976D01*
X143158992Y-73747460D01*
X143166407Y-73676906D01*
X143193420Y-73611250D01*
X143202622Y-73600982D01*
X145013199Y-71790405D01*
X145075511Y-71756379D01*
X145102294Y-71753500D01*
X146044274Y-71753500D01*
X146112395Y-71773502D01*
G37*
%TD.AperFunction*%
%TA.AperFunction,Conductor*%
G36*
X115482121Y-53868502D02*
G01*
X115528614Y-53922158D01*
X115540000Y-53974500D01*
X115540000Y-56240000D01*
X118595706Y-56240000D01*
X118663827Y-56260002D01*
X118710320Y-56313658D01*
X118720424Y-56383932D01*
X118690930Y-56448512D01*
X118684817Y-56455079D01*
X117893336Y-57246559D01*
X117885062Y-57254088D01*
X117878582Y-57258200D01*
X117873157Y-57263977D01*
X117831957Y-57307851D01*
X117829202Y-57310693D01*
X117809465Y-57330430D01*
X117806985Y-57333627D01*
X117799282Y-57342647D01*
X117769014Y-57374879D01*
X117765195Y-57381825D01*
X117765193Y-57381828D01*
X117759252Y-57392634D01*
X117748401Y-57409153D01*
X117735986Y-57425159D01*
X117732841Y-57432428D01*
X117732838Y-57432432D01*
X117718426Y-57465737D01*
X117713209Y-57476387D01*
X117691905Y-57515140D01*
X117689934Y-57522815D01*
X117689934Y-57522816D01*
X117686867Y-57534762D01*
X117680463Y-57553466D01*
X117672419Y-57572055D01*
X117671180Y-57579878D01*
X117671177Y-57579888D01*
X117665501Y-57615724D01*
X117663095Y-57627344D01*
X117652100Y-57670170D01*
X117652100Y-57690424D01*
X117650549Y-57710134D01*
X117647380Y-57730143D01*
X117648126Y-57738035D01*
X117651541Y-57774161D01*
X117652100Y-57786019D01*
X117652100Y-60845500D01*
X117632098Y-60913621D01*
X117578442Y-60960114D01*
X117526100Y-60971500D01*
X116606371Y-60971500D01*
X116538250Y-60951498D01*
X116517276Y-60934595D01*
X112593770Y-57011089D01*
X112581384Y-56996677D01*
X112572851Y-56985082D01*
X112572846Y-56985077D01*
X112568508Y-56979182D01*
X112562930Y-56974443D01*
X112562927Y-56974440D01*
X112528232Y-56944965D01*
X112520716Y-56938035D01*
X112515021Y-56932340D01*
X112498736Y-56919456D01*
X112492749Y-56914719D01*
X112489345Y-56911928D01*
X112439297Y-56869409D01*
X112439295Y-56869408D01*
X112433715Y-56864667D01*
X112427199Y-56861339D01*
X112422150Y-56857972D01*
X112417021Y-56854805D01*
X112411284Y-56850266D01*
X112345125Y-56819345D01*
X112341225Y-56817439D01*
X112276192Y-56784231D01*
X112269084Y-56782492D01*
X112263441Y-56780393D01*
X112257678Y-56778476D01*
X112251050Y-56775378D01*
X112179583Y-56760513D01*
X112175299Y-56759543D01*
X112104390Y-56742192D01*
X112098788Y-56741844D01*
X112098785Y-56741844D01*
X112093236Y-56741500D01*
X112093238Y-56741464D01*
X112089245Y-56741225D01*
X112085053Y-56740851D01*
X112077885Y-56739360D01*
X112014120Y-56741085D01*
X112000479Y-56741454D01*
X111997072Y-56741500D01*
X106522691Y-56741500D01*
X106454570Y-56721498D01*
X106416899Y-56683941D01*
X106354122Y-56586903D01*
X106351315Y-56582564D01*
X106185477Y-56400310D01*
X106181426Y-56397111D01*
X106181422Y-56397107D01*
X106032492Y-56279490D01*
X105992099Y-56247590D01*
X105842208Y-56164845D01*
X105780906Y-56131004D01*
X105780903Y-56131003D01*
X105776375Y-56128503D01*
X105544097Y-56046250D01*
X105479246Y-56034698D01*
X105306593Y-56003943D01*
X105306589Y-56003943D01*
X105301505Y-56003037D01*
X105222086Y-56002067D01*
X105060282Y-56000090D01*
X105060280Y-56000090D01*
X105055112Y-56000027D01*
X104811536Y-56037299D01*
X104577318Y-56113853D01*
X104572730Y-56116241D01*
X104572726Y-56116243D01*
X104369790Y-56221885D01*
X104358748Y-56227633D01*
X104354615Y-56230736D01*
X104354612Y-56230738D01*
X104252277Y-56307574D01*
X104161697Y-56375584D01*
X103991455Y-56553731D01*
X103988541Y-56558003D01*
X103988540Y-56558004D01*
X103855515Y-56753011D01*
X103855512Y-56753016D01*
X103852596Y-56757291D01*
X103850420Y-56761980D01*
X103850416Y-56761986D01*
X103751025Y-56976106D01*
X103748848Y-56980797D01*
X103747468Y-56985775D01*
X103747466Y-56985779D01*
X103740447Y-57011089D01*
X103682998Y-57218247D01*
X103656813Y-57463263D01*
X103657110Y-57468416D01*
X103657110Y-57468419D01*
X103668693Y-57669310D01*
X103670997Y-57709266D01*
X103672134Y-57714312D01*
X103672135Y-57714318D01*
X103693452Y-57808905D01*
X103725170Y-57949649D01*
X103727112Y-57954431D01*
X103727113Y-57954435D01*
X103800572Y-58135342D01*
X103817876Y-58177956D01*
X103946625Y-58388056D01*
X104107961Y-58574307D01*
X104111936Y-58577607D01*
X104111940Y-58577611D01*
X104128670Y-58591500D01*
X104297550Y-58731707D01*
X104510300Y-58856028D01*
X104515120Y-58857868D01*
X104515125Y-58857871D01*
X104631043Y-58902135D01*
X104740499Y-58943932D01*
X104745567Y-58944963D01*
X104745570Y-58944964D01*
X104864840Y-58969230D01*
X104981964Y-58993059D01*
X104987137Y-58993249D01*
X104987140Y-58993249D01*
X105223045Y-59001899D01*
X105223049Y-59001899D01*
X105228209Y-59002088D01*
X105233329Y-59001432D01*
X105233331Y-59001432D01*
X105467496Y-58971435D01*
X105467497Y-58971435D01*
X105472624Y-58970778D01*
X105529228Y-58953796D01*
X105703687Y-58901456D01*
X105703692Y-58901454D01*
X105708642Y-58899969D01*
X105798337Y-58856028D01*
X105925275Y-58793842D01*
X105925280Y-58793839D01*
X105929926Y-58791563D01*
X105934136Y-58788560D01*
X105934141Y-58788557D01*
X106126321Y-58651476D01*
X106126326Y-58651472D01*
X106130533Y-58648471D01*
X106171432Y-58607715D01*
X106272146Y-58507351D01*
X106305076Y-58474536D01*
X106414957Y-58321622D01*
X106422609Y-58310973D01*
X106478604Y-58267326D01*
X106524931Y-58258500D01*
X111643629Y-58258500D01*
X111711750Y-58278502D01*
X111732724Y-58295405D01*
X115319595Y-61882276D01*
X115353621Y-61944588D01*
X115356500Y-61971371D01*
X115356500Y-62980400D01*
X115356837Y-62983646D01*
X115356837Y-62983650D01*
X115365385Y-63066029D01*
X115367474Y-63086166D01*
X115369654Y-63092701D01*
X115369655Y-63092704D01*
X115404071Y-63195859D01*
X115423450Y-63253946D01*
X115516522Y-63404348D01*
X115641697Y-63529305D01*
X115647927Y-63533145D01*
X115647928Y-63533146D01*
X115656911Y-63538683D01*
X115787340Y-63619081D01*
X115834832Y-63671852D01*
X115846256Y-63741924D01*
X115817982Y-63807048D01*
X115808195Y-63817510D01*
X115795550Y-63829573D01*
X115693865Y-63926576D01*
X115690682Y-63930854D01*
X115674988Y-63951948D01*
X115556246Y-64111542D01*
X115553830Y-64116293D01*
X115553828Y-64116297D01*
X115528463Y-64166187D01*
X115451760Y-64317051D01*
X115450178Y-64322145D01*
X115450177Y-64322148D01*
X115410177Y-64450970D01*
X115383393Y-64537227D01*
X115382692Y-64542516D01*
X115355145Y-64750362D01*
X115353102Y-64765774D01*
X115353302Y-64771103D01*
X115353302Y-64771105D01*
X115354632Y-64806531D01*
X115361751Y-64996158D01*
X115409093Y-65221791D01*
X115411051Y-65226750D01*
X115411052Y-65226752D01*
X115466259Y-65366543D01*
X115493776Y-65436221D01*
X115613377Y-65633317D01*
X115616874Y-65637347D01*
X115749085Y-65789707D01*
X115764477Y-65807445D01*
X115768608Y-65810832D01*
X115938627Y-65950240D01*
X115938633Y-65950244D01*
X115942755Y-65953624D01*
X115974250Y-65971552D01*
X116023555Y-66022632D01*
X116037417Y-66092262D01*
X116011434Y-66158333D01*
X115982284Y-66185573D01*
X115860681Y-66267441D01*
X115856824Y-66271120D01*
X115856822Y-66271122D01*
X115819968Y-66306279D01*
X115693865Y-66426576D01*
X115690682Y-66430854D01*
X115643355Y-66494464D01*
X115556246Y-66611542D01*
X115451760Y-66817051D01*
X115450178Y-66822145D01*
X115450177Y-66822148D01*
X115393336Y-67005207D01*
X115383393Y-67037227D01*
X115382692Y-67042516D01*
X115360639Y-67208909D01*
X115353102Y-67265774D01*
X115361751Y-67496158D01*
X115409093Y-67721791D01*
X115493776Y-67936221D01*
X115496543Y-67940780D01*
X115496544Y-67940783D01*
X115555112Y-68037299D01*
X115613377Y-68133317D01*
X115616874Y-68137347D01*
X115754893Y-68296400D01*
X115764477Y-68307445D01*
X115768608Y-68310832D01*
X115938627Y-68450240D01*
X115938633Y-68450244D01*
X115942755Y-68453624D01*
X115974250Y-68471552D01*
X116023555Y-68522632D01*
X116037417Y-68592262D01*
X116011434Y-68658333D01*
X115982284Y-68685573D01*
X115860681Y-68767441D01*
X115856824Y-68771120D01*
X115856822Y-68771122D01*
X115839591Y-68787560D01*
X115693865Y-68926576D01*
X115556246Y-69111542D01*
X115553830Y-69116293D01*
X115553828Y-69116297D01*
X115521070Y-69180728D01*
X115451760Y-69317051D01*
X115450178Y-69322145D01*
X115450177Y-69322148D01*
X115407953Y-69458131D01*
X115383393Y-69537227D01*
X115382692Y-69542516D01*
X115355074Y-69750896D01*
X115353102Y-69765774D01*
X115353302Y-69771103D01*
X115353302Y-69771105D01*
X115355961Y-69841921D01*
X115361751Y-69996158D01*
X115409093Y-70221791D01*
X115411051Y-70226750D01*
X115411052Y-70226752D01*
X115482881Y-70408632D01*
X115493776Y-70436221D01*
X115496543Y-70440780D01*
X115496544Y-70440783D01*
X115555618Y-70538134D01*
X115613377Y-70633317D01*
X115616874Y-70637347D01*
X115758022Y-70800006D01*
X115764477Y-70807445D01*
X115768608Y-70810832D01*
X115938627Y-70950240D01*
X115938633Y-70950244D01*
X115942755Y-70953624D01*
X115974250Y-70971552D01*
X116023555Y-71022632D01*
X116037417Y-71092262D01*
X116011434Y-71158333D01*
X115982284Y-71185573D01*
X115860681Y-71267441D01*
X115856824Y-71271120D01*
X115856822Y-71271122D01*
X115826724Y-71299834D01*
X115693865Y-71426576D01*
X115556246Y-71611542D01*
X115553830Y-71616293D01*
X115553828Y-71616297D01*
X115522644Y-71677632D01*
X115451760Y-71817051D01*
X115450178Y-71822145D01*
X115450177Y-71822148D01*
X115395172Y-71999292D01*
X115383393Y-72037227D01*
X115382692Y-72042516D01*
X115366966Y-72161173D01*
X115353102Y-72265774D01*
X115353302Y-72271103D01*
X115353302Y-72271105D01*
X115354045Y-72290896D01*
X115361751Y-72496158D01*
X115409093Y-72721791D01*
X115411051Y-72726750D01*
X115411052Y-72726752D01*
X115455313Y-72838826D01*
X115493776Y-72936221D01*
X115496543Y-72940780D01*
X115496544Y-72940783D01*
X115568175Y-73058827D01*
X115613377Y-73133317D01*
X115616874Y-73137347D01*
X115760228Y-73302548D01*
X115764477Y-73307445D01*
X115768608Y-73310832D01*
X115938627Y-73450240D01*
X115938633Y-73450244D01*
X115942755Y-73453624D01*
X115947398Y-73456267D01*
X115974735Y-73471829D01*
X116024041Y-73522912D01*
X116037902Y-73592542D01*
X116011918Y-73658613D01*
X115982768Y-73685851D01*
X115865422Y-73764852D01*
X115857130Y-73771519D01*
X115698100Y-73923228D01*
X115691059Y-73931186D01*
X115559859Y-74107525D01*
X115554255Y-74116562D01*
X115454643Y-74312484D01*
X115450643Y-74322335D01*
X115385466Y-74532240D01*
X115383183Y-74542624D01*
X115381139Y-74558043D01*
X115383335Y-74572207D01*
X115396522Y-74576000D01*
X118281192Y-74576000D01*
X118294723Y-74572027D01*
X118296248Y-74561420D01*
X118271523Y-74443579D01*
X118268463Y-74433383D01*
X118187737Y-74228971D01*
X118183006Y-74219439D01*
X118068984Y-74031538D01*
X118062720Y-74022948D01*
X117918673Y-73856948D01*
X117911042Y-73849528D01*
X117741089Y-73710174D01*
X117732326Y-73704152D01*
X117705289Y-73688762D01*
X117655982Y-73637680D01*
X117642120Y-73568049D01*
X117668103Y-73501978D01*
X117697253Y-73474739D01*
X117808878Y-73399588D01*
X117819319Y-73392559D01*
X117986135Y-73233424D01*
X117995601Y-73220702D01*
X118120568Y-73052740D01*
X118123754Y-73048458D01*
X118128564Y-73038999D01*
X118203577Y-72891458D01*
X118228240Y-72842949D01*
X118231449Y-72832617D01*
X118295024Y-72627871D01*
X118296607Y-72622773D01*
X118304927Y-72560000D01*
X118326198Y-72399511D01*
X118326198Y-72399506D01*
X118326898Y-72394226D01*
X118318249Y-72163842D01*
X118270907Y-71938209D01*
X118218412Y-71805283D01*
X118188185Y-71728744D01*
X118188184Y-71728742D01*
X118186224Y-71723779D01*
X118066623Y-71526683D01*
X118033474Y-71488482D01*
X117919023Y-71356588D01*
X117919021Y-71356586D01*
X117915523Y-71352555D01*
X117840088Y-71290702D01*
X117741373Y-71209760D01*
X117741367Y-71209756D01*
X117737245Y-71206376D01*
X117705750Y-71188448D01*
X117656445Y-71137368D01*
X117642583Y-71067738D01*
X117668566Y-71001667D01*
X117697716Y-70974427D01*
X117757871Y-70933928D01*
X117819319Y-70892559D01*
X117986135Y-70733424D01*
X117989872Y-70728402D01*
X118120568Y-70552740D01*
X118123754Y-70548458D01*
X118130741Y-70534717D01*
X118183342Y-70431256D01*
X118228240Y-70342949D01*
X118236491Y-70316379D01*
X118295024Y-70127871D01*
X118296607Y-70122773D01*
X118304754Y-70061305D01*
X118326198Y-69899511D01*
X118326198Y-69899506D01*
X118326898Y-69894226D01*
X118318249Y-69663842D01*
X118299284Y-69573452D01*
X118272002Y-69443428D01*
X118270907Y-69438209D01*
X118268948Y-69433248D01*
X118188185Y-69228744D01*
X118188184Y-69228742D01*
X118186224Y-69223779D01*
X118179850Y-69213274D01*
X118069390Y-69031243D01*
X118066623Y-69026683D01*
X118040585Y-68996677D01*
X117919023Y-68856588D01*
X117919021Y-68856586D01*
X117915523Y-68852555D01*
X117844392Y-68794231D01*
X117741373Y-68709760D01*
X117741367Y-68709756D01*
X117737245Y-68706376D01*
X117705750Y-68688448D01*
X117656445Y-68637368D01*
X117642583Y-68567738D01*
X117668566Y-68501667D01*
X117697716Y-68474427D01*
X117733642Y-68450240D01*
X117819319Y-68392559D01*
X117837114Y-68375584D01*
X117912769Y-68303412D01*
X117986135Y-68233424D01*
X118123754Y-68048458D01*
X118138808Y-68018850D01*
X118225822Y-67847704D01*
X118228240Y-67842949D01*
X118230554Y-67835499D01*
X118295024Y-67627871D01*
X118296607Y-67622773D01*
X118299990Y-67597249D01*
X118326198Y-67399511D01*
X118326198Y-67399506D01*
X118326898Y-67394226D01*
X118325108Y-67346531D01*
X118318449Y-67169173D01*
X118318249Y-67163842D01*
X118270907Y-66938209D01*
X118235977Y-66849761D01*
X118188185Y-66728744D01*
X118188184Y-66728742D01*
X118186224Y-66723779D01*
X118066623Y-66526683D01*
X118063128Y-66522656D01*
X118063122Y-66522647D01*
X118055983Y-66514420D01*
X118026446Y-66449860D01*
X118036502Y-66379579D01*
X118062056Y-66342748D01*
X119316405Y-65088399D01*
X119378717Y-65054373D01*
X119449532Y-65059438D01*
X119506368Y-65101985D01*
X119531179Y-65168505D01*
X119531500Y-65177494D01*
X119531500Y-66073134D01*
X119538255Y-66135316D01*
X119549672Y-66165771D01*
X119554855Y-66236577D01*
X119549674Y-66254224D01*
X119538255Y-66284684D01*
X119531500Y-66346866D01*
X119531500Y-67343134D01*
X119538255Y-67405316D01*
X119549672Y-67435771D01*
X119554855Y-67506577D01*
X119549674Y-67524224D01*
X119538255Y-67554684D01*
X119531500Y-67616866D01*
X119531500Y-68613134D01*
X119538255Y-68675316D01*
X119549672Y-68705771D01*
X119554855Y-68776577D01*
X119549674Y-68794224D01*
X119538255Y-68824684D01*
X119531500Y-68886866D01*
X119531500Y-69883134D01*
X119538255Y-69945316D01*
X119549672Y-69975771D01*
X119554855Y-70046577D01*
X119549674Y-70064224D01*
X119538255Y-70094684D01*
X119531500Y-70156866D01*
X119531500Y-71153134D01*
X119538255Y-71215316D01*
X119549672Y-71245771D01*
X119554855Y-71316577D01*
X119549674Y-71334224D01*
X119538255Y-71364684D01*
X119531500Y-71426866D01*
X119531500Y-72423134D01*
X119538255Y-72485316D01*
X119549672Y-72515771D01*
X119554855Y-72586577D01*
X119549674Y-72604224D01*
X119538255Y-72634684D01*
X119531500Y-72696866D01*
X119531500Y-73693134D01*
X119538255Y-73755316D01*
X119549672Y-73785771D01*
X119554855Y-73856577D01*
X119549674Y-73874224D01*
X119538255Y-73904684D01*
X119531500Y-73966866D01*
X119531500Y-74963134D01*
X119538255Y-75025316D01*
X119589385Y-75161705D01*
X119676739Y-75278261D01*
X119711128Y-75304034D01*
X119753641Y-75360893D01*
X119758666Y-75431712D01*
X119755394Y-75443795D01*
X119744210Y-75478217D01*
X119697858Y-75620872D01*
X119697168Y-75627433D01*
X119697168Y-75627435D01*
X119682463Y-75767348D01*
X119677896Y-75810800D01*
X119678586Y-75817365D01*
X119693363Y-75957956D01*
X119697858Y-76000728D01*
X119756873Y-76182356D01*
X119852360Y-76347744D01*
X119856778Y-76352651D01*
X119856779Y-76352652D01*
X119938852Y-76443803D01*
X119980147Y-76489666D01*
X120079243Y-76561664D01*
X120108222Y-76582718D01*
X120134648Y-76601918D01*
X120140676Y-76604602D01*
X120140678Y-76604603D01*
X120303081Y-76676909D01*
X120309112Y-76679594D01*
X120402512Y-76699447D01*
X120489456Y-76717928D01*
X120489461Y-76717928D01*
X120495913Y-76719300D01*
X120686887Y-76719300D01*
X120693339Y-76717928D01*
X120693344Y-76717928D01*
X120780288Y-76699447D01*
X120873688Y-76679594D01*
X120879719Y-76676909D01*
X121042122Y-76604603D01*
X121042124Y-76604602D01*
X121048152Y-76601918D01*
X121074579Y-76582718D01*
X121193018Y-76496666D01*
X121202653Y-76489666D01*
X121207068Y-76484763D01*
X121211980Y-76480340D01*
X121213105Y-76481589D01*
X121266414Y-76448749D01*
X121299600Y-76444300D01*
X121583833Y-76444300D01*
X121595016Y-76444827D01*
X121602509Y-76446502D01*
X121610435Y-76446253D01*
X121610436Y-76446253D01*
X121670586Y-76444362D01*
X121674545Y-76444300D01*
X121702456Y-76444300D01*
X121706391Y-76443803D01*
X121706456Y-76443795D01*
X121718293Y-76442862D01*
X121750551Y-76441848D01*
X121754570Y-76441722D01*
X121762489Y-76441473D01*
X121781943Y-76435821D01*
X121801300Y-76431813D01*
X121813530Y-76430268D01*
X121813531Y-76430268D01*
X121821397Y-76429274D01*
X121828768Y-76426355D01*
X121828770Y-76426355D01*
X121862512Y-76412996D01*
X121873742Y-76409151D01*
X121888625Y-76404827D01*
X121916192Y-76396818D01*
X121916774Y-76398822D01*
X121976443Y-76391460D01*
X122040421Y-76422240D01*
X122049653Y-76431482D01*
X122103926Y-76491758D01*
X122103935Y-76491767D01*
X122108347Y-76496666D01*
X122113686Y-76500545D01*
X122254147Y-76602596D01*
X122262848Y-76608918D01*
X122268876Y-76611602D01*
X122268878Y-76611603D01*
X122422432Y-76679969D01*
X122437312Y-76686594D01*
X122530713Y-76706447D01*
X122617656Y-76724928D01*
X122617661Y-76724928D01*
X122624113Y-76726300D01*
X122815087Y-76726300D01*
X122821544Y-76724928D01*
X122821549Y-76724927D01*
X122840599Y-76720878D01*
X122911389Y-76726281D01*
X122967620Y-76768560D01*
X123006714Y-76820723D01*
X123019276Y-76833285D01*
X123121351Y-76909786D01*
X123136946Y-76918324D01*
X123257394Y-76963478D01*
X123272649Y-76967105D01*
X123323514Y-76972631D01*
X123330328Y-76973000D01*
X123552885Y-76973000D01*
X123568124Y-76968525D01*
X123569329Y-76967135D01*
X123571000Y-76959452D01*
X123571000Y-76157383D01*
X123577167Y-76118447D01*
X123611102Y-76014006D01*
X123613142Y-76007728D01*
X123626853Y-75877280D01*
X123632414Y-75824365D01*
X123633104Y-75817800D01*
X123623521Y-75726620D01*
X123613832Y-75634435D01*
X123613832Y-75634433D01*
X123613142Y-75627872D01*
X123581788Y-75531375D01*
X123577167Y-75517153D01*
X123571000Y-75478217D01*
X123571000Y-75337000D01*
X123591002Y-75268879D01*
X123644658Y-75222386D01*
X123697000Y-75211000D01*
X123953000Y-75211000D01*
X124021121Y-75231002D01*
X124067614Y-75284658D01*
X124079000Y-75337000D01*
X124079000Y-76954884D01*
X124083475Y-76970123D01*
X124084865Y-76971328D01*
X124092548Y-76972999D01*
X124319675Y-76972999D01*
X124328688Y-76972511D01*
X124397791Y-76988801D01*
X124447116Y-77039865D01*
X124461500Y-77098327D01*
X124461500Y-77601233D01*
X124460973Y-77612416D01*
X124459298Y-77619909D01*
X124459547Y-77627835D01*
X124459547Y-77627836D01*
X124461438Y-77687986D01*
X124461500Y-77691945D01*
X124461500Y-77719856D01*
X124461997Y-77723790D01*
X124461997Y-77723791D01*
X124462005Y-77723856D01*
X124462938Y-77735693D01*
X124464327Y-77779889D01*
X124469978Y-77799339D01*
X124473987Y-77818700D01*
X124476526Y-77838797D01*
X124479445Y-77846168D01*
X124479445Y-77846170D01*
X124492804Y-77879912D01*
X124496649Y-77891142D01*
X124508982Y-77933593D01*
X124513015Y-77940412D01*
X124513017Y-77940417D01*
X124519293Y-77951028D01*
X124527988Y-77968776D01*
X124535448Y-77987617D01*
X124540110Y-77994033D01*
X124540110Y-77994034D01*
X124561436Y-78023387D01*
X124567952Y-78033307D01*
X124576432Y-78047645D01*
X124590458Y-78071362D01*
X124604779Y-78085683D01*
X124617619Y-78100716D01*
X124629528Y-78117107D01*
X124663605Y-78145298D01*
X124672384Y-78153288D01*
X126396739Y-79877644D01*
X126430765Y-79939956D01*
X126425700Y-80010772D01*
X126383153Y-80067607D01*
X126365826Y-80078501D01*
X126273607Y-80126507D01*
X126269474Y-80129610D01*
X126269471Y-80129612D01*
X126105335Y-80252849D01*
X126094965Y-80260635D01*
X126027061Y-80331693D01*
X126014283Y-80345064D01*
X125952759Y-80380494D01*
X125881846Y-80377037D01*
X125824060Y-80335791D01*
X125805207Y-80302243D01*
X125763767Y-80191703D01*
X125760615Y-80183295D01*
X125673261Y-80066739D01*
X125556705Y-79979385D01*
X125420316Y-79928255D01*
X125358134Y-79921500D01*
X123561866Y-79921500D01*
X123499684Y-79928255D01*
X123363295Y-79979385D01*
X123246739Y-80066739D01*
X123159385Y-80183295D01*
X123108255Y-80319684D01*
X123101500Y-80381866D01*
X123101500Y-80395500D01*
X123081498Y-80463621D01*
X123027842Y-80510114D01*
X122975500Y-80521500D01*
X118588330Y-80521500D01*
X118520209Y-80501498D01*
X118473716Y-80447842D01*
X118463612Y-80377568D01*
X118493106Y-80312988D01*
X118514269Y-80293564D01*
X118522974Y-80287240D01*
X118575653Y-80248966D01*
X118593902Y-80228698D01*
X118699021Y-80111952D01*
X118699022Y-80111951D01*
X118703440Y-80107044D01*
X118772376Y-79987644D01*
X118795623Y-79947379D01*
X118795624Y-79947378D01*
X118798927Y-79941656D01*
X118857942Y-79760028D01*
X118859428Y-79745896D01*
X118877214Y-79576665D01*
X118877904Y-79570100D01*
X118860009Y-79399836D01*
X118858632Y-79386735D01*
X118858632Y-79386733D01*
X118857942Y-79380172D01*
X118798927Y-79198544D01*
X118703440Y-79033156D01*
X118660286Y-78985228D01*
X118580075Y-78896145D01*
X118580074Y-78896144D01*
X118575653Y-78891234D01*
X118421152Y-78778982D01*
X118415124Y-78776298D01*
X118415122Y-78776297D01*
X118252719Y-78703991D01*
X118252718Y-78703991D01*
X118246688Y-78701306D01*
X118240233Y-78699934D01*
X118240224Y-78699931D01*
X118183628Y-78687901D01*
X118120731Y-78653750D01*
X114565561Y-75098580D01*
X115383752Y-75098580D01*
X115408477Y-75216421D01*
X115411537Y-75226617D01*
X115492263Y-75431029D01*
X115496994Y-75440561D01*
X115611016Y-75628462D01*
X115617280Y-75637052D01*
X115761327Y-75803052D01*
X115768958Y-75810472D01*
X115938911Y-75949826D01*
X115947678Y-75955850D01*
X116138682Y-76064576D01*
X116148346Y-76069041D01*
X116354941Y-76144031D01*
X116365208Y-76146802D01*
X116568174Y-76183504D01*
X116581414Y-76182085D01*
X116586000Y-76167450D01*
X116586000Y-76163849D01*
X117094000Y-76163849D01*
X117098310Y-76178527D01*
X117110193Y-76180590D01*
X117189325Y-76173876D01*
X117199797Y-76172086D01*
X117412535Y-76116870D01*
X117422575Y-76113335D01*
X117622970Y-76023063D01*
X117632256Y-76017894D01*
X117814575Y-75895150D01*
X117822870Y-75888481D01*
X117981900Y-75736772D01*
X117988941Y-75728814D01*
X118120141Y-75552475D01*
X118125745Y-75543438D01*
X118225357Y-75347516D01*
X118229357Y-75337665D01*
X118294534Y-75127760D01*
X118296817Y-75117376D01*
X118298861Y-75101957D01*
X118296665Y-75087793D01*
X118283478Y-75084000D01*
X117112115Y-75084000D01*
X117096876Y-75088475D01*
X117095671Y-75089865D01*
X117094000Y-75097548D01*
X117094000Y-76163849D01*
X116586000Y-76163849D01*
X116586000Y-75102115D01*
X116581525Y-75086876D01*
X116580135Y-75085671D01*
X116572452Y-75084000D01*
X115398808Y-75084000D01*
X115385277Y-75087973D01*
X115383752Y-75098580D01*
X114565561Y-75098580D01*
X108478070Y-69011089D01*
X108465684Y-68996677D01*
X108457151Y-68985082D01*
X108457146Y-68985077D01*
X108452808Y-68979182D01*
X108447230Y-68974443D01*
X108447227Y-68974440D01*
X108412532Y-68944965D01*
X108405016Y-68938035D01*
X108399321Y-68932340D01*
X108387385Y-68922897D01*
X108377049Y-68914719D01*
X108373645Y-68911928D01*
X108323597Y-68869409D01*
X108323595Y-68869408D01*
X108318015Y-68864667D01*
X108311499Y-68861339D01*
X108306450Y-68857972D01*
X108301321Y-68854805D01*
X108295584Y-68850266D01*
X108229425Y-68819345D01*
X108225525Y-68817439D01*
X108160492Y-68784231D01*
X108153384Y-68782492D01*
X108147741Y-68780393D01*
X108141978Y-68778476D01*
X108135350Y-68775378D01*
X108114889Y-68771122D01*
X108063888Y-68760514D01*
X108059599Y-68759543D01*
X108050396Y-68757291D01*
X107988690Y-68742192D01*
X107983088Y-68741844D01*
X107983085Y-68741844D01*
X107977536Y-68741500D01*
X107977538Y-68741464D01*
X107973545Y-68741225D01*
X107969353Y-68740851D01*
X107962185Y-68739360D01*
X107895975Y-68741151D01*
X107884779Y-68741454D01*
X107881372Y-68741500D01*
X106784500Y-68741500D01*
X106716379Y-68721498D01*
X106669886Y-68667842D01*
X106658500Y-68615500D01*
X106658500Y-68461866D01*
X106651745Y-68399684D01*
X106600615Y-68263295D01*
X106513261Y-68146739D01*
X106396705Y-68059385D01*
X106388304Y-68056235D01*
X106385459Y-68054678D01*
X106335313Y-68004419D01*
X106320300Y-67935028D01*
X106345186Y-67868536D01*
X106406123Y-67824626D01*
X110396608Y-66494464D01*
X111742814Y-66045729D01*
X111742815Y-66045728D01*
X111760000Y-66040000D01*
X111760000Y-60960000D01*
X111749047Y-60957262D01*
X111749046Y-60957261D01*
X101695441Y-58443860D01*
X101634205Y-58407933D01*
X101602114Y-58344604D01*
X101600000Y-58321622D01*
X101600000Y-53974500D01*
X101620002Y-53906379D01*
X101673658Y-53859886D01*
X101726000Y-53848500D01*
X115414000Y-53848500D01*
X115482121Y-53868502D01*
G37*
%TD.AperFunction*%
%TA.AperFunction,Conductor*%
G36*
X143986927Y-57792002D02*
G01*
X144007897Y-57808901D01*
X144924497Y-58725502D01*
X144958521Y-58787812D01*
X144961400Y-58814595D01*
X144961400Y-58901606D01*
X144941398Y-58969727D01*
X144924495Y-58990701D01*
X143601447Y-60313748D01*
X143593161Y-60321288D01*
X143586682Y-60325400D01*
X143581257Y-60331177D01*
X143540057Y-60375051D01*
X143537302Y-60377893D01*
X143517565Y-60397630D01*
X143515085Y-60400827D01*
X143507382Y-60409847D01*
X143477114Y-60442079D01*
X143473295Y-60449025D01*
X143473293Y-60449028D01*
X143467352Y-60459834D01*
X143456501Y-60476353D01*
X143444086Y-60492359D01*
X143440941Y-60499628D01*
X143440938Y-60499632D01*
X143426526Y-60532937D01*
X143421309Y-60543587D01*
X143400005Y-60582340D01*
X143398034Y-60590015D01*
X143398034Y-60590016D01*
X143394967Y-60601962D01*
X143388563Y-60620666D01*
X143380519Y-60639255D01*
X143379280Y-60647078D01*
X143379277Y-60647088D01*
X143373601Y-60682924D01*
X143371195Y-60694544D01*
X143360200Y-60737370D01*
X143360200Y-60757624D01*
X143358649Y-60777334D01*
X143355480Y-60797343D01*
X143356226Y-60805235D01*
X143359641Y-60841361D01*
X143360200Y-60853219D01*
X143360200Y-63172006D01*
X143340198Y-63240127D01*
X143323295Y-63261101D01*
X142170340Y-64414056D01*
X142108028Y-64448082D01*
X142037213Y-64443017D01*
X141987611Y-64409273D01*
X141959753Y-64378334D01*
X141805252Y-64266082D01*
X141799224Y-64263398D01*
X141799222Y-64263397D01*
X141636819Y-64191091D01*
X141636818Y-64191091D01*
X141630788Y-64188406D01*
X141533732Y-64167776D01*
X141450444Y-64150072D01*
X141450439Y-64150072D01*
X141443987Y-64148700D01*
X141427095Y-64148700D01*
X141358974Y-64128698D01*
X141338000Y-64111795D01*
X139868952Y-62642747D01*
X139861412Y-62634461D01*
X139857300Y-62627982D01*
X139807648Y-62581356D01*
X139804807Y-62578602D01*
X139785070Y-62558865D01*
X139781873Y-62556385D01*
X139772851Y-62548680D01*
X139746400Y-62523841D01*
X139740621Y-62518414D01*
X139733675Y-62514595D01*
X139733672Y-62514593D01*
X139722866Y-62508652D01*
X139706347Y-62497801D01*
X139705883Y-62497441D01*
X139690341Y-62485386D01*
X139683072Y-62482241D01*
X139683068Y-62482238D01*
X139649763Y-62467826D01*
X139639113Y-62462609D01*
X139606794Y-62444842D01*
X139556736Y-62394497D01*
X139542233Y-62320821D01*
X139548500Y-62263134D01*
X139548500Y-61266866D01*
X139541745Y-61204684D01*
X139530328Y-61174229D01*
X139525145Y-61103423D01*
X139530326Y-61085776D01*
X139541745Y-61055316D01*
X139548500Y-60993134D01*
X139548500Y-59996866D01*
X139541745Y-59934684D01*
X139530328Y-59904229D01*
X139525145Y-59833423D01*
X139530326Y-59815776D01*
X139541745Y-59785316D01*
X139548500Y-59723134D01*
X139548500Y-58726866D01*
X139541745Y-58664684D01*
X139530061Y-58633517D01*
X139524878Y-58562712D01*
X139530061Y-58545057D01*
X139538479Y-58522602D01*
X139542105Y-58507351D01*
X139547631Y-58456486D01*
X139548000Y-58449672D01*
X139548000Y-58227115D01*
X139543525Y-58211876D01*
X139542135Y-58210671D01*
X139534452Y-58209000D01*
X136550116Y-58209000D01*
X136534877Y-58213475D01*
X136533672Y-58214865D01*
X136532001Y-58222548D01*
X136532001Y-58377710D01*
X136511999Y-58445831D01*
X136458343Y-58492324D01*
X136388069Y-58502428D01*
X136331942Y-58479647D01*
X136268952Y-58433882D01*
X136262924Y-58431198D01*
X136262922Y-58431197D01*
X136100519Y-58358891D01*
X136100518Y-58358891D01*
X136094488Y-58356206D01*
X135981352Y-58332158D01*
X135914144Y-58317872D01*
X135914139Y-58317872D01*
X135907687Y-58316500D01*
X135716713Y-58316500D01*
X135710261Y-58317872D01*
X135710256Y-58317872D01*
X135643048Y-58332158D01*
X135529912Y-58356206D01*
X135523882Y-58358891D01*
X135523881Y-58358891D01*
X135361478Y-58431197D01*
X135361476Y-58431198D01*
X135355448Y-58433882D01*
X135350107Y-58437762D01*
X135350106Y-58437763D01*
X135333715Y-58449672D01*
X135200947Y-58546134D01*
X135196526Y-58551044D01*
X135196525Y-58551045D01*
X135087131Y-58672540D01*
X135073160Y-58688056D01*
X135015566Y-58787812D01*
X135000103Y-58814595D01*
X134977673Y-58853444D01*
X134918658Y-59035072D01*
X134898696Y-59225000D01*
X134918658Y-59414928D01*
X134977673Y-59596556D01*
X134980976Y-59602278D01*
X134980977Y-59602279D01*
X135021519Y-59672500D01*
X135038257Y-59741496D01*
X135015036Y-59808587D01*
X134959229Y-59852474D01*
X134912400Y-59861500D01*
X134206600Y-59861500D01*
X134138479Y-59841498D01*
X134119253Y-59825157D01*
X134118980Y-59825460D01*
X134114068Y-59821037D01*
X134109653Y-59816134D01*
X134021460Y-59752058D01*
X133960494Y-59707763D01*
X133960493Y-59707762D01*
X133955152Y-59703882D01*
X133949124Y-59701198D01*
X133949122Y-59701197D01*
X133786719Y-59628891D01*
X133786718Y-59628891D01*
X133780688Y-59626206D01*
X133668121Y-59602279D01*
X133600344Y-59587872D01*
X133600339Y-59587872D01*
X133593887Y-59586500D01*
X133402913Y-59586500D01*
X133396461Y-59587872D01*
X133396456Y-59587872D01*
X133328679Y-59602279D01*
X133216112Y-59626206D01*
X133210082Y-59628891D01*
X133210081Y-59628891D01*
X133047678Y-59701197D01*
X133047676Y-59701198D01*
X133041648Y-59703882D01*
X132887147Y-59816134D01*
X132882726Y-59821044D01*
X132882725Y-59821045D01*
X132773331Y-59942540D01*
X132759360Y-59958056D01*
X132663873Y-60123444D01*
X132604858Y-60305072D01*
X132604168Y-60311633D01*
X132604168Y-60311635D01*
X132590458Y-60442079D01*
X132584896Y-60495000D01*
X132585586Y-60501565D01*
X132600058Y-60639255D01*
X132604858Y-60684928D01*
X132663873Y-60866556D01*
X132667176Y-60872278D01*
X132667177Y-60872279D01*
X132737662Y-60994362D01*
X132754400Y-61063357D01*
X132731180Y-61130449D01*
X132717638Y-61146457D01*
X132401347Y-61462748D01*
X132393061Y-61470288D01*
X132386582Y-61474400D01*
X132381157Y-61480177D01*
X132339957Y-61524051D01*
X132337202Y-61526893D01*
X132317465Y-61546630D01*
X132314985Y-61549827D01*
X132307282Y-61558847D01*
X132277014Y-61591079D01*
X132273195Y-61598025D01*
X132273193Y-61598028D01*
X132267252Y-61608834D01*
X132256401Y-61625353D01*
X132243986Y-61641359D01*
X132240841Y-61648628D01*
X132240838Y-61648632D01*
X132226426Y-61681937D01*
X132221209Y-61692587D01*
X132199905Y-61731340D01*
X132197934Y-61739015D01*
X132197934Y-61739016D01*
X132194867Y-61750962D01*
X132188463Y-61769666D01*
X132180419Y-61788255D01*
X132179180Y-61796078D01*
X132179177Y-61796088D01*
X132173501Y-61831924D01*
X132171095Y-61843544D01*
X132160100Y-61886370D01*
X132160100Y-61906624D01*
X132158549Y-61926334D01*
X132155380Y-61946343D01*
X132156126Y-61954235D01*
X132159541Y-61990361D01*
X132160100Y-62002219D01*
X132160100Y-63417033D01*
X132159573Y-63428216D01*
X132157898Y-63435709D01*
X132158147Y-63443635D01*
X132158147Y-63443636D01*
X132160038Y-63503786D01*
X132160100Y-63507745D01*
X132160100Y-63535656D01*
X132160597Y-63539590D01*
X132160597Y-63539591D01*
X132160605Y-63539656D01*
X132161538Y-63551493D01*
X132162927Y-63595689D01*
X132168578Y-63615139D01*
X132172587Y-63634500D01*
X132175126Y-63654597D01*
X132178045Y-63661968D01*
X132178045Y-63661970D01*
X132191404Y-63695712D01*
X132195249Y-63706942D01*
X132207582Y-63749393D01*
X132211615Y-63756212D01*
X132211617Y-63756217D01*
X132217893Y-63766828D01*
X132226588Y-63784576D01*
X132234048Y-63803417D01*
X132238710Y-63809833D01*
X132238710Y-63809834D01*
X132260036Y-63839187D01*
X132266552Y-63849107D01*
X132281602Y-63874554D01*
X132289058Y-63887162D01*
X132303379Y-63901483D01*
X132316219Y-63916516D01*
X132328128Y-63932907D01*
X132334234Y-63937958D01*
X132362205Y-63961098D01*
X132370984Y-63969088D01*
X134493401Y-66091505D01*
X134527427Y-66153817D01*
X134522362Y-66224632D01*
X134479815Y-66281468D01*
X134413295Y-66306279D01*
X134404306Y-66306600D01*
X134015743Y-66306600D01*
X133947622Y-66286598D01*
X133906624Y-66243600D01*
X133902570Y-66236577D01*
X133827040Y-66105756D01*
X133814209Y-66091505D01*
X133703675Y-65968745D01*
X133703674Y-65968744D01*
X133699253Y-65963834D01*
X133544752Y-65851582D01*
X133538724Y-65848898D01*
X133538722Y-65848897D01*
X133376319Y-65776591D01*
X133376318Y-65776591D01*
X133370288Y-65773906D01*
X133276888Y-65754053D01*
X133189944Y-65735572D01*
X133189939Y-65735572D01*
X133183487Y-65734200D01*
X132992513Y-65734200D01*
X132986061Y-65735572D01*
X132986056Y-65735572D01*
X132899112Y-65754053D01*
X132805712Y-65773906D01*
X132799682Y-65776591D01*
X132799681Y-65776591D01*
X132637278Y-65848897D01*
X132637276Y-65848898D01*
X132631248Y-65851582D01*
X132476747Y-65963834D01*
X132472326Y-65968744D01*
X132472325Y-65968745D01*
X132370621Y-66081699D01*
X132310175Y-66118939D01*
X132250789Y-66120636D01*
X132195990Y-66108989D01*
X132180987Y-66105800D01*
X131990013Y-66105800D01*
X131983561Y-66107172D01*
X131983556Y-66107172D01*
X131920215Y-66120636D01*
X131803212Y-66145506D01*
X131797185Y-66148189D01*
X131797177Y-66148192D01*
X131725248Y-66180217D01*
X131654881Y-66189651D01*
X131590584Y-66159544D01*
X131552771Y-66099455D01*
X131548000Y-66065110D01*
X131548000Y-65727115D01*
X131543525Y-65711876D01*
X131542135Y-65710671D01*
X131534452Y-65709000D01*
X128412000Y-65709000D01*
X128343879Y-65688998D01*
X128297386Y-65635342D01*
X128286000Y-65583000D01*
X128286000Y-65182885D01*
X128794000Y-65182885D01*
X128798475Y-65198124D01*
X128799865Y-65199329D01*
X128807548Y-65201000D01*
X131529884Y-65201000D01*
X131545123Y-65196525D01*
X131546328Y-65195135D01*
X131547999Y-65187452D01*
X131547999Y-62910331D01*
X131547629Y-62903510D01*
X131542105Y-62852648D01*
X131538479Y-62837396D01*
X131493324Y-62716946D01*
X131484786Y-62701351D01*
X131408285Y-62599276D01*
X131395724Y-62586715D01*
X131293649Y-62510214D01*
X131278054Y-62501676D01*
X131157606Y-62456522D01*
X131142351Y-62452895D01*
X131091486Y-62447369D01*
X131084672Y-62447000D01*
X128812115Y-62447000D01*
X128796876Y-62451475D01*
X128795671Y-62452865D01*
X128794000Y-62460548D01*
X128794000Y-65182885D01*
X128286000Y-65182885D01*
X128286000Y-62465116D01*
X128281525Y-62449877D01*
X128280135Y-62448672D01*
X128272452Y-62447001D01*
X126662364Y-62447001D01*
X126594243Y-62426999D01*
X126547750Y-62373343D01*
X126537054Y-62334172D01*
X126531732Y-62283536D01*
X126531732Y-62283535D01*
X126531042Y-62276972D01*
X126527650Y-62266531D01*
X126474069Y-62101629D01*
X126472027Y-62095344D01*
X126376540Y-61929956D01*
X126328767Y-61876898D01*
X126253175Y-61792945D01*
X126253174Y-61792944D01*
X126248753Y-61788034D01*
X126094252Y-61675782D01*
X126088224Y-61673098D01*
X126088222Y-61673097D01*
X125925819Y-61600791D01*
X125925818Y-61600791D01*
X125919788Y-61598106D01*
X125826388Y-61578253D01*
X125739444Y-61559772D01*
X125739439Y-61559772D01*
X125732987Y-61558400D01*
X125542013Y-61558400D01*
X125535561Y-61559772D01*
X125535556Y-61559772D01*
X125448612Y-61578253D01*
X125355212Y-61598106D01*
X125349182Y-61600791D01*
X125349181Y-61600791D01*
X125186778Y-61673097D01*
X125186776Y-61673098D01*
X125180748Y-61675782D01*
X125026247Y-61788034D01*
X125021826Y-61792944D01*
X125021825Y-61792945D01*
X124946234Y-61876898D01*
X124898460Y-61929956D01*
X124802973Y-62095344D01*
X124743958Y-62276972D01*
X124743268Y-62283533D01*
X124743268Y-62283535D01*
X124735676Y-62355769D01*
X124723996Y-62466900D01*
X124724686Y-62473465D01*
X124741822Y-62636502D01*
X124743958Y-62656828D01*
X124802973Y-62838456D01*
X124806276Y-62844178D01*
X124806277Y-62844179D01*
X124811167Y-62852648D01*
X124898460Y-63003844D01*
X124971637Y-63085115D01*
X125002353Y-63149121D01*
X125004000Y-63169424D01*
X125004000Y-66815905D01*
X124983998Y-66884026D01*
X124930342Y-66930519D01*
X124860068Y-66940623D01*
X124795488Y-66911129D01*
X124788905Y-66905000D01*
X123035705Y-65151800D01*
X123001679Y-65089488D01*
X122998800Y-65062705D01*
X122998800Y-64376793D01*
X123001032Y-64353184D01*
X123001090Y-64352881D01*
X123001090Y-64352877D01*
X123002575Y-64345094D01*
X122999049Y-64289049D01*
X122998800Y-64281138D01*
X122998800Y-64265144D01*
X122996794Y-64249270D01*
X122996051Y-64241402D01*
X122994943Y-64223779D01*
X122992525Y-64185350D01*
X122989979Y-64177513D01*
X122984806Y-64154369D01*
X122984768Y-64154065D01*
X122984767Y-64154060D01*
X122983774Y-64146203D01*
X122980858Y-64138838D01*
X122980857Y-64138834D01*
X122963101Y-64093989D01*
X122960429Y-64086570D01*
X122943064Y-64033125D01*
X122938814Y-64026428D01*
X122938650Y-64026169D01*
X122927885Y-64005042D01*
X122927771Y-64004754D01*
X122927768Y-64004749D01*
X122924852Y-63997383D01*
X122920196Y-63990975D01*
X122920193Y-63990969D01*
X122891842Y-63951948D01*
X122887392Y-63945401D01*
X122857300Y-63897982D01*
X122851293Y-63892341D01*
X122835612Y-63874554D01*
X122835434Y-63874309D01*
X122835432Y-63874307D01*
X122830772Y-63867893D01*
X122824662Y-63862838D01*
X122787504Y-63832097D01*
X122781570Y-63826866D01*
X122746402Y-63793842D01*
X122746399Y-63793840D01*
X122740621Y-63788414D01*
X122733397Y-63784442D01*
X122713794Y-63771119D01*
X122713554Y-63770920D01*
X122713547Y-63770916D01*
X122707444Y-63765867D01*
X122656624Y-63741953D01*
X122649580Y-63738364D01*
X122606794Y-63714842D01*
X122556737Y-63664499D01*
X122542233Y-63590821D01*
X122542565Y-63587770D01*
X122547677Y-63540710D01*
X122548131Y-63536531D01*
X122548500Y-63533134D01*
X122548500Y-62536866D01*
X122541745Y-62474684D01*
X122530328Y-62444229D01*
X122525145Y-62373423D01*
X122530326Y-62355776D01*
X122541745Y-62325316D01*
X122548500Y-62263134D01*
X122548500Y-61266866D01*
X122548132Y-61263480D01*
X122548015Y-61261317D01*
X122564302Y-61192214D01*
X122615364Y-61142886D01*
X122673830Y-61128500D01*
X122939000Y-61128500D01*
X123007121Y-61148502D01*
X123026347Y-61164843D01*
X123026620Y-61164540D01*
X123031532Y-61168963D01*
X123035947Y-61173866D01*
X123190448Y-61286118D01*
X123196476Y-61288802D01*
X123196478Y-61288803D01*
X123294388Y-61332395D01*
X123364912Y-61363794D01*
X123452385Y-61382387D01*
X123545256Y-61402128D01*
X123545261Y-61402128D01*
X123551713Y-61403500D01*
X123742687Y-61403500D01*
X123749139Y-61402128D01*
X123749144Y-61402128D01*
X123842015Y-61382387D01*
X123929488Y-61363794D01*
X124000012Y-61332395D01*
X124097922Y-61288803D01*
X124097924Y-61288802D01*
X124103952Y-61286118D01*
X124258453Y-61173866D01*
X124283132Y-61146457D01*
X124381821Y-61036852D01*
X124381822Y-61036851D01*
X124386240Y-61031944D01*
X124481727Y-60866556D01*
X124540742Y-60684928D01*
X124545543Y-60639255D01*
X124560014Y-60501565D01*
X124560704Y-60495000D01*
X124555142Y-60442079D01*
X124541432Y-60311635D01*
X124541432Y-60311633D01*
X124540742Y-60305072D01*
X124481727Y-60123444D01*
X124386240Y-59958056D01*
X124372270Y-59942540D01*
X124262875Y-59821045D01*
X124262874Y-59821044D01*
X124258453Y-59816134D01*
X124103952Y-59703882D01*
X124097924Y-59701198D01*
X124097922Y-59701197D01*
X123935519Y-59628891D01*
X123935518Y-59628891D01*
X123929488Y-59626206D01*
X123755585Y-59589242D01*
X123693113Y-59555514D01*
X123658791Y-59493364D01*
X123663519Y-59422525D01*
X123672664Y-59402995D01*
X123740223Y-59285979D01*
X123740224Y-59285978D01*
X123743527Y-59280256D01*
X123802542Y-59098628D01*
X123806080Y-59064972D01*
X123821814Y-58915265D01*
X123822504Y-58908700D01*
X123802542Y-58718772D01*
X123743527Y-58537144D01*
X123648040Y-58371756D01*
X123632804Y-58354834D01*
X123524675Y-58234745D01*
X123524674Y-58234744D01*
X123520253Y-58229834D01*
X123421157Y-58157836D01*
X123371094Y-58121463D01*
X123371093Y-58121462D01*
X123365752Y-58117582D01*
X123359724Y-58114898D01*
X123359722Y-58114897D01*
X123197319Y-58042591D01*
X123197318Y-58042591D01*
X123191288Y-58039906D01*
X123103505Y-58021247D01*
X123041032Y-57987518D01*
X123006710Y-57925369D01*
X123011438Y-57854530D01*
X123053714Y-57797492D01*
X123120115Y-57772365D01*
X123129702Y-57772000D01*
X143918806Y-57772000D01*
X143986927Y-57792002D01*
G37*
%TD.AperFunction*%
%TA.AperFunction,Conductor*%
G36*
X149904032Y-63200924D02*
G01*
X149949095Y-63229885D01*
X150970475Y-64251265D01*
X150979386Y-64256131D01*
X151029588Y-64306334D01*
X151045000Y-64366718D01*
X151045000Y-64997964D01*
X151024998Y-65066085D01*
X150971342Y-65112578D01*
X150901068Y-65122682D01*
X150836488Y-65093188D01*
X150825806Y-65082764D01*
X150793145Y-65046870D01*
X150789670Y-65043051D01*
X150785619Y-65039852D01*
X150785615Y-65039848D01*
X150618414Y-64907800D01*
X150618410Y-64907798D01*
X150614359Y-64904598D01*
X150572569Y-64881529D01*
X150522598Y-64831097D01*
X150507826Y-64761654D01*
X150532942Y-64695248D01*
X150560293Y-64668642D01*
X150609247Y-64633723D01*
X150617648Y-64623023D01*
X150610660Y-64609870D01*
X149872812Y-63872022D01*
X149858868Y-63864408D01*
X149857035Y-63864539D01*
X149850420Y-63868790D01*
X149106737Y-64612473D01*
X149099977Y-64624853D01*
X149105258Y-64631907D01*
X149151969Y-64659203D01*
X149200693Y-64710841D01*
X149213764Y-64780624D01*
X149187033Y-64846396D01*
X149146584Y-64879752D01*
X149133607Y-64886507D01*
X149129474Y-64889610D01*
X149129471Y-64889612D01*
X149109512Y-64904598D01*
X149035744Y-64959985D01*
X149028678Y-64965290D01*
X148962193Y-64990196D01*
X148892798Y-64975204D01*
X148863930Y-64953625D01*
X148576119Y-64665814D01*
X148542093Y-64603502D01*
X148547158Y-64532687D01*
X148557954Y-64510603D01*
X148608275Y-64428968D01*
X148608276Y-64428966D01*
X148612115Y-64422738D01*
X148636913Y-64347975D01*
X148677342Y-64289616D01*
X148706630Y-64271934D01*
X148745694Y-64255096D01*
X149770905Y-63229885D01*
X149833217Y-63195859D01*
X149904032Y-63200924D01*
G37*
%TD.AperFunction*%
%TA.AperFunction,Conductor*%
G36*
X122756419Y-57792002D02*
G01*
X122802912Y-57845658D01*
X122813016Y-57915932D01*
X122783522Y-57980512D01*
X122723796Y-58018896D01*
X122714494Y-58021247D01*
X122626712Y-58039906D01*
X122620682Y-58042591D01*
X122620681Y-58042591D01*
X122458278Y-58114897D01*
X122458276Y-58114898D01*
X122452248Y-58117582D01*
X122446907Y-58121462D01*
X122446906Y-58121463D01*
X122359543Y-58184936D01*
X122285482Y-58209000D01*
X120912000Y-58209000D01*
X120843879Y-58188998D01*
X120797386Y-58135342D01*
X120786000Y-58083000D01*
X120786000Y-57898000D01*
X120806002Y-57829879D01*
X120859658Y-57783386D01*
X120912000Y-57772000D01*
X122688298Y-57772000D01*
X122756419Y-57792002D01*
G37*
%TD.AperFunction*%
%TD*%
M02*
